<svg xmlns="http://www.w3.org/2000/svg" fill="none" viewBox="0 0 101 18" height="18" width="101">
<g clip-path="url(#clip0_274_5610)">
<path fill="#00B1B0" d="M0 0H6.24203C11.1479 0 12.0637 3.29027 12.0637 8.90118C12.0637 11.668 12.4841 18 6.09322 18H0V0ZM3.74 15.2331H5.54864C7.82823 15.2331 8.2731 13.5131 8.2731 9C8.2731 5.68348 8.2731 2.76686 5.67136 2.76686H3.73847V15.2316L3.74 15.2331Z"></path>
<path fill="#00B1B0" d="M11.4131 18L16.368 0H21.2985L26.1537 18H22.2158L21.2248 14.0103H16.1211L15.1055 18H11.4146H11.4131ZM18.6216 3.46475H18.5725L16.8635 11.2434H20.4302L18.6216 3.46475Z"></path>
<path fill="#00B1B0" d="M23.1855 0H27.0743L29.8479 13.0885H29.897L33.0203 0H36.7112L31.9802 18H27.5959L23.1855 0Z"></path>
<path fill="#00B1B0" d="M37.7695 18V0H41.5095V18H37.7695Z"></path>
<path fill="#00B1B0" d="M42.8638 0H49.1059C54.0117 0 54.9276 3.29027 54.9276 8.90118C54.9276 11.668 55.3494 18 48.9571 18H42.8623V0H42.8638ZM46.6038 15.2331H48.4125C50.6921 15.2331 51.1385 13.5131 51.1385 9C51.1385 5.68348 51.1385 2.76686 48.5367 2.76686H46.6038V15.2316V15.2331Z"></path>
<path fill="#00B1B0" d="M73.8353 0V2.99228H69.3298V18H65.5898V2.99228H60.3955V0H73.8353Z"></path>
<path fill="#00B1B0" d="M74.8809 18V0H84.6404V2.76686H78.6209V7.20432H84.1695V9.97118H78.6209V15.2316H84.8383V17.9985H74.8809V18Z"></path>
<path fill="#00B1B0" d="M85.7012 18L90.6546 0H95.5835L100.439 18H96.5008L95.5099 14.0103H90.4076L89.3921 18H85.7012ZM92.9097 3.46475H92.8606L91.1516 11.2434H94.7183L92.9097 3.46475Z"></path>
<path fill="#00B1B0" d="M58.9642 13.7479C58.9427 14.3176 58.9642 14.8596 59.1068 15.2564C59.271 15.6516 59.5793 15.8493 60.1531 15.8493C60.7268 15.8493 61.2192 15.4046 61.2192 14.5631C61.2192 11.9182 56.1323 12.5127 56.1323 8.53223C56.1323 5.83794 58.3475 5.02271 60.2129 5.02271C62.1811 5.02271 63.9667 6.16064 63.8025 8.85338H60.9722C60.9722 7.98874 60.8909 7.46841 60.6854 7.24607C60.5013 7.02373 60.2543 6.97433 59.9475 6.97433C59.3109 6.97433 58.9626 7.46841 58.9626 8.30989C58.9626 10.2878 64.048 10.1874 64.048 14.1925C64.048 16.368 62.5707 17.9985 60.1715 17.9985C57.6495 17.9985 55.9666 17.2327 56.1323 13.7463H58.9626L58.9642 13.7479Z"></path>
</g>
<defs>
<clipPath id="clip0_274_5610">
<rect fill="white" height="18" width="100.44"></rect>
</clipPath>
</defs>
</svg>
