<?xml version="1.0" encoding="UTF-8"?><svg id="Layer_2" xmlns="http://www.w3.org/2000/svg" viewBox="0 0 336.47 57.09"><defs><style>.cls-1{fill:#222;stroke-width:0px;}</style></defs><g id="Layer_1-2"><path class="cls-1" d="m19.87,47.25c0,3.79,3.19,5.9,7.52,5.9,9.33,0,13.21-1.02,18.37-4.98,5.49-4.22,7.78-9.51,7.78-18.84,0-10.15-3.34-16.65-9.05-21.39-3.75-3.21-8.74-4.88-15.7-4.88,0,0-6.05.09-9.11.21-2.85.12-4.61.12-6.53.22-.18,0-.23.25-.08.33,3.46,1.75,6.8,5.6,6.8,14.59v28.83ZM0,1.83s2.84-.13,4.45-.13c4.88,0,13.07-.84,25.73-.84,20.65,0,35.05,10.37,35.05,28.04,0,15.56-14.39,26.22-30.87,26.22H0v-1.64h3.07c2.5,0,4.03-.56,5.28-1.95,1.41-1.53,1.67-3.2,1.67-8.49V14.48c0-4.45-.13-5.99-.82-7.52-1.12-2.09-2.8-3.21-6.13-3.34H0v-1.79Z"/><path class="cls-1" d="m120.25,55.33c13.12,0,21.3-6.5,21.3-26.63,0-17.12-7.31-26.67-20.75-26.67s-20.47,9.69-20.47,27.25c0,19.49,6.82,26.05,19.92,26.05M121.08.17c18.1,0,32.07,10.92,32.07,28.88s-14.39,28.04-32.9,28.04-31.36-10.61-31.36-28.86C88.89,10.96,103.25.17,121.08.17"/><path class="cls-1" d="m195.67,1.36l39.19,41.21h.26s0-27.08,0-27.08c0-7.92-3.1-12.42-9.62-12.42h-.84v-1.71h24.62v1.71h-.97c-6.91,0-11.04,4.82-11.04,12.58v40.53l-2.79.03-44.93-47.62h-.27v33.44c0,6.11,2.82,11.57,9.74,11.57v1.53h-22.9v-1.45h1.81c4.84,0,9.2-5.12,9.2-11.67V12.14c0-4.86-.55-6.55-2.36-7.93-1.24-.98-2.66-1.11-8.35-1.11v-1.71l19.26-.03Z"/><path class="cls-1" d="m324.35,41.76L302.07,0h-3.61l-19.78,39.26c-4.82,9.16-7.38,13.93-13.64,14.35v1.53h21.52v-1.53c-4.73,0-7.23-2.92-7.23-5.99,0-2.23.27-3.2,1.94-7.1l3.5-6.86h30.78c.11,0,.15.13.06.2-2.46,1.9-3.21,6.04-1.93,8.87l.45,1s2,3.79,2.14,5.15c.25,2.38-2.37,4.74-5.02,4.74h-3.2v1.53h28.41v-1.53c-6.27-.42-7.94-3.06-12.12-11.85Zm-38.24-10.74l10.56-20.71,11.2,20.71h-21.76Z"/></g></svg>