<svg viewBox="0 0 259.505 51.068" height="51.068" width="259.505" xmlns="http://www.w3.org/2000/svg">
  <g transform="translate(-491.313 185.762)" data-name="Group 38" id="Group_38">
    <path fill="#43bb73" transform="translate(-31.916 -0.407)" d="M778.486-174.236a3.672,3.672,0,0,1-3.667-3.668,3.673,3.673,0,0,1,3.667-3.669,3.673,3.673,0,0,1,3.668,3.669,3.672,3.672,0,0,1-3.668,3.668m0-7.916a4.253,4.253,0,0,0-4.246,4.249,4.251,4.251,0,0,0,4.246,4.246,4.252,4.252,0,0,0,4.247-4.246,4.254,4.254,0,0,0-4.247-4.249" data-name="Path 8" id="Path_8"></path>
    <path fill="#43bb73" transform="translate(-32.235 -0.614)" d="M778.775-177.749h-.991v-1.9h1.047c.712,0,1.12.34,1.12.948s-.427.955-1.175.955m1.886-.991a1.517,1.517,0,0,0-.419-1.088,1.886,1.886,0,0,0-1.375-.492h-1.794v5.172h.711v-1.941h1l1.233,1.9.025.039h.85l-1.364-2.084a1.5,1.5,0,0,0,1.133-1.509" data-name="Path 9" id="Path_9"></path>
    <path fill="#43bb73" transform="translate(-7.901 -0.584)" d="M597.368-180.581H592.84a1.181,1.181,0,0,0-1.182,1.181v29.6l-23.845-30.331a1.183,1.183,0,0,0-.928-.452h-4.354a1.18,1.18,0,0,0-1.181,1.181v41.2a1.179,1.179,0,0,0,1.181,1.181h4.531a1.18,1.18,0,0,0,1.181-1.181v-30.371l24.493,31.1a1.178,1.178,0,0,0,.928.45h3.7a1.179,1.179,0,0,0,1.181-1.181v-41.2a1.18,1.18,0,0,0-1.181-1.181" data-name="Path 10" id="Path_10"></path>
    <path fill="#43bb73" transform="translate(-14.363 -0.495)" d="M654.716-148.671a1.182,1.182,0,0,0-1.641-.012c-3.53,3.373-7,5.618-12.486,5.618-8.28,0-14.766-6.952-14.766-15.828v-.117c0-8.957,6.349-15.71,14.766-15.71,4.574,0,8.2,1.593,12.135,5.325a1.116,1.116,0,0,0,.848.323,1.18,1.18,0,0,0,.829-.374l3.178-3.414a1.179,1.179,0,0,0-.054-1.663c-3.776-3.56-8.434-6.854-16.875-6.854-12.345,0-22.014,9.878-22.014,22.485v.118c0,12.753,9.388,22.367,21.836,22.367,8.663,0,13.618-3.836,17.321-7.589a1.183,1.183,0,0,0,.339-.839,1.178,1.178,0,0,0-.352-.833Z" data-name="Path 11" id="Path_11"></path>
    <path fill="#43bb73" transform="translate(-21.32 -0.584)" d="M713.757-180.581h-4.54a1.168,1.168,0,0,0-1.152,1.181v17.122H687.158V-179.4a1.168,1.168,0,0,0-1.152-1.181h-4.539a1.169,1.169,0,0,0-1.153,1.181v41.2a1.167,1.167,0,0,0,1.153,1.181h4.539a1.167,1.167,0,0,0,1.152-1.181v-17.356h20.907v17.356a1.167,1.167,0,0,0,1.152,1.181h4.54a1.165,1.165,0,0,0,1.152-1.181v-41.2a1.167,1.167,0,0,0-1.152-1.181" data-name="Path 12" id="Path_12"></path>
    <path fill="#43bb73" transform="translate(-27.234 -0.547)" d="M762.353-154.489H747.221l7.59-16.933Zm14.545,15.76-18.773-41.489a1.182,1.182,0,0,0-1.076-.695h-4.354a1.175,1.175,0,0,0-1.075.695l-18.775,41.489a1.179,1.179,0,0,0,.083,1.126,1.186,1.186,0,0,0,.993.541h4.767a1.18,1.18,0,0,0,1.077-.7l4.573-10.189h20.89l4.516,10.184a1.175,1.175,0,0,0,1.08.7h5a1.178,1.178,0,0,0,.991-.541,1.179,1.179,0,0,0,.084-1.126" data-name="Path 13" id="Path_13"></path>
    <path fill="#43bb73" transform="translate(0)" d="M498.081-161.028c-.045.256-.1.511-.134.768a9.147,9.147,0,0,0,.312,3.187c.253.053.233-.25.471-.215a5.638,5.638,0,0,1,.511,1.985,3.455,3.455,0,0,1,.186,2.064.389.389,0,0,0,.122.431c.474.258.385.667.379,1.085a1.927,1.927,0,0,0,.254.815,16.563,16.563,0,0,0,2.173,3.7c.338.409.528.94,1.031,1.217a.3.3,0,0,1,.166.4c-.253.462.049.432.324.356s.356.063.471.264a1.492,1.492,0,0,0,1.655.924c.315-.056.64.092.481.559-.027.076.034.147.161.222.232-.146.469-.391.841-.147.334.22.009.468.112.7a1.109,1.109,0,0,0,.224-.036c.152-.059.333-.285.415.047.047.19-.071.449-.261.389-.738-.232-.918.517-1.577.727a17.918,17.918,0,0,0,2.1.973,30.852,30.852,0,0,0,3.686,1.03,24.737,24.737,0,0,0,7.916.312c.206-.014.488.018.543-.215.121-.511.421-.35.71-.235a1.449,1.449,0,0,0,.992.018,2.066,2.066,0,0,1,1.076-.109.656.656,0,0,0,.655-.172c.359-.458.931-.434,1.385-.667a.669.669,0,0,1,.455-.022,1.355,1.355,0,0,0,1.673-.822c.037-.066.078-.151.139-.18.575-.263,1-.751,1.55-1.038.461-.241.93-.462,1.372-.743.143-.09.413-.4.5.1.028.159.169.042.238-.01a14.821,14.821,0,0,0,2.6-2.231,13.975,13.975,0,0,1,.994-.991,21.81,21.81,0,0,0,1.784-2.173,2.466,2.466,0,0,1,.76-.772.654.654,0,0,0,.216-.221c.114-.17.29-.381.075-.55s-.249.216-.437.211c-.158-.777-.13-.822.5-1.242.272-.183.659-.227.777-.609.1-.2.2-.405.3-.609.15,0,.325.054.42-.117a9.606,9.606,0,0,0,1.373-3.671c.042-.4.35-.692.436-1.109.312.336,0,.687.133,1.2.226-.839.392-1.507.588-2.166s.091-1.4.576-1.978c.274.159.207.374.176.572a25.986,25.986,0,0,1-.614,3.376,5.028,5.028,0,0,0-.107.771q-.148.447-.3.9a8.591,8.591,0,0,0-.815,1.853c-.565,1.262-1.213,2.478-1.869,3.693-.085.157-.247.3-.184.5a1.471,1.471,0,0,1-.386,1.3,13.856,13.856,0,0,1-2.316,2.83c-.059.051-.128.095-.31.021.58-.987,1.546-1.683,2.132-2.732-.337-.059-.4.139-.5.266a28.7,28.7,0,0,1-5.471,5.22,23.691,23.691,0,0,1-7.172,3.564c-.2.06-.449.049-.259.4.047.089-.268.208-.44.249a26.824,26.824,0,0,1-5.386.911c-.571.02-1.141.121-1.711.12a31.078,31.078,0,0,1-6.9-.758,1.729,1.729,0,0,0-.705-.12c0,.219.191.2.308.248a17.813,17.813,0,0,0,3.96.885,28.354,28.354,0,0,0,3.432.193,30.583,30.583,0,0,0,7.119-.9c1.066-.247,2.154-.4,3.2-.728a22.3,22.3,0,0,0,7.116-4.007,29.012,29.012,0,0,0,3.867-3.86,2.52,2.52,0,0,0,.62-.985l-.005.008a2.938,2.938,0,0,0,.9-1.058,9.936,9.936,0,0,0,1.459-2.553l-.008.011a13.706,13.706,0,0,0,.955-1.75.882.882,0,0,1,.029.821,11.516,11.516,0,0,1-2.064,4.185,32.109,32.109,0,0,1-3.627,4.2,28.185,28.185,0,0,1-13,7.178c-1.529.368-3.083.514-4.629.744a15.287,15.287,0,0,1-2.415.142,29.351,29.351,0,0,1-10.542-2.026,23.18,23.18,0,0,1-4.338-2.324c-.5-.333-.984-.69-1.5-1a8.1,8.1,0,0,1-2.128-1.931c-.887-1.091-1.883-2.1-2.717-3.228a19.091,19.091,0,0,1-2.449-5.14,31.7,31.7,0,0,1-1.354-6.815,7.165,7.165,0,0,1-.019-.782,11.772,11.772,0,0,0-.138-2.1,9.173,9.173,0,0,1,.17-2.718,9.885,9.885,0,0,0,.422-2.264c.532-.679.091-1.673.748-2.313a.243.243,0,0,0,.059-.145c.13-1.465,1.194-2.555,1.568-3.929a4.351,4.351,0,0,1,.9-1.943.314.314,0,0,0,.051-.3c-.09-.364.08-.51.415-.428a.37.37,0,0,0,.465-.169c.047-.075.152-.236,0-.227-.625.035-.265-.27-.154-.442a7.357,7.357,0,0,1,.652-.88A10.332,10.332,0,0,0,498-177.713a2.283,2.283,0,0,1,.252-.391.212.212,0,0,1,.28-.051.151.151,0,0,1,.061.2c-.123.244-.177.476.188.51.311.028.777-.413.68-.684-.148-.414.044-.492.363-.588a8.868,8.868,0,0,0,2.376-1.326c.928-.63,1.833-1.3,2.813-1.844.437-.244.6-.794,1.11-.951.142-.044.264-.22.417-.19.573.111,1-.232,1.466-.441a25.58,25.58,0,0,1,8.433-2.22,17,17,0,0,1,3.895.075,19.145,19.145,0,0,1,3.989,1.322,20.658,20.658,0,0,1,2.626,1.349.749.749,0,0,0,.5.157c.72-.106.771-.052.743.724.285-.027.565-.249.854-.053.148.1.38.144.366.357-.017.274-.337.009-.46.251.247.288.5.61.783.9.7.735,1.153,1.674,1.911,2.364a.255.255,0,0,1,.106.271,1.122,1.122,0,0,0,.489,1.146.768.768,0,0,1,.291.531c.012.221.02.382.287.13.144-.137.2.063.238.185a.678.678,0,0,1-.085.448,1.222,1.222,0,0,0-.013.971c.252-.057.063-.316.265-.389a.5.5,0,0,1,.272.565,5.572,5.572,0,0,0,.171,1.123,17.024,17.024,0,0,1,.293,2.522,1.238,1.238,0,0,1-.054.46.9.9,0,0,0,.032,1.089c.119.156.025.357-.039.526-.295.789-.322,1.638-.558,2.439a.663.663,0,0,0,.249.77c.275-.1.261-.515.58-.572.028.068.078.133.062.159-.46.741-.342,1.648-.705,2.418a21.24,21.24,0,0,0-.89,2.421,6.842,6.842,0,0,1-.8,1.428,4.764,4.764,0,0,0-.638,1.585,2.4,2.4,0,0,1-1.293,1.668c-.616.339-.94.967-1.439,1.42-.114.1-.183.308-.307.342-.949.272-1.564,1.1-2.456,1.456a1.343,1.343,0,0,1-.977.167c.029.875-.177,1.1-.985.97a1.436,1.436,0,0,0-1.171.3,3.244,3.244,0,0,1-1.342.593c-.042.255.326.163.3.435a1.043,1.043,0,0,1-.934.042c-.519-.172-.606-.127-.85.381a.31.31,0,0,1-.3.193,1.562,1.562,0,0,1-.613-.1.814.814,0,0,0-.687.012c-.409.286-.782.5-1.27.169-.1-.069-.26.02-.293.173-.116.552-.492.367-.789.247a4.014,4.014,0,0,0-.774-.358c-.238-.043-.527-.263-.485.254.011.14-.182.175-.312.14-1.112-.3-2.267-.114-3.395-.337a14.42,14.42,0,0,1-5.085-1.686,6.934,6.934,0,0,1-1.136-.955,4.449,4.449,0,0,0-1.348-1.16c-.215-.089-.734-.344-.279-.82.11-.115-.027-.287-.154-.4-.189-.165-.483-.219-.556-.5.038-.19.189-.194.307-.169a.99.99,0,0,0,.845-.284c.54-.409.734-1.052,1.13-1.557a.56.56,0,0,0-.015-.6c-.2-.353-.011-.539.285-.669a1.4,1.4,0,0,1,1.135-.092,1.067,1.067,0,0,0,1.275-.24.467.467,0,0,1,.329-.177c1.233-.067,2.386-.575,3.6-.687s2.383-.558,3.621-.6a3.531,3.531,0,0,0,1.34-.4c.846-.4,1.7-.8,2.544-1.2a13.386,13.386,0,0,0,2.917-1.919,5.664,5.664,0,0,0,1.5-1.65,2.617,2.617,0,0,1,.851-1,4.982,4.982,0,0,0,1.821-2.837,21.973,21.973,0,0,0,.617-2.174c.138-.557.45-1.266-.153-1.844a.97.97,0,0,1-.157-.594,7.907,7.907,0,0,0-.584-1.774.364.364,0,0,0-.127-.187c-.688-.479-1.172-1.188-1.867-1.663-.193-.131-.339-.224-.555-.077a.592.592,0,0,1-.887-.2,1.038,1.038,0,0,0-1.348-.452,6.535,6.535,0,0,1-2-.007.508.508,0,0,1-.413-.193,1.2,1.2,0,0,0-1.129-.393,5.021,5.021,0,0,1-1.87.034c-.177-.059-.574.286-.421-.293.019-.069-.312-.036-.36.106-.183.546-.454.661-.915.275-.13-.111-.306-.02-.449.034-.777.295-1.551.6-2.325.9-.049.019-.127.028-.14.061-.286.732-1.025.806-1.6,1.112a.282.282,0,0,0-.19.283c.273.04.47-.17.7-.231.129-.035.261-.069.356.06a.26.26,0,0,1-.025.355c-.238.269-.4.6-.758.769a10.03,10.03,0,0,0-.86.543c-.155.091-.364.246-.492.2a1.154,1.154,0,0,0-1.337.51c-.122.139-.373.173-.569.244a.8.8,0,0,0-.551.515,2.2,2.2,0,0,1-.788,1.048,15.341,15.341,0,0,0-2.592,3.212,8.973,8.973,0,0,0-1.456,2.118,23.953,23.953,0,0,0-1.219,4.191c-.222,1.485-.425,2.97-.555,4.467a.908.908,0,0,1-.288.728,1.933,1.933,0,0,1-.117-.873c-.046-.428.154-.885-.185-1.277-.115-.132.067-.218.117-.326.143-.311.173-.607-.207-.788-.007-.1-.022-.218.067-.287.464-.358.486-.452.212-1.051a1.5,1.5,0,0,1-.229.389c-.218.194-.159-.3-.409-.16.094.374-.044.818.362,1.1" data-name="Path 14" id="Path_14"></path>
    <path fill="#43bb73" transform="translate(-5.199 -3.805)" d="M542.561-152.035c.469.8-.236,1.371-.374,2.084.422-.092.32-.641.663-.754.2.169.042.3,0,.428a11.179,11.179,0,0,0-.5,1.629c-.087.485-.286.963-.888,1.065a.421.421,0,0,0-.272.129c-.4.7-1.058,1.182-1.485,1.874a10.107,10.107,0,0,1-1.8,2.049,1.156,1.156,0,0,1-.258.173.153.153,0,0,1-.208-.04.254.254,0,0,1-.014-.213,3.561,3.561,0,0,1,.706-.722,6.259,6.259,0,0,0,1.646-1.954c.448-1.079,1.125-2.028,1.617-3.077a2.788,2.788,0,0,0,.391-1.17,2.281,2.281,0,0,1,.784-1.5" data-name="Path 15" id="Path_15"></path>
    <path fill="#43bb73" transform="translate(-2.86 -5.594)" d="M527.09-136.165l.157,0c.248,0,.532.036.515.338-.019.328-.329.24-.557.246a5.033,5.033,0,0,0-1.383.233,13.725,13.725,0,0,1-4.754.756,2.942,2.942,0,0,0-1.455.21c-.368.185-.854-.138-1.134.307a.072.072,0,0,1-.073.006c-.418-.466-1.059-.29-1.738-.565.7-.245,1.267-.081,1.817-.248-.246-.027-.491-.071-.737-.079a.5.5,0,0,1-.448-.258c-.121-.2-.039-.358.2-.37a.15.15,0,0,1,.077,0,8.249,8.249,0,0,0,2.032.376,8.31,8.31,0,0,0,2.472.078,17.589,17.589,0,0,0,4.371-.775,2.833,2.833,0,0,0,.648-.268Z" data-name="Path 16" id="Path_16"></path>
    <path fill="#43bb73" transform="translate(-6.289 -3.863)" d="M547.6-146.362c-.159.072-.3.224-.5.124a.31.31,0,0,1,.035-.366c.453-.6.459-1.371.818-2a.484.484,0,0,0,.073-.3c-.2-1,.521-1.69.862-2.505.013-.033.087-.04.24-.1-.3.739-.082,1.467-.447,2.177a9.635,9.635,0,0,0-1.091,2.984l.008-.01" data-name="Path 17" id="Path_17"></path>
    <path fill="#43bb73" transform="translate(-5.118 -5.472)" d="M536.679-135.368a.837.837,0,0,1,.6-.321c.458-.127.9-.215.829-.9-.042-.416.661-.746,1.315-.656-.515.472-.718,1.131-1.307,1.52a1.817,1.817,0,0,1-1.441.354" data-name="Path 18" id="Path_18"></path>
    <path fill="#43bb73" transform="translate(-2.629 -0.937)" d="M515.945-176.551a1.2,1.2,0,0,0-1.066.067.185.185,0,0,1-.254-.114c-.044-.119.048-.183.133-.246a2.5,2.5,0,0,1,1.252-.578c.248-.024.537-.153.594.262.05.36-.121.562-.524.6-.026,0-.051,0-.135.008" data-name="Path 19" id="Path_19"></path>
    <path fill="#43bb73" transform="translate(-6.02 -3.036)" d="M545.357-158.852a11.357,11.357,0,0,1-.625,4.276,5.307,5.307,0,0,1,.247-2.162,6.609,6.609,0,0,1,.379-2.114" data-name="Path 20" id="Path_20"></path>
    <path fill="#43bb73" transform="translate(-5.795 -4.93)" d="M544.759-141.692a5.788,5.788,0,0,0-1.412,1.416c-.171.2-.3.47-.663.514a1.613,1.613,0,0,1,.65-1.207,11.673,11.673,0,0,0,1.015-.944c.289-.339.358-.011.4.229Z" data-name="Path 21" id="Path_21"></path>
    <path fill="#43bb73" transform="translate(-3.969 -5.499)" d="M528.21-136.266c-.57-.008-1.107.228-1.716.264a6.248,6.248,0,0,1,3.211-1.015c-.415.514-1.054.46-1.506.758l.012-.007" data-name="Path 22" id="Path_22"></path>
    <path fill="#43bb73" transform="translate(-5.941 -2.548)" d="M544.027-163.168c.2-.026.336.078.339.191a16.834,16.834,0,0,1-.017,3.213,3.374,3.374,0,0,1-.187-1.677,6.229,6.229,0,0,1-.135-1.727" data-name="Path 23" id="Path_23"></path>
    <path fill="#43bb73" transform="translate(-5.932 -3.262)" d="M544.227-156.844c.487.879.451,1.074-.281,1.844a2.87,2.87,0,0,1,.281-1.844" data-name="Path 24" id="Path_24"></path>
    <path fill="#43bb73" transform="translate(-6.169 -2.871)" d="M546.461-158.307a2.243,2.243,0,0,1-.389-2,4.3,4.3,0,0,1,.389,2" data-name="Path 25" id="Path_25"></path>
    <path fill="#43bb73" transform="translate(-6.475 -2.553)" d="M548.927-163.126a4.136,4.136,0,0,1,.336,1.927c-.237-.62-.883-1.153-.336-1.927" data-name="Path 26" id="Path_26"></path>
    <path fill="#43bb73" transform="translate(-6.101 -3.321)" d="M545.928-155.633a2.582,2.582,0,0,1,.057.326c.006.158,0,.334-.21.35s-.381-.059-.379-.288a4.937,4.937,0,0,1,.089-.847.264.264,0,0,1,.348-.22c.158.043.165.185.153.316s-.04.255-.058.363" data-name="Path 27" id="Path_27"></path>
    <path fill="#43bb73" transform="translate(-5.572 -1.711)" d="M540.754-170.6a3.414,3.414,0,0,1-.045,2.642c.185-.882-.1-1.763.045-2.642" data-name="Path 28" id="Path_28"></path>
    <path fill="#43bb73" transform="translate(-6.143 -4.366)" d="M545.769-145.14a3,3,0,0,1,.851-1.916,2.492,2.492,0,0,1-.851,1.916" data-name="Path 29" id="Path_29"></path>
    <path fill="#43bb73" transform="translate(-6.394 -3.761)" d="M548.029-151.019q.149-.45.3-.9c.087-.119.173-.239.366-.5a3.77,3.77,0,0,1-.577,1.968c-.2-.213-.073-.395-.085-.566" data-name="Path 30" id="Path_30"></path>
    <path fill="#43bb73" transform="translate(-5.974 -4.158)" d="M544.924-148.4c-.1.2-.2.406-.3.609-.365-.09-.381-.372-.332-.657.034-.193.109-.448.336-.452.315-.007.3.271.293.5" data-name="Path 31" id="Path_31"></path>
    <path fill="#43bb73" transform="translate(-6.265 -2.445)" d="M547.328-163.278a.506.506,0,0,1-.48-.506.313.313,0,0,1,.293-.305c.2-.032.435.355.4.641a.185.185,0,0,1-.212.169" data-name="Path 32" id="Path_32"></path>
  </g>
</svg>
