<svg viewBox="0 0 1200 288" version="1.1" xmlns="http://www.w3.org/2000/svg" id="Layer_1">

  <defs>
    <style>
      .st0 {
        fill: #312113;
      }
    </style>
  </defs>
  <path d="M662,200.7c-5.4,0-7.4,2.8-9.2,5.4l-.8,1.1c-15.5,20.6-40.5,32-70.4,32s-21.4-6-21.4-17.8c0-17.4,34.3-132.5,42.7-148,1.4-2.4,3.2-5.2,5.1-8.1,6-9.2,12.8-19.6,12.8-28.7s-10.8-14.1-20.9-14.1-14.7.7-21.8,1.4c-7,.7-14.2,1.4-21.3,1.4-1.4,0-2.8,0-4.2-.2-1.5,0-3-.2-4.5-.2-6,0-9.8,3.3-9.8,8.4,0,8.2,5,13.3,9.8,18.3,4.8,4.9,9.3,9.6,9.3,17.3,0,15.4-7.6,38.6-13.7,57.2-1.7,5.1-3.2,9.9-4.5,14.1-2,6.3-3.8,12.7-5.7,19.1-5.2,17.7-10.6,36-18.2,52.7-8.6,18.8-20,22-29.2,24.5-7.8,2.1-15.2,4.2-15.2,15.7s6.1,11.2,18.1,11.2,8.7-.3,12.9-.5c4.1-.3,8.4-.5,12.6-.5s9.5.2,14.3.4c4.8.2,9.6.4,14.5.4,13.2,0,26.7.3,39.8.5,13.1.3,26.6.5,39.9.5s16.3-.5,24.8-4.6c17.1-7.4,24.8-27.6,24.8-44.4s-5.7-14.5-10.5-14.5Z" class="st0"></path>
  <path d="M506.1,112.6c0-13.1-2.4-25.7-7.3-38.6-13.4-34.2-27.1-50.5-68.5-50.5s-32.1,3.9-48.1,11.4c-33.3,15.2-57.5,46.2-71.7,92-5.7,18-8.4,32.8-8.4,46.4,0,43.6,30.6,90.2,76.2,90.2s77-22.7,100.2-60.8c17.6-28.7,27.6-61.6,27.6-90ZM397.4,228.8c-3.3.7-6.6.7-9.8.7-27.1,0-38.6-15.3-38.6-51.2,0-94.4,47.6-119.4,72.7-119.4s41.5,30.8,41.5,56.6-25,104.1-65.8,113.3Z" class="st0"></path>
  <path d="M920.9,118.3c0-67.4-69.1-98.1-133.3-98.1s-53.2,1.4-53.2,19.1,10.3,9.7,18.5,10.7c3.9.4,9.7,1.1,10.5,2.5,1.9,3.1,2.1,7.1,2.1,10.9,0,15.9-7.1,34.2-13.3,50.5-1.3,3.4-2.6,6.8-3.8,10l-3.9,10.6c-4.9,13.4-9.9,27.2-14.5,41.1-.9,2.8-1.7,5.5-2.5,8.3-2.9,9.9-6,20.2-10.9,29.3-2.9,5.8-6.7,10.3-11.4,13.9-2.7,2.1-5.8,3.8-9.8,5.4-1,.4-2.1.9-3.3,1.3-6.1,2.4-15.2,5.9-15.2,12.9,0,15.2,19.8,15.2,26.3,15.2s12.2.3,18.2.5c6,.3,12.3.5,18.4.5s10.6-.3,15.7-.5c5.1-.3,10.3-.5,15.5-.5,64.7,0,103.1-11.6,133-74.7,10.3-21.9,16.8-48.3,16.8-68.9ZM856.2,195.1c-15,21.9-34.1,32.6-58.5,32.6s-35.4-.5-35.4-16.7,7.7-33.4,13.4-48.8c1.5-4.2,3-8.1,4.1-11.4,4-10.8,7.3-22.1,10.4-33.1l1.3-4.3c6-20.3,17.1-58.1,38.9-58.1,2.9,0,5.5.7,8.5,1.7,30.2,10.1,40.9,40.3,40.9,65.3s-8.8,50.8-23.6,72.8Z" class="st0"></path>
  <path d="M1080.5,22.4c-3.3,0-6.6.3-9.7.5-3.2.3-6.2.5-9.3.5-10.5,0-21.1-.9-31.4-1.8-10.4-.9-21.1-1.8-31.8-1.8-18.7,0-50,2-50,15.2s6.3,10.9,11.9,13.8c5.7,2.9,10.7,5.4,10.7,12.1,0,13.8-3.9,27.5-7.7,40.7l-1.6,5.6c-9.6,33.5-20.1,67.3-29.4,97.2-7.5,24.6-16.8,28.2-25.1,31.3-5.5,2.1-11.1,4.2-14.3,12.3-.2.9-.4,1.4-.5,1.9-.4,1.4-.8,2.9-.8,4.8,0,8.7,10.4,8.7,13.8,8.7s7.1.2,10.6.4c3.6.2,7.3.4,10.9.4s7.8-.4,11.7-.7c19.9-1.7,35.1-2.5,49.3-2.5,23.1,0,46.7,1.7,64.7,3.2,1.3,0,2.2.1,3.1.2,1,0,1.9.2,2.9.2,23,0,29.6-18.8,35.4-35.4.9-2.4,1.7-4.9,2.6-7.2l.3-.7c1.3-3,2.7-6.1,2.7-10s-3-7.3-6.9-7.3c-7.9,0-17.3,7.4-24.1,12.9-1.1.9-2.1,1.7-3,2.4-17.8,14.4-34.6,20.3-58,20.3s-37.6-1.6-37.6-21.4,2-15.7,4.1-23.7c.5-1.9,1-3.9,1.5-5.8.5-1.9.9-3.9,1.4-6,3.5-15.4,7.5-32.9,24-32.9s13.7,8.1,15.1,21.3c1,9.1,2.1,19.5,10,24.9,1.9,1,3.7,1.9,5.8,1.9,7.9,0,10.6-13.9,12.7-28,.2-1.7.4-3,.6-3.8,1.6-7.6,5-15.5,8.3-23.1,4.8-11.1,9.7-22.6,9.7-34.4s-3.2-10.5-8-10.5-8.5,4.7-14.1,11.1c-8.2,9.6-18.5,21.5-33.3,21.5s-8.9-4-8.9-14.2.9-10.7,1.9-16.2l.2-1.3.4-1.8c3.2-15,10-46.1,25.5-49.2,3.1-.3,6.1-.7,9.2-.7,33.8,0,44.3,16.3,51.3,27.1,3.6,5.5,6.4,9.9,11.2,9.9,10.8,0,10.9-19.7,10.9-20.6,0-15.9-7.9-41-29.2-41Z" class="st0"></path>
  <path d="M211.1,58.9c5.6-3.1,11.3-4.7,17.1-4.7,13.9,0,32.9,8.6,38.1,21,.6,1.6,1.1,5.9,1.5,10,1.3,11.9,2.7,25.3,10.9,25.3,13.5,0,20.9-53.4,20.9-59,0-11.1-4.5-23.1-14.5-23.1s-4.3.8-5.9,1.5c-1.3.5-2.3,1-3.4,1s-5.5-2.6-7.5-3.8c-1.4-.8-2.6-1.6-3.5-2-6.7-2.9-15.1-4.2-25.9-4.2-49.5,0-83.5,30-103.3,55.2-24.4,30.9-40.9,71.6-45.3,111.5v2.4c0,49.5,32.6,79.1,87.3,79.1s63.4-8.8,74.2-33.5c1.5-3.1,2.2-6.2,3-9.2.6-2.4,1.2-4.7,2.1-7,4-11.8,14.9-18.7,23.7-24.2,7-4.4,12-7.6,12-12.3,0-9.7-16.2-10.2-19.5-10.2s-6.4.4-9.3.7c-10.5,1.4-21.3,2.8-32.3,2.8s-14.2-.9-21.6-2.8c-1.9-.4-3.9-.8-6-.8-5.9,0-14.1,3.2-14.1,10.2s4.8,7.4,8.7,8.7c5.8,1.9,11.8,3.9,11.8,17.1,0,22.8-11.1,32.9-36.1,32.9s-8.4-.4-12.8-2.6c-16.2-7.3-24-21.3-24-42.9s1.4-23.7,4.2-35.3c11.9-51.3,33.4-82.7,69.7-102Z" class="st0"></path>
</svg>
