<?xml version="1.0" encoding="UTF-8"?>
<svg xmlns="http://www.w3.org/2000/svg" class="header-logo" viewBox="0 0 200 35" fill="none">
  <path fill-rule="evenodd" clip-rule="evenodd" d="M28.3437 21.6099L29.8768 25.361H33.6885L26.5836 8.54706H23.1769L16.019 25.361H19.7664L21.2994 21.6099H28.3437ZM22.6053 18.3735L24.8235 12.9758L27.0378 18.3735H22.6053ZM2.43311 24.9813C3.37966 25.4148 4.41397 25.6226 5.45451 25.5882C8.97477 25.5882 11.3027 23.6577 11.3557 19.5659V8.66064H7.61209V19.3993C7.61209 21.3298 6.76041 22.1815 5.39773 22.1815C4.2016 22.1815 3.29315 21.5569 2.32791 20.5349L0 23.0899C0.653642 23.9003 1.48656 24.5477 2.43311 24.9813ZM45.8013 25.3611H39.249V8.66064H45.8013C51.0286 8.66064 54.6625 12.2377 54.6625 16.9541V17.0109C54.6435 21.7235 51.0097 25.3611 45.8013 25.3611ZM50.8015 17.0109C50.8383 16.3799 50.7497 15.7479 50.5408 15.1514C50.3319 14.5549 50.0069 14.0056 49.5846 13.5354C49.1623 13.0652 48.6509 12.6834 48.0802 12.4119C47.5094 12.1404 46.8905 11.9847 46.2593 11.9538H42.8866V22.0641H45.7255C48.7537 22.0641 50.7826 20.0201 50.7826 17.0109H50.8015ZM60.2686 8.66064V25.3611L72.9339 25.4141V22.1171H63.9024V18.5969H71.7416V15.3605H63.9024V11.9538H72.8771V8.66064H60.2686ZM127.009 8.66064H130.7V22.0074H138.993V25.3611H127.009V8.66064ZM145.3 8.66064V25.3611L157.965 25.4141V22.1171H148.934V18.5969H156.773V15.3605H148.934V11.9538H157.844V8.66064H145.3ZM177.277 25.361L175.763 21.6099H168.723L167.167 25.361H163.419L170.577 8.54706H173.984L181.142 25.361H177.277ZM172.228 12.9758L170.013 18.3735H174.442L172.228 12.9758ZM190.968 15.5914V12.0106H200V8.66064H187.278V25.4178H190.968V18.9262H198.917V15.5914H190.968Z" fill="#00665E"></path>
  <path d="M100.71 0.707859C95.5391 3.20611 94.4604 10.1369 99.2903 19.9633C102.186 25.8153 101.561 29.1652 99.8013 31.0389C99.0296 31.862 97.9644 32.3476 96.8368 32.3901C95.7093 32.4326 94.6105 32.0287 93.779 31.266L93.4384 30.9253C90.5994 27.689 89.5206 21.3828 89.4071 20.9853C89.2468 20.4412 88.8794 19.9818 88.3839 19.7057C87.8885 19.4296 87.3044 19.359 86.7574 19.5091C86.3581 19.6218 86.0003 19.8482 85.7274 20.1607C85.4545 20.4732 85.2785 20.8584 85.2206 21.2692C85.1608 21.518 85.1608 21.7774 85.2206 22.0263C86.1859 29.8087 89.6531 32.7082 93.003 33.5598C102.205 36.2852 113.678 28.1621 114.2 15.6671C114.798 2.12732 105.88 -1.79039 100.71 0.707859ZM111.331 17.3629C110.309 18.1578 107.413 20.5992 107.016 22.8136C106.784 24.1289 106.383 25.4088 105.824 26.6215C105.801 26.6431 105.774 26.6594 105.745 26.6692C105.715 26.679 105.684 26.6821 105.653 26.6783C105.596 26.6783 105.596 26.6215 105.596 26.5647C105.88 25.2588 106.107 23.9529 106.278 22.5865C106.309 22.2908 106.269 21.9918 106.16 21.715C106.052 21.4383 105.878 21.1918 105.653 20.9967C105.369 20.7696 105.085 20.5424 104.741 20.3153C103.652 19.5361 102.444 18.939 101.164 18.5476C101.134 18.5458 101.107 18.5333 101.086 18.5124C101.065 18.4915 101.052 18.4636 101.05 18.4341C101.05 18.3773 101.107 18.3773 101.164 18.3205C102.109 18.1819 103.073 18.2749 103.973 18.5914C104.874 18.9079 105.684 19.4384 106.335 20.1374H106.391V20.0617C106.448 18.4321 106.391 16.8005 106.221 15.1788C106.164 14.6236 105.981 14.0889 105.685 13.6158C105.389 13.1426 104.988 12.7437 104.514 12.4496C103.416 11.8212 102.229 11.3618 100.994 11.087C100.964 11.0852 100.936 11.0726 100.915 11.0517C100.894 11.0308 100.882 11.0029 100.88 10.9734C100.88 10.9166 100.937 10.9166 100.994 10.8598C101.797 10.6675 102.634 10.6595 103.441 10.8365C104.248 11.0135 105.004 11.3709 105.653 11.8818H105.71V11.8251C105.24 9.46242 104.515 7.15765 103.549 4.9511C103.549 4.89432 103.605 4.83754 103.662 4.89432C105.114 6.97652 106.173 9.30595 106.789 11.7683C106.789 11.7683 106.846 11.8251 106.846 11.7683L106.959 11.5412C107.658 10.295 108.821 9.37636 110.196 8.98615C110.252 8.98615 110.309 8.98615 110.309 9.04293C110.309 9.09971 110.309 9.15648 110.252 9.15648C109.339 10.0026 108.555 10.9783 107.924 12.0522L107.879 12.1127C107.401 12.9577 107.221 13.939 107.368 14.8987C107.529 16.3507 107.548 17.8149 107.425 19.2706C107.425 19.3274 107.425 19.3274 107.482 19.3274H107.538C108.401 18.1454 109.679 17.3339 111.115 17.0563C111.145 17.058 111.173 17.0706 111.194 17.0915C111.215 17.1124 111.227 17.1403 111.229 17.1698C111.388 17.2947 111.388 17.3515 111.331 17.3515V17.3629Z" fill="#00B28B"></path>
</svg>
