<?xml version="1.0" encoding="UTF-8"?>
<svg width="55" height="50" viewBox="0 0 55 50" fill="none" xmlns="http://www.w3.org/2000/svg">
  <g clip-path="url(#clip0_1374_886)">
  <path d="M2.53893 41.6483L8.24074 35.7657H9.9817L4.15941 41.7687L11.932 49.6317H10.1609L3.28743 42.6995L2.53743 43.4796V49.6317H1.18652V24.8712H2.53743V41.6483H2.53893Z" fill="#1a1a1a"></path>
  <path d="M16.7601 42.8184C16.6697 46.3304 19.1004 48.6708 22.3128 48.6708C24.4739 48.6708 26.2149 47.3801 27.2044 45.5202L28.3444 46.1798C27.0839 48.5804 24.8625 49.9313 22.1321 49.9313C18.0206 49.9313 15.4092 46.6 15.4092 42.6693C15.4092 38.7973 18.0809 35.466 22.1321 35.466C26.3339 35.466 28.8248 38.8274 28.7947 42.8199H16.7601V42.8184ZM27.4438 41.5578C27.114 39.0066 25.0131 36.7265 22.1622 36.7265C19.3414 36.7265 16.9995 38.9479 16.7601 41.5578H27.4438Z" fill="#1a1a1a"></path>
  <path d="M36.5617 49.6314H35.2108V37.026H33.6807V35.7654H35.2108V30.8136H36.5617V35.7654H38.9924V37.026H36.5617V49.6314Z" fill="#1a1a1a"></path>
  <path d="M45.798 49.6314H44.4471V37.026H42.917V35.7654H44.4471V30.8136H45.798V35.7654H48.2287V37.026H45.798V49.6314Z" fill="#1a1a1a"></path>
  <path d="M54.8358 49.6317H53.4849V24.8712H54.8358V49.6317Z" fill="#1a1a1a"></path>
  <path d="M27.6548 6.77175C29.5187 6.77175 31.0298 5.26072 31.0298 3.39676C31.0298 1.53279 29.5187 0.0217552 27.6548 0.0217552C25.7908 0.0217552 24.2798 1.53279 24.2798 3.39676C24.2798 5.26072 25.7908 6.77175 27.6548 6.77175Z" fill="#DD6444"></path>
  <path d="M12.2905 12.7628C14.1545 12.7628 15.6655 11.2517 15.6655 9.38776C15.6655 7.5238 14.1545 6.01276 12.2905 6.01276C10.4266 6.01276 8.91553 7.5238 8.91553 9.38776C8.91553 11.2517 10.4266 12.7628 12.2905 12.7628Z" fill="#DD6444"></path>
  <path d="M43.021 12.7628C44.885 12.7628 46.396 11.2517 46.396 9.38776C46.396 7.5238 44.885 6.01276 43.021 6.01276C41.157 6.01276 39.646 7.5238 39.646 9.38776C39.646 11.2517 41.157 12.7628 43.021 12.7628Z" fill="#DD6444"></path>
  </g>
</svg>
