<svg xmlns="http://www.w3.org/2000/svg" fill="none" viewBox="0 0 114 34" height="34" width="114">
<g clip-path="url(#clip0_13176_1606)">
<path fill="#303030" d="M11.4488 23.6909C9.81551 20.045 8.17428 16.0885 6.54102 11.8136C8.23802 8.86022 9.93502 6.09787 11.6958 3.64599C12.0065 3.27183 12.1977 3.14446 12.5801 3.20815V2.834C11.1938 2.57926 9.75178 2.26879 8.36549 2.01405V2.3882C8.62044 2.45189 8.80369 2.64294 8.80369 2.88972C8.80369 3.01709 8.80369 3.26387 8.61248 3.5823C6.788 6.34465 4.96353 9.36174 3.13905 12.6973V2.57926C3.13905 1.44884 3.44977 1.25779 3.76846 1.32147V0.883634C2.51762 0.565207 1.25881 0.310466 0 0V0.437837C0.310718 0.501522 0.629404 0.875673 0.629404 2.06977V26.3259C0.629404 27.4563 0.374455 27.8305 0 27.9579V28.3957C1.25881 28.0852 2.51762 27.7668 3.77642 27.5121V27.0742C3.4657 27.1379 3.14702 26.8832 3.14702 25.8164V17.8956C3.71269 16.7652 4.34209 15.6347 4.90776 14.568C6.29404 18.2777 7.60862 21.6689 8.9949 24.8771C9.12237 25.2512 9.18611 25.3149 9.18611 25.5697C9.18611 25.8244 9.12237 25.9438 8.68418 26.0075V26.3816C10.0705 26.0712 11.4488 25.8164 12.8988 25.5617V25.1875C12.2057 25.1875 11.8949 24.686 11.4488 23.683V23.6909ZM24.1564 5.03114C24.4671 5.09483 24.7858 5.34161 24.7858 6.09787V17.7284C24.7858 19.7425 23.7182 21.4381 21.1368 21.7485C18.5555 22.059 17.4879 20.4271 17.4879 18.1662V5.08687C17.4879 4.20323 17.7986 4.02014 18.1173 4.08382V3.77336C16.9222 3.5823 15.6634 3.33552 14.4683 3.14446V3.51861C14.779 3.5823 15.0977 3.89277 15.0977 4.7764V18.413C15.0977 22.4968 16.9859 25.1398 21.2006 24.4472C25.4152 23.7546 27.3034 21.056 27.3034 17.7204V6.34465C27.3034 5.58839 27.6141 5.40529 27.9328 5.46102V5.15055C26.674 5.02318 25.4789 4.84009 24.2201 4.64903V5.02318H24.1564V5.03114ZM33.0875 10.3727C33.0875 8.92391 33.9081 7.92086 36.4178 8.11192C38.3697 8.23929 40.6324 9.17865 40.6324 10.3091V10.5638C40.7599 10.6275 40.8236 10.6275 40.9431 10.6912C41.445 9.62445 41.947 8.55772 42.5126 7.54671C42.4489 7.48303 42.3852 7.48303 42.2577 7.41934C42.0028 7.6104 41.8195 7.6104 41.692 7.6104C41.4371 7.6104 40.9352 7.23625 40.1225 6.85413C39.3099 6.47202 38.1706 6.03418 36.4736 5.85109C33.0158 5.54062 30.4982 7.04519 30.4982 10.317C30.4982 17.1712 39.9313 13.5252 39.9313 17.4816C39.9313 19.2409 38.6087 20.1246 36.6568 20.244C34.4579 20.3713 31.749 19.3046 31.749 18.0468V17.6727C31.6853 17.609 31.5578 17.609 31.4941 17.5453C30.9284 18.7394 30.4265 19.8698 29.8608 21.1276C29.9246 21.1913 30.052 21.1913 30.1158 21.255C30.1795 21.1276 30.3707 21.0639 30.4265 21.0002C30.6814 21.0002 32.4422 22.8869 36.5293 22.5048C39.9871 22.1943 42.3772 20.1166 42.3772 17.2906C42.6322 11.0653 33.0716 14.0824 33.0716 10.3807L33.0875 10.3727ZM48.4322 21.3664C48.1215 21.3664 47.8028 21.2391 47.8028 20.6102V10.4285H47.8666C49.3724 14.2018 50.8861 17.8478 52.3919 21.4858C53.8419 17.7762 55.3477 14.1302 56.7977 10.4842H56.8615V20.4111C56.8615 21.04 56.5507 21.1674 56.2321 21.1674V21.4222H59.881V21.1674C59.5703 21.1674 59.2516 20.9764 59.2516 20.4111V7.90494C59.2516 7.27605 59.5623 7.14868 59.881 7.14868V6.89394H55.6027V7.14868C55.8576 7.21236 55.9771 7.27605 55.9771 7.45914C55.9771 7.58651 55.9771 7.6502 55.9134 7.76961C54.7183 10.532 53.587 13.366 52.3919 16.192C51.3243 13.4933 50.2567 10.723 49.1811 7.96067C49.0537 7.70592 48.9899 7.52283 48.9899 7.39546C48.9899 7.26809 48.9899 7.14072 49.3006 7.14072V6.88598L44.9586 6.69492V6.94966C45.2693 6.94966 45.588 7.14072 45.588 7.76961V20.7137C45.588 21.3425 45.2772 21.5336 44.9586 21.5336V21.7883C46.1536 21.7247 47.285 21.661 48.48 21.661V21.3505H48.4163L48.4322 21.3664ZM66.0396 21.3664C65.7289 21.3664 65.4102 21.1754 65.4102 20.5465V7.79349C65.4102 7.1646 65.7209 7.03723 66.0396 6.97354V6.7188C64.7808 6.78249 63.4583 6.78249 62.1994 6.84617V7.10091C62.5102 7.10091 62.8288 7.22828 62.8288 7.85718V20.4908C62.8288 21.1196 62.5181 21.247 62.1994 21.247V21.5018C63.4583 21.5018 64.7808 21.5654 66.0396 21.6291V21.3744V21.3664ZM84.9775 5.27792C81.703 5.65207 78.3727 5.9705 75.1062 6.28097C74.5405 6.34465 74.4131 6.08991 74.4131 5.84313H74.1581V9.05128H74.4131C74.4131 8.74081 74.5405 8.54976 75.1062 8.48607C76.3013 8.42239 77.5601 8.3587 78.7552 8.23133V21.3664C78.7552 22.059 78.4444 22.1864 78.1257 22.1864V22.4411C79.3846 22.5685 80.7071 22.6959 81.9659 22.8153V22.5048C81.6552 22.4411 81.3365 22.2501 81.3365 21.5654V7.98455C82.5316 7.92086 83.7904 7.79349 84.9855 7.67408C85.5511 7.6104 85.6149 7.86514 85.6149 8.23929H85.8698V4.52962C85.8061 4.52962 85.6786 4.52962 85.6149 4.5933C85.6786 4.96746 85.5511 5.2222 84.9855 5.28588L84.9775 5.27792ZM97.8046 22.059C95.3507 21.7485 92.9606 21.4938 90.5067 21.1754V15.2686C92.0125 15.2686 93.5262 15.3322 95.032 15.3322C95.5977 15.3322 95.6614 15.6427 95.6614 16.0248H95.9164V11.7499H95.6614C95.6614 12.1241 95.534 12.4425 95.032 12.4425C93.5262 12.5062 92.0125 12.5062 90.5067 12.5699V7.10091C92.8331 6.84617 95.2232 6.59939 97.5496 6.28097C98.1153 6.21728 98.179 6.47202 98.179 6.90986C98.2428 6.90986 98.3703 6.90986 98.434 6.84617V2.3882C98.3703 2.3882 98.2428 2.45189 98.179 2.45189C98.179 2.88972 98.0516 3.20815 97.5496 3.27183C94.1556 3.90073 90.6899 4.40225 87.2959 4.84009V5.15055C87.6066 5.08687 87.9253 5.27792 87.9253 6.03418V22.1227C87.9253 22.879 87.6146 23.062 87.2959 23.0063V23.3168C90.8174 23.7546 94.3389 24.3198 97.7966 24.9487C98.3623 25.0761 98.426 25.3866 98.426 25.7687C98.4898 25.7687 98.6172 25.8324 98.681 25.8324V21.4301C98.6172 21.4301 98.4898 21.4301 98.426 21.3664C98.4898 21.8043 98.3623 22.1227 97.7966 22.059H97.8046ZM113.157 26.3976C111.707 18.1026 110.265 10.4364 108.815 3.33552C108.751 3.02505 108.688 2.77031 108.688 2.51557C108.688 2.07773 108.815 1.75931 109.062 1.63194V1.1941C107.676 1.50457 106.298 1.82299 104.975 2.07773V2.45189C105.286 2.45189 105.349 2.70663 105.349 3.14446C105.349 3.3992 105.286 3.77336 105.222 3.96441C103.716 11.129 102.266 17.7284 100.752 23.89C100.497 25.0204 100.314 25.1477 99.9318 25.1477V25.5219C100.999 25.713 102.131 25.9597 103.206 26.1508V25.7766C103.015 25.6493 102.832 25.4025 102.832 25.0841C102.832 24.893 102.896 24.5825 102.959 24.3278C103.334 22.8232 103.652 21.3107 104.027 19.8061C105.851 19.9972 107.676 20.1803 109.564 20.3713C109.875 21.9396 110.193 23.5795 110.504 25.2114C110.568 25.6493 110.632 26.1508 110.632 26.5966C110.632 27.0981 110.568 27.2892 110.257 27.3528V27.7907C111.452 28.0454 112.584 28.3559 113.779 28.6106V28.1728C113.404 27.8623 113.277 27.0424 113.149 26.4135L113.157 26.3976ZM104.728 16.4627C105.421 13.1908 106.114 9.86327 106.807 6.34465H106.871C107.501 9.67221 108.194 13.0714 108.823 16.59C107.501 16.59 106.122 16.5263 104.736 16.4627H104.728ZM50.8224 29.6614C50.8224 28.9052 50.5117 27.7748 48.6872 27.7748H45.9226V33.9363H46.9902V31.5481H48.6234C50.5117 31.5481 50.8224 30.4177 50.8224 29.6614ZM48.6872 30.6724H47.1177V28.6584H48.7509C49.3166 28.6584 49.8185 28.8495 49.8185 29.6614C49.7548 30.4177 49.1254 30.6645 48.6872 30.6645V30.6724ZM52.8381 27.7748L50.4479 33.9363H51.5792L52.1449 32.3044H54.6625L55.2282 33.9363H56.4233L54.0331 27.7748H52.8381ZM52.4556 31.4844L53.3958 28.8415L54.3359 31.4844H52.4477H52.4556ZM61.0123 30.9829C61.2036 30.9192 62.0162 30.6088 62.0162 29.4147C62.0162 28.3479 61.3231 27.719 59.9368 27.719H56.981V33.8806H58.0486V31.365H59.6818C60.6857 31.365 60.9406 31.8665 60.9406 32.997C60.9406 33.3074 60.9406 33.6259 61.1319 33.8806H62.3269C62.072 33.6259 62.0162 32.997 62.0162 32.2487C61.9525 31.3093 61.3868 31.0546 61.0123 30.9909V30.9829ZM59.881 30.5451H58.0565V28.5947H59.8173C60.3829 28.5947 60.8849 28.7221 60.8849 29.5341C60.9486 30.2266 60.5742 30.5371 59.881 30.5371V30.5451ZM63.1475 33.9363H64.2151V27.7748H63.1475V33.9363ZM69.0592 30.5451C68.7484 30.4177 67.3622 30.1072 67.2347 30.0436C66.7965 29.9162 66.4778 29.6694 66.4778 29.2236C66.4778 28.5947 67.1072 28.4037 67.6091 28.4037C68.366 28.4037 68.9317 28.7141 68.9317 29.4704H69.9993C69.9993 28.2126 68.9317 27.52 67.6091 27.52C66.4778 27.52 65.3465 28.0852 65.3465 29.343C65.3465 29.9719 65.6572 30.6008 66.7327 30.9113C67.6171 31.166 68.1828 31.2854 68.621 31.4128C68.8759 31.5402 69.1229 31.7233 69.1229 32.1691C69.1229 32.6148 68.7484 33.1084 67.8003 33.1084C66.916 33.1084 66.2308 32.7343 66.2308 31.7869H65.1632C65.1632 33.2915 66.3583 33.9841 67.7446 33.9841C69.0034 33.9841 70.2622 33.4189 70.2622 32.0337C70.3259 31.4685 69.9515 30.7759 69.0671 30.5292L69.0592 30.5451Z"></path>
</g>
<defs>
<clipPath id="clip0_13176_1606">
<rect fill="white" height="34" width="113.787"></rect>
</clipPath>
</defs>
</svg>
