<svg viewBox="0 0 134.95 134.96" xmlns="http://www.w3.org/2000/svg" id="Layer_2"><defs><style>.cls-1{fill:#73a14f;}.cls-1,.cls-2{stroke-width:0px;}.cls-2{fill:#fff;}</style></defs><g id="Layer_1-2"><circle r="66.69" cy="67.48" cx="67.48" class="cls-2"></circle><path d="M64.01,134.91s-.22-.06-.55-.06c-.3,0-.79-.03-1.09-.07-.29-.03-.68-.07-.84-.07-.17,0-.34-.03-.39-.06-.04-.03-.34-.06-.68-.07-.33-.01-.64-.03-.68-.06-.04-.02-.17-.03-.28-.04-.11-.01-.4-.04-.65-.08-.25-.03-.65-.08-.9-.11-.25-.03-.51-.06-.59-.08-.08-.02-.44-.07-.82-.12-.37-.04-.82-.12-.98-.17-.17-.05-.46-.11-.64-.13-.19-.03-.52-.08-.74-.13-.22-.04-.51-.09-.65-.1-.13,0-.4-.07-.58-.14-.19-.07-.49-.14-.68-.16-.18-.02-.41-.07-.5-.12-.09-.05-.27-.08-.4-.08-.15,0-.27-.03-.31-.08-.04-.05-.12-.07-.17-.06-.06.02-.18,0-.27-.05-.1-.05-.25-.09-.34-.09-.1,0-.25-.03-.35-.08-.29-.12-.57-.2-.71-.2-.07,0-.19-.05-.27-.11-.1-.07-.23-.11-.39-.11-.24,0-.52-.09-.59-.19-.02-.03-.15-.07-.3-.08-.14-.02-.26-.06-.26-.08s-.05-.04-.11-.02c-.06.02-.14,0-.19-.06-.05-.04-.17-.08-.26-.08-.1,0-.19-.03-.2-.08-.02-.05-.11-.08-.22-.08-.11,0-.21-.02-.22-.06-.02-.03-.11-.06-.19-.06-.09,0-.19-.04-.23-.08-.04-.04-.14-.08-.22-.08-.09,0-.17-.03-.18-.06-.01-.03-.12-.07-.24-.07-.13-.01-.24-.06-.27-.11-.03-.06-.12-.1-.27-.1s-.27-.04-.38-.14c-.1-.08-.23-.14-.31-.14-.13,0-.59-.16-.88-.31-.08-.03-.26-.1-.41-.15-.15-.04-.3-.12-.33-.17-.03-.06-.11-.09-.22-.09-.1,0-.23-.02-.3-.05-.37-.17-.56-.24-.63-.24-.04,0-.15-.06-.24-.14-.1-.08-.22-.14-.29-.14s-.12-.02-.12-.06c0-.03-.04-.06-.1-.06-.19,0-.8-.26-.8-.35,0-.02-.06-.04-.14-.04s-.17-.05-.21-.11c-.04-.06-.12-.11-.17-.11-.11,0-.33-.11-.39-.2-.02-.04-.13-.08-.24-.1-.11-.02-.24-.08-.3-.14-.05-.06-.19-.12-.3-.14-.11-.02-.22-.07-.24-.12-.02-.04-.09-.08-.16-.08-.08,0-.17-.04-.21-.08-.04-.04-.11-.08-.16-.08s-.24-.08-.42-.17c-.18-.1-.36-.17-.4-.17-.03,0-.1-.06-.13-.14-.03-.08-.1-.14-.15-.14-.05,0-.17-.05-.29-.11-.11-.06-.24-.11-.29-.11s-.17-.06-.27-.14c-.1-.08-.21-.14-.24-.14-.03,0-.07-.03-.09-.08-.02-.04-.15-.12-.29-.17-.14-.06-.26-.12-.26-.15,0-.02-.08-.06-.19-.08-.12-.03-.21-.08-.25-.17-.03-.07-.1-.13-.13-.13-.12,0-.66-.28-.66-.34,0-.03-.03-.06-.08-.06-.11,0-.32-.12-.48-.26-.07-.07-.17-.13-.22-.13s-.14-.05-.2-.11c-.06-.06-.14-.11-.19-.11s-.13-.06-.19-.14c-.06-.08-.16-.14-.23-.14s-.16-.05-.2-.11c-.04-.06-.11-.11-.16-.11-.04,0-.14-.06-.21-.14-.07-.08-.17-.14-.21-.14s-.13-.06-.2-.14c-.07-.08-.17-.14-.23-.14-.06,0-.16-.07-.23-.17-.07-.09-.17-.17-.23-.17s-.12-.04-.14-.08c-.02-.04-.07-.08-.11-.08s-.08-.02-.08-.05-.06-.07-.12-.1c-.07-.02-.22-.11-.33-.2-.11-.09-.22-.16-.26-.16s-.07-.04-.07-.08c0-.05-.07-.1-.16-.12-.09-.02-.24-.12-.34-.22-.1-.11-.23-.19-.28-.19s-.16-.08-.25-.19c-.09-.12-.2-.2-.3-.21-.09-.01-.17-.07-.21-.14-.03-.07-.11-.15-.18-.19-.07-.04-.11-.09-.1-.12.02-.02-.02-.04-.08-.04-.07,0-.21-.1-.32-.22-.11-.12-.25-.22-.3-.22-.06,0-.17-.07-.26-.17-.09-.09-.19-.17-.23-.17s-.09-.05-.11-.11c-.02-.06-.06-.11-.08-.11s-.16-.1-.3-.22c-.13-.12-.33-.25-.42-.29-.09-.04-.18-.12-.19-.17-.02-.06-.07-.12-.12-.13-.06-.02-.2-.13-.32-.26-.12-.12-.24-.21-.28-.21s-.19-.13-.35-.29c-.32-.33-.79-.72-.85-.72-.06,0-.48-.46-.48-.52,0-.02-.02-.04-.05-.04-.07,0-.38-.31-.42-.42-.02-.04-.07-.08-.12-.08-.04,0-.09-.03-.11-.08-.02-.04-.15-.13-.29-.2-.14-.07-.26-.15-.26-.17,0-.06-.56-.62-.62-.62-.03,0-.05-.02-.05-.04,0-.07-.61-.69-.68-.69-.03,0-.05-.02-.05-.04,0-.06-.44-.52-.51-.52-.03,0-.06-.04-.08-.1-.02-.06-.1-.14-.17-.18-.09-.05-.14-.12-.14-.21,0-.08-.04-.15-.11-.16-.06-.02-.11-.05-.11-.08s-.06-.11-.14-.17c-.08-.07-.14-.16-.14-.2s-.06-.1-.13-.13c-.07-.03-.15-.11-.16-.17-.02-.06-.07-.11-.11-.11-.04,0-.11-.06-.15-.14-.03-.08-.09-.14-.12-.14-.08,0-.34-.28-.34-.37,0-.04-.05-.09-.11-.11-.06-.02-.13-.08-.15-.14-.04-.12-.56-.68-.65-.68-.03,0-.06-.03-.06-.08,0-.04-.03-.11-.08-.15-.04-.03-.07-.1-.05-.15.02-.06-.01-.1-.09-.12-.06-.02-.12-.07-.12-.11,0-.04-.06-.11-.13-.13-.07-.03-.16-.12-.19-.21-.03-.08-.21-.31-.4-.51-.19-.2-.34-.39-.34-.44,0-.05-.05-.1-.11-.12-.06-.02-.11-.07-.11-.12,0-.06-.07-.15-.17-.22-.09-.07-.17-.17-.17-.22,0-.05-.1-.19-.22-.29-.12-.11-.22-.24-.22-.29,0-.11-.26-.4-.42-.46-.06-.03-.09-.07-.07-.13.02-.06-.03-.16-.16-.28-.11-.1-.2-.22-.2-.26s-.06-.14-.12-.21c-.19-.21-.48-.64-.52-.77-.02-.06-.11-.18-.2-.26-.1-.08-.17-.19-.17-.23s-.03-.1-.08-.12c-.04-.02-.15-.16-.23-.3-.09-.13-.19-.29-.24-.33-.04-.04-.07-.11-.07-.15s-.06-.14-.13-.22c-.08-.08-.17-.24-.21-.35-.04-.11-.12-.22-.17-.25-.06-.03-.1-.09-.1-.13s-.02-.08-.06-.08c-.03,0-.06-.03-.06-.06,0-.11-.42-.73-.49-.73-.04,0-.07-.06-.07-.14s-.02-.14-.06-.14c-.03,0-.06-.06-.06-.13s-.06-.19-.14-.26c-.08-.07-.14-.16-.14-.2s-.05-.1-.11-.13c-.06-.03-.11-.12-.11-.19s-.05-.17-.11-.23c-.06-.06-.11-.15-.11-.21s-.04-.12-.08-.13c-.04-.02-.08-.08-.08-.13s-.04-.13-.1-.17c-.05-.04-.15-.2-.22-.36-.21-.44-.31-.62-.37-.64-.02-.01-.04-.07-.04-.12,0-.06-.04-.13-.1-.16-.05-.03-.08-.09-.06-.14.02-.05,0-.12-.05-.15-.04-.04-.08-.11-.08-.15,0-.04-.02-.08-.06-.08-.03,0-.06-.04-.06-.08,0-.05-.04-.1-.08-.12-.04-.02-.08-.08-.08-.13,0-.06-.03-.12-.06-.14-.03-.02-.06-.08-.06-.15s-.04-.12-.08-.14c-.04-.02-.08-.08-.08-.13,0-.06-.02-.12-.06-.14-.03-.02-.06-.07-.06-.12s-.05-.13-.11-.19c-.06-.06-.11-.16-.11-.22,0-.06-.06-.2-.14-.31-.08-.11-.14-.24-.14-.27,0-.03-.05-.15-.11-.26-.19-.36-.4-.84-.4-.92,0-.04-.05-.12-.11-.18-.06-.06-.11-.15-.11-.21s-.06-.19-.13-.29c-.07-.1-.16-.3-.21-.46-.04-.15-.1-.3-.12-.33-.03-.03-.05-.11-.05-.19,0-.07-.03-.15-.07-.17-.11-.07-.21-.28-.21-.44,0-.08-.06-.22-.14-.33-.08-.1-.14-.26-.14-.35s-.04-.21-.11-.27c-.06-.06-.11-.16-.11-.22,0-.07-.07-.24-.14-.4-.08-.15-.14-.34-.14-.4,0-.07-.04-.13-.08-.16-.04-.02-.07-.07-.05-.11.02-.04,0-.1-.03-.12-.03-.02-.06-.11-.06-.21s-.04-.22-.09-.28c-.05-.06-.1-.15-.11-.2-.01-.11-.04-.2-.19-.55-.06-.12-.1-.24-.1-.25s-.02-.05-.03-.08c-.02-.03-.06-.15-.08-.25-.02-.11-.08-.25-.12-.31-.04-.06-.08-.16-.08-.24,0-.12-.03-.22-.2-.61-.04-.09-.1-.32-.14-.51-.04-.19-.09-.36-.12-.39-.02-.03-.04-.13-.04-.22s-.04-.24-.09-.34c-.05-.1-.12-.22-.14-.28-.03-.06-.05-.2-.05-.33,0-.15-.04-.28-.11-.37-.06-.08-.11-.22-.11-.32s-.06-.31-.12-.48c-.07-.17-.14-.42-.16-.56-.1-.58-.13-.71-.2-.82-.03-.06-.07-.21-.08-.33-.01-.12-.05-.31-.09-.43-.04-.12-.06-.26-.04-.33.01-.06,0-.13-.03-.15-.03-.02-.06-.13-.06-.25s-.04-.3-.1-.4c-.05-.1-.1-.28-.11-.39-.01-.11-.05-.32-.08-.47-.03-.15-.04-.31-.02-.35.02-.05-.02-.14-.07-.2-.06-.06-.08-.11-.06-.11s.01-.05-.02-.11c-.03-.06-.06-.26-.06-.44,0-.18-.03-.37-.06-.43-.03-.05-.06-.18-.07-.28-.02-.1-.05-.33-.08-.52-.1-.6-.18-1.23-.19-1.43,0-.11-.02-.22-.05-.25-.1-.13-.41-3.52-.35-3.79.02-.07,0-.16-.03-.2-.06-.07-.08-.3-.17-1.98-.13-2.27-.01-7.94.17-8.17.03-.04.04-.11.02-.17-.04-.14.07-1.64.18-2.58.04-.28.09-.72.12-.98.09-.75.1-.81.16-1.05.03-.12.06-.33.06-.47s.04-.41.08-.58c.05-.18.08-.34.07-.37,0-.02.02-.17.06-.34.04-.16.07-.38.07-.49,0-.1.04-.3.1-.43.06-.13.11-.37.12-.52,0-.15.03-.32.06-.37.03-.05.03-.12.02-.15-.01-.03.03-.2.1-.37.06-.17.11-.4.11-.51s.03-.22.06-.25c.03-.02.04-.09.03-.15-.02-.06,0-.2.04-.29.04-.1.1-.31.11-.48.02-.16.05-.33.08-.37.03-.03.08-.22.12-.43.07-.37.2-.87.29-1.11.03-.07.05-.2.05-.29,0-.09.05-.22.11-.3.06-.08.11-.22.11-.33,0-.19.09-.48.21-.7.04-.07.07-.2.07-.29s.02-.17.05-.17.06-.1.08-.21c.04-.34.31-1.18.49-1.56.06-.12.11-.29.11-.38s.03-.17.06-.19c.03-.02.04-.07.03-.11-.01-.04.02-.14.07-.23.1-.15.19-.46.16-.48-.01-.01.04-.11.11-.22.07-.11.12-.27.12-.35,0-.08.02-.15.04-.15.07,0,.18-.26.18-.43,0-.08.04-.22.09-.32.17-.33.19-.38.19-.47,0-.05.05-.15.11-.23.06-.08.11-.2.11-.26,0-.06.06-.22.14-.34.07-.12.14-.29.14-.35,0-.07.05-.2.11-.29.12-.16.34-.73.38-.98.02-.09.06-.17.1-.19.04-.01.11-.11.14-.2.04-.1.13-.3.2-.46.07-.15.19-.4.25-.56.07-.15.17-.38.23-.49.06-.11.11-.24.11-.29,0-.04.06-.16.14-.26.08-.11.14-.24.14-.29s.05-.15.11-.21c.06-.06.11-.15.11-.19s.03-.1.06-.12c.03-.02.06-.08.06-.14,0-.06.04-.11.08-.13.04-.02.08-.07.08-.12,0-.05.06-.19.14-.31.08-.12.14-.25.14-.28,0-.03.03-.06.06-.06.03,0,.06-.04.06-.08s.04-.16.1-.26c.37-.65.49-.88.56-1.01.04-.08.11-.17.15-.2.03-.03.1-.15.14-.28.04-.13.11-.25.15-.26.04-.02.08-.07.08-.12s.05-.15.11-.23c.06-.08.11-.19.11-.25,0-.06.04-.12.08-.13.05-.02.14-.15.2-.28.06-.13.13-.25.16-.25.03,0,.06-.05.06-.11s.03-.11.06-.11c.03,0,.06-.03.06-.08s.03-.12.07-.16c.11-.11.49-.71.49-.78,0-.03.02-.06.05-.06s.07-.06.1-.12c.02-.07.1-.2.17-.29.07-.09.12-.19.1-.21-.02-.03.01-.07.06-.08.05-.02.15-.16.22-.3.07-.15.16-.28.19-.29.03,0,.12-.13.21-.26.09-.13.2-.3.25-.37.23-.33.34-.51.34-.57,0-.04.03-.07.08-.07s.1-.07.13-.16c.03-.09.12-.24.21-.33.08-.09.19-.23.23-.31.04-.08.15-.23.25-.32.09-.1.17-.22.17-.29,0-.07.03-.12.06-.12.08,0,.39-.33.39-.42,0-.04.06-.13.14-.2.08-.07.14-.16.14-.2s.16-.24.37-.45c.2-.21.37-.41.37-.44,0-.04.13-.2.28-.36.15-.16.28-.34.28-.41s.03-.11.07-.11c.03,0,.15-.1.25-.21.47-.53.52-.6.52-.65,0-.03.15-.2.32-.37.18-.17.36-.39.41-.47.04-.08.11-.15.16-.15.04,0,.07-.03.07-.07,0-.03.29-.37.65-.73.35-.37.65-.7.65-.75,0-.05.05-.1.11-.12.06-.02.11-.08.11-.13,0-.06.02-.11.04-.11.03,0,.65-.6,1.38-1.32.73-.73,1.37-1.32,1.41-1.32.05,0,.09-.02.09-.05,0-.03.07-.1.16-.15.09-.06.2-.16.24-.23.04-.07.09-.13.11-.13.07,0,.45-.37.45-.44,0-.04.03-.07.07-.07.04,0,.11-.06.15-.12.07-.12.42-.38.51-.38.03,0,.12-.09.2-.2.08-.11.18-.2.21-.2.04,0,.15-.09.26-.2.11-.11.22-.2.25-.2.06,0,.43-.39.43-.46,0-.03.04-.05.08-.05s.15-.06.24-.14c.36-.32.41-.36.51-.38.06-.01.12-.07.16-.15.03-.07.09-.12.13-.12.04,0,.19-.11.33-.25.13-.14.27-.25.3-.25.03,0,.07-.04.08-.08.02-.04.06-.08.08-.08.03,0,.11-.04.17-.1.06-.06.17-.14.26-.19.08-.04.24-.16.34-.26.1-.1.21-.19.26-.19.04,0,.16-.09.26-.2.11-.11.23-.2.28-.2.04,0,.12-.06.19-.14.06-.08.15-.14.2-.14.1,0,.46-.31.46-.39,0-.02.08-.06.17-.08.1-.02.2-.08.22-.15.03-.06.12-.11.2-.11.09,0,.16-.04.2-.14.04-.09.11-.14.19-.14.07,0,.16-.04.2-.1.04-.06.14-.12.23-.14.08-.02.16-.09.19-.15.02-.06.07-.1.12-.07.04.02.08,0,.08-.03s.06-.09.14-.12c.08-.03.14-.08.14-.11,0-.03.06-.06.13-.06.07,0,.16-.05.2-.11.04-.06.12-.11.17-.11.06,0,.16-.06.22-.14.06-.08.15-.14.2-.14s.11-.03.15-.08c.04-.04.15-.1.24-.12.09-.02.21-.1.25-.17.05-.07.14-.13.2-.13s.12-.03.15-.07c.06-.09.74-.43.87-.43.05,0,.11-.05.12-.11.02-.06.07-.12.12-.14.16-.05.22-.08.54-.26.17-.1.38-.21.46-.25.08-.04.19-.13.25-.19.06-.06.15-.11.2-.11.12,0,.39-.13.39-.18,0-.03.08-.04.17-.04.11,0,.17-.03.17-.08,0-.04.05-.08.11-.08s.11-.02.11-.04c0-.06.43-.29.53-.29.04,0,.12-.04.17-.11.05-.06.21-.13.35-.17.13-.04.25-.11.25-.15,0-.04.04-.08.11-.08.06,0,.18-.04.26-.08.09-.04.21-.08.26-.08s.11-.02.13-.06c.02-.03.1-.06.17-.06.08,0,.13-.03.13-.08,0-.05.05-.08.11-.08s.11-.02.11-.06c0-.03.06-.06.13-.06.07,0,.16-.05.2-.11.04-.06.13-.11.21-.11.07,0,.23-.06.34-.14.11-.08.24-.14.29-.14.04,0,.12-.02.17-.05.08-.04.21-.1.46-.2.04-.02.16-.08.25-.14.1-.06.25-.11.34-.11.13,0,.19-.04.21-.12.02-.09.06-.11.15-.08.07.02.12.01.12-.02s.1-.06.22-.06c.16,0,.24-.03.28-.11.06-.1.28-.17.52-.18.05,0,.11-.03.12-.08.01-.04.17-.11.35-.16.18-.05.37-.12.42-.15.06-.03.16-.06.24-.06.08,0,.15-.02.17-.05.05-.08.37-.23.51-.23.07,0,.22-.05.34-.11.22-.11.51-.2.6-.18.03,0,.12-.04.21-.11.09-.07.2-.11.24-.1.08.02.38-.08.62-.21.08-.04.21-.08.29-.08.08,0,.2-.02.26-.06s.16-.08.22-.11.2-.06.31-.06.2-.02.2-.06c0-.03.05-.06.11-.06.06,0,.13-.03.15-.06.02-.03.08-.04.14-.03.06.02.12,0,.14-.03.02-.03.11-.06.2-.06s.25-.05.35-.11c.1-.06.24-.11.32-.11.15,0,.69-.16.77-.23.03-.03.13-.05.21-.05.19,0,.63-.1.87-.2.1-.04.25-.08.34-.08.09,0,.25-.03.35-.08.11-.04.22-.06.26-.05.03.01.08,0,.1-.03.02-.03.16-.06.31-.06s.29-.02.3-.05c.03-.04.35-.13.52-.15.03,0,.08-.02.11-.05.02-.02.19-.04.37-.04s.37-.02.43-.05c.34-.17.42-.19,1.23-.25.12-.01.29-.05.35-.08.07-.04.36-.09.65-.11.29-.02.55-.06.58-.08.03-.02.18-.05.34-.07.15-.02.37-.06.47-.08.11-.03.32-.06.47-.06s.43-.03.62-.06c.19-.03.39-.06.47-.06.07,0,.12-.02.12-.05s.39-.05.87-.05c.62,0,.87-.02.89-.07.02-.04.16-.07.36-.08,1-.04,1.33-.07,1.36-.1.02-.02.32-.03.68-.03.39,0,.64-.02.64-.06,0-.04,1.11-.06,3.23-.06,2,0,3.23.02,3.23.05,0,.03.34.07.78.08.42.01.96.04,1.19.06.23.02.54.05.69.06.15,0,.3.04.34.08.04.04.3.07.76.07.43,0,.69.02.69.06s.11.06.24.05c.35-.01,1.76.15,1.88.22.06.03.21.06.34.05.12,0,.24,0,.27.02.03.02.3.06.61.1.31.04.61.09.68.11.22.1.58.17.79.17s.6.11.68.19c.02.02.19.04.37.04s.34.03.36.06c.02.03.07.05.1.03.04-.01.16.02.26.06.18.08.51.15.98.2.1,0,.24.04.33.08.09.04.22.07.29.07.07,0,.29.05.49.12.2.06.51.14.69.17.18.03.37.08.42.1.09.05.22.08.82.24.15.03.26.08.26.11,0,.04.12.07.53.13.11.02.2.05.45.15.06.02.24.07.39.11.16.04.33.08.39.11.12.04.34.12.76.27.14.05.42.15.62.22.2.07.42.13.47.13s.21.06.34.12c.12.07.28.15.33.17.06.03.12.03.15.02.03-.02.11.02.17.08.07.06.21.11.31.11.1,0,.2.02.23.04.03.03.16.08.3.12.14.04.32.11.39.16.08.04.15.09.17.09.21.04.51.16.56.22.04.04.13.08.2.08s.13.03.13.06c0,.03.04.06.1.06.05,0,.22.06.38.13.15.08.29.13.32.11.02-.01.08.03.13.09.06.06.16.11.22.11.07,0,.29.09.51.2.22.11.43.2.47.2s.12.02.17.06c.05.03.16.08.24.11.08.03.18.08.23.11.04.03.18.1.3.16.12.06.32.16.45.22.12.07.26.12.3.12.03,0,.07.03.07.06,0,.03.06.06.14.06s.14.02.14.04c0,.04.27.18.37.18.04,0,.1.04.12.09.02.04.16.12.3.17.13.05.29.12.33.16.04.04.2.12.35.17.15.06.27.12.27.15,0,.03.04.05.11.05.06,0,.13.04.17.08.04.04.12.08.17.08s.12.02.13.06c.02.03.08.06.15.06.06,0,.11.03.11.06,0,.03.06.08.13.11.07.03.21.12.31.2.11.08.28.16.38.18.1.02.19.07.19.11s.04.08.1.08.16.06.24.14c.07.08.17.14.23.14s.13.03.17.07c.04.05.1.07.13.06.03-.01.11.06.18.15.07.09.16.17.2.17.04,0,.21.09.37.2.16.11.33.2.37.2.04,0,.1.03.12.07.02.03.12.11.21.15.1.04.19.12.21.15.02.04.07.07.1.07.03,0,.21.11.41.24.2.13.44.28.54.32.1.04.18.1.18.12s.07.08.16.12c.08.04.2.11.25.16.2.17.26.22.33.22.03,0,.13.08.21.17.08.1.2.17.26.17.08,0,.15.05.19.14.04.08.11.14.17.14s.21.08.32.19c.12.11.23.19.25.17.02-.01.1.04.17.13.15.18.34.3.46.3.04,0,.1.05.12.11.02.06.08.11.15.11.06,0,.12.04.14.11.02.06.06.11.1.11s.16.1.29.22c.12.12.26.22.31.22.04,0,.16.09.25.2.1.11.21.2.27.2.05,0,.1.04.1.08s.03.08.08.08.17.09.28.2c.11.11.24.2.29.2s.09.03.09.06c0,.03.06.08.14.11.08.03.14.08.14.12,0,.06.19.25.55.56.05.04.12.08.16.08s.14.08.24.17c.25.24.35.32.55.44.1.06.21.16.26.22.06.07.12.15.16.17.03.03.2.2.38.38.18.18.36.33.4.33s.39.32.78.7c.38.39.72.7.75.7s.08.06.12.14c.03.08.1.14.13.14s.09.05.11.11c.02.06.07.11.12.11s.11.06.15.14c.03.07.08.12.11.11.03-.02.08.04.11.12.03.08.07.13.1.11.04-.04.24.13.24.22,0,.04.04.06.11.04.08-.02.11,0,.11.06,0,.05.06.15.14.21.08.07.14.15.14.19,0,.04.06.1.14.13s.14.09.14.12.25.3.56.6c.3.31.57.61.59.68.02.07.11.16.2.2.1.04.17.1.17.13,0,.06.13.22.51.64.1.1.2.25.23.32.03.07.12.16.19.19.07.03.13.08.13.11,0,.02.13.18.28.34.16.16.28.33.28.37,0,.04.14.21.31.38.17.17.31.33.31.37s.12.19.28.35c.15.16.29.35.31.43.02.08.08.15.14.17.06.02.11.07.11.11,0,.04.04.1.08.11.04.02.08.06.08.09s.09.16.2.29c.11.13.2.28.2.33s.05.11.11.12c.06.02.11.07.11.12s.06.11.14.13c.09.03.14.1.14.17,0,.06.11.25.25.4.14.16.25.31.25.36,0,.04.05.1.12.13.06.04.1.08.08.1-.04.04.15.35.22.35.03,0,.1.1.16.21.11.25.46.77.54.79.03.01.06.05.06.09s.08.17.17.29c.1.12.17.25.17.29,0,.04.04.09.08.11.08.03.28.39.26.48,0,.02.02.04.04.04.03,0,.08.06.11.14.03.08.08.14.11.14.03,0,.06.05.06.11s.02.11.04.11c.05,0,.33.44.38.61.02.07.1.19.17.26.07.07.13.17.13.21s.05.12.11.18c.06.06.11.15.11.21,0,.06.04.1.08.1.05,0,.08.05.08.13,0,.08.03.16.06.18.03.02.11.15.18.3.06.14.16.29.22.33.06.04.1.13.1.21,0,.08.05.16.11.2.06.03.11.1.11.14s.04.16.11.26c.27.48.32.55.36.55.02,0,.04.06.04.13,0,.08.03.16.06.17.06.04.47.87.53,1.08.02.06.07.13.12.15.05.02.08.08.08.15s.03.11.06.11c.03,0,.06.06.06.14,0,.09.03.14.08.14.04,0,.08.05.08.11,0,.1.15.43.29.68.03.04.09.17.14.28.05.11.14.29.2.4.06.12.1.23.08.26-.01.02.05.15.14.28.09.13.16.28.16.32s.05.16.11.26c.06.1.11.25.11.33s.05.19.11.25c.06.05.11.11.1.13-.01.05.06.23.2.48.07.12.11.22.1.22,0,0,0,.05.02.11.08.26.14.37.2.37.03,0,.06.08.06.19s.03.21.06.23c.03.02.06.07.06.12,0,.05.04.12.08.17.04.05.08.17.08.28s.02.19.04.19.08.12.12.26c.06.24.16.48.29.76.03.06.05.19.05.3,0,.13.03.2.08.2.04,0,.09.03.09.06,0,.03.01.08.02.11,0,.03.02.07.05.1.02.02.04.11.04.21,0,.09.05.22.11.3.06.08.11.2.11.26s.05.26.12.43c.06.17.15.45.2.62.04.17.11.33.14.37.03.03.05.15.05.28s.04.29.09.35c.1.15.14.28.17.63.02.14.08.31.13.39.06.07.11.2.11.28,0,.17.09.47.2.7.04.09.08.25.08.35s.03.28.07.38c.04.1.07.21.06.25-.02.04.02.13.06.2.05.07.09.22.09.34s.02.26.06.31c.06.12.11.34.16.74.02.17.08.41.13.53.05.12.1.26.1.31,0,.17.17.99.22,1.14.03.09.06.28.06.41s.02.3.06.35c.03.06.06.22.08.36.01.14.04.28.06.32.04.07.21,1.25.21,1.43,0,.06.02.13.04.17.02.03.07.38.11.78.03.4.09.77.12.83.03.06.05.18.04.26,0,.08,0,.19.02.24.02.04.04.38.06.73.02.35.04.69.06.73.02.05.04.28.06.51.02.23.06.68.08.98.03.31.06.87.06,1.25,0,.42.02.69.06.69.04,0,.06.96.06,2.75s-.02,2.77-.06,2.79c-.03.02-.06.31-.06.66s-.03.93-.07,1.3c-.03.37-.07.84-.07,1.04,0,.2-.03.4-.06.45-.03.04-.06.35-.07.67-.01.33-.04.61-.06.62-.02.02-.04.17-.04.34,0,.17-.04.47-.07.68-.06.35-.15,1.05-.2,1.46-.01.11-.05.31-.08.45-.03.14-.06.36-.06.49s-.04.34-.09.47c-.05.12-.08.26-.06.31.02.04,0,.17-.05.28-.04.11-.08.32-.08.47s-.04.38-.09.49c-.08.21-.11.34-.16.95-.01.15-.04.3-.07.34-.09.12-.25.8-.24,1.07,0,.05-.04.16-.08.25-.04.08-.08.24-.08.35,0,.11-.04.26-.09.33-.05.07-.08.17-.06.23.01.06-.01.16-.05.24-.04.07-.08.24-.08.36s-.04.28-.08.33c-.04.06-.08.18-.08.26s-.02.17-.06.19c-.03.02-.06.12-.06.21,0,.1-.05.26-.11.35-.06.1-.11.24-.11.33,0,.19-.16.7-.23.75-.03.02-.05.12-.05.22s-.02.19-.06.19c-.03,0-.06.05-.06.11,0,.14-.13.62-.28,1.01-.07.17-.12.35-.12.41s-.05.2-.11.31c-.13.25-.18.39-.19.55,0,.07-.05.16-.11.21-.05.06-.1.16-.1.24,0,.07-.02.18-.05.24-.1.19-.2.43-.26.66-.1.34-.24.7-.37.96-.06.12-.11.26-.11.31s-.05.16-.11.26c-.06.1-.11.21-.11.25s-.06.21-.14.37c-.08.16-.14.33-.14.37s-.06.16-.14.26c-.08.11-.14.25-.14.33s-.05.22-.11.31c-.06.1-.11.21-.11.26s-.05.15-.11.23c-.06.07-.13.21-.15.3-.02.09-.08.21-.14.26-.06.06-.11.16-.11.24,0,.15-.16.48-.24.52-.03.01-.04.05-.04.08,0,.04-.05.17-.11.29-.06.12-.13.26-.15.31-.02.04-.12.24-.22.42-.11.19-.22.4-.26.48-.14.33-.48.98-.51,1-.03.01-.04.08-.04.16s-.03.13-.06.13c-.03,0-.07.04-.1.1-.02.05-.08.15-.13.21-.06.06-.14.24-.2.38-.06.15-.13.29-.18.3-.04.02-.07.08-.07.16s-.04.15-.08.16c-.05.02-.13.13-.18.24-.04.12-.13.28-.19.37-.06.08-.11.2-.11.26s-.04.12-.11.14c-.06.02-.11.08-.11.13,0,.06-.06.19-.14.3-.08.11-.14.22-.14.26,0,.03-.04.08-.08.1-.04.02-.12.12-.17.22-.13.28-.28.52-.32.54-.03.01-.04.04-.04.07,0,.06-.37.61-.51.76-.06.06-.12.18-.14.26-.02.09-.12.26-.23.39-.11.13-.19.27-.19.3,0,.03-.07.12-.17.2-.09.08-.17.18-.17.23,0,.04-.06.15-.14.22-.08.07-.14.17-.14.22s-.06.15-.14.22c-.08.07-.14.16-.14.2s-.07.15-.15.23c-.08.08-.17.22-.2.32-.03.08-.07.15-.1.15-.1,0-.29.24-.29.37,0,.1-.04.15-.13.19-.07.03-.15.1-.17.16-.02.06-.07.12-.11.14-.04.02-.08.06-.08.11,0,.04-.09.16-.2.26-.11.11-.2.23-.2.28,0,.11-.16.31-.29.36-.06.02-.1.09-.1.16,0,.08-.14.26-.39.51-.22.21-.39.43-.39.49s-.05.12-.12.14c-.06.02-.13.08-.15.15-.02.07-.07.12-.11.12-.04,0-.1.04-.12.1-.02.05-.08.13-.14.17-.06.04-.1.11-.1.16,0,.05-.19.28-.42.51-.23.23-.42.45-.42.49,0,.08-.55.66-.62.66-.03,0-.07.05-.09.1-.02.05-.1.14-.17.2-.07.06-.13.16-.13.24,0,.07-.06.16-.12.21-.18.11-3.81,3.76-3.81,3.81,0,.03-.03.05-.07.05-.04,0-.11.06-.15.14-.04.09-.12.14-.21.14-.07,0-.16.05-.2.11-.04.06-.1.11-.14.11s-.1.05-.13.11c-.1.18-.62.67-.71.67s-.98.88-.98.96c0,.03-.05.05-.12.05-.16,0-.33.1-.33.2,0,.04-.03.08-.07.08-.04,0-.11.06-.14.14-.04.09-.11.14-.19.14-.07,0-.22.11-.38.27-.15.15-.36.31-.47.38-.12.06-.24.17-.28.24-.03.07-.1.14-.16.16-.06.02-.1.06-.1.09,0,.03-.03.04-.06.02-.03-.02-.16.07-.28.2-.12.12-.25.23-.3.23s-.12.05-.16.11c-.04.06-.1.11-.14.11-.03,0-.08.05-.1.11-.02.06-.08.11-.15.11-.06,0-.21.1-.34.22-.13.12-.29.22-.34.22-.06,0-.14.07-.2.15-.05.08-.18.19-.28.22-.1.04-.19.11-.19.14,0,.03-.08.09-.19.13-.11.04-.25.14-.33.22-.07.08-.16.15-.19.15s-.13.06-.22.13c-.1.07-.25.16-.33.21-.09.04-.19.12-.21.18-.03.06-.12.1-.2.1-.1,0-.15.05-.19.14-.04.1-.1.14-.2.14-.08,0-.17.05-.21.11-.04.06-.12.11-.19.11s-.15.05-.19.11c-.04.07-.1.1-.12.08-.03-.02-.12.03-.21.11-.09.08-.27.17-.4.21-.15.04-.26.11-.28.16-.02.09-.12.16-.29.19-.04.01-.11.06-.15.1-.03.05-.11.09-.16.09-.05,0-.12.05-.16.11-.04.06-.12.11-.19.11s-.15.04-.2.09c-.1.12-.34.23-.46.21-.06-.02-.13.03-.19.12-.05.08-.12.15-.16.15-.03,0-.11.05-.17.11-.06.06-.15.11-.2.11-.13,0-.45.16-.45.23,0,.03-.07.05-.15.05-.1,0-.16.03-.17.11-.02.06-.08.11-.13.11s-.2.06-.31.14c-.11.08-.25.14-.3.14-.05,0-.15.05-.21.11-.07.06-.17.11-.24.11-.07,0-.18.06-.26.14-.08.08-.17.14-.21.14-.11,0-.38.13-.38.19,0,.02-.05.04-.12.04-.06,0-.2.06-.3.14-.1.08-.24.14-.3.14-.07,0-.12.02-.12.06,0,.07-.3.22-.42.22-.05,0-.16.05-.24.11-.08.06-.22.11-.31.11s-.17.03-.19.08c-.02.04-.07.07-.11.05-.04-.02-.1.01-.11.06-.02.05-.1.09-.17.09-.08,0-.19.05-.26.11-.07.07-.2.11-.31.11-.11,0-.23.04-.3.11-.06.06-.18.13-.26.15-.09.02-.22.09-.31.15-.08.06-.17.1-.2.07-.03-.02-.07-.01-.1.02-.02.03-.09.06-.16.06s-.16.05-.2.11c-.04.07-.13.11-.24.11-.18,0-.39.1-.47.21-.02.03-.15.07-.26.07-.12,0-.22.03-.22.06,0,.03-.05.06-.11.06-.06,0-.13.03-.15.06-.02.03-.12.06-.22.06-.12,0-.22.04-.29.12-.06.06-.15.1-.2.09-.06-.02-.12,0-.13.02-.02.03-.07.05-.13.05-.06,0-.11.04-.13.08-.02.04-.13.1-.25.12-.12.02-.26.06-.31.09-.06.03-.15.04-.21.02-.07-.02-.12,0-.17.08-.04.08-.12.11-.28.11-.12,0-.22.03-.22.06,0,.03-.06.06-.13.06s-.16.04-.2.08c-.04.04-.15.08-.24.08s-.22.04-.3.09c-.07.05-.16.07-.19.06-.03-.02-.07-.01-.09.02-.02.03-.11.06-.2.06-.09,0-.21.02-.26.05-.19.1-.38.16-.46.17-.18,0-.43.08-.52.16-.06.05-.24.1-.44.11-.18.01-.35.04-.37.07-.02.03-.1.05-.19.05s-.2.04-.26.08c-.06.04-.19.08-.29.08s-.25.04-.33.09c-.07.05-.15.08-.17.06-.02-.02-.06,0-.1.02-.03.03-.23.08-.44.11-.2.03-.4.07-.44.1-.04.03-.11.04-.17.03-.05-.01-.11.01-.13.04-.02.03-.18.06-.36.06-.22,0-.35.03-.4.08-.04.05-.09.07-.12.05-.03-.02-.08,0-.13.03-.07.06-.37.1-.9.13-.09,0-.23.04-.3.08-.08.04-.3.09-.51.1-.2.02-.43.07-.5.11-.07.04-.17.06-.24.04-.06-.02-.12,0-.14.03-.02.03-.08.04-.14.03-.06-.02-.12,0-.14.03-.02.03-.22.06-.44.06-.26,0-.44.03-.52.08-.06.04-.16.07-.22.06-.07-.02-.19,0-.26.03-.08.03-.47.08-.87.12-.39.04-.75.1-.79.12-.04.03-.17.04-.29.03-.12-.02-.22,0-.24.02-.01.03-.33.06-.7.07-.38.01-.72.04-.76.07-.04.02-.2.05-.36.06-.74.03-2.04.15-2.12.2-.14.07-7.3.07-7.3,0h0ZM71.19,131.3c.28-.03.97-.08,1.55-.12.57-.03,1.2-.08,1.41-.11.2-.03.67-.08,1.04-.11.37-.03.93-.1,1.24-.16.31-.06.75-.12.98-.14.23-.02.52-.06.65-.1.12-.03.39-.08.59-.11.37-.05.66-.1,1.24-.22.17-.03.45-.09.62-.12.17-.03.35-.08.41-.11.06-.03.22-.05.37-.05s.32-.04.39-.08c.06-.04.3-.11.53-.15.23-.04.6-.12.83-.2.22-.07.47-.13.55-.13.07,0,.24-.05.37-.11.13-.06.3-.11.39-.11s.33-.06.55-.14c.21-.08.44-.14.49-.14.06,0,.24-.04.39-.1.15-.06.38-.12.51-.14.12-.02.33-.09.46-.15.13-.06.28-.11.34-.11.06,0,.39-.1.75-.22.35-.13.72-.25.81-.28.1-.02.3-.1.45-.16.16-.06.46-.17.68-.24.22-.07.51-.19.65-.26.15-.07.3-.13.34-.13.04,0,.17-.05.29-.11.11-.06.25-.11.29-.11.05,0,.19-.06.31-.14.12-.08.28-.14.35-.14.07,0,.23-.07.35-.14.12-.08.28-.14.34-.14s.17-.05.25-.11c.08-.06.19-.11.25-.11s.22-.06.35-.13c.13-.07.31-.15.4-.17.1-.02.17-.06.17-.09s.07-.07.16-.08c.08-.02.26-.1.4-.16.14-.07.29-.15.34-.16.04-.02.12-.06.17-.08.04-.03.26-.13.48-.23.56-.25,1.21-.59,1.24-.63.02-.03.07-.04.12-.04s.17-.06.28-.14c.1-.08.22-.14.28-.14.08,0,.14-.03.34-.21.04-.04.13-.07.19-.07.07,0,.12-.02.12-.05s.08-.08.19-.12c.1-.04.26-.12.35-.19.1-.06.37-.22.61-.34.24-.12.43-.24.43-.26s.05-.04.11-.04.11-.02.11-.05.11-.1.25-.17c.14-.07.25-.14.25-.17s.06-.07.13-.09c.07-.02.2-.1.3-.17.1-.07.19-.13.21-.13.06,0,.64-.39.68-.45.02-.03.08-.06.14-.06s.11-.02.12-.04c.02-.04.59-.46.64-.46.01,0,.19-.11.38-.25.2-.14.39-.25.43-.25s.06-.02.06-.04c0-.03.1-.1.23-.17.12-.07.24-.15.26-.19.03-.04.08-.09.13-.12.31-.19.67-.46.67-.49,0-.03.03-.04.07-.04.04,0,.12-.05.18-.11.06-.06.12-.11.15-.11s.25-.16.5-.35c.25-.2.5-.38.55-.41.1-.06.12-.08.64-.51.2-.17.39-.31.42-.31.02,0,.08-.05.12-.11.04-.06.1-.11.13-.11.07,0,.78-.6.86-.71.02-.04.07-.07.11-.07s.12-.06.19-.12c.16-.17.61-.55.96-.82.23-.18.74-.65,1.35-1.25.07-.06.13-.11.15-.11.04,0,3.7-3.66,3.7-3.7s.05-.1.61-.67c.22-.22.4-.43.4-.46s.02-.06.05-.06c.03,0,.17-.16.32-.35.15-.2.37-.45.48-.57.12-.12.21-.24.21-.26s.03-.07.07-.1c.04-.02.11-.11.16-.19.05-.08.18-.24.29-.35.11-.12.24-.29.29-.38.06-.09.12-.17.15-.17s.04-.03.04-.06c0-.04.05-.12.12-.19.25-.25.51-.58.65-.8.07-.13.16-.24.19-.24s.05-.04.05-.08c0-.04.03-.1.07-.12.04-.02.19-.21.33-.41.13-.2.26-.38.28-.39.02-.02.14-.19.28-.39.13-.2.27-.37.29-.38.02-.01.04-.07.04-.13,0-.06.02-.11.06-.11.03,0,.12-.11.2-.24.08-.13.17-.25.2-.26.03-.01.05-.06.05-.1,0-.04.03-.11.07-.15.11-.11.43-.61.43-.66,0-.03.03-.08.07-.12.04-.04.15-.19.24-.32.09-.13.21-.31.26-.39.06-.08.15-.25.22-.37.07-.12.14-.24.16-.25.02-.02.12-.18.22-.37.1-.19.24-.42.3-.51.13-.19.26-.41.49-.81.08-.14.19-.33.25-.42.06-.1.2-.34.31-.56.11-.22.21-.42.24-.45.02-.03.14-.25.26-.48.12-.23.35-.7.53-1.04.17-.34.32-.65.32-.69,0-.04.02-.07.04-.07.03,0,.09-.11.15-.24.08-.21.33-.73.52-1.09.03-.06.12-.25.2-.42.08-.17.2-.43.26-.57.07-.14.12-.29.12-.33,0-.03.06-.18.13-.33.08-.15.19-.41.26-.58.07-.17.19-.44.26-.61.07-.16.13-.33.13-.37s.05-.18.11-.31c.06-.12.11-.26.11-.29s.06-.2.14-.37c.08-.17.14-.33.14-.37,0-.06.13-.38.23-.57.03-.06.05-.13.05-.17,0-.07.08-.29.34-.95.06-.14.12-.35.16-.48.03-.12.09-.33.13-.47.05-.14.16-.48.24-.76.08-.28.19-.63.25-.79.05-.15.14-.44.19-.65.05-.2.13-.49.17-.65.04-.15.13-.48.2-.73.07-.25.16-.6.21-.79.05-.19.11-.44.13-.56.02-.12.1-.43.16-.68.18-.7.35-1.49.35-1.65,0-.08.07-.39.14-.68.08-.29.14-.61.14-.7,0-.16.07-.55.23-1.26.03-.13.05-.34.05-.48s.04-.44.09-.69c.04-.25.11-.76.13-1.15.03-.39.09-.91.14-1.15.04-.25.11-1.01.14-1.69.03-.68.08-1.53.11-1.88.07-.84.07-4.81,0-5.79-.03-.42-.08-1.24-.11-1.83-.07-1.27-.14-2.14-.2-2.23-.02-.04-.06-.36-.09-.72-.02-.35-.07-.8-.1-.98-.03-.19-.07-.53-.1-.76-.02-.23-.1-.68-.17-.99-.07-.31-.13-.71-.13-.88s-.05-.44-.11-.61c-.06-.17-.14-.52-.17-.77-.03-.25-.09-.52-.12-.59-.03-.07-.09-.28-.12-.46-.03-.19-.06-.43-.08-.54-.02-.11-.07-.28-.11-.38-.04-.1-.08-.26-.08-.37,0-.11-.02-.21-.05-.23-.03-.02-.06-.11-.08-.21-.08-.46-.15-.76-.21-.92-.04-.09-.07-.23-.08-.31-.04-.28-.2-.84-.46-1.57-.05-.14-.1-.33-.12-.42-.01-.09-.04-.22-.07-.28-.1-.22-.22-.62-.22-.74,0-.06-.05-.22-.11-.35-.06-.12-.11-.26-.11-.31s-.06-.22-.14-.4c-.08-.17-.14-.36-.14-.42,0-.05-.05-.19-.11-.31-.06-.11-.11-.26-.11-.33s-.06-.24-.14-.4c-.08-.15-.14-.33-.14-.38,0-.06-.06-.22-.14-.36-.08-.14-.14-.3-.14-.35s-.03-.15-.08-.21c-.04-.06-.1-.2-.13-.31-.11-.38-.48-1.24-.91-2.13-.07-.13-.12-.28-.12-.33s-.06-.18-.14-.29c-.08-.11-.14-.25-.14-.3,0-.08-.1-.29-.56-1.23-.08-.16-.25-.48-.3-.56-.03-.04-.06-.13-.08-.19-.02-.06-.11-.24-.2-.4-.08-.17-.16-.34-.16-.39,0-.04-.02-.08-.05-.08s-.11-.11-.17-.24c-.07-.13-.2-.37-.28-.52-.09-.15-.25-.46-.36-.68-.19-.35-.26-.51-.64-1.15-.06-.11-.19-.31-.29-.45-.09-.14-.25-.4-.35-.59-.1-.19-.29-.51-.43-.71-.13-.21-.25-.39-.25-.4,0-.01-.11-.18-.24-.37-.13-.19-.26-.39-.3-.44-.03-.06-.07-.11-.09-.12-.02-.02-.09-.13-.16-.25-.07-.12-.17-.25-.21-.27-.04-.02-.07-.09-.07-.15,0-.06-.02-.11-.05-.12-.04-.02-.21-.25-.43-.6-.13-.21-.6-.83-.7-.93-.06-.07-.11-.15-.11-.19s-.02-.07-.04-.07c-.03,0-.12-.11-.2-.25-.09-.14-.19-.25-.21-.25s-.05-.04-.05-.08-.05-.13-.11-.18c-.06-.06-.11-.13-.11-.16,0-.04-.02-.08-.04-.09-.05-.02-.5-.58-.64-.78-.04-.07-.17-.22-.27-.33-.1-.11-.25-.3-.34-.43-.08-.12-.19-.25-.22-.27-.04-.02-.07-.08-.07-.12s-.05-.11-.11-.14c-.06-.03-.11-.09-.11-.12,0-.03-.08-.13-.19-.24-.11-.1-.29-.29-.4-.43-.54-.65-.69-.83-.96-1.11-.15-.16-.33-.36-.39-.44-.2-.27-4.05-4.13-4.12-4.13-.04,0-.09-.03-.11-.08-.02-.04-.21-.21-.4-.38-.2-.17-.44-.38-.53-.48-.1-.1-.3-.28-.46-.39-.15-.12-.39-.33-.53-.46-.13-.13-.28-.24-.31-.24s-.12-.07-.2-.15c-.08-.08-.25-.24-.39-.35-.14-.12-.35-.29-.46-.39-.11-.1-.22-.19-.24-.19-.05,0-.84-.62-.87-.69-.01-.03-.05-.04-.09-.04s-.12-.06-.19-.12c-.17-.19-.49-.42-.87-.64-.06-.03-.15-.12-.19-.19-.04-.06-.12-.12-.15-.12-.04,0-.19-.1-.34-.21-.3-.23-.4-.3-.77-.54-.13-.09-.25-.19-.26-.21-.01-.03-.04-.05-.08-.05-.03,0-.13-.06-.24-.14-.1-.08-.21-.14-.24-.14-.03,0-.1-.05-.16-.11-.06-.06-.12-.11-.16-.11-.03,0-.15-.07-.26-.17-.12-.09-.24-.17-.26-.17-.03,0-.1-.05-.16-.11-.06-.06-.12-.11-.15-.11s-.08-.03-.12-.06c-.08-.07-.43-.29-.75-.46-.13-.07-.24-.15-.24-.17s-.04-.04-.09-.04c-.04,0-.17-.06-.27-.14-.1-.08-.21-.14-.24-.14-.03,0-.1-.05-.16-.11-.06-.06-.13-.11-.17-.11-.04,0-.16-.06-.28-.14-.11-.08-.24-.14-.29-.14s-.08-.02-.08-.06c0-.03-.03-.06-.08-.06-.04,0-.11-.04-.15-.08-.04-.04-.12-.08-.17-.08-.06,0-.11-.02-.11-.04,0-.02-.22-.16-.49-.29-.28-.14-.51-.26-.52-.28-.02-.02-.48-.26-1.04-.53-.56-.28-1.02-.52-1.04-.54-.02-.02-.13-.07-.26-.11-.13-.04-.24-.1-.24-.12s-.06-.06-.12-.08c-.07-.02-.39-.16-.72-.32-.96-.46-1.04-.49-1.11-.49-.04,0-.18-.06-.32-.14-.14-.08-.29-.14-.34-.14s-.16-.03-.24-.08c-.34-.19-.89-.42-1.06-.46-.1-.02-.19-.06-.19-.08,0-.02-.09-.06-.2-.08-.11-.02-.25-.06-.3-.08-.05-.03-.16-.08-.26-.13-.09-.05-.24-.1-.33-.12-.08-.02-.26-.08-.39-.14-.3-.13-.57-.22-.88-.31-.14-.04-.38-.12-.53-.19-.47-.18-.83-.3-1.07-.34-.12-.03-.34-.09-.48-.14-.14-.05-.4-.13-.59-.19-.19-.05-.41-.12-.49-.16-.08-.04-.21-.08-.28-.08-.12,0-.34-.06-.64-.17-.12-.04-.48-.14-.82-.22-.11-.02-.4-.1-.65-.17-.25-.07-.56-.15-.7-.17-.14-.03-.42-.1-.62-.16-.2-.06-.44-.12-.54-.12s-.28-.03-.4-.08c-.12-.04-.46-.11-.74-.14-.28-.03-.57-.08-.64-.11-.28-.1-.68-.17-1-.17-.18,0-.48-.05-.67-.11-.19-.06-.64-.14-1.01-.17-.37-.03-.87-.1-1.11-.14-.5-.09-1.56-.2-1.95-.2-.13,0-.34-.03-.44-.06-.38-.12-2.19-.18-5.77-.18-3.98,0-5.45.04-5.79.16-.12.04-.45.09-.73.11-.91.05-1.85.15-1.95.21-.05.03-.35.07-.65.08-.58.03-1.31.16-1.49.25-.06.03-.28.06-.49.06s-.41.02-.43.06c-.02.03-.12.06-.22.06-.11,0-.28.04-.39.08-.11.04-.3.08-.42.08-.19,0-.63.08-1.45.29-.12.03-.47.1-.76.16-.29.06-.57.13-.62.16-.05.03-.21.07-.35.09-.14.02-.28.06-.29.09-.02.03-.11.05-.22.05s-.2.02-.22.05c-.02.03-.15.07-.3.09-.15.02-.31.06-.38.08-.06.03-.21.08-.34.11-.12.04-.3.09-.39.12-.09.03-.32.1-.51.14-.19.04-.44.13-.58.19-.13.06-.34.12-.48.14-.13.02-.33.08-.44.14-.12.06-.26.11-.33.11-.06,0-.24.06-.4.14-.16.08-.36.14-.44.14s-.17.02-.2.06c-.03.03-.21.1-.42.15-.2.05-.41.12-.48.16-.06.04-.21.1-.34.14-.12.04-.28.11-.34.15-.06.04-.22.1-.37.13-.13.04-.3.1-.36.15-.06.04-.16.08-.21.08-.05,0-.21.06-.36.14-.15.08-.29.14-.33.14-.04,0-.16.05-.29.11-.12.06-.26.11-.32.11-.05,0-.19.06-.3.14-.11.08-.24.14-.27.14-.1,0-.37.13-.37.19,0,.02-.06.04-.14.04-.07,0-.25.06-.39.14-.14.08-.3.14-.37.14-.07,0-.12.02-.12.04,0,.02-.08.08-.18.13-.1.05-.3.15-.43.21-.13.06-.29.12-.33.12s-.16.06-.26.13c-.1.07-.26.15-.36.17-.1.02-.21.07-.25.12-.03.04-.1.08-.15.08s-.16.06-.26.14c-.1.08-.22.14-.26.14s-.11.02-.14.05c-.08.08-.79.46-.86.46-.04,0-.12.05-.19.12-.07.06-.19.13-.28.15-.08.02-.2.08-.25.13-.05.06-.12.11-.15.11-.03,0-.14.06-.24.14-.1.08-.2.14-.23.14s-.14.06-.25.14c-.11.08-.25.14-.29.14-.05,0-.09.02-.09.04s-.11.1-.24.17c-.13.07-.35.2-.49.29-.38.25-.51.32-.76.45-.13.06-.26.15-.3.2-.04.04-.1.08-.12.08s-.13.06-.23.13c-.1.07-.22.15-.27.18-.05.03-.24.15-.41.27-.17.11-.34.21-.37.21s-.09.06-.14.14c-.05.08-.12.14-.15.14-.06,0-.56.32-.61.39-.02.02-.2.15-.4.28-.21.13-.38.27-.38.29s-.05.04-.11.04-.12.03-.13.08c-.03.08-.52.43-.6.43-.03,0-.08.04-.12.1-.04.05-.24.21-.44.35-.2.13-.38.27-.38.29-.01.02-.06.04-.1.04s-.11.06-.16.14c-.05.08-.12.14-.15.14s-.22.13-.41.29c-.19.16-.39.32-.44.37-.05.04-.12.08-.14.08s-.08.04-.13.1c-.08.08-.53.49-1.01.92-.07.06-.23.18-.33.26-.11.08-.22.18-.24.21-.02.04-.07.07-.09.07s-.24.19-.47.41c-.23.22-.6.56-.8.74-.51.44-3.18,3.11-3.55,3.54-.16.19-.51.57-.77.84-.26.28-.48.54-.48.58,0,.03-.02.07-.04.07s-.21.2-.4.44c-.2.24-.46.55-.59.68-.4.44-.45.49-.51.58-.18.28-.68.89-.71.89-.02,0-.04.03-.04.07,0,.03-.08.16-.19.28-.1.11-.25.29-.32.39-.07.1-.16.21-.19.24-.11.1-.31.42-.31.48,0,.03-.02.06-.05.06-.02,0-.16.17-.29.38-.13.21-.27.4-.3.43-.03.03-.12.15-.2.26-.07.12-.15.21-.17.21-.03,0-.04.03-.04.07,0,.05-.05.12-.11.18-.06.06-.11.12-.11.16,0,.03-.06.12-.13.21-.11.13-.69,1-.86,1.29-.03.05-.16.24-.28.42-.34.49-.47.72-.54.89-.03.09-.08.16-.1.16-.03,0-.09.1-.15.22-.06.12-.13.25-.18.29-.04.03-.07.1-.07.15,0,.07-.04.13-.21.33-.04.04-.07.11-.07.15s-.04.12-.11.19c-.11.12-.42.67-.67,1.19-.08.16-.16.29-.19.3-.03.01-.05.07-.05.12s-.02.12-.05.13c-.05.03-.74,1.25-.74,1.31,0,.02-.18.39-.39.84-.22.44-.39.84-.39.89,0,.05-.02.09-.06.09-.03,0-.06.02-.06.06,0,.03-.12.3-.26.6-.14.3-.28.6-.3.66-.04.11-.19.43-.47,1.04-.08.17-.16.36-.17.42-.02.06-.12.33-.24.59-.11.26-.22.56-.25.65-.02.1-.08.25-.13.35-.06.1-.1.21-.1.24,0,.03-.06.19-.14.35-.08.16-.14.33-.14.38,0,.05-.03.15-.07.23-.04.08-.11.25-.15.39-.04.14-.12.37-.18.52-.06.15-.11.3-.11.35s-.05.2-.11.33c-.07.13-.14.33-.17.43-.03.11-.08.31-.13.45-.21.64-.38,1.21-.38,1.3,0,.05-.04.21-.11.37-.06.15-.17.53-.25.84-.08.31-.2.77-.26,1.01-.06.25-.14.55-.16.68-.03.12-.08.39-.13.59-.11.47-.24,1.06-.32,1.49-.03.19-.11.55-.17.8-.06.25-.11.55-.11.65s-.05.4-.12.66c-.06.26-.13.68-.16.93-.02.25-.1.73-.16,1.07-.06.34-.12.77-.12.96s-.04.57-.09.84c-.05.28-.11.94-.13,1.46-.03.53-.08,1.14-.11,1.35-.09.54-.09,8.09,0,8.49.03.16.08.76.11,1.35.03.59.08,1.22.11,1.41.03.19.07.55.08.82.03.47.16,1.36.26,1.75.03.11.05.32.05.47s.06.53.14.86c.08.33.14.68.14.78,0,.1.04.33.09.51.05.19.11.48.13.65.06.33.12.67.22,1.04.15.59.29,1.25.29,1.35,0,.06.04.19.08.28.04.08.08.21.08.28,0,.12.02.2.25.92.08.25.15.52.15.6,0,.07.05.25.11.4.06.15.11.32.11.38s.05.26.12.43c.06.17.13.36.14.42.06.24.27.91.37,1.15.05.14.13.39.18.56.13.46.28.87.41,1.14.04.08.08.21.08.29s.06.25.14.38c.08.13.14.29.14.35s.05.21.11.33c.06.13.11.27.11.31,0,.07.19.51.4.92.06.11.11.25.11.3s.06.19.14.31c.08.12.14.25.14.28s.08.22.17.43c.1.21.22.49.28.61.06.12.2.44.33.72.13.27.23.52.23.55,0,.03.06.16.14.28.08.12.14.24.14.26,0,.06.63,1.34.68,1.37.02.02.11.18.19.37.26.56.34.7.38.7.03,0,.04.04.04.09s.05.15.11.23c.06.08.11.18.11.22s.03.11.07.15c.04.04.2.3.35.58.15.28.3.56.33.62.03.06.12.19.19.29.07.1.12.2.12.23,0,.03.03.08.08.12.04.04.13.17.2.29.18.35.25.47.36.59.05.06.1.14.1.17,0,.03.06.13.14.22.08.09.14.2.14.23,0,.04.03.1.08.13.04.04.12.15.17.26.05.11.11.2.14.2s.07.06.09.12c.03.11.07.17.24.35.03.04.07.1.07.13s.05.11.11.18c.06.07.11.16.11.21,0,.04.02.07.05.07s.12.11.21.25c.08.14.17.25.2.25.02,0,.04.05.04.11s.02.11.05.11.11.08.17.19c.06.1.16.25.23.32.06.07.11.17.11.21s.02.08.04.09c.02.01.11.12.21.24.22.3.26.35.38.48.05.06.1.12.1.13s.14.21.31.44c.17.22.35.46.41.53.05.07.14.17.2.23.06.05.19.24.3.42.12.17.24.32.28.32s.07.03.07.07c0,.06.26.38.61.74.06.06.18.21.26.34.17.23.35.44.72.82.11.12.21.23.21.25s.06.1.13.16c.24.23,1.72,1.8,1.93,2.05.29.33,1.12,1.15,1.43,1.42.13.11.6.54,1.02.96.42.41.84.8.91.86.08.06.25.22.38.35.13.13.26.24.3.24.04,0,.08.03.1.08.02.04.2.2.4.35.2.15.37.29.37.32,0,.02.03.04.06.04s.13.07.21.16c.22.22.47.43.8.66.16.11.36.26.44.34.08.07.16.13.17.13s.12.08.22.17c.11.1.28.24.39.3.11.07.23.17.28.22.04.05.11.09.15.09.04,0,.08.02.08.04,0,.02.12.12.25.21.14.1.25.19.25.21,0,.02.03.04.07.04.04,0,.12.05.18.11.06.06.13.11.18.11.04,0,.07.02.07.05,0,.05.25.22,1,.73.16.11.29.22.29.24,0,.03.03.05.07.05.05,0,.13.04.2.1.06.06.21.15.32.21.11.06.2.13.2.15,0,.03.03.04.08.04s.12.03.16.07c.04.04.18.13.31.21.13.07.24.15.24.18,0,.02.03.04.08.04.04,0,.11.03.14.07.03.04.17.13.32.21.14.07.25.15.25.18,0,.02.02.04.05.04s.21.1.4.22c.2.12.44.26.55.32.11.04.22.12.27.17.04.04.11.08.14.08s.15.06.25.14c.1.08.21.14.25.14.04,0,.13.04.21.11.08.06.21.12.28.14.06.02.13.07.15.12.02.04.06.08.1.08s.15.04.24.09c.1.05.28.16.42.23.14.07.38.21.53.3.16.09.32.18.37.2.04.02.42.2.82.4.4.2.77.36.8.36s.07.03.07.06c0,.03.04.06.11.06.06,0,.13.04.17.08.04.04.1.08.14.08s.33.13.65.29c.67.33.91.44,1.34.62.17.07.43.19.59.26.16.07.33.13.38.13s.21.06.34.14c.13.08.29.14.35.14.05,0,.19.05.3.11.12.06.25.11.29.11s.21.06.37.13c.16.07.35.15.43.17.15.03.35.11.82.3.16.06.38.14.51.17.27.07,1.02.33,1.18.4.06.03.22.08.37.11.14.03.38.11.53.16.5.18,1.03.34,1.13.34.05,0,.27.06.48.14.21.08.46.14.55.14.08,0,.26.05.4.11.13.06.3.11.36.11s.33.06.59.13c.26.08.66.17.87.22.22.04.49.11.62.14.69.17,1.25.29,1.38.29.08,0,.28.03.42.08.15.04.47.11.7.15.23.03.62.1.87.14.25.04.68.11.96.14.28.03.69.1.9.14.22.04.73.11,1.12.13.4.03.98.09,1.29.14.31.04.97.1,1.46.12.49.02,1.04.06,1.21.08.49.06,6.71.06,7.28,0h0Z" class="cls-1"></path><path d="M65.36,130.28c-.23-.03-.97-.07-1.63-.1-1.39-.06-2.88-.19-3.85-.35-.37-.06-.84-.12-1.04-.15-.2-.02-.57-.07-.82-.11-.25-.05-.7-.12-1.01-.16-.31-.04-.7-.12-.87-.17-.17-.04-.41-.08-.53-.08s-.42-.06-.65-.12c-.23-.07-.57-.14-.76-.16-.19-.03-.46-.08-.62-.13-.15-.05-.42-.1-.59-.12-.17-.02-.47-.08-.68-.14-.39-.11-.88-.24-1.43-.38-.19-.04-.43-.11-.53-.15-.21-.08-.91-.29-1.57-.48-.23-.07-.49-.15-.59-.18-.2-.07-.62-.21-.83-.28-.3-.1-.52-.18-.85-.31-.18-.07-.37-.13-.43-.13-.05,0-.2-.05-.33-.11-.12-.06-.33-.13-.46-.16-.13-.03-.29-.09-.36-.13-.07-.04-.21-.1-.32-.12-.11-.02-.24-.07-.28-.11-.04-.04-.19-.1-.31-.13-.12-.03-.28-.1-.34-.14-.06-.05-.17-.09-.24-.09-.07,0-.13-.02-.13-.04,0-.04-.15-.12-.63-.29-.18-.07-.34-.15-.35-.17-.02-.03-.08-.05-.15-.05-.06,0-.21-.04-.32-.11-.11-.06-.4-.2-.65-.32-.25-.12-.46-.24-.47-.26-.01-.03-.06-.05-.11-.05-.05,0-.34-.12-.66-.28-.31-.15-.72-.35-.91-.43-.19-.09-.35-.17-.37-.19-.02-.02-.15-.08-.29-.14-.15-.06-.27-.12-.27-.13,0-.02-.09-.07-.2-.11-.11-.04-.22-.1-.26-.13-.04-.04-.29-.18-.56-.31-.28-.13-.49-.27-.49-.3,0-.02-.04-.04-.09-.04-.04,0-.17-.06-.27-.14-.1-.08-.21-.14-.25-.14s-.1-.03-.13-.08c-.04-.04-.19-.13-.31-.2-.13-.06-.25-.14-.27-.17-.02-.03-.08-.06-.15-.06-.06,0-.11-.02-.11-.06,0-.03-.03-.06-.06-.06s-.2-.09-.38-.21c-.17-.11-.48-.31-.69-.44-.2-.13-.44-.28-.53-.34-.09-.06-.2-.13-.25-.16-.05-.03-.17-.11-.27-.18-.1-.07-.2-.13-.24-.13s-.08-.05-.12-.11c-.03-.06-.11-.11-.17-.11-.06,0-.11-.02-.12-.04-.02-.06-.56-.43-.68-.48-.06-.02-.1-.06-.1-.08s-.08-.09-.18-.13c-.19-.07-.33-.19-.56-.43-.07-.07-.16-.13-.2-.13s-.07-.02-.07-.04c0-.03-.06-.07-.12-.11-.07-.03-.33-.22-.58-.42-.25-.2-.6-.46-.77-.57-.17-.12-.33-.25-.35-.3-.02-.04-.06-.08-.11-.08-.04,0-.16-.09-.27-.2-.1-.11-.28-.25-.39-.32-.11-.06-.21-.13-.22-.16-.02-.02-.22-.2-.46-.4-.24-.19-.62-.51-.84-.71-.23-.2-.48-.41-.56-.48-.61-.52-1.16-1.05-2.91-2.8-1.1-1.1-2.17-2.19-2.38-2.42-.77-.86-.83-.93-.83-1,0-.04-.02-.07-.04-.07s-.19-.18-.38-.4c-.57-.68-.61-.74-.75-.87-.07-.07-.12-.15-.12-.19s-.02-.07-.04-.08c-.03,0-.12-.12-.21-.24-.1-.12-.2-.25-.24-.27-.04-.02-.07-.08-.07-.12s-.05-.11-.11-.14c-.06-.03-.11-.1-.11-.15,0-.04-.03-.1-.08-.11-.04-.02-.19-.19-.31-.39-.13-.2-.25-.36-.28-.36s-.07-.06-.09-.12c-.02-.07-.08-.16-.14-.2-.06-.04-.11-.1-.11-.13s-.06-.12-.14-.21c-.08-.08-.14-.18-.14-.22,0-.03-.04-.1-.1-.14-.05-.04-.2-.22-.32-.41-.27-.4-.27-.4-.45-.62-.08-.1-.14-.2-.14-.23s-.06-.11-.14-.19c-.08-.07-.14-.16-.14-.2,0-.04-.06-.14-.14-.23-.07-.08-.17-.23-.2-.31-.03-.08-.08-.16-.11-.16s-.05-.03-.05-.08-.03-.12-.07-.16c-.07-.07-.37-.51-.43-.64-.02-.05-.25-.42-.47-.79-.04-.06-.12-.19-.18-.28-.15-.23-.2-.31-.36-.6-.07-.13-.15-.26-.17-.28-.02-.02-.08-.12-.13-.22-.04-.11-.15-.3-.23-.42-.08-.12-.19-.33-.25-.45-.07-.12-.19-.35-.27-.51-.35-.63-.31-.55-.86-1.66-.25-.51-.49-.98-.52-1.04-.11-.2-.15-.27-.44-.9-.16-.34-.34-.72-.39-.84-.06-.12-.11-.27-.11-.32,0-.06-.02-.1-.04-.1-.03,0-.09-.11-.15-.24-.28-.66-.39-.94-.49-1.15-.06-.12-.11-.26-.11-.29s-.05-.15-.11-.26c-.06-.11-.11-.25-.11-.31s-.06-.23-.14-.38c-.08-.15-.14-.3-.14-.35s-.02-.11-.04-.13c-.06-.06-.24-.56-.24-.66,0-.06-.05-.18-.11-.28-.06-.1-.11-.23-.11-.29,0-.06-.06-.25-.13-.42-.07-.17-.19-.51-.26-.74-.07-.23-.18-.56-.24-.73-.06-.17-.13-.41-.16-.53-.03-.2-.11-.43-.34-1.12-.03-.09-.09-.33-.13-.51-.04-.19-.12-.48-.19-.65-.06-.17-.11-.37-.11-.44s-.04-.25-.09-.39c-.05-.14-.11-.39-.14-.56-.03-.17-.09-.45-.14-.62-.05-.17-.11-.46-.13-.65-.02-.19-.07-.39-.1-.46-.04-.06-.1-.34-.13-.62-.03-.28-.1-.6-.15-.71-.04-.12-.11-.53-.16-.92-.04-.38-.11-.75-.15-.82-.03-.07-.08-.37-.11-.66-.03-.3-.08-.69-.11-.88-.03-.19-.08-.62-.1-.96-.03-.34-.07-.66-.1-.7-.05-.08-.08-.48-.19-2.3-.03-.54-.08-1.25-.11-1.57-.07-.79-.07-5.14,0-5.99.03-.37.08-1.07.11-1.55.06-1.24.16-2.36.21-2.44.02-.03.06-.29.08-.57.03-.28.07-.7.11-.93.03-.23.08-.61.11-.84.02-.23.1-.69.16-1.01.23-1.2.3-1.61.38-2.05.04-.25.11-.57.16-.73.04-.15.08-.38.08-.51s.06-.43.14-.68c.08-.25.14-.51.14-.59s.04-.27.11-.43c.06-.16.12-.4.14-.54.02-.14.09-.38.15-.55.06-.16.11-.34.11-.4s.04-.26.11-.43c.06-.18.15-.48.2-.66.06-.19.12-.36.15-.39.03-.03.05-.1.05-.17,0-.11.2-.78.39-1.35.06-.15.15-.4.2-.56.06-.15.15-.42.2-.59.06-.17.13-.36.16-.42.04-.11.12-.33.29-.82.07-.22.3-.76.45-1.1.06-.13.11-.27.11-.31,0-.04.04-.17.11-.28.06-.11.13-.3.17-.42.04-.12.1-.29.14-.37.04-.08.15-.33.25-.56.25-.59.24-.57.59-1.31.17-.37.31-.68.31-.7s.05-.1.11-.18c.06-.08.11-.2.11-.26,0-.07.02-.13.04-.13.02,0,.08-.08.13-.18.49-1.01.5-1.02.78-1.54.1-.19.23-.45.29-.58.06-.14.16-.3.22-.37.06-.06.11-.14.11-.18,0-.03.05-.13.11-.21.06-.08.11-.17.11-.21,0-.03.06-.15.14-.25.08-.1.14-.22.14-.27,0-.05.02-.09.05-.09s.08-.08.12-.18c.04-.1.13-.26.2-.36.07-.1.13-.2.13-.22s.06-.12.14-.21c.08-.09.14-.2.14-.24,0-.04.02-.07.04-.07s.1-.11.17-.24c.07-.13.2-.35.29-.49.09-.14.2-.32.23-.41.03-.08.08-.15.11-.15.02,0,.1-.11.17-.25.07-.14.15-.25.17-.25.03,0,.05-.03.05-.07,0-.04.05-.12.12-.19.07-.06.17-.2.22-.32.06-.11.13-.21.16-.21.03,0,.06-.02.06-.05,0-.08.41-.68.46-.68.03,0,.05-.04.05-.1,0-.05.04-.13.08-.18.12-.12.7-.9.7-.93,0-.02.04-.08.1-.13.16-.17.21-.25.38-.5.08-.13.18-.24.2-.24.03,0,.05-.03.05-.06,0-.06.23-.35.91-1.16.21-.25.38-.49.38-.52s.02-.06.04-.06c.02,0,.16-.16.32-.35.28-.34.42-.51.94-1.07.15-.16.32-.34.38-.41.06-.07.11-.13.11-.15,0-.16,4.22-4.42,4.86-4.9.12-.1.26-.21.31-.27.04-.05.11-.1.15-.1.03,0,.16-.11.28-.25.12-.14.24-.25.26-.25s.17-.12.34-.28c.16-.15.41-.38.55-.5.14-.13.28-.24.31-.24.03,0,.17-.11.31-.25.13-.13.28-.25.32-.25.03,0,.07-.02.07-.04,0-.03.09-.11.2-.18.11-.07.24-.17.3-.22.06-.05.31-.24.56-.42.25-.18.46-.35.46-.38,0-.03.03-.05.08-.05.04,0,.11-.04.15-.09.04-.05.22-.19.42-.31.19-.13.37-.26.39-.29.03-.03.1-.08.15-.12.37-.23.58-.39.6-.43.01-.03.05-.05.09-.05s.13-.06.2-.14c.07-.08.15-.14.17-.14.06,0,.61-.35.61-.39,0-.02.11-.1.25-.17.14-.07.25-.16.25-.18,0-.03.05-.05.11-.05s.11-.02.11-.04.12-.12.28-.21c.15-.1.28-.19.28-.21,0-.03.05-.04.11-.04.06,0,.12-.02.13-.05.02-.06.63-.46.69-.46.03,0,.13-.06.23-.14.1-.08.22-.14.27-.14.05,0,.09-.02.09-.04,0-.03.07-.08.16-.13.08-.04.29-.16.46-.27.17-.11.51-.3.76-.43.25-.13.51-.26.56-.3.06-.03.15-.07.2-.1.04-.02.21-.11.37-.2.16-.09.37-.21.48-.26.11-.05.24-.11.28-.14.04-.03.21-.11.38-.19.16-.07.3-.16.33-.19.02-.03.08-.06.13-.06s.17-.05.25-.11c.08-.06.17-.11.2-.11s.16-.06.29-.14c.12-.08.25-.14.28-.14s.16-.06.28-.14c.12-.08.26-.14.3-.14s.15-.03.24-.08c.08-.04.34-.16.55-.26.22-.1.49-.22.62-.29.12-.06.26-.11.3-.11s.2-.06.35-.14c.15-.08.33-.14.39-.14s.12-.02.13-.04c.03-.07.38-.24.5-.24.06,0,.19-.05.29-.11.1-.06.22-.11.27-.11s.17-.05.29-.11c.11-.06.47-.2.82-.32.34-.11.66-.24.73-.27.06-.03.19-.08.28-.1.09-.02.4-.12.68-.22.28-.1.67-.22.87-.28.2-.06.49-.15.65-.2.16-.05.38-.12.51-.15.12-.03.25-.08.28-.11.03-.02.15-.04.26-.04s.22-.02.26-.05c.09-.08.62-.23.82-.23.11,0,.21-.02.25-.04.03-.03.15-.07.28-.11.12-.03.43-.12.68-.19.25-.07.64-.16.87-.2.23-.04.55-.11.7-.16.16-.05.47-.11.69-.15.22-.04.42-.1.44-.12.02-.02.16-.04.32-.04s.38-.03.49-.06c.2-.06.58-.13,1.24-.21.2-.03.48-.08.62-.11.14-.03.52-.08.84-.12.33-.03.74-.1.93-.14.19-.04.68-.11,1.1-.14.42-.03.92-.08,1.12-.11.2-.03.97-.08,1.72-.11.74-.03,1.45-.08,1.57-.11.29-.07,4.72-.07,5.15,0,.17.03.88.08,1.57.11.7.03,1.48.08,1.74.11.26.03.74.08,1.07.11.33.03.83.1,1.12.15.29.05.84.12,1.21.17.8.1,1.37.19,1.7.26.13.03.31.05.4.05.1,0,.24.03.33.07.08.03.29.08.44.1.42.06,1.2.22,1.55.32.29.08.6.15,1.77.42.28.06.58.15.67.2.09.04.21.08.27.08.15,0,.74.17.8.23.03.03.13.05.22.05.09,0,.31.05.48.11.17.06.58.19.91.29.33.1.72.23.87.29.16.06.37.12.48.14.11.02.25.07.31.12.06.04.18.07.26.07.09,0,.16.02.16.05s.06.06.13.08c.16.03.45.14.75.28.13.06.29.1.34.1.06,0,.23.07.38.14.16.08.32.14.37.14s.17.05.27.11c.1.06.22.11.28.11.05,0,.22.07.38.14.16.08.31.14.34.14.04,0,.18.06.31.14.13.08.29.14.33.14s.19.04.31.11c.61.29.86.39.97.43.06.02.15.07.19.11.04.04.11.08.16.08.07,0,1.97.92,2.54,1.23.05.02.16.08.25.13.1.05.3.16.45.23.47.24,1.16.62,1.6.89.23.14.6.35.81.46.21.11.45.25.53.3.44.3.86.56,1.01.62.07.03.2.1.28.16.08.06.26.18.4.27.14.09.29.2.33.24.04.04.16.11.25.16.1.05.19.11.21.13.02.02.2.15.41.28.21.13.38.27.38.29,0,.03.04.05.08.05s.13.04.19.1c.12.1.34.27.54.41.49.33.93.64.99.71.03.05.08.08.11.08s.1.04.15.09c.05.04.28.22.49.39.22.17.45.36.51.42.07.06.14.11.16.11.04,0,.63.47.98.79.13.12.26.22.29.22.02,0,.07.03.09.07.02.04.13.13.24.21.11.07.24.17.29.22.05.05.22.2.39.34.16.14.4.36.54.49.13.13.26.24.29.24.03,0,.08.05.12.11.04.06.09.11.12.11.13,0,3.63,3.45,4.28,4.24.2.24.38.43.4.43s.04.03.04.07.07.13.16.21c.08.08.23.22.32.33.1.11.32.37.51.57.44.48.57.64.6.71.01.03.12.17.24.3.44.5,1.05,1.27,1.05,1.32,0,.02.05.08.11.12.06.04.11.11.11.15s.02.08.04.08c.02,0,.13.13.25.3.38.52,1.05,1.41,1.14,1.53.04.06.11.16.14.22.03.06.14.22.25.37.11.14.25.35.31.46.07.12.15.21.17.21.02,0,.04.03.04.08,0,.04.03.11.08.14.04.04.13.17.2.29.07.12.15.26.17.29.22.26.28.34.28.39,0,.03.06.13.14.24.08.1.14.2.14.22,0,.02.11.2.25.41.14.2.25.39.25.42,0,.03.03.1.07.13.17.2.21.25.21.33,0,.04.03.11.07.13.04.02.12.12.16.21.35.67.42.79.46.8.02.01.04.06.04.11,0,.04.06.16.14.26.08.1.14.2.14.22,0,.02.17.35.38.73.21.38.42.77.46.87.04.1.1.18.12.18s.05.04.05.08c0,.05.06.19.14.31.08.12.14.25.14.29s.05.13.11.21c.06.08.11.17.11.21s.06.17.14.29c.08.12.14.25.14.29s.05.16.11.27c.06.11.18.37.26.57.26.63.34.79.38.79.02,0,.04.06.04.14s.02.14.05.14.08.08.12.19c.03.1.12.31.2.48.07.16.13.33.13.38s.06.21.13.38c.32.71.37.84.37.93,0,.05.06.21.14.34.08.13.14.3.14.37,0,.07.02.15.06.17.03.02.11.21.17.44.06.22.14.43.16.46.02.03.09.21.14.41.06.19.12.37.15.38.03.02.05.1.05.17,0,.07.04.22.09.31.18.34.19.38.19.53,0,.09.04.21.08.26.04.06.08.18.08.26s.03.17.06.19c.03.02.06.1.06.17s.03.21.08.29c.05.08.11.28.13.43.03.16.11.43.17.62.15.44.29,1,.34,1.32.02.14.1.41.16.6.07.19.12.42.12.51,0,.08.05.3.11.47.06.17.11.39.11.48,0,.1.06.42.13.7.07.29.15.67.17.84.02.17.08.4.12.53.04.12.11.41.13.65s.08.56.11.71c.03.16.08.49.1.76.02.26.06.52.09.56.05.08.11.5.2,1.6.02.28.07.64.11.79.03.16.09.89.12,1.63.03.74.1,1.71.15,2.15.07.65.08,1.27.06,3.21-.01,1.33-.05,2.57-.08,2.77-.03.2-.09.92-.12,1.6-.03.68-.09,1.42-.12,1.63-.03.22-.08.64-.11.93-.1.99-.15,1.38-.21,1.6-.03.12-.06.33-.06.46s-.05.47-.11.75c-.06.29-.11.59-.11.67,0,.15-.19,1.1-.42,2.09-.08.33-.14.66-.14.73s-.05.3-.11.5c-.06.2-.11.43-.11.51s-.06.32-.14.53c-.07.22-.14.47-.14.56,0,.1-.05.3-.11.47-.06.16-.11.34-.11.4s-.06.29-.13.52c-.07.22-.19.61-.26.86-.17.6-.28.93-.33,1.07-.07.19-.29.83-.37,1.1-.09.32-.18.57-.34.96-.07.17-.13.36-.13.41s-.05.19-.11.32c-.06.12-.11.26-.11.3,0,.05-.06.22-.13.38-.07.16-.15.35-.16.41-.03.1-.16.43-.43,1.07-.02.06-.11.26-.19.44-.08.17-.15.35-.15.38s-.11.29-.25.58c-.14.29-.25.55-.25.56,0,.06-.81,1.77-.96,2.01-.02.04-.19.38-.36.73-.43.87-.88,1.71-.94,1.73-.03.01-.05.06-.05.1,0,.1-.19.42-.24.42-.03,0-.04.05-.04.11,0,.06-.03.13-.06.15-.03.02-.11.14-.17.26-.06.12-.14.26-.17.29-.05.06-.53.85-1,1.64-.11.19-.25.38-.3.44-.06.06-.13.17-.16.26-.04.09-.09.16-.12.16s-.05.02-.05.05c0,.03-.11.22-.25.42-.13.2-.26.41-.28.48-.02.07-.06.12-.09.12s-.11.1-.17.22c-.07.13-.15.24-.2.26-.04.02-.08.06-.08.11s-.05.12-.11.17c-.06.06-.11.13-.11.16,0,.04-.02.08-.05.09-.04.02-.15.16-.43.6-.12.19-.65.89-.73.97-.04.05-.08.12-.08.15,0,.04-.02.07-.04.07-.03,0-.12.11-.21.25-.09.13-.19.25-.21.25-.03,0-.04.03-.04.06,0,.06-.6.79-.92,1.14-.08.08-.15.17-.15.2,0,.02-.08.13-.17.24-.1.11-.25.29-.35.41-.17.21-.81.91-1.12,1.23-.09.09-.16.17-.16.19,0,.15-4.11,4.3-4.89,4.94-.26.22-.53.44-.59.51-.06.06-.28.25-.48.42-.2.17-.43.37-.52.45-.08.08-.32.27-.51.42-.2.15-.45.35-.56.46-.11.11-.23.19-.25.19s-.13.08-.24.19c-.11.11-.3.26-.44.34-.13.08-.24.18-.24.21,0,.03-.04.06-.08.06s-.11.05-.15.11c-.04.06-.1.11-.13.11s-.1.04-.14.09c-.04.05-.18.16-.3.24-.12.08-.25.17-.29.2-.03.03-.12.1-.19.15-.07.04-.2.13-.28.2-.15.12-.4.29-.56.39-.05.03-.22.16-.39.3-.17.13-.33.24-.37.24s-.13.06-.2.14c-.07.08-.16.14-.19.14-.03,0-.14.06-.24.14-.1.08-.21.14-.24.14s-.1.05-.15.11c-.06.06-.13.11-.16.11s-.13.06-.21.14c-.08.08-.19.14-.23.14s-.12.05-.18.11c-.06.06-.13.11-.16.11-.03,0-.14.06-.24.14-.1.08-.2.14-.22.14s-.12.06-.22.14c-.1.08-.2.14-.22.14-.06,0-.69.41-.7.46-.01.02-.06.04-.11.04s-.16.05-.24.11c-.08.06-.17.11-.21.11s-.14.04-.22.11c-.25.17-.53.33-.78.45-.13.06-.25.13-.27.17-.02.03-.08.06-.12.06s-.14.05-.21.11c-.07.07-.19.13-.26.15-.08.02-.2.08-.28.14-.07.06-.17.1-.21.1s-.17.06-.28.14c-.11.08-.24.14-.27.14s-.12.05-.2.11c-.08.06-.18.11-.22.11-.05,0-.18.06-.29.14-.11.08-.23.14-.26.14s-.15.06-.26.14c-.11.08-.26.14-.31.14-.06,0-.17.05-.25.11-.08.06-.19.11-.25.11-.06,0-.22.06-.37.13-.15.07-.38.19-.52.25-.14.06-.39.18-.55.26-.17.08-.35.15-.4.15s-.13.04-.17.08c-.04.04-.12.08-.17.08s-.12.03-.13.06c-.02.03-.1.06-.17.06s-.15.02-.17.05c-.02.03-.12.08-.24.12-.11.04-.33.13-.48.2-.16.07-.32.13-.37.13-.05,0-.17.05-.28.11-.1.06-.23.11-.29.11-.06,0-.22.06-.35.14-.13.08-.31.14-.39.14s-.25.05-.38.12c-.13.06-.34.13-.45.15-.11.02-.23.06-.26.08-.08.07-1.02.38-1.33.45-.15.03-.34.09-.42.13-.08.04-.22.08-.31.08s-.16.02-.18.05c-.02.03-.13.07-.26.09-.12.02-.24.06-.26.09-.02.03-.09.05-.17.05s-.2.03-.26.08c-.07.04-.25.1-.4.12-.15.02-.4.08-.56.14-.15.06-.4.12-.56.14-.15.02-.37.07-.48.12-.11.04-.36.12-.56.16-.2.04-.47.11-.59.14-.12.04-.39.09-.59.12-.43.06-.93.17-.99.24-.02.02-.19.04-.36.04s-.41.03-.52.08c-.1.04-.44.11-.75.15-.31.03-.7.1-.87.14-.17.04-.61.11-.98.15-.37.03-.92.11-1.23.17-.3.06-.7.11-.87.11s-.66.04-1.08.09c-.42.05-1.27.11-1.88.13-.62.03-1.24.08-1.38.11-.3.07-3.99.07-4.61,0h0ZM50.08,95.94c.1-.08.1-.43.1-8.83,0-6.51-.02-8.78-.07-8.88-.06-.14-.07-.14-.75-.14s-.69,0-.78.14c-.08.12-.09.79-.09,7.2,0,3.88-.02,7.06-.05,7.06-.02,0-.15-.15-.28-.32-.13-.18-.31-.42-.42-.52-.2-.22-1.45-1.76-1.68-2.08-.08-.11-.21-.26-.29-.34-.08-.08-.15-.17-.15-.2,0-.03-.04-.1-.1-.15-.06-.05-.13-.13-.16-.17-.26-.34-.52-.66-.63-.78-.07-.08-.31-.38-.55-.68-.23-.29-.46-.57-.49-.62-.36-.42-.61-.72-.61-.75s-.24-.32-.43-.53c-.07-.07-.13-.15-.13-.18,0-.02-.06-.1-.12-.16-.07-.06-.17-.17-.23-.25-.2-.28-.72-.93-.83-1.04-.06-.07-.11-.13-.11-.15,0-.01-.09-.12-.2-.24-.11-.12-.3-.36-.42-.53-.12-.17-.26-.33-.31-.35-.04-.02-.08-.07-.08-.11,0-.04-.04-.12-.1-.17-.21-.2-1.2-1.42-1.2-1.47,0-.02-.07-.1-.15-.18-.22-.22-.64-.73-.64-.78,0-.02-.04-.08-.08-.13-.25-.25-.56-.62-.69-.8-.08-.12-.17-.21-.19-.21-.03,0-.05-.03-.05-.07,0-.03-.13-.21-.3-.39-.28-.3-.32-.32-.56-.32h-.26l-.03.24c-.02.13-.03,4.1-.02,8.82.02,8.35.02,8.59.12,8.71.1.11.17.12.73.12.5,0,.64-.02.73-.1.1-.08.1-.39.1-7.26,0-4.44.02-7.16.05-7.16.03,0,.17.16.33.35.27.35.37.47.58.69.06.07.11.15.11.19s.02.07.05.07c.02,0,.11.1.19.21.08.11.22.29.32.39.1.1.17.21.17.24s.06.1.14.15c.08.05.14.13.14.17,0,.04.02.08.05.08.02,0,.11.1.19.21.13.2.49.65.69.86.04.05.08.12.08.15,0,.04.02.07.06.07.03,0,.23.24.46.53.22.29.42.53.45.53s.07.04.09.1c.02.05.08.13.12.19.17.19.26.3.39.5.07.11.15.21.17.22.05.04.91,1.07,1.04,1.24.05.07.16.22.23.33.08.1.19.22.25.27.07.04.12.12.12.16s.02.08.04.08c.03,0,.17.17.32.38.15.21.31.4.35.42.04.02.07.08.07.12,0,.04.02.08.05.08s.2.2.39.44c.19.24.4.5.47.59.07.08.17.2.21.28.04.07.19.24.31.39.21.24.32.38.73.88.08.1.14.21.14.24s.02.06.05.06c.02,0,.16.14.29.32.13.17.34.42.46.55.12.13.22.28.25.34.02.05.05.1.08.1.02,0,.09.07.15.16.1.15.43.56.65.8.05.06.1.12.1.15,0,.02.05.08.11.13.06.05.13.13.15.17.05.08.34.26.44.26.03,0,.1-.04.16-.1h0ZM62.47,95.97c1.37-.13,1.78-.22,2.34-.51.11-.06.25-.11.3-.11.06,0,.19-.06.29-.14.1-.08.22-.14.26-.14.05,0,.1-.02.11-.04.01-.02.19-.16.39-.31.81-.57,1.46-1.38,1.96-2.46.22-.48.44-1.14.44-1.34,0-.08.06-.31.13-.52l.12-.37.02-5.91c.02-5.54.01-5.91-.08-5.97-.06-.05-.31-.07-.76-.07-.64,0-.67,0-.71.13-.03.07-.05,2.56-.06,5.55,0,2.99-.02,5.45-.04,5.47-.02.02-.06.36-.11.74-.04.39-.11.79-.16.89-.04.1-.1.26-.12.34-.05.21-.43,1.02-.49,1.04-.03.01-.05.07-.05.13,0,.06-.02.11-.06.11-.03,0-.12.1-.2.21-.18.27-.76.86-.84.86-.04,0-.11.05-.17.11-.06.06-.12.11-.15.11-.03,0-.14.06-.25.14-.11.08-.24.14-.29.14s-.15.05-.23.11c-.08.06-.31.13-.5.17-.2.04-.44.1-.55.15-.29.12-2.28.08-2.58-.05-.12-.05-.28-.09-.37-.09s-.28-.06-.44-.14c-.15-.07-.33-.14-.38-.14s-.13-.03-.17-.07c-.04-.04-.22-.16-.39-.26-.46-.27-1.1-.92-1.27-1.28-.05-.1-.11-.19-.13-.19-.02,0-.04-.04-.04-.09s-.05-.16-.11-.24c-.06-.08-.15-.25-.19-.38-.05-.12-.12-.32-.17-.44-.04-.12-.12-.38-.15-.56-.04-.19-.09-.41-.12-.5-.03-.09-.05-2.71-.05-5.93v-5.77l-.12-.13c-.11-.12-.16-.13-.77-.13-.63,0-.66.01-.75.14-.1.13-.1.41-.08,5.59.02,5.59.03,5.8.26,6.87.14.69.53,1.8.64,1.8.02,0,.04.04.04.08,0,.1.33.66.43.72.04.02.07.08.07.12,0,.04.25.33.55.63.67.69.82.81.93.81.05,0,.09.02.09.06,0,.03.11.11.24.17.13.07.25.14.26.16.02.02.12.07.24.11.12.04.29.1.37.15.08.04.2.08.27.08.06,0,.13.02.17.04.17.14,1.14.32,2.08.37.16,0,.33.02.39.02.06,0,.37-.02.68-.05h0ZM81.38,95.6c.25-.03.49-.08.53-.11.04-.03.19-.08.33-.1.43-.06,1.57-.54,2.33-.98.28-.16,1.04-.75,1.04-.8,0-.03.02-.05.06-.05.21,0,1.53-1.61,1.74-2.12.04-.1.1-.19.12-.19.02,0,.06-.06.08-.12.02-.07.1-.25.16-.41.38-.83.62-1.72.74-2.73.11-.98.11-1.24,0-2.24-.08-.73-.25-1.45-.49-2.06-.06-.15-.11-.32-.11-.38,0-.06-.02-.11-.04-.11-.03,0-.08-.1-.13-.21-.19-.42-.22-.49-.29-.6-.04-.06-.15-.24-.25-.4-.1-.16-.22-.32-.27-.36-.05-.04-.09-.1-.09-.13,0-.08-.47-.63-.81-.96-.33-.31-1.04-.89-1.16-.95-.04-.02-.25-.14-.44-.26-.19-.12-.37-.22-.39-.22s-.26-.11-.54-.25c-.28-.14-.55-.25-.59-.25s-.27-.06-.51-.14c-.23-.07-.61-.16-.84-.2-.23-.03-.48-.08-.55-.11-.07-.03-1.73-.05-3.8-.05-3.3,0-3.68.01-3.71.09-.02.05-.03,3.98-.03,8.74,0,8.18,0,8.66.1,8.71.12.07,7.14.05,7.81-.03h0ZM104.13,95.6c.1-.11.1-1.18,0-1.28-.04-.04-1.44-.07-5.09-.08h-5.03v-6.71h9.53l.13-.12c.12-.11.13-.17.13-.64,0-.44-.02-.52-.11-.61-.11-.09-.45-.1-4.89-.1h-4.78v-6.53h5c2.74,0,5.02-.02,5.05-.04.16-.1.2-.3.16-.76-.02-.25-.06-.51-.09-.56-.04-.1-.38-.1-5.81-.1h-5.76l-.08.12c-.08.11-.09,1.03-.09,8.7,0,8.09,0,8.58.1,8.67.09.1.42.1,5.84.1,5.29,0,5.75,0,5.82-.09h0ZM121.02,69.9c.19-.2.19-.52.02-.73l-.13-.14H14.01l-.11.19c-.13.2-.11.46.04.69l.08.13h106.87l.13-.15h0ZM26.18,61.12c.06-.08.15-.24.19-.35.04-.11.1-.2.13-.21.03-.01.06-.08.06-.15s.02-.15.05-.17c.03-.03.15-.25.26-.48.11-.23.23-.46.25-.51.46-.89,1.07-2.16,1.07-2.23,0-.03.03-.09.07-.12.04-.03.11-.16.15-.29.04-.12.1-.22.12-.22s.06-.06.08-.12c.02-.07.33-.71.67-1.42.35-.71.65-1.35.68-1.42.02-.07.06-.13.08-.13s.07-.06.08-.12c.02-.07.46-.96.96-1.99.51-1.02.92-1.88.92-1.92,0-.03.02-.07.04-.08.06-.02.46-.82.46-.91,0-.03.04-.1.09-.16.05-.06.12-.22.16-.37.05-.17.1-.28.16-.29.08-.02.1.04.1.42,0,.24.04.67.09.95.08.48.13.88.24,2.23.03.33.07.62.09.66.03.04.07.34.1.68.08,1.08.16,1.75.2,1.82.02.04.06.37.08.72.02.35.07.86.1,1.12.03.26.08.77.1,1.13.03.35.07.68.08.71.04.06.18,1.3.24,2.1.02.26.07.61.12.78l.09.29h.66c.81,0,.8,0,.72-.68-.03-.26-.08-.7-.11-.98-.02-.28-.07-.63-.1-.79-.03-.15-.09-.64-.12-1.07-.03-.43-.08-.89-.11-1.01-.03-.12-.1-.64-.15-1.15-.04-.51-.11-1.03-.14-1.15-.03-.12-.09-.59-.13-1.04-.05-.45-.11-.98-.15-1.18-.03-.2-.08-.66-.1-1.01-.03-.35-.07-.79-.11-.96-.14-.71-.18-1.02-.18-1.47,0-.26-.04-.59-.08-.74-.04-.15-.11-.64-.14-1.1-.04-.46-.1-.98-.14-1.17-.04-.19-.1-.57-.12-.86-.04-.57-.1-.69-.34-.69-.19,0-.3.15-.61.76-.14.28-.28.55-.3.59-.03.04-.08.15-.11.22-.03.08-.08.18-.11.22-.03.04-.07.13-.11.2-.03.06-.1.2-.16.31-.11.22-.13.25-.4.8-.11.22-.23.46-.26.52-.03.06-.19.35-.33.65-.15.29-.3.56-.33.59-.03.03-.05.1-.05.14,0,.05-.05.15-.11.23-.06.08-.11.18-.11.22,0,.05-.06.18-.14.29-.08.11-.14.23-.14.26s-.06.15-.14.26c-.08.11-.14.24-.14.29s-.04.15-.11.23c-.06.08-.12.21-.15.29-.02.08-.06.15-.08.17-.04.03-.31.56-1.2,2.31-.42.84-.43.86-.57,1.1-.05.1-.17.33-.26.53-.09.2-.21.43-.25.51-.04.08-.19.37-.33.65-.14.28-.28.55-.3.59-.11.19-.26.49-.42.82-.09.19-.19.38-.21.42-.03.04-.14.27-.25.5-.11.22-.24.4-.27.39-.03,0-.11-.12-.18-.25-.06-.13-.15-.29-.18-.34-.1-.14-.35-.65-.35-.71,0-.03-.06-.13-.14-.24-.08-.1-.14-.22-.14-.26s-.05-.15-.11-.24c-.06-.09-.11-.2-.11-.25s-.06-.16-.14-.26c-.08-.1-.14-.22-.14-.26,0-.05-.02-.1-.05-.13-.03-.03-.15-.25-.26-.48-.11-.23-.24-.47-.27-.53-.06-.12-.19-.38-.28-.55-.11-.22-.15-.3-.24-.47-.05-.09-.17-.33-.26-.53-.1-.2-.2-.4-.23-.45-.02-.04-.11-.21-.19-.37-.07-.15-.17-.34-.22-.42-.04-.08-.16-.3-.25-.51-.1-.2-.21-.44-.26-.53-.09-.16-.12-.22-.26-.51-.03-.06-.08-.15-.1-.2-.03-.04-.22-.44-.44-.87-.21-.43-.43-.86-.48-.96-.06-.09-.11-.21-.13-.25-.07-.15-.15-.3-.25-.48-.05-.09-.15-.27-.2-.39-.06-.12-.13-.26-.16-.31-.03-.04-.1-.19-.16-.31-.33-.65-1.09-2.15-1.13-2.22-.03-.04-.1-.18-.15-.3-.16-.33-.33-.49-.52-.49-.18,0-.19.02-.26.59-.02.16-.07.47-.11.7-.04.23-.09.69-.11,1.01-.02.33-.07.73-.12.91-.04.17-.08.47-.08.66s-.02.46-.05.61c-.09.46-.19,1.15-.24,1.68-.05.58-.19,1.69-.31,2.59-.04.34-.12.98-.16,1.41-.04.44-.11.91-.14,1.04-.03.13-.1.68-.14,1.2-.05.53-.12,1.11-.17,1.31-.05.2-.08.52-.08.73s-.05.68-.12,1.05c-.16.93-.19,1.36-.11,1.46.06.07.21.08.72.08.74,0,.79-.03.8-.45,0-.14.03-.35.06-.48.03-.12.1-.63.14-1.12.04-.49.12-1.14.16-1.44.05-.29.11-.88.15-1.3.03-.42.08-.88.12-1.04s.08-.62.1-1.04c.02-.42.06-.79.08-.82.07-.11.21-1.19.21-1.6,0-.22.03-.52.06-.66.1-.42.16-.95.21-1.74.03-.42.1-.92.15-1.12.05-.2.08-.43.06-.52-.04-.2.03-.21.12-.03.04.07.09.16.12.21.03.04.15.29.26.53.12.25.24.46.26.47.02.01.04.06.04.1s.06.18.14.3c.08.12.14.24.14.26,0,.04.68,1.46.91,1.9.19.35,1.61,3.27,1.68,3.45.04.1.09.18.12.18.02,0,.07.1.11.22.03.12.1.26.14.3.04.04.08.1.08.13,0,.02.29.62.64,1.34.35.71.96,1.95,1.36,2.74.62,1.28.73,1.46.86,1.48.08.02.18.04.21.04.11.03.33-.08.44-.23h0ZM80.75,61.16c.14-.06.33-.11.42-.11s.21-.02.26-.05c.22-.12.51-.23.6-.23.05,0,.13-.02.19-.05.05-.03.17-.08.26-.12.33-.13.86-.42.99-.54.04-.04.12-.08.15-.08.04,0,.11-.03.16-.08.06-.04.31-.24.56-.42.25-.19.47-.38.49-.43.02-.04.06-.08.1-.08s.11-.08.15-.17c.09-.21.06-.26-.43-.77-.24-.26-.37-.35-.48-.35-.08,0-.15.02-.15.04,0,.03-.2.21-.43.42-.24.2-.5.42-.57.49-.07.07-.17.12-.21.12-.04,0-.07.02-.07.04,0,.03-.07.08-.15.13-.09.04-.25.13-.35.2-.11.07-.26.14-.35.16-.08.02-.18.07-.22.12-.03.04-.12.08-.19.08s-.24.06-.38.12c-.28.13-.46.17-1.57.31-.71.09-.82.09-1.49,0-.89-.11-1.5-.26-1.63-.4-.02-.02-.1-.04-.16-.04-.07,0-.16-.03-.19-.08-.04-.04-.12-.1-.2-.11-.12-.03-.28-.12-.84-.49-.06-.04-.15-.11-.2-.16-.04-.05-.18-.15-.29-.21-.11-.07-.35-.28-.52-.47-.49-.52-.54-.59-.54-.65,0-.03-.03-.08-.07-.11-.08-.06-.68-.94-.77-1.14-.03-.08-.08-.18-.11-.22-.09-.15-.34-.82-.34-.9,0-.05-.02-.11-.06-.15-.03-.03-.07-.14-.09-.25-.02-.11-.05-.32-.08-.48-.12-.74-.17-1.32-.14-1.63.08-.75.24-1.64.31-1.74.02-.03.06-.13.07-.23.02-.1.13-.39.26-.66.12-.26.22-.51.22-.53,0-.03.02-.07.05-.08.02,0,.11-.12.18-.25.49-.83,1.31-1.73,1.99-2.19.19-.12.35-.25.36-.27.01-.03.12-.1.25-.16.12-.06.27-.13.31-.16.29-.17,1.15-.48,1.64-.58.48-.1,2.3-.09,2.81.02.55.12,1.1.29,1.35.41.11.05.31.15.45.21.36.17.96.55.96.61,0,.03.03.05.07.05.03,0,.1.03.15.08.87.78.89.8,1.09.69.2-.11.5-.39.5-.47,0-.04.03-.07.06-.07.06,0,.28-.32.28-.4,0-.02-.17-.2-.37-.39-.53-.51-.52-.5-.58-.5-.03,0-.09-.03-.13-.07-.15-.15-.6-.44-.67-.44-.04,0-.15-.06-.25-.14-.1-.08-.24-.14-.3-.14-.07,0-.12-.02-.12-.04,0-.02-.08-.07-.18-.12-.1-.04-.26-.11-.35-.15-.09-.04-.27-.1-.39-.14-.12-.04-.33-.11-.45-.16-.22-.08-.55-.15-1.18-.22-.19-.02-.39-.07-.46-.11-.16-.09-1.64-.09-1.86,0-.08.03-.3.08-.47.11-.6.08-.87.15-1.08.24-.12.05-.25.09-.31.09s-.22.07-.38.14c-.15.08-.31.14-.34.14s-.13.05-.21.11c-.08.06-.18.11-.22.11-.05,0-.16.06-.25.14-.1.08-.21.14-.25.14s-.11.04-.16.09c-.04.04-.15.12-.24.17-.1.05-.2.12-.22.16-.02.04-.07.08-.1.08-.03,0-.13.07-.21.16-.08.08-.29.28-.46.44-.17.16-.42.42-.56.58-.14.16-.3.34-.35.39-.06.05-.1.12-.1.16,0,.04-.02.08-.04.09-.08.03-.46.61-.46.69,0,.04-.02.08-.04.08-.02,0-.09.1-.15.21-.06.11-.16.33-.24.47-.07.15-.13.3-.13.34,0,.04-.04.15-.08.24-.21.4-.43,1.38-.49,2.17-.08,1.12.01,2.52.21,3.13.25.79.35,1.08.46,1.29.05.1.11.21.12.25.13.3.62,1.14.7,1.21.04.03.16.2.28.37.22.33,1.04,1.15,1.42,1.43.24.18.27.2.47.37.07.06.17.11.21.11s.08.02.09.04c.03.09,1.24.74,1.37.74.03,0,.21.06.38.14.17.08.38.14.45.14s.23.04.35.1c.31.13,1.05.18,2.46.15,1.05-.02,1.26-.04,1.48-.13h0ZM39.84,60.8c.08-.13.15-.27.15-.3s.06-.18.14-.33c.08-.15.14-.3.14-.34,0-.05.02-.08.05-.08s.08-.1.12-.21c.04-.12.18-.44.32-.72.13-.28.35-.78.51-1.12.15-.34.34-.78.44-.97l.17-.35h4.28s4.28.03,4.28.03l.18.37c.1.2.2.43.22.52.02.08.06.15.07.15.02,0,.07.08.12.19.08.21.22.51.42.94.08.17.15.33.15.35,0,.04.16.39.59,1.31.07.16.15.33.17.39.02.06.1.19.17.27l.14.16.74-.02.75-.02.02-.17c.01-.12-.03-.25-.12-.39-.08-.12-.15-.25-.15-.29,0-.04-.06-.17-.14-.3-.08-.12-.14-.26-.14-.3,0-.04-.05-.15-.11-.22-.06-.08-.11-.19-.11-.24s-.06-.19-.14-.3c-.08-.11-.14-.24-.14-.27,0-.07-.28-.69-.71-1.6-.17-.35-.33-.69-.35-.73-.02-.04-.07-.16-.12-.25-.24-.47-.33-.67-.33-.76,0-.06-.02-.11-.04-.12-.05-.02-.43-.81-1.13-2.35-.35-.76-.78-1.68-.85-1.8-.06-.1-.3-.62-.47-1.01-.06-.14-.17-.38-.24-.53-.11-.24-.28-.62-.42-.93-.02-.04-.08-.16-.12-.25-.05-.09-.15-.29-.21-.45-.07-.15-.15-.32-.17-.37-.17-.31-.5-1.02-.5-1.09,0-.04-.05-.15-.11-.22-.06-.08-.11-.17-.11-.2,0-.06-.12-.31-.4-.86-.06-.11-.11-.24-.11-.28s-.06-.16-.13-.27c-.07-.11-.14-.25-.15-.31-.03-.16-.26-.26-.39-.18-.06.04-.11.1-.11.14s-.06.17-.14.29c-.08.12-.14.25-.14.29s-.04.16-.1.27c-.22.43-.4.83-.46.96-.03.08-.08.18-.11.22-.09.15-.62,1.29-.62,1.33,0,.02-.11.28-.25.57-.38.79-.45.95-.68,1.44-.64,1.37-1.12,2.41-1.28,2.7-.05.1-.16.33-.25.53-.13.32-.46,1.02-.98,2.11-.09.19-.25.54-.37.79-.12.25-.28.6-.37.79-.09.19-.16.35-.16.38,0,.02-.06.14-.14.26-.08.12-.14.25-.14.28,0,.03-.12.31-.28.64-.6,1.26-.74,1.57-.74,1.65,0,.04-.02.09-.05.11-.06.03-.23.35-.23.43,0,.02-.06.15-.14.27-.08.13-.14.3-.14.42v.2h1.55l.16-.25h0ZM62.44,60.94c.04-.07.06-2.55.06-7.62v-7.52h6.03l.11-.12c.08-.11.1-.22.11-.63,0-.44-.02-.52-.12-.64l-.12-.13h-13.57s-.1.13-.1.13c-.13.19-.15,1.04-.02,1.24l.09.14h6.02v7.48c0,6.79,0,7.5.09,7.62.09.13.11.14.73.14.57,0,.64-.01.7-.11h0ZM90.24,61.03s.03-1.73.04-3.81l.03-3.8h9.84v3.71c0,2.04.02,3.76.05,3.81.04.08.13.1.71.1h.66l.06-.17c.04-.13.06-2.54.06-8.22,0-7.09-.01-8.06-.08-8.21l-.09-.16h-.6c-.6,0-.61,0-.69.16-.08.13-.09.59-.08,3.8,0,2.65-.01,3.66-.06,3.7-.04.03-1.95.04-4.92.04l-4.86-.02-.03-3.76c-.03-3.64-.03-3.76-.13-3.84-.08-.06-.27-.08-.64-.08-.85,0-.75-1.12-.75,8.4,0,4.5.02,8.22.03,8.27.03.07.15.09.73.09.38,0,.7,0,.71-.01h0ZM106.36,60.89c.12-.17.63-1.22.63-1.29,0-.02.05-.15.11-.27.06-.12.19-.4.29-.62.1-.21.26-.57.36-.79.22-.48.48-1.05.61-1.34l.1-.21h4.28s4.28.03,4.28.03l.11.2c.06.11.15.31.21.45.23.54.32.72.53,1.18.21.47.33.72.51,1.12.04.11.17.38.28.59.11.22.21.46.23.55.02.08.07.19.11.22.03.04.1.13.13.19.06.1.13.11.8.13.7.01.74.01.8-.11.05-.08.05-.13,0-.18-.03-.03-.06-.09-.06-.13,0-.06-.16-.41-.65-1.46-.07-.15-.25-.53-.39-.84-.15-.31-.3-.64-.35-.73-.04-.09-.11-.21-.12-.25-.02-.04-.09-.2-.15-.34-.07-.14-.19-.4-.27-.59-.25-.55-.43-.94-.55-1.16-.06-.11-.1-.25-.1-.29s-.02-.1-.04-.11c-.06-.02-.47-.87-.47-.95,0-.03-.06-.15-.13-.27-.08-.11-.16-.28-.17-.36-.02-.08-.07-.18-.12-.22-.05-.03-.08-.1-.08-.14s-.06-.21-.13-.37c-.08-.16-.15-.34-.17-.38-.02-.04-.08-.16-.14-.25-.06-.09-.11-.22-.11-.29,0-.07-.03-.13-.06-.13s-.08-.08-.12-.18c-.08-.23-.38-.85-1.6-3.43-.14-.3-.26-.59-.26-.63s-.02-.1-.06-.12c-.03-.02-.1-.13-.14-.24-.11-.25-.2-.44-.68-1.45-.6-1.25-.72-1.48-.8-1.52-.1-.04-.33.17-.38.33-.03.12-.44,1-.71,1.52-.11.22-.33.7-.38.84-.05.13-.35.78-.74,1.57-.25.52-.61,1.31-.9,1.94-.06.14-.17.38-.25.53-.35.75-.68,1.43-.79,1.69-.07.16-.29.62-.49,1.05-.21.42-.37.8-.37.85,0,.04-.02.1-.05.11-.06.04-.51.96-.51,1.04,0,.04-.05.16-.11.28-.06.11-.14.29-.19.38-.04.1-.1.22-.13.28-.03.06-.12.24-.19.39-.15.34-.18.4-.29.62-.05.1-.15.3-.21.45-.07.16-.19.42-.27.59-.08.17-.16.35-.18.39-.02.04-.07.13-.1.2-.03.06-.12.26-.21.45-.08.19-.21.47-.29.62-.07.16-.13.31-.13.34,0,.03-.05.12-.11.2-.06.08-.11.18-.11.23,0,.19.12.22.85.22h.72l.11-.15h0Z" class="cls-1"></path><path d="M75.08,94.2s-.04-3.32-.04-7.34v-7.3h2.77c1.52,0,2.96.03,3.19.06.45.06,1.06.22,1.45.4.13.06.29.11.35.11.06,0,.14.03.18.07.04.04.17.12.3.17.12.06.25.14.27.18.02.04.07.08.09.08.19,0,1.69,1.34,1.69,1.51,0,.03.02.06.05.06s.12.11.21.25c.08.14.17.25.2.25.02,0,.04.04.04.1s.02.12.05.16c.06.05.43.79.52,1.04.03.08.08.19.12.25.03.06.08.21.11.34.03.12.08.34.11.48.03.14.07.35.08.48.01.12.05.49.08.83.07.69.01,1.52-.18,2.37-.16.7-.29,1.02-.88,2.19-.04.1-.18.29-.3.43-.12.15-.22.28-.22.29,0,.05-1.06,1.1-1.11,1.1-.03,0-.1.06-.17.14-.07.08-.16.14-.21.14s-.08.02-.08.04c0,.03-.12.12-.26.2-.15.08-.31.17-.35.2-.19.12-.62.29-.73.29-.06,0-.13.03-.17.08-.03.04-.29.12-.56.17-.27.06-.57.12-.66.15-.19.06-5.89.07-5.95.01h0Z" class="cls-1"></path><path d="M42.43,55.01s0-.11.03-.17c.08-.18.4-.87.52-1.15.2-.47.33-.73.58-1.27.14-.3.26-.56.26-.57,0-.04.28-.66.39-.88.06-.11.11-.25.11-.3,0-.04.06-.19.14-.31.08-.12.14-.24.14-.26s.06-.17.13-.33c.07-.15.2-.43.29-.62.08-.19.2-.43.26-.54.06-.11.11-.24.11-.27s.11-.3.24-.59c.13-.28.3-.64.36-.79l.12-.28.15.23c.08.13.15.28.15.33s.04.16.11.24c.06.08.17.31.26.52.08.2.21.49.28.65.07.16.19.42.25.59.13.34.16.39.29.65.04.1.17.35.26.56.1.22.22.47.26.55.04.09.08.21.08.26,0,.05.03.13.07.16.04.03.11.17.15.3.04.13.12.32.18.41.06.1.1.21.1.25,0,.05.06.18.14.29.08.11.14.25.14.3s.05.19.11.3c.06.11.18.36.26.55.08.19.21.45.28.59.15.3.21.52.15.59-.05.07-7.32.08-7.36.01h0Z" class="cls-1"></path><path d="M109,55.01s.06-.2.15-.39c.09-.19.23-.48.3-.65.08-.17.19-.4.25-.51.06-.11.1-.24.1-.27s.06-.16.13-.28c.07-.11.15-.3.17-.42.02-.12.06-.21.09-.21s.08-.1.12-.21c.04-.12.11-.29.17-.38.06-.09.11-.2.11-.24s.06-.17.14-.29c.08-.12.14-.26.14-.3s.05-.17.11-.3c.13-.27.44-.95.54-1.17.03-.09.13-.31.22-.48.08-.17.15-.35.15-.4s.02-.1.04-.11c.05-.02.46-.87.46-.96,0-.03.06-.17.14-.29.07-.12.14-.27.14-.32,0-.26.22-.15.22.12,0,.07.06.25.13.39.07.14.19.37.25.51.33.74.43.95.55,1.18.07.14.16.35.2.47.03.11.09.21.12.21s.05.05.05.12.06.24.13.38c.07.14.19.4.26.57.07.17.24.54.37.83.13.29.24.55.24.58s.06.16.14.27c.08.11.14.24.14.28s.07.22.15.39c.08.18.2.44.25.58.06.14.17.37.24.51.07.14.14.32.16.4.02.08.07.19.12.24.23.23.2.23-3.68.23-2.13,0-3.72-.02-3.73-.05h0Z" class="cls-1"></path></g></svg>