<svg xmlns="http://www.w3.org/2000/svg" fill="none" viewBox="0 0 196 87" height="87" width="196">
<path fill="#1C7C33" d="M7.94451 51.1876C5.77889 51.6589 4.55379 50.7872 4.26377 48.5727L0.447517 16.1556C0.190028 14.0855 1.05465 12.8352 3.03867 12.4021L14.7802 9.84435C16.729 9.41942 18.0814 10.0922 18.8404 11.8628L26.2289 26.422L26.603 10.2856C26.5867 8.27811 27.5326 7.06597 29.4435 6.64922L35.0703 5.42346C37.0543 4.99036 38.3553 5.77212 38.9733 7.76057L48.85 38.8593C49.5005 40.9948 48.7416 42.2996 46.5787 42.7708L41.1687 43.9502C39.0763 44.4051 37.8024 43.5825 37.3497 41.4797L31.9181 21.5408L31.7284 42.9887C31.8178 44.9826 30.8881 46.1893 28.9421 46.6115L25.1014 47.4477C23.2258 47.8563 21.8869 47.1617 21.0819 45.3612L11.7906 25.9208L15.1135 46.32C15.5662 48.4229 14.7476 49.7004 12.6552 50.158L7.94722 51.1822L7.94451 51.1876Z"></path>
<path fill="#1C7C33" d="M52.6636 42.2097C51.5631 42.3213 50.7229 42.098 50.1483 41.5396C49.5737 40.9812 49.3054 40.1422 49.3406 39.02L52.1811 6.07718C52.3166 4.08874 53.3764 2.99373 55.3604 2.79489L67.5356 1.57186C69.5196 1.37302 70.7528 2.23649 71.2434 4.16228L80.7434 35.863C81.3045 38.1565 80.448 39.4149 78.1712 39.6437L71.1756 40.3465C69.1916 40.5453 67.9557 39.6628 67.4624 37.6989L66.53 34.4929L58.5424 35.2964L58.2606 38.625C58.163 40.6461 57.1249 41.7575 55.1436 41.9591L52.6636 42.2069V42.2097ZM59.3393 26.5527L64.1882 26.0651L61.8681 17.8553C61.4941 16.3272 61.2393 15.2731 61.1065 14.6874L60.2798 14.7691C60.2879 14.8427 60.2663 15.2921 60.2202 16.1175C60.1714 16.9428 60.1334 17.5802 60.1036 18.0296L59.3393 26.55V26.5527Z"></path>
<path fill="#1C7C33" d="M86.8472 39.4449C84.706 39.5021 83.6083 38.4561 83.5514 36.307L82.9984 15.6708L80.841 15.728C78.6997 15.7852 77.602 14.7392 77.5451 12.59L77.3147 3.96891C77.2578 1.81976 78.2986 0.713856 80.4371 0.656654L97.5398 0.193592C99.7162 0.133666 100.833 1.18237 100.893 3.33152L101.123 11.9526C101.18 14.1045 100.12 15.2077 97.9436 15.2676L95.7862 15.3276L96.3391 35.9638C96.396 38.1157 95.3552 39.2188 93.2167 39.276L86.8526 39.4477L86.8472 39.4449Z"></path>
<path fill="#1C7C33" d="M119.649 40.6081C113.566 40.3194 109.154 38.4372 106.419 34.9642C103.682 31.4912 102.475 26.3458 102.795 19.5279C103.118 12.6746 104.806 7.63809 107.858 4.42389C110.913 1.2097 115.48 -0.253034 121.562 0.0356987C123.478 0.125587 125.441 0.46335 127.446 1.04082C129.273 1.49843 130.138 2.7487 130.04 4.78617L129.655 12.9551C129.604 14.0665 129.26 14.8591 128.628 15.3304C127.997 15.8016 127.132 15.9187 126.034 15.679C123.511 15.1125 121.161 14.7774 118.987 14.6739C113.347 14.4042 110.441 16.0876 110.268 19.7186C110.184 21.4973 110.875 22.8674 112.347 23.8289C113.816 24.7905 115.897 25.3352 118.589 25.4633C120.947 25.5749 123.264 25.4442 125.536 25.071C127.913 24.7768 129.048 25.7956 128.94 28.13L128.533 36.7456C128.438 38.7477 127.628 39.8781 126.099 40.1396C124.086 40.5618 121.933 40.7225 119.649 40.6136V40.6081Z"></path>
<path fill="#1C7C33" d="M132.618 40.6462C130.496 40.352 129.582 39.1399 129.875 37.0098L134.288 4.81881C134.58 2.68872 135.786 1.76805 137.906 2.06223L144.213 2.9366C146.333 3.23078 147.249 4.44291 146.956 6.573L145.544 16.8802L152.344 17.8227L153.756 7.51546C154.049 5.38538 155.255 4.4647 157.375 4.75888L163.682 5.63325C165.801 5.92743 166.718 7.13957 166.425 9.26965L162.012 41.4606C161.72 43.5935 160.513 44.5114 158.394 44.2172L152.087 43.3429C149.965 43.0487 149.051 41.8365 149.344 39.7065L150.854 28.6829L144.053 27.7404L142.541 38.764C142.248 40.8941 141.042 41.8148 138.922 41.5206L132.615 40.6489L132.618 40.6462Z"></path>
<path fill="#1C7C33" d="M165.246 45.5138C164.167 45.2577 163.449 44.7729 163.086 44.0565C162.723 43.3401 162.741 42.4603 163.14 41.4116L176.516 11.2009C177.288 9.36497 178.646 8.67583 180.587 9.13889L192.494 11.9717C194.434 12.4321 195.321 13.6551 195.158 15.6354L193.852 48.7171C193.637 51.0678 192.418 51.9776 190.193 51.4492L183.351 49.8203C181.411 49.3599 180.527 48.1206 180.701 46.1021L180.861 42.7681L173.049 40.9104L171.705 43.9639C170.957 45.8434 169.615 46.5543 167.674 46.094L165.251 45.5165L165.246 45.5138ZM176.638 32.9022L181.378 34.0298L181.85 25.5068C181.991 23.9405 182.094 22.8592 182.159 22.2626L181.351 22.0692C181.335 22.1428 181.17 22.5595 180.855 23.3249C180.541 24.0903 180.3 24.6787 180.126 25.0955L176.638 32.8994V32.9022Z"></path>
<path fill="#1C7C33" d="M53.9402 86.1843C51.8071 86.3722 50.647 85.3971 50.46 83.2534L47.6222 50.8853C47.4352 48.7443 48.4055 47.5758 50.5386 47.3878L61.0171 46.4617C67.747 45.8652 72.6908 47.0119 75.8511 49.8965C79.0115 52.7811 80.8844 57.5507 81.4671 64.2024C82.0498 70.8542 81.0361 75.8771 78.426 79.2738C75.8132 82.6705 71.1459 84.6671 64.4159 85.2609L53.9375 86.187L53.9402 86.1843ZM63.3263 70.8869C67.1507 70.5491 69.9262 69.8927 71.6581 68.9202C73.3874 67.9478 74.1707 66.5205 74.0053 64.6355C73.84 62.7506 72.81 61.4731 70.9182 60.803C69.0263 60.1329 66.1289 59.9695 62.2313 60.3154L60.1362 60.5007L61.0631 71.0885L63.3236 70.8869H63.3263Z"></path>
<path fill="#1C7C33" d="M86.6142 83.6348C84.473 83.613 83.4132 82.5289 83.4349 80.377L83.7466 47.8837C83.7683 45.7318 84.847 44.6668 86.9882 44.6886L93.7968 44.7539C95.5315 44.7703 96.7782 45.5983 97.5372 47.2381L107.146 67.1961L104.449 48.3631C104.237 47.2844 104.392 46.4346 104.915 45.8081C105.438 45.1816 106.254 44.8738 107.36 44.8847L112.065 44.931C114.206 44.9528 115.266 46.0369 115.244 48.1888L114.933 80.6821C114.911 82.834 113.829 83.899 111.691 83.8772L104.384 83.8064C102.611 83.7901 101.364 82.9811 100.641 81.3767L91.5634 63.873L93.786 80.1973C93.9974 81.2759 93.8402 82.1258 93.3198 82.7523C92.7967 83.3788 91.9808 83.6838 90.875 83.6757L86.6115 83.6348H86.6142Z"></path>
<path fill="#1C7C33" d="M119.199 84.2694C118.098 84.1523 117.32 83.7628 116.87 83.1009C116.421 82.4362 116.326 81.5619 116.589 80.4696L126.032 48.7934C126.568 46.8731 127.826 46.0178 129.807 46.2275L141.977 47.5159C143.958 47.7257 144.994 48.8234 145.083 50.8091L147.975 83.79C148.062 86.1489 146.967 87.2085 144.693 86.9661L137.7 86.2252C135.719 86.0154 134.683 84.8987 134.599 82.8748L134.336 79.5462L126.351 78.7018L125.403 81.9024C124.899 83.8636 123.657 84.7379 121.676 84.5282L119.199 84.2667V84.2694ZM128.902 70.3013L133.748 70.8134L133.138 62.3012C133.081 60.7295 133.046 59.6427 133.035 59.0462L132.209 58.959C132.201 59.0353 132.089 59.4684 131.878 60.2665C131.664 61.0646 131.499 61.6802 131.379 62.116L128.907 70.304L128.902 70.3013Z"></path>
</svg>
