<svg viewBox="0 0 393.9 49.8" version="1.1" xmlns="http://www.w3.org/2000/svg">
  <defs>
    <style>
      .cls-1 {
        fill: #536844;
      }
    </style>
  </defs>
  
  <g>
    <g id="Layer_1">
      <g>
        <path d="M27.7,46.6c-1.8.2-3.5.4-5.3.6-.4,0-.6-.5-.5-1,.2-.9.5-2.2.5-3.7,0-8.4,0-16.9,0-25.3-2.1,6.7-4.3,13.6-6.4,20.5-.2.7-.7,1.3-1.3,1.3-.5,0-.9,0-1.4.1-.6,0-1.1-.4-1.3-1.1-2.1-6.6-4.2-13.3-6.4-20.2,0,8.8,0,17.7,0,26.5,0,1.5.3,2.7.5,3.5.2.4,0,1.1-.5,1.1-1.8.2-3.5.4-5.3.7-.4,0-.6-.5-.5-1,.3-1,.6-2.3.6-3.9,0-12.9,0-25.9,0-38.8S.3,3.1,0,2.3c-.1-.5,0-1.1.5-1.1,1.4,0,2.9,0,4.3,0,.6,0,1.1.5,1.3,1.2,2.7,8.7,5.3,17.2,8,25.5,2.7-8.7,5.4-17.2,8-25.6.2-.8.7-1.2,1.3-1.2,1.4,0,2.9,0,4.3,0,.4,0,.6.6.5,1.1-.3.7-.5,1.9-.6,3.4,0,12.3,0,24.5,0,36.8,0,1.4.3,2.5.6,3.3.1.4,0,1-.5,1" class="cls-1"></path>
        <path d="M57.1,43.8c-1.8.2-3.6.3-5.5.5-.4,0-.6-.5-.5-.9.3-.9.9-1.8.6-3.5-.3-1.5-.6-3.1-.9-4.7-2.8.2-5.6.4-8.4.6-.3,1.6-.6,3.3-.9,4.9-.3,2,.3,2.6.6,3.4.1.4-.1,1-.5,1-1.8.2-3.6.4-5.5.5-.3,0-.6-.4-.5-.8,2.5-13.4,5.1-26.6,7.6-39.6.2-1.6-.3-2.6-.6-3.4-.1-.4,0-1,.5-1,1.9,0,3.8,0,5.7,0,.2,0,.5.2.5.5,2.7,14,5.4,27.8,8.2,41.4,0,.4-.2.8-.5.9M49.5,28.6c-.9-4.7-1.8-9.5-2.8-14.3-1,4.9-1.9,9.7-2.9,14.7,1.9-.1,3.8-.2,5.7-.3" class="cls-1"></path>
        <path d="M78.8,7.4c0,.4-.4.8-.7.6-.6-.3-1.9-.7-3-.7-1.2,0-2.5,0-3.7,0,0,10.4,0,20.7-.1,31.1,0,1.3.3,2.4.5,3,.2.4,0,1-.5,1-1.8.1-3.6.3-5.4.4-.4,0-.6-.5-.4-.9.2-.8.5-1.9.6-3.2,0-10.5,0-20.9.1-31.4-1.3,0-2.5,0-3.8,0-1.1,0-2.4.4-3,.8-.3.2-.7-.2-.7-.6.3-2,.6-4,.9-5.9,0-.5.4-.8.8-.8,5.6,0,11.2,0,16.9,0,.4,0,.7.3.8.8.3,1.9.6,3.8.8,5.7" class="cls-1"></path>
        <path d="M101.6,32.6c.2.2.4.5.3.8-1,4.1-4.2,7.3-7.9,7.6-.8,0-1.5.1-2.3.2-4.6.3-8.3-4-8.2-9.6,0-6.8,0-13.6,0-20.4,0-5.6,3.7-10.2,8.3-10.2.8,0,1.5,0,2.3,0,3.8,0,6.9,3,7.9,7.1,0,.3,0,.6-.3.8-1.3.8-2.7,1.5-4,2.3-.3.2-.7,0-.8-.4-.5-2.1-2.2-3.5-4.1-3.5-2.3,0-4.2,2.4-4.2,5.2,0,5.8,0,11.6,0,17.5,0,2.9,1.9,5.1,4.2,4.9,1.9-.1,3.5-1.7,4.1-3.8,0-.4.5-.6.8-.5,1.3.7,2.7,1.4,4,2" class="cls-1"></path>
        <path d="M128,38.3c.1.4,0,.8-.5.9-1.8,0-3.6.2-5.3.2-.4,0-.6-.4-.4-.8.2-.7.5-1.8.6-3.1,0-4.1,0-8.2,0-12.3-3.2,0-6.3.2-9.5.3,0,4.2,0,8.3,0,12.5,0,1.3.3,2.3.5,3.1.2.4,0,.9-.5.9-1.8,0-3.6.2-5.3.3-.4,0-.6-.4-.5-.8.3-.8.5-1.8.6-3.1,0-10.4,0-20.9.1-31.3,0-1.3-.3-2.4-.6-3-.1-.4,0-.9.5-.9,1.8,0,3.6,0,5.3,0,.4,0,.6.5.4.9-.3.7-.5,1.8-.6,3,0,4.2,0,8.4,0,12.5,3.2,0,6.3-.1,9.5-.2,0-4.1,0-8.3,0-12.4,0-1.3-.3-2.3-.5-3-.2-.4,0-.9.5-.9,1.8,0,3.6,0,5.3,0,.4,0,.6.5.5.9-.3.7-.6,1.7-.6,3,0,10.2,0,20.4,0,30.5,0,1.3.3,2.3.6,3" class="cls-1"></path>
        <path d="M154.8,38.2c-1.8,0-3.7,0-5.5.2-.4,0-.6-.4-.5-.8.3-.7.9-1.5.6-3-.3-1.4-.6-2.7-.9-4.1-2.8,0-5.6.1-8.4.2-.3,1.4-.6,2.8-.9,4.2-.3,1.7.3,2.3.6,3,.1.4-.1.8-.5.8-1.8,0-3.7.1-5.5.2-.3,0-.6-.3-.5-.7,2.6-11.3,5.1-22.5,7.7-33.6.2-1.3-.3-2.2-.6-2.9-.1-.4,0-.8.5-.8,1.9,0,3.8,0,5.7,0,.2,0,.5.2.5.4,2.7,12.1,5.5,24.2,8.2,36.2,0,.4-.2.7-.5.7M147.2,24.7c-.9-4.1-1.9-8.3-2.8-12.4-1,4.2-1.9,8.3-2.9,12.5,1.9,0,3.8,0,5.7-.1" class="cls-1"></path>
        <path d="M191.7,13.1c0,2.6-1,4.8-2.5,6.5,1.5,1.8,2.5,4.3,2.5,6.9,0,.6,0,1.2,0,1.9,0,5.1-3.8,9.3-8.4,9.3-3.5,0-7,0-10.5.1-.4,0-.6-.4-.5-.8.3-.7.6-1.7.6-2.9,0-9.8,0-19.7,0-29.5,0-1.2-.3-2.2-.6-2.9-.1-.4,0-.8.5-.8,3.8,0,7.5,0,11.3,0,4.2,0,7.5,3.7,7.5,8.3,0,1.3,0,2.6,0,3.9M186.5,9.8c0-1.9-1.3-3.3-3-3.3-1.9,0-3.7,0-5.6,0,0,3.3,0,6.6,0,9.9,1.8,0,3.6,0,5.4,0,1.8,0,3.2-1.6,3.2-3.5,0-1,0-2,0-3M186.5,25.6c0-2-1.4-3.5-3.2-3.5-1.8,0-3.6,0-5.4,0,0,3.3,0,6.6,0,9.9,1.8,0,3.5,0,5.3,0,1.8,0,3.3-1.6,3.3-3.6,0-.9,0-1.8,0-2.8" class="cls-1"></path>
        <path d="M215.2,9.2c0,6.6,0,13.3,0,19.9,0,5.1-3.7,9.2-8.3,9.1-.8,0-1.5,0-2.3,0-4.6,0-8.3-4.1-8.3-9.2V9.2C196.3,4.1,200,0,204.6,0h2.3c4.6,0,8.3,4.1,8.3,9.2M210,10.4c0-2.6-1.9-4.7-4.3-4.7-2.3,0-4.2,2.1-4.2,4.7,0,5.8,0,11.6,0,17.4,0,2.6,1.9,4.7,4.2,4.7,2.4,0,4.3-2.1,4.3-4.7,0-5.8,0-11.6,0-17.4" class="cls-1"></path>
        <path d="M239.3,6.8c0,.4-.4.7-.7.6-.6-.3-1.9-.7-3-.7-1.2,0-2.5,0-3.7,0,0,9.3,0,18.5,0,27.8,0,1.2.3,2.1.5,2.7.2.4,0,.9-.5.9-1.8,0-3.6,0-5.4-.1-.4,0-.6-.5-.5-.8.2-.7.5-1.6.5-2.8,0-9.2,0-18.5,0-27.7-1.3,0-2.5,0-3.8,0-1.1,0-2.4.3-3,.6-.3.2-.7-.2-.7-.6.3-1.7.6-3.4.9-5.1,0-.4.4-.7.8-.7,5.6,0,11.3,0,16.9,0,.4,0,.7.3.8.7.3,1.7.6,3.5.9,5.2" class="cls-1"></path>
        <path d="M261,38.9c-1.8,0-3.7-.1-5.5-.2-.4,0-.6-.5-.5-.8.3-.7.9-1.5.6-3-.3-1.4-.6-2.8-.9-4.2-2.8,0-5.6-.2-8.4-.2-.3,1.4-.6,2.7-.9,4.1-.3,1.6.3,2.3.6,3,.1.4-.1.8-.5.8-1.8,0-3.7-.1-5.5-.2-.3,0-.6-.4-.5-.7,2.5-10.9,5-21.9,7.5-32.9.2-1.3-.3-2.2-.6-2.9-.1-.4,0-.8.5-.8,1.9,0,3.8,0,5.7,0,.2,0,.5.2.5.4,2.8,12.2,5.6,24.5,8.4,36.9,0,.4-.2.7-.5.7M253.3,24.8c-.9-4.2-1.9-8.4-2.8-12.5-.9,4.2-1.9,8.3-2.8,12.4,1.9,0,3.8,0,5.7.1" class="cls-1"></path>
        <path d="M287.3,39.3c.2.4,0,.9-.4.9-1.6,0-3.1-.2-4.7-.3-.3,0-.6-.2-.8-.6-3.3-8.4-6.6-16.7-10-24.9,0,7.1,0,14.1,0,21.2,0,1.3.3,2.3.6,3,.2.4,0,.9-.4.9-1.8,0-3.6-.2-5.3-.2-.4,0-.6-.5-.5-.9.3-.6.5-1.6.5-2.8,0-10.3,0-20.6,0-30.8,0-1.2-.3-2.2-.6-2.9-.1-.4,0-.8.5-.8,1.6,0,3.1,0,4.7,0,.4,0,.7.2.8.6,3.3,8.1,6.7,16.3,10,24.6,0-7.1,0-14.2,0-21.3,0-1.3-.3-2.3-.6-3.1-.1-.4,0-.8.5-.8,1.8,0,3.6,0,5.3,0,.4,0,.6.5.5.9-.2.7-.5,1.8-.5,3,0,10.5,0,21,.1,31.5,0,1.2.3,2.3.6,3" class="cls-1"></path>
        <path d="M298.7,40.9c-1.8-.1-3.6-.2-5.3-.3-.4,0-.6-.5-.5-.9.3-.7.6-1.8.6-3.1V4.9c-.1-1.3-.4-2.4-.7-3.1-.1-.4,0-.9.5-.9,1.8,0,3.6,0,5.3,0,.4,0,.6.5.5.9-.3.7-.5,1.8-.5,3.1,0,10.6,0,21.2.1,31.9,0,1.3.3,2.4.6,3.2.2.4,0,.9-.4.8" class="cls-1"></path>
        <path d="M322.7,34.3c.2.2.4.5.3.9-1,4.3-4.1,7.1-7.9,6.8-.8,0-1.5-.1-2.3-.2-4.6-.3-8.3-5.1-8.3-10.6,0-6.7,0-13.5,0-20.2,0-5.5,3.7-10,8.2-10.1.8,0,1.5,0,2.3,0,3.8,0,6.9,3.1,7.9,7.5,0,.3,0,.7-.3.8-1.3.8-2.6,1.5-4,2.2-.3.2-.7,0-.8-.5-.6-2.2-2.2-3.7-4.1-3.7-2.3,0-4.2,2.3-4.2,5.2,0,5.9,0,11.7,0,17.6,0,2.9,1.9,5.3,4.2,5.5,1.9.1,3.5-1.3,4.1-3.4,0-.4.4-.6.8-.4,1.3.8,2.7,1.7,4,2.6" class="cls-1"></path>
        <path d="M347.6,44.7c-1.8-.2-3.6-.3-5.5-.5-.4,0-.6-.6-.5-1,.3-.8.9-1.6.6-3.4-.3-1.6-.6-3.2-.9-4.8-2.8-.2-5.6-.4-8.4-.6-.3,1.5-.6,3-.9,4.6-.3,1.8.3,2.6.6,3.4.1.4-.1.9-.5.9-1.8-.2-3.6-.3-5.5-.5-.3,0-.6-.4-.5-.8,2.5-12.1,5-24.4,7.4-36.9.2-1.5-.3-2.5-.6-3.2-.1-.4,0-.9.5-.9,1.9,0,3.8,0,5.7,0,.2,0,.5.2.5.5,2.8,13.9,5.6,28.1,8.4,42.5,0,.4-.2.8-.5.8M339.9,28.3c-.9-4.8-1.9-9.6-2.8-14.3-.9,4.7-1.9,9.4-2.8,14,1.9.1,3.8.2,5.7.3" class="cls-1"></path>
        <path d="M371.2,39.9c-.3,1.9-.6,3.8-.9,5.8-.2,1.3-.7,1.4-1,1.3-5.4-.6-10.8-1.1-16.3-1.7-.4,0-.6-.6-.5-1,.3-.8.6-2,.6-3.4,0-11.8,0-23.5,0-35.3,0-1.4-.3-2.7-.6-3.5-.1-.5,0-1,.5-1,1.8,0,3.6,0,5.3,0,.4,0,.6.6.5,1-.3.8-.5,2.1-.5,3.5,0,11.1,0,22.1,0,33.2,3.1.3,6.1.5,9.2.8,1.1,0,2.4-.2,3-.5.4-.2.8.3.8.8" class="cls-1"></path>
        <path d="M393.8,39.2c-.5,6.9-4.8,9.9-9.2,9.6-2.1-.2-4.4-1-6.1-3-1.5-1.8-2.5-4.2-3.2-6.7,0-.3,0-.7.3-.9,1.2-.7,2.5-1.4,3.7-2.1.3-.2.6,0,.7.4.2.9.5,1.6.8,2.4.6,1.3,1.5,2,2.6,2.3,1.3.3,2.8.2,4-.5,1.1-.8,1.5-2.2,1.4-4.1,0-3.5-1.8-5.1-3.7-7-3.7-3.5-8.6-7.2-9.6-13.8-.5-3.4-.3-7.2,1.2-10.1,1.6-3.2,4.4-4.8,7.1-5.1,2-.3,4.2.4,5.9,2,1.7,1.7,2.9,4.2,3.7,7,0,.3,0,.8-.3.9-1.3.8-2.5,1.7-3.8,2.5-.3.2-.6,0-.7-.4-.1-.4-.2-.8-.3-1.2-.3-.7-.6-1.5-1-2.1-.7-1-1.7-1.4-2.7-1.4-1.3,0-2.8.5-3.7,1.9-.7,1.1-.7,2.7-.6,4.2.2,2.6,1.8,4.1,3.2,5.6,4.7,4.7,11,9.1,10.2,19.6" class="cls-1"></path>
      </g>
    </g>
  </g>
</svg>