<svg xmlns="http://www.w3.org/2000/svg" id="svg1" version="1.1" viewBox="0 0 173.53505 28.85475" height="28.85475mm" width="173.53505mm">
  <defs id="defs1"></defs>
  <g transform="translate(-23.26172,-84.93125)" id="layer1">
    <path style="fill:#1c1c1b;fill-opacity:1;fill-rule:nonzero;stroke:none;stroke-width:0.353;stroke-dasharray:none" d="m 170.97747,98.106581 c 0.21802,-0.189442 0.5715,-0.408517 0.62653,-0.733778 0.19262,-0.656519 -0.60007,-0.3556 -0.92851,-0.439561 -0.38064,-0.189441 -0.92357,0 -1.22555,-0.325966 -0.65546,-0.05151 -1.06539,-0.655814 -1.63865,-0.900642 -0.92357,-0.926042 -2.17876,-1.579033 -2.88749,-2.699456 0.13547,-0.192263 0.3556,-0.243416 0.54469,-0.303036 0.48966,0.357364 1.08973,-0.02575 1.61079,0.169334 1.00541,-0.304447 2.07045,0.0254 2.91535,-0.65652 0.16263,-0.303389 0.43815,-0.542572 0.32879,-0.981075 -0.46426,-0.627591 -1.41852,-0.602191 -2.1022,-0.5715 -0.68333,-0.137936 -1.52718,0.07902 -2.15583,-0.193675 -1.28093,0.02787 -2.23308,-0.354894 -3.544,-0.217663 -0.49001,-0.409928 -0.32738,-1.389592 -0.13476,-1.964973 0.0818,-0.926041 0.1905,-1.990725 -0.84597,-2.533649 -0.48965,-0.11042 -0.87453,-0.493184 -1.47355,-0.355248 -0.76517,0.244828 -1.11619,1.061861 -1.36384,1.717675 0.4117,0.793397 0.57221,1.69157 0.57221,2.644422 -0.38312,0.815975 -1.44674,0.464961 -2.15406,0.709436 -0.21731,0.162984 -0.4886,-0.162277 -0.68333,0.08114 -0.76377,-0.0254 -1.60726,0.272345 -2.26413,0.05645 -0.57115,0.244827 -1.41499,0.193675 -2.01507,0.05609 -0.51823,0.323498 -0.95638,0.922867 -1.28376,1.470378 -0.0811,0.383117 0.19368,0.569383 0.16264,0.926747 0.3563,0.573264 1.14793,0.191559 1.66934,0.106539 0.62442,-0.244828 1.41499,-0.13088 2.0701,-0.294569 0.51823,-0.3556 0.98213,0 1.50036,0.07867 -0.0543,0.43815 -0.1905,0.81915 -0.57361,1.093258 -0.21908,0.982134 -1.22873,1.388534 -1.88207,2.206978 -0.81915,0.381706 -1.69051,0.626533 -2.64584,0.737306 -0.24588,0.216958 -0.70767,-0.05645 -0.9278,0.244475 -0.40746,1.090788 1.01106,0.682977 1.41817,1.281641 0.98213,0.738715 1.96391,0.02893 3.05681,0.05468 0.54469,-0.05468 0.65123,-0.627945 0.92534,-0.978606 1.36278,-1.448858 1.90994,-3.219802 2.83528,-4.828116 0.19155,-0.05962 0.49283,-0.109361 0.65652,0.05115 0.0557,0.929569 0.54786,2.018947 0.13511,2.947458 -0.62442,0.464608 -1.00718,-0.274109 -1.71697,0.05398 -0.30021,0.191558 -0.57362,0.516819 -0.73731,0.817739 -0.41063,0.3556 -0.0279,0.847019 0.054,1.228019 0.98002,0.275519 1.80022,-0.547158 2.6483,0.164394 0.38171,1.006828 0.0265,2.344203 0.68086,3.244143 0.62759,0.27552 1.03611,-0.2159 1.47461,-0.54434 0.29881,-0.3556 0.10725,-0.844896 0.0487,-1.227306 0.14076,-0.571855 -0.21343,-1.092555 0.0586,-1.665819 0.79093,-0.273755 2.07257,-0.02364 2.3174,-1.089377 0.32878,-1.662642 -1.82669,-0.432859 -2.50896,-1.225903 -0.054,-0.928864 -0.19015,-1.967089 0.30021,-2.813756 0.24483,0.03069 0.54363,-0.02575 0.73625,0.219075 0.43603,2.538236 3.16442,3.877028 4.74733,5.919964 0.43286,0.655816 1.17122,0.545746 1.8789,0.545746 0.43709,-0.652638 1.23084,-0.625121 1.72014,-1.282346" id="path1"></path>
    <path style="fill:#1c1c1b;fill-opacity:1;fill-rule:nonzero;stroke:none;stroke-width:0.353;stroke-dasharray:none" d="m 85.553927,89.478696 c -0.27234,-0.543631 -0.62442,-1.065742 -1.03646,-1.552928 -0.54328,0.107245 -1.06151,0.32632 -1.52647,0.627592 -0.6544,-0.05292 -1.44568,0.134055 -2.02036,-0.140406 -0.89782,0.08749 -1.60761,-0.352425 -2.53224,-0.186266 -0.57432,-0.2159 -0.13793,-0.846667 -0.41063,-1.203325 -0.43603,-0.189089 -0.84773,-0.515761 -1.25554,-0.760589 -0.5722,-0.877711 -1.44462,-0.273403 -2.12548,-0.111831 -0.40746,0.382059 -0.27341,1.285523 -0.0829,1.774825 -0.59936,0.652992 -1.69051,0.352073 -2.563277,0.436034 -0.410633,0.299155 -1.034703,0.02893 -1.473553,0.244475 -0.87313,0.436386 -1.25518,-0.595489 -2.15406,-0.244475 -0.62583,0.737305 -1.00965,1.55328 -1.22802,2.454274 0.1651,0.489656 0.37994,0.981075 0.73625,1.419225 0.19155,0.873831 0.40957,1.801284 0.5468,2.642659 0.35348,0.68333 0.0833,1.610077 0.24412,2.377016 0.9271,0.652639 1.66335,-0.357716 2.48497,-0.549275 0.40534,-0.138289 0.978963,0.08431 1.33526,-0.18803 0.78952,0.160514 1.36278,-0.328436 2.09691,-0.164748 0.71191,0.792339 0.19368,1.852789 0.54928,2.809875 0,0.542216 0.16263,1.035752 0.43392,1.471082 0.7119,0.90487 1.09361,-0.59655 1.69474,-0.62618 0.21273,-1.202618 0.16051,-2.345618 0.2413,-3.59939 l 0.49283,-0.244828 4.93536,0.05327 c 0.76271,-0.519641 0.76271,-1.445683 0.95532,-2.264127 0.16616,-1.089378 1.00965,-1.936398 1.79917,-2.757664 l 0.10936,-1.006475 c -0.27199,-0.166158 -0.27199,-0.43427 -0.24659,-0.709789 m -11.15413,4.039658 c -1.03505,0.05327 -1.99178,-0.109361 -2.94287,0.135114 -0.24659,-0.05292 -0.71155,0.188736 -0.73942,-0.193675 0.13617,-0.790222 -0.46249,-1.361369 -0.24553,-2.154061 0.49388,-0.380647 1.224493,-0.269169 1.88312,-0.296686 0.46461,0.216958 1.22696,0.216958 1.71803,0 1.09079,0.07973 0.32667,1.500011 0.62477,2.205214 z m 6.8199,-0.137936 c -0.24906,0.161572 -0.68333,-0.166158 -0.98319,0.07937 -0.60219,-0.162631 -1.33491,-0.0508 -1.99178,-0.07937 -0.32456,-0.436386 -0.38065,-1.087261 -0.54469,-1.636183 0.0533,-0.3302 0.22013,-0.625122 0.57467,-0.735189 1.0086,-0.109714 2.18088,-0.19297 3.16301,0.0508 0.43321,0.737305 -0.10936,1.558572 -0.21802,2.320572" id="path2"></path>
    <path style="fill:#1c1c1b;fill-opacity:1;fill-rule:nonzero;stroke:none;stroke-width:0.353;stroke-dasharray:none" d="m 119.75855,88.615342 c 0.59902,0.3302 -0.16686,1.201208 0.6537,1.418519 1.06151,0.24765 1.17016,-0.978958 1.8549,-1.469672 1.08973,-0.221191 2.59186,0.569384 3.24521,-0.682625 0.0787,-0.272697 0.10618,-0.686152 -0.19015,-0.874889 -0.79093,-0.137936 -1.663,0.05574 -2.42711,-0.162983 -0.30022,-0.543278 -0.87348,-1.309158 -1.55434,-1.364897 -0.57256,0.109008 -0.7105,0.737305 -0.84702,1.173692 -0.35737,0.873477 -1.36384,0.354188 -2.01718,0.655461 -0.32668,0.159455 -0.46708,0.519288 -0.49142,0.871361 0.21801,0.736952 1.22555,0.219075 1.77341,0.436033" id="path3"></path>
    <path style="fill:#1c1c1b;fill-opacity:1;fill-rule:nonzero;stroke:none;stroke-width:0.353;stroke-dasharray:none" d="m 114.84756,90.144282 c 0.19156,-0.110419 0.35454,-0.273403 0.54469,-0.355247 -0.43709,-1.063978 0.92886,-1.361722 0.68121,-2.343503 -0.0801,-0.11183 -0.18873,-0.408869 -0.43744,-0.301272 -0.21484,-0.107597 -0.62336,-0.353483 -0.54257,-0.682978 -0.21943,-0.520347 -0.76518,-0.651228 -1.22661,-0.789516 -0.30022,0.107597 -0.57468,0.380647 -0.8195,0.651227 -0.10725,0.276225 -0.054,0.604309 0.0833,0.821267 -0.38206,0.106186 -0.68121,0.434269 -1.17334,0.301272 -0.21943,-0.05644 -0.38311,0.323145 -0.60219,0.05292 -0.57079,-0.2159 -1.16946,0.08008 -1.47038,0.574675 -0.24271,0.514703 0,1.169105 0.40746,1.580444 0.43815,0.245181 0.68368,-0.245533 1.11901,-0.137936 0.4639,-0.407811 1.06292,-0.489655 1.663,-0.489655 0.60007,-0.165806 0.98319,0.709788 1.44674,1.061155 l -0.10936,0.111478 c -1.69157,-0.299861 -3.00038,0.490714 -4.47393,0.627944 -0.35525,0.436033 -0.98072,-0.106539 -1.282,0.408517 -0.19155,0.60078 0.40887,1.00718 0.73731,1.474611 0.43498,0.680508 0.60113,1.715558 0.2981,2.453569 0.35736,1.007181 -0.51612,1.909233 -0.92675,2.7813 -0.40675,0.490008 -0.87348,1.199797 -1.52435,1.3335 -0.1905,0.11077 -0.41205,0.32773 -0.38312,0.57785 0.49142,0.382406 1.1169,0.735886 1.77236,0.460366 0.9532,-0.055 1.50001,-0.627586 2.15512,-1.223777 0.43568,-0.987425 1.44392,-1.013531 2.28988,-1.2319 0.79269,0.545747 0.32737,1.694391 0.60007,2.484607 0.27552,0.24659 0.21802,0.92534 0.79058,0.7359 0.95638,-0.65511 0.38276,-1.965677 0.68192,-2.891718 -0.16052,-1.418167 0.4893,-2.615494 0.19261,-3.981097 -0.30021,-0.982839 0.13688,-2.018947 0.41169,-2.945695 -0.1404,-0.436033 -0.496,-0.93098 -0.90346,-1.118305 m -1.71697,5.834591 c -0.38206,0.08396 -0.7373,0.191559 -1.17334,0.166159 -0.16298,-0.138642 -0.0568,-0.412045 -0.10865,-0.602192 0.35419,-0.408517 0.89993,-0.408517 1.44356,-0.379589 l 0.0829,0.193322 c 0,0.244828 0.0554,0.540456 -0.24448,0.6223 m -0.1905,-2.75343 c -0.60007,-0.132997 -1.39347,0.626533 -1.72014,-0.271286 0.1912,-0.711906 0.98284,-0.244475 1.36384,-0.602192 l 0.95638,0.05645 c 0.18944,0.461786 -0.27447,0.655108 -0.60008,0.817033" id="path4"></path>
    <path style="fill:#1c1c1b;fill-opacity:1;fill-rule:nonzero;stroke:none;stroke-width:0.353;stroke-dasharray:none" d="m 124.23237,94.671125 c 0.29916,-0.05433 0.87277,-0.164042 1.1684,0.08008 0.87207,0.301625 1.47532,-0.43427 2.07645,-0.815975 0.0801,-0.220487 0.0547,-0.46602 -0.16475,-0.599017 l -3.02895,-0.05539 c -0.57044,-0.326672 -1.49719,0.07867 -2.01612,-0.326672 l 0.29774,-0.301273 h 3.00038 c 0.32667,-0.107244 0.81844,-0.379588 0.62688,-0.903111 -0.24412,-0.351014 -0.73413,-0.135114 -1.03646,-0.323144 0.16616,-0.489656 0.95638,-0.600075 0.68298,-1.282347 -0.19121,-0.736247 -1.82774,-1.255536 -1.60655,0 -0.41275,0.462844 -0.49459,1.419225 -1.33738,1.364191 -0.46567,-1.038577 -1.61078,-0.932038 -2.53718,-1.120422 -0.35419,0.109714 -0.13617,0.655461 -0.19367,0.982133 -0.16052,0.22225 -0.43321,0.193323 -0.70415,0.193323 -0.41204,-0.27552 -0.49389,-0.710495 -0.57467,-1.119011 -0.21908,-0.357364 -0.57115,-0.821267 -1.03752,-0.84702 -0.41064,-0.243416 -0.65511,0.272697 -0.92851,0.489656 -0.24695,0.60078 0.19156,1.009297 0.38276,1.476375 -0.13476,0.136172 -0.27234,-0.02928 -0.43497,0 -0.32773,0.05115 -0.71156,0.246239 -0.68298,0.650169 0.0275,0.302331 0.35525,0.439208 0.57361,0.57785 h 2.67335 l 0.24236,0.243417 c -0.21343,0.245886 -0.62547,-0.05644 -0.7881,0.245886 -1.00895,0.136878 -2.15583,-0.107597 -2.89172,0.598664 -0.4064,0.437444 -0.10866,0.871714 -0.0554,1.364897 0.8449,0.187325 1.39347,-0.627592 2.15442,-0.327378 -0.40958,0.872419 -1.4471,0.872419 -2.20769,1.228019 l -0.0572,0.381706 c 0.24554,0.569031 0.98178,0.436033 1.42099,0.733778 0.81421,-0.164747 0.73625,0.874889 1.47038,0.844197 0.4385,0.245886 0.92992,-0.05045 1.33844,0 0.0554,0.410986 -0.40852,0.382764 -0.62654,0.574322 -0.73624,0.137936 -1.74801,-0.272697 -2.21085,0.354895 0.0575,0.438851 -0.35313,0.821971 0.0818,1.174747 0.73731,0.70626 1.39277,-0.244476 2.02036,-0.491066 0.32667,-0.19085 0.2981,-0.76482 0.79057,-0.683681 0.27129,0.192969 0.0822,0.683681 0.13406,1.037867 0.13723,0.38312 0.13723,0.84314 0.40957,1.16981 0.6276,-0.0254 0.95427,-0.64982 1.17334,-1.14088 0.16158,-0.383116 -0.21907,-1.147936 0.43745,-1.230134 0.65299,0.573268 1.03399,1.309154 1.90535,1.445684 0.57468,-0.516816 2.07469,-0.27235 1.77553,-1.388886 -0.54751,-0.304095 -1.22837,-0.383117 -1.8542,-0.492831 -0.65652,-0.191558 -1.39065,-0.134408 -1.88101,-0.734483 -0.0289,-0.109714 0.0787,-0.191558 0.1076,-0.30092 0.16369,-0.05327 0.46566,-0.0822 0.57432,0.109362 0.51929,0.02681 1.22696,0.191558 1.57974,-0.299862 0.38417,0.1905 0.92604,0.08079 1.17298,0.601134 0.84314,0.407811 1.2827,-0.492831 1.96357,-0.657578 0.0536,-0.433917 0.32667,-0.764117 0.48965,-1.173339 -0.92675,-0.3556 -2.20874,-0.216958 -3.13337,-0.734483 -0.2734,-0.137936 -0.65617,-0.276225 -0.73519,-0.573264 m -1.12254,1.664053 c -0.26987,0.191558 -0.49142,0.652991 -0.84243,0.436033 -0.24589,-0.244475 0.0533,-0.325261 -0.0543,-0.626181 -0.0289,-0.492124 -0.27446,-0.900641 -0.68404,-1.228019 -0.40957,-0.02752 -0.6544,-0.325967 -1.0354,0 -0.73519,0.463197 0.0279,1.199092 -0.29845,1.8542 -0.13758,0.352072 -0.35666,0.05468 -0.57467,0.05468 -0.68228,-0.709789 0.38311,-1.283053 0.0829,-2.125839 0.43321,-0.409928 1.22555,0.05115 1.63759,-0.383117 0.37853,0.05256 1.00401,-0.161925 1.03576,0.383117 -0.13688,0.706261 1.09079,0.902053 0.73307,1.635125" id="path5"></path>
    <path style="fill:#1c1c1b;fill-opacity:1;fill-rule:nonzero;stroke:none;stroke-width:0.353;stroke-dasharray:none" d="m 190.7513,88.444455 c -1.41993,-0.107597 -2.97356,-0.131939 -4.31094,-0.545747 -0.24448,-0.132997 -0.65194,0.08608 -0.84561,-0.188384 -0.81633,0.216959 -1.25131,-0.433211 -2.07151,-0.189088 -0.79023,-0.166159 -0.27235,-1.121834 -0.62689,-1.583267 -0.57221,-0.572558 -1.28164,-0.872419 -2.15547,-0.735189 -0.32526,0.352072 -0.54469,0.84455 -0.73625,1.280231 0,0.410986 0.43639,0.628297 0.49071,1.038225 -0.76482,0.219075 -1.66405,0.138288 -2.45674,0.269875 -0.43427,0.438502 -0.97966,0 -1.41711,0.301272 -0.9786,-0.02752 -1.93498,0.244475 -2.91606,0.352072 -0.43638,0.219075 -0.27128,0.766233 -0.7373,1.040342 -0.0543,0.381 0.11042,0.709788 0.24341,1.007886 0.16828,0.737305 0.92675,0.354189 1.28341,0.787047 0.0829,0.79375 1.39135,1.098197 0.84772,2.076803 0.35419,1.578327 -0.65616,2.811285 -0.98425,4.225572 -0.95532,0.982133 -1.88207,1.966739 -3.24591,2.048579 -0.21448,0.18803 -0.6798,0.18803 -0.62406,0.599366 0.46249,0.27305 0.97966,0.46531 1.55187,0.54504 0.79163,0.24483 2.01859,0.35419 2.75484,-0.1076 1.80199,-0.3817 1.88101,-2.320563 2.45428,-3.629016 -0.16616,-1.472847 0.4893,-2.508603 0.19438,-3.983214 -0.22014,-0.708025 -0.19438,-1.335969 -0.38488,-2.071158 0.73695,-0.789517 1.96391,-0.657578 3.00002,-0.872067 1.09043,-0.627238 2.6162,-0.216605 3.92924,-0.353483 2.20768,0.05292 4.57799,1.471436 6.65162,0.107245 0.13688,-0.437445 0.55104,-0.981781 0.11148,-1.421342" id="path6"></path>
    <path style="fill:#1c1c1b;fill-opacity:1;fill-rule:nonzero;stroke:none;stroke-width:0.353;stroke-dasharray:none" d="m 189.31503,94.884062 c -0.43815,-0.215547 -0.79128,0.109714 -1.12042,0.274814 -1.55081,0.186267 -2.86174,-0.247297 -4.27779,-0.382411 -0.13934,-0.410634 -0.38417,-0.930628 -0.13934,-1.363486 0.68086,-0.164042 1.49789,0 2.04576,0.432858 h 1.52682 c 0.98001,-0.217311 2.2098,-0.626533 2.45357,-1.772355 -0.0811,-0.326673 -0.35208,-0.517173 -0.68016,-0.598664 -0.87136,-0.244828 -1.55293,0.299861 -2.45427,0.108302 -0.62759,0.408517 -1.41923,-0.191558 -2.0193,0.136173 -0.76306,-0.383117 -1.74484,0.410633 -2.45463,-0.272345 -0.76376,-0.216958 -1.44357,-0.656519 -2.29059,-0.710847 -1.33526,-0.02646 -0.46249,1.447094 -0.84772,2.074686 0.41275,0.927453 1.28305,0.272345 1.96497,0.357717 0.2734,0.106186 0.54786,0.403578 0.62865,0.677333 0.0554,0.410633 0.18874,0.984603 -0.32526,1.226961 -0.95744,0.137936 -1.9939,0.520347 -2.94499,0.247297 -0.27658,0.107598 -0.65546,0.300567 -0.54822,0.681567 -0.51682,0.98178 0.0526,2.153708 0.54822,3.052233 -0.031,0.793749 0.54151,1.505655 0.67663,2.292345 0.43815,0.49071 0.92992,-0.0804 1.47461,0.11113 0.2734,-0.32809 0.81915,0.0275 1.09149,-0.29916 1.11901,0.16616 1.99179,-0.32985 3.13655,-0.13829 0.24553,0.055 0.43603,-0.35207 0.68086,-0.0568 1.14794,-0.0797 2.10115,0.36125 3.30024,0.19509 1.00929,-0.71297 0.24659,-2.154411 0.87559,-3.055758 0.2159,-0.655109 0.89888,-1.119012 0.62442,-1.967089 0,-0.54222 -0.49072,-0.976489 -0.92569,-1.251303 m -2.26377,4.119739 c -0.40746,-0.05715 -0.90241,0.106186 -1.22802,-0.164748 -0.653,-0.05644 -1.44675,0.190148 -1.99038,-0.190852 h -3.411 c -0.16052,-0.244475 -0.21485,-0.627592 -0.27094,-0.981781 0.65405,-0.653344 1.93605,-0.409222 2.72768,-0.191558 1.28094,-0.217664 2.48179,-0.383117 3.84457,-0.244828 0.13759,0.191558 0.41205,0.07867 0.62689,0.109714 0.24483,0.572558 0.0289,1.198739 -0.2988,1.664053" id="path7"></path>
    <path style="fill:#1c1c1b;fill-opacity:1;fill-rule:nonzero;stroke:none;stroke-width:0.353;stroke-dasharray:none" d="m 106.93867,90.502562 c -0.0543,-0.164042 0.16369,-0.381706 -0.0818,-0.518231 -0.81845,-0.354188 -1.85456,-0.137936 -2.69946,-0.404988 -1.06291,-0.60572 0.68121,-1.2319 0.38206,-2.105731 -0.49248,-0.519289 -0.81809,-2.2352 -1.90993,-1.225903 -0.60078,0.951795 -0.68263,2.209095 -0.87418,3.273072 -1.06292,-0.244827 -1.771653,0.492478 -2.807763,0.164748 -0.46285,0.355247 -1.17052,0.132997 -1.77377,0.190852 -0.24236,0.381706 -0.49001,0.792339 -0.73625,1.173339 -0.054,0.518231 0.0547,0.956381 0.30022,1.334911 0.38206,0.30092 0.73519,-0.107244 1.09185,-0.188383 0.62759,-0.02858 1.22413,-0.138289 1.85384,-0.22225 0.601493,-0.298097 1.362083,-0.244475 2.020713,-0.02857 0.32456,0.740128 0,1.6129 0.0776,2.456392 0.24695,0.983191 0.22155,1.967088 -0.13193,2.946047 -0.32985,0.818091 -1.20439,0.790575 -1.911713,0.983897 -1.41852,-0.05645 -2.92064,0.107597 -4.22733,-0.165806 -0.11042,-0.02752 -0.21908,0.08326 -0.19262,0.189442 0.62794,1.119014 1.58115,1.85349 2.7559,2.21085 0.38312,0.16334 0.90241,-0.0811 1.22696,0.21908 0.709083,-0.0557 1.498953,0.10971 2.101153,-0.16581 0.62653,0.13688 1.0361,-0.24482 1.4732,-0.54292 0.95425,-0.684386 0.81596,-1.910642 0.87029,-2.945692 0.38312,-0.357011 -0.0543,-0.7366 0,-1.170516 0.32667,-1.261181 -0.16298,-2.702983 -0.133,-4.014964 1.00753,-0.73413 2.67123,-0.02469 3.32599,-1.442861" id="path8"></path>
    <path style="fill:#1c1c1b;fill-opacity:1;fill-rule:nonzero;stroke:none;stroke-width:0.353;stroke-dasharray:none" d="m 95.318357,94.678711 c 0.5207,-0.932392 -0.87242,-1.556455 -1.33491,-2.155825 0.54469,-0.411339 1.3649,-0.139347 1.77341,-0.872419 -0.0564,-0.492478 0.40958,-0.847725 -0.1083,-1.229784 -0.54822,0 -0.95532,-0.379941 -1.55751,-0.244827 -0.4632,-0.299509 -0.16405,-0.846667 -0.24413,-1.389239 0.32809,-0.301272 0.35455,-0.875595 0.19509,-1.254478 -0.35983,-0.301978 -0.68651,-0.903111 -1.17475,-0.95638 -0.41275,0.272344 -1.01177,0.243769 -1.17757,0.789516 -0.2152,0.439209 -0.0268,1.091495 0.0871,1.582209 0,0.438149 0.18698,0.817738 0.0529,1.310569 -0.92851,0.410633 -2.23802,0.299861 -3.24802,0.106539 -0.76271,0.05609 -0.4064,0.930628 -1.06257,1.175455 -0.46426,0.433917 0.1083,0.818092 0,1.334206 0.21802,0.275519 0.49248,0.464961 0.87101,0.383116 0.5468,-0.547158 1.25448,-0.189441 1.96532,-0.300566 0.24448,0.244122 -0.24588,0.300566 -0.13617,0.54363 -1.14371,1.120422 -2.18228,2.649361 -3.84492,2.649361 -0.90135,0.325967 0.27234,0.789517 0.16121,1.282347 0.46638,0.598664 1.31093,0.48895 2.0186,0.649464 1.22767,-0.376061 2.10009,-1.307747 2.92029,-2.371372 0.13618,0.02752 0.30233,-0.05398 0.35525,0.111478 -0.16686,1.199797 -0.14005,2.727325 -0.14005,4.119033 0.19367,0.216956 0.14005,0.518936 0.49212,0.600066 0.2727,-0.0282 0.92675,0.27235 0.98249,-0.24729 -0.16298,-0.844906 0.27199,-1.554337 0,-2.319159 0.35419,-0.759531 0.11148,-1.580092 0.1912,-2.397125 0.0808,-1.338086 0.84597,0.244475 1.52789,-0.192264 0.21695,-0.164042 0.49036,-0.381 0.43497,-0.706261" id="path9"></path>
    <path style="fill:#1c1c1b;fill-opacity:1;fill-rule:nonzero;stroke:none;stroke-width:0.353;stroke-dasharray:none" d="m 97.665487,96.50324 c 0.76165,-0.7366 1.38959,-1.446389 2.20874,-1.963208 0.220133,-0.410634 0.571153,-0.79375 0.654053,-1.284111 -0.0829,-0.350661 -0.598663,-0.350661 -0.843493,-0.188031 -1.01071,-0.02752 -1.83092,0.516114 -2.81093,0.378531 -0.38065,0.466019 -0.76483,0.984955 -0.68086,1.691922 0.43744,0.464255 0.57114,1.609372 1.47249,1.364897" id="path10"></path>
    <path style="fill:#1c1c1b;fill-opacity:1;fill-rule:nonzero;stroke:none;stroke-width:0.353;stroke-dasharray:none" d="m 149.21101,91.806182 c -1.33526,0.02893 -2.56081,-0.244475 -3.81741,-0.408517 -0.70838,-0.272344 -1.60972,-0.08255 -2.39889,-0.135114 -0.71084,-0.35948 -1.6898,0.05256 -2.3756,-0.35948 -0.24307,-0.131939 -0.079,-0.433211 0.0582,-0.570442 0.68086,0 1.36172,-0.408516 2.01824,-0.05115 0.87242,-0.08467 1.57903,0.325966 2.50895,0.188383 0.43604,-0.188383 0.95427,-0.162631 1.25413,-0.684036 0.0265,-0.351367 0.24765,-0.893586 -0.19262,-1.141589 -1.82562,0.189442 -3.13408,-0.300919 -4.85457,-0.137231 -0.62689,0.05539 -0.21731,-0.680861 -0.35313,-1.036108 -0.35525,-0.927805 -1.33844,-1.226961 -2.2352,-1.282347 -0.57362,0.1905 -1.44498,0.244122 -1.47356,1.034344 0.10725,0.410634 0.0815,0.84455 0.27023,1.229784 -0.27023,0.381 -0.87242,0.134055 -1.31092,0.191558 -1.03293,0.3556 -2.36926,-0.0575 -3.37891,0.3556 -0.24694,0.460375 -0.76482,0.980369 -0.35524,1.525411 l 2.56469,0.0822 c 0.73519,-0.433211 1.50036,0.0508 2.29165,-0.248355 0.16298,0.191558 0.38311,0.328789 0.35242,0.600427 -0.48719,0.383117 -1.14371,0.517878 -1.88101,0.43815 -1.17263,0.109361 -2.39995,0.383117 -3.62691,0.543631 -1.20121,0.109361 -2.45569,-0.160514 -3.02683,1.176866 -0.031,0.651581 -0.43709,1.440039 0.32561,1.908528 0.30198,0.189442 0.57362,-0.08326 0.84773,-0.136525 0.92886,-0.465666 1.85349,-0.928864 3.02507,-0.737305 0.30092,-0.327025 0.90311,0.02575 1.2012,-0.301625 0.6276,0.137583 1.03364,-0.244123 1.66053,-0.134409 0.95779,-0.381705 2.18299,-0.109714 3.24943,-0.24765 0.87313,-0.351014 2.26484,-0.408516 3.13726,0.05609 1.0354,0.219075 2.01612,-0.464608 3.02436,0 1.09185,-0.05609 2.26342,0.109714 3.24979,-0.163689 0.35207,-0.243417 0.67945,-0.570089 0.73589,-0.982133 -0.0564,-0.243064 -0.24694,-0.461786 -0.49459,-0.573264" id="path11"></path>
    <path style="fill:#1c1c1b;fill-opacity:1;fill-rule:nonzero;stroke:none;stroke-width:0.353;stroke-dasharray:none" d="m 145.44691,94.341102 c -0.76165,0.275519 -1.71591,0.112183 -2.56081,0.167569 -0.1905,-0.277283 -0.5461,-0.109008 -0.84702,-0.167569 -1.14477,-0.299861 -2.78201,-0.299861 -4.00862,0 -0.73413,0.492478 -1.74625,0.303742 -2.61831,0.492478 -0.73731,0.3556 -1.41746,-0.410634 -2.2098,-0.298803 -0.2981,0.462844 -0.60008,0.926042 -0.48966,1.58115 0.54257,1.199092 0.32773,2.510719 0.95427,3.684407 0.24623,0.382406 0.62688,0.897116 1.22696,0.680506 0.46602,-0.43674 1.09043,-0.46567 1.66193,-0.628296 1.09255,-0.57326 2.7298,-0.10936 4.01073,-0.41063 1.00859,0.30127 2.39924,-0.0529 3.19299,0.901346 0.40535,0.19226 1.03505,0.0275 1.44498,-0.19085 0.38065,-1.008239 0.76165,-2.014714 0.98072,-3.107619 0.52106,-0.25012 0.1651,-0.846667 0.49036,-1.175456 -0.10724,-0.625475 -0.81809,-1.008591 -1.22872,-1.528233 m -2.20768,3.002844 c -0.43604,0.327025 -1.17228,0.24377 -1.63654,0.05503 -1.82739,-0.164748 -3.21592,0.326672 -5.04684,0.135114 -0.29598,0.275519 -0.75953,0.110772 -1.1437,0.163336 -0.2727,-0.187678 -0.2727,-0.57397 -0.18945,-0.844198 0.78846,-0.410633 1.71839,-0.655108 2.64513,-0.547863 1.41782,0.383116 2.91677,-0.545748 4.28061,0.05644 h 0.98354 c 0.35384,0.2159 0.18803,0.708378 0.10725,0.982133" id="path12"></path>
    <path style="fill:#1c1c1b;fill-opacity:1;fill-rule:nonzero;stroke:none;stroke-width:0.353;stroke-dasharray:none" d="m 60.288401,89.184726 h 1.1176 v 0.7874 h -1.1176 z m -1.689805,0 h 1.117247 v 0.7874 h -1.117247 z m 3.093508,-1.293283 c -0.158044,0 -0.286103,0.128058 -0.286103,0.286808 v 0.43427 h -1.1176 V 87.85934 c 0,-0.15875 -0.128411,-0.286455 -0.286455,-0.286455 -0.157692,0 -0.286103,0.127705 -0.286103,0.286455 v 0.753181 h -1.117247 v -0.43427 c 0,-0.15875 -0.128764,-0.286808 -0.286456,-0.286808 -0.158044,0 -0.286102,0.128058 -0.286102,0.286808 v 1.815395 c 0,0.329494 0.223661,0.551391 0.557388,0.551391 h 1.132417 v 1.74872 c 0,0.158044 0.128411,0.286103 0.286103,0.286103 0.158044,0 0.286455,-0.128059 0.286455,-0.286103 v -0.788811 h 0.961673 c 0.157691,0 0.286102,-0.128059 0.286102,-0.286103 0,-0.157692 -0.128411,-0.286103 -0.286102,-0.286103 h -0.961673 v -0.387703 h 1.133828 c 0.353483,0 0.556331,-0.201083 0.556331,-0.551391 v -1.815395 c 0,-0.15875 -0.128411,-0.286808 -0.286456,-0.286808" id="path13"></path>
    <path style="fill:#1c1c1b;fill-opacity:1;fill-rule:nonzero;stroke:none;stroke-width:0.353;stroke-dasharray:none" d="m 59.717786,108.05879 c -0.103364,-0.10866 -0.370064,-0.42192 -0.500944,-0.70026 v -0.1323 h 0.358775 c 0.158044,0 0.28575,-0.12841 0.28575,-0.2868 0,-0.15769 -0.127706,-0.28575 -0.28575,-0.28575 h -0.358775 v -0.58667 c 0,-0.15805 -0.128059,-0.28611 -0.286103,-0.28611 -0.158397,0 -0.286456,0.12806 -0.286456,0.28611 v 0.58667 h -0.4826 c -0.158044,0 -0.286455,0.12806 -0.286455,0.28575 0,0.15839 0.128411,0.2868 0.286455,0.2868 h 0.4826 v 0.12524 c -0.330905,0.46214 -0.764469,0.98002 -0.769055,0.98531 -0.09631,0.11571 -0.08114,0.28751 0.03422,0.38417 0.05115,0.043 0.113242,0.0635 0.174978,0.0635 0.07761,0 0.155222,-0.0332 0.209197,-0.0974 0.01058,-0.0131 0.160161,-0.19191 0.350661,-0.43285 v 2.0641 c 0,0.1584 0.128059,0.28645 0.286456,0.28645 0.158044,0 0.286103,-0.12805 0.286103,-0.28645 v -2.04435 c 0.06985,0.0829 0.119591,0.13512 0.125588,0.14217 0.0508,0.0529 0.118887,0.0801 0.188031,0.0801 0.0635,0 0.128058,-0.0236 0.178153,-0.0713 0.103716,-0.0984 0.107597,-0.26246 0.0092,-0.36618" id="path14"></path>
    <path style="fill:#1c1c1b;fill-opacity:1;fill-rule:nonzero;stroke:none;stroke-width:0.353;stroke-dasharray:none" d="m 60.77164,108.08669 c 0.01976,-0.15628 -0.09172,-0.29986 -0.248356,-0.31891 -0.15628,-0.0194 -0.299861,0.0917 -0.319616,0.24906 -0.08185,0.65793 -0.467784,0.97508 -0.487892,0.99096 -0.123825,0.097 -0.146403,0.27552 -0.05045,0.4004 0.05609,0.073 0.141464,0.11148 0.227189,0.11148 0.06103,0 0.122061,-0.0191 0.174272,-0.0589 0.02364,-0.0187 0.592314,-0.46532 0.70485,-1.37407" id="path15"></path>
    <path style="fill:#1c1c1b;fill-opacity:1;fill-rule:nonzero;stroke:none;stroke-width:0.353;stroke-dasharray:none" d="m 61.906102,106.78685 h -0.227894 v -0.75847 c 0,-0.1584 -0.128412,-0.28646 -0.286103,-0.28646 -0.158397,0 -0.286103,0.12806 -0.286103,0.28646 v 0.75847 h -0.8763 c -0.158044,0 -0.286103,0.12806 -0.286103,0.2861 0,0.15875 0.128059,0.28646 0.286103,0.28646 h 0.8763 v 2.66982 c -0.213078,-0.0279 -0.608189,-0.0885 -0.612775,-0.0889 -0.155928,-0.0236 -0.301978,0.0833 -0.325967,0.23953 -0.02364,0.15629 0.08361,0.30234 0.239537,0.32597 0.02117,0.004 0.506236,0.0776 0.696736,0.10054 0.03245,0.004 0.06421,0.006 0.09454,0.006 0.132997,0 0.242711,-0.0377 0.327025,-0.11289 0.153106,-0.13546 0.153106,-0.33125 0.153106,-0.39546 v -2.74461 h 0.227894 c 0.158044,0 0.286456,-0.12771 0.286456,-0.28646 0,-0.15804 -0.128412,-0.2861 -0.286456,-0.2861" id="path16"></path>
    <path style="fill:#1c1c1b;fill-opacity:1;fill-rule:nonzero;stroke:none;stroke-width:0.353;stroke-dasharray:none" d="m 25.021882,91.53853 -0.206728,0.07585 0.381706,-0.534811 c 0.06138,-0.08572 0.04127,-0.204611 -0.0441,-0.265994 -0.08572,-0.06138 -0.204964,-0.04127 -0.266348,0.0441 l -0.28328,0.396522 v -0.614186 h 0.468841 c 0.128059,0 0.231775,-0.103364 0.231775,-0.231422 0,-0.128058 -0.103716,-0.231422 -0.231775,-0.231422 h -0.468841 v -0.420864 h 0.362303 c 0.142875,0 0.258586,-0.115711 0.258586,-0.258586 0,-0.143228 -0.115711,-0.259292 -0.258586,-0.259292 h -0.933803 l 0.395111,-0.661811 0.70485,0.519994 c 0.04586,0.03422 0.100189,0.05045 0.153105,0.05045 0.07973,0 0.158045,-0.03598 0.208845,-0.104775 0.08467,-0.115006 0.06068,-0.276931 -0.05433,-0.362303 l -0.745419,-0.550686 0.12065,-0.201789 c 0.07303,-0.122767 0.03316,-0.28187 -0.08961,-0.354895 -0.122767,-0.07338 -0.281869,-0.03351 -0.355247,0.08961 l -1.066094,1.785761 c -0.07338,0.122767 -0.03316,0.281517 0.0896,0.354894 0.04127,0.0247 0.08714,0.03669 0.132292,0.03669 0.07091,0 0.1397,-0.02963 0.189794,-0.08326 h 0.424392 v 0.420864 h -0.512586 c -0.127706,0 -0.231422,0.103364 -0.231422,0.231422 0,0.128058 0.103716,0.231422 0.231422,0.231422 h 0.512586 v 1.221317 l -0.592314,0.216605 c -0.119944,0.0441 -0.181328,0.177447 -0.137583,0.297745 0.03422,0.09384 0.123119,0.151694 0.217664,0.151694 0.02646,0 0.05292,-0.0042 0.07937,-0.01376 l 0.696383,-0.255411 c 0.03457,-0.0046 0.06703,-0.01623 0.09454,-0.03457 l 0.683331,-0.250472 c 0.120297,-0.0441 0.182033,-0.177094 0.137936,-0.296686 -0.04375,-0.12065 -0.177095,-0.182386 -0.297039,-0.137936" id="path17"></path>
    <path style="fill:#1c1c1b;fill-opacity:1;fill-rule:nonzero;stroke:none;stroke-width:0.353;stroke-dasharray:none" d="m 23.758232,91.712131 c 0.01517,0 0.03069,-0.0021 0.04621,-0.0056 0.109714,-0.0254 0.178505,-0.134762 0.153105,-0.245181 L 23.8563,91.026728 c -0.0254,-0.11042 -0.135114,-0.178506 -0.24518,-0.153106 -0.110067,0.02575 -0.178153,0.135467 -0.153106,0.245181 l 0.101247,0.434975 c 0.02187,0.09419 0.105481,0.158397 0.198967,0.158397" id="path18"></path>
    <path style="fill:#1c1c1b;fill-opacity:1;fill-rule:nonzero;stroke:none;stroke-width:0.353;stroke-dasharray:none" d="m 26.405441,88.85202 0.470606,-0.592667 0.266347,0.188031 -0.524934,0.629355 z m -0.394758,2.283178 h 1.108427 v 0.609247 h -1.108427 z m 1.679927,-2.983089 -0.614891,-0.451556 c -0.113242,-0.07902 -0.258234,-0.09031 -0.360892,0.02646 -0.006,0.0053 -1.340908,1.678164 -1.340908,1.678164 -0.07937,0.100541 -0.0628,0.246238 0.03739,0.325613 0.04269,0.03422 0.09349,0.05045 0.143934,0.05045 0.06809,0 0.135819,-0.02963 0.18168,-0.08714 l 0.3429,-0.432153 0.2032,0.215194 -0.763411,0.915811 c -0.08149,0.09807 -0.06844,0.243064 0.02858,0.324909 -0.03422,0.0441 -0.05539,0.09842 -0.05539,0.158397 v 1.127125 c 0,0.142875 0.115711,0.258939 0.258939,0.258939 h 1.626305 c 0.142875,0 0.258939,-0.116064 0.258939,-0.258939 v -1.127125 c 0,-0.142875 -0.116064,-0.258939 -0.258939,-0.258939 h -1.441799 l 0.667455,-0.800453 0.278695,0.295275 c 0.0508,0.05397 0.119238,0.08149 0.188383,0.08149 0.0635,0 0.127353,-0.02364 0.1778,-0.07056 0.104069,-0.09843 0.108303,-0.262466 0.01023,-0.366183 l -0.32138,-0.340431 0.782814,-0.938388 c 0.08149,-0.09807 0.06844,-0.244123 -0.02963,-0.325967" id="path19"></path>
    <path style="fill:#1c1c1b;fill-opacity:1;fill-rule:nonzero;stroke:none;stroke-width:0.353;stroke-dasharray:none" d="m 23.548081,106.68384 h 0.581731 v 0.41663 c 0,0.15769 0.128411,0.2861 0.286102,0.2861 0.158045,0 0.286103,-0.12841 0.286103,-0.2861 v -0.41663 h 1.452739 v 0.41663 c 0,0.15769 0.128058,0.2861 0.286103,0.2861 0.157691,0 0.286102,-0.12841 0.286102,-0.2861 v -0.41663 h 0.597959 c 0.142875,0 0.258939,-0.11571 0.258939,-0.25894 0,-0.14288 -0.116064,-0.25894 -0.258939,-0.25894 h -0.597959 v -0.25788 c 0,-0.15804 -0.128411,-0.28646 -0.286102,-0.28646 -0.158045,0 -0.286103,0.12842 -0.286103,0.28646 v 0.25788 h -1.452739 v -0.25788 c 0,-0.15804 -0.128058,-0.28646 -0.286103,-0.28646 -0.157691,0 -0.286102,0.12842 -0.286102,0.28646 v 0.25788 h -0.581731 c -0.143228,0 -0.258939,0.11606 -0.258939,0.25894 0,0.14323 0.115711,0.25894 0.258939,0.25894" id="path20"></path>
    <path style="fill:#1c1c1b;fill-opacity:1;fill-rule:nonzero;stroke:none;stroke-width:0.353;stroke-dasharray:none" d="m 27.487198,108.16487 c -0.313972,-0.0942 -1.313744,-0.64523 -1.855258,-1.15217 -0.0575,-0.0533 -0.134761,-0.0815 -0.213078,-0.0762 -0.07832,0.005 -0.151694,0.0416 -0.202142,0.1023 -0.44203,0.52846 -1.359958,1.01741 -1.782938,1.20192 -0.144992,0.0631 -0.211314,0.23177 -0.148167,0.37641 0.04692,0.10795 0.152047,0.17251 0.262467,0.17251 0.03775,0 0.07726,-0.008 0.1143,-0.0247 0.12453,-0.054 1.137355,-0.50659 1.79458,-1.14618 0.6096,0.49495 1.500717,0.98461 1.866194,1.09432 0.151695,0.0455 0.310798,-0.0406 0.356306,-0.19191 0.04515,-0.15134 -0.04057,-0.31115 -0.192264,-0.35631" id="path21"></path>
    <path style="fill:#1c1c1b;fill-opacity:1;fill-rule:nonzero;stroke:none;stroke-width:0.353;stroke-dasharray:none" d="m 26.634887,109.23802 c 0.157692,0 0.286103,-0.12806 0.286103,-0.28646 0,-0.15804 -0.128411,-0.28575 -0.286103,-0.28575 h -0.912283 v -0.35348 c 0,-0.15804 -0.128059,-0.28645 -0.286456,-0.28645 -0.158044,0 -0.286103,0.12841 -0.286103,0.28645 v 0.35348 h -0.838552 c -0.158045,0 -0.286456,0.12771 -0.286456,0.28575 0,0.1584 0.128411,0.28646 0.286456,0.28646 h 0.838552 v 1.15041 c 0,0.15804 0.128059,0.2861 0.286103,0.2861 0.158397,0 0.286456,-0.12806 0.286456,-0.2861 v -1.15041 z" id="path22"></path>
    <path style="fill:#1c1c1b;fill-opacity:1;fill-rule:nonzero;stroke:none;stroke-width:0.353;stroke-dasharray:none" d="m 24.235011,109.50814 c -0.195792,0.15981 -0.544689,0.43639 -0.648406,0.49777 -0.136172,0.0811 -0.180975,0.25647 -0.100188,0.39229 0.05362,0.0903 0.148872,0.14041 0.246591,0.14041 0.04974,0 0.09984,-0.0131 0.145697,-0.0402 0.170745,-0.10125 0.628298,-0.47343 0.718256,-0.54681 0.122414,-0.10019 0.140758,-0.28081 0.04057,-0.40322 -0.100188,-0.12207 -0.280105,-0.14006 -0.402519,-0.0402" id="path23"></path>
    <path style="fill:#1c1c1b;fill-opacity:1;fill-rule:nonzero;stroke:none;stroke-width:0.353;stroke-dasharray:none" d="m 27.283257,109.96633 c -0.218722,-0.14287 -0.664986,-0.48119 -0.669572,-0.48436 -0.125589,-0.096 -0.305506,-0.0709 -0.400756,0.0547 -0.0956,0.12594 -0.07091,0.3055 0.05468,0.4011 0.01905,0.0145 0.466725,0.35384 0.702733,0.50765 0.04833,0.0314 0.102306,0.0466 0.156281,0.0466 0.09313,0 0.184855,-0.0455 0.239536,-0.12947 0.08643,-0.13264 0.04939,-0.31009 -0.0829,-0.39617" id="path24"></path>
    <path style="fill:#1c1c1b;fill-opacity:1;fill-rule:nonzero;stroke:none;stroke-width:0.353;stroke-dasharray:none" d="m 53.923835,97.018966 c -1.439333,-1.596319 -3.058583,-2.164997 -4.34093,-1.522942 -0.524934,0.261762 -3.381375,0.347487 -3.671711,0.357717 -0.0056,-0.127705 -0.03528,-0.659342 -0.03528,-1.279525 0,-0.711553 0.03845,-1.53423 0.203906,-1.986491 0.121708,-0.335139 0.272344,-0.449792 0.424391,-0.554567 0.216253,-0.162983 0.414514,-0.308328 0.429683,-1.072092 0.0035,-0.03916 0.0035,-0.08184 0.0035,-0.123825 0,-0.08573 -0.0035,-0.17533 -0.0053,-0.276577 -0.04445,-1.073503 -1.827389,-2.724856 -4.104217,-2.724856 -2.18828,0 -3.61703,1.805164 -3.719336,3.125258 -0.0018,0.05009 -0.0042,0.0956 -0.0042,0.140759 0,0.188736 0.185208,0.447675 0.420864,0.77858 0.297391,0.420511 0.673452,0.942975 0.706966,1.442508 0.0067,0.08678 0.01199,0.204259 0.01199,0.340431 0,0.736247 -0.08114,2.073628 -0.08996,2.275064 -1.683808,0.122414 -5.980641,0.29598 -6.094235,-0.384175 l -0.0067,-0.0374 -0.03563,0.012 c -0.02011,0.01199 -2.066219,0.890058 -2.246841,2.58198 -0.140406,1.328911 0.562328,2.800347 1.789289,3.746497 0.897113,0.69074 1.863372,0.94262 2.582333,0.66498 1.120069,-0.42509 3.78848,-0.70802 4.092927,-0.73624 0.01341,0.32949 0.163689,4.28484 0.163689,4.75756 0,0.0473 0.298097,4.77555 2.799292,4.8641 1.625952,0.0564 2.512836,-1.38501 2.633133,-4.28343 0.01235,-0.27376 0.01588,-0.99025 0.01588,-1.82421 0,-1.54482 -0.01094,-3.48898 -0.01588,-3.76344 0.341842,0.0194 3.565525,0.23848 3.800828,0.23848 l 0.2286,0.0243 c 0.688269,0.0819 2.781299,0.34643 3.894666,-0.51999 0.402167,-0.31468 0.871008,-1.07104 0.953206,-1.986846 0.05292,-0.582785 -0.04269,-1.443563 -0.784931,-2.273649" id="path25"></path>
    <path style="fill:#1c1c1b;fill-opacity:1;fill-rule:nonzero;stroke:none;stroke-width:0.353;stroke-dasharray:none" d="m 43.078987,111.70919 c -6.808611,0 -12.354277,-5.54355 -12.354277,-12.354976 0,-3.235323 1.2573,-6.18525 3.302705,-8.393286 2.25672,-2.428875 5.479344,-3.95605 9.051572,-3.95605 3.572228,0 6.795205,1.527175 9.049808,3.95605 2.049991,2.208036 3.303058,5.157963 3.303058,8.393286 0,6.811426 -5.541786,12.354976 -12.352866,12.354976 M 54.808142,90.960928 C 52.186298,87.312853 47.904634,84.93125 43.078987,84.93125 c -4.828469,0 -9.105547,2.381603 -11.726333,6.029678 -1.698272,2.368197 -2.701925,5.264855 -2.701925,8.393286 0,7.959366 6.47312,14.431786 14.428258,14.431786 7.955138,0 14.427905,-6.47242 14.427905,-14.431786 0,-3.128431 -1.001889,-6.025089 -2.69875,-8.393286" id="path26"></path>
    <path style="fill:#1c1c1b;fill-opacity:1;fill-rule:nonzero;stroke:none;stroke-width:0.353;stroke-dasharray:none" d="m 76.217377,106.26869 h -0.31679 c -0.14394,0 -0.16299,0.0381 -0.16299,0.17251 v 3.94476 c 0,0.72954 0.0385,1.15217 0.0385,1.22837 0,0.11571 -0.0194,0.16334 -0.14429,0.16334 h -0.71014 c -0.15346,0 -0.38382,-0.34537 -1.15147,-1.09397 -2.32304,-2.25566 -3.47451,-3.49391 -3.58034,-3.49391 -0.067,0 -0.067,0.10583 -0.067,0.22084 v 3.12914 c 0,0.23989 -0.01,0.34537 0.21096,0.34537 h 0.3362 c 0.10548,0 0.12453,0.0194 0.12453,0.12488 v 0.68122 c 0,0.0769 -0.0766,0.0864 -0.13406,0.0864 h -2.11172 c -0.0575,0 -0.14394,-0.01 -0.14394,-0.0864 v -0.68122 c 0,-0.10548 0.0385,-0.12488 0.13441,-0.12488 h 0.33585 c 0.16298,0 0.20143,-0.0575 0.20143,-0.23037 v -4.15607 c 0,-0.16263 -0.0286,-0.23001 -0.20143,-0.23001 h -0.33585 c -0.0864,0 -0.13441,-0.01 -0.13441,-0.12453 v -0.6724 c 0,-0.0861 0.0864,-0.0956 0.14394,-0.0956 h 2.86984 c 0.0575,0 0.14394,0.01 0.14394,0.0956 v 0.63359 c 0,0.048 -0.01,0.10584 -0.0769,0.10584 h -0.27834 c -0.12488,0 -0.12488,0.0191 -0.12488,0.0956 0,0.14428 1.74695,1.766 3.02366,2.93722 0.30691,0.27834 0.4893,0.47978 0.59478,0.47978 0.0384,0 0.0384,-0.115 0.0384,-0.15381 v -3.11891 c 0,-0.12488 -0.01,-0.18238 -0.16298,-0.18238 h -0.3937 c -0.0864,0 -0.13406,-0.01 -0.13406,-0.13441 v -0.66252 c 0,-0.0861 0.0766,-0.0956 0.13406,-0.0956 h 2.03482 c 0.0575,0 0.13441,0.01 0.13441,0.0956 v 0.72002 c 0,0.0575 -0.0769,0.0769 -0.13441,0.0769" id="path27"></path>
    <path style="fill:#1c1c1b;fill-opacity:1;fill-rule:nonzero;stroke:none;stroke-width:0.353;stroke-dasharray:none" d="m 81.200187,108.43774 -0.54716,-1.49719 c -0.01,-0.0289 -0.01,-0.0575 -0.0384,-0.0575 -0.048,0 -0.067,-0.01 -0.096,0.0575 l -0.55668,1.48767 c -0.0384,0.10548 -0.0384,0.15346 0.096,0.15346 h 1.05586 c 0.0194,0 0.10548,0 0.10548,-0.0289 0,-0.0381 -0.01,-0.0861 -0.019,-0.11501 m 2.84092,3.3401 h -2.33221 c -0.15382,0 -0.18239,-0.0385 -0.18239,-0.17251 v -0.56656 c 0,-0.10583 0.0575,-0.12453 0.14393,-0.12453 h 0.28787 c 0.048,0 0.0864,-0.0194 0.0864,-0.0769 0,-0.0289 0,-0.0483 -0.01,-0.0769 l -0.4318,-1.12324 c -0.0483,-0.13406 -0.096,-0.16263 -0.22083,-0.16263 h -1.67958 c -0.14393,0 -0.16333,0.0476 -0.20143,0.15345 l -0.43216,1.08444 c -0.01,0.0191 -0.0289,0.0861 -0.0289,0.11501 0,0.0769 0.0674,0.0868 0.12489,0.0868 h 0.28786 c 0.13441,0 0.16334,0.01 0.16334,0.1531 v 0.54716 c 0,0.13441 -0.0289,0.16334 -0.18239,0.16334 h -1.96744 c -0.18238,0 -0.22084,-0.01 -0.22084,-0.16334 v -0.59513 c 0,-0.11501 0.0575,-0.13441 0.17287,-0.13441 h 0.31644 c 0.14393,0 0.20143,-0.067 0.25929,-0.20144 l 2.1403,-5.11563 c 0.0575,-0.14393 0.0864,-0.19191 0.26882,-0.19191 h 0.69109 c 0.17251,0 0.23001,0.01 0.30692,0.19191 l 2.06339,5.09658 c 0.0769,0.19191 0.11536,0.22049 0.26917,0.22049 h 0.30692 c 0.0575,0 0.14393,0.01 0.14393,0.0769 v 0.67204 c 0,0.10548 -0.01,0.14393 -0.14393,0.14393" id="path28"></path>
    <path style="fill:#1c1c1b;fill-opacity:1;fill-rule:nonzero;stroke:none;stroke-width:0.353;stroke-dasharray:none" d="m 92.478567,111.77774 h -2.62008 c -0.16334,0 -0.21131,-0.01 -0.21131,-0.16334 v -0.47978 c 0,-0.16298 0.0289,-0.19191 0.17286,-0.19191 h 0.22084 c 0.0286,0 0.0864,0.01 0.0864,-0.0191 0,-0.067 0.01,-0.067 -0.0579,-0.12488 l -2.05387,-1.76601 c -0.0286,-0.0286 -0.096,-0.10548 -0.16298,-0.10548 -0.0483,0 -0.11536,0.048 -0.13441,0.067 l -0.0575,0.048 c -0.0864,0.0769 -0.0769,0.22084 -0.0769,0.42228 v 1.18992 c 0,0.17321 0.0384,0.23071 0.20143,0.23071 h 0.32632 c 0.10548,0 0.13477,0.0194 0.13477,0.12454 v 0.68156 c 0,0.0769 -0.0769,0.0864 -0.13477,0.0864 h -2.42817 c -0.0575,0 -0.14393,-0.01 -0.14393,-0.0864 v -0.68156 c 0,-0.10513 0.0385,-0.12454 0.13441,-0.12454 h 0.33584 c 0.16299,0 0.19192,-0.0575 0.19192,-0.23071 v -4.15572 c 0,-0.16299 -0.019,-0.23002 -0.19192,-0.23002 h -0.33584 c -0.0864,0 -0.13441,-0.009 -0.13441,-0.12488 v -0.67204 c 0,-0.0861 0.0864,-0.0956 0.14393,-0.0956 h 2.42817 c 0.0579,0 0.13477,0.009 0.13477,0.0956 v 0.67204 c 0,0.11536 -0.0385,0.12488 -0.13477,0.12488 h -0.32632 c -0.1725,0 -0.20143,0.067 -0.20143,0.23002 v 1.49718 c 0,0.0579 -0.01,0.12524 0.0575,0.12524 0.0579,0 0.43215,-0.3362 1.15182,-0.89288 0.71967,-0.55668 1.11337,-0.88265 1.11337,-0.93098 0,-0.0575 -0.0286,-0.096 -0.096,-0.096 h -0.0769 c -0.18239,0 -0.19191,-0.019 -0.19191,-0.19156 v -0.45155 c 0,-0.13441 0.0289,-0.18204 0.16333,-0.18204 h 2.27471 c 0.22049,0 0.24942,0.009 0.24942,0.19156 v 0.49953 c 0,0.19192 -0.0385,0.20144 -0.23037,0.20144 h -0.14393 c -0.32632,0 -0.50871,0.17251 -0.90241,0.45085 l -1.95756,1.40159 c -0.0289,0.019 -0.0579,0.048 -0.0579,0.0956 0,0.0388 0.0194,0.0575 0.048,0.0769 l 2.72592,2.28459 c 0.22083,0.18203 0.36442,0.30691 0.60466,0.30691 h 0.14393 c 0.18239,0 0.21096,0.0289 0.21096,0.19191 v 0.51823 c 0,0.14429 -0.019,0.18239 -0.19191,0.18239" id="path29"></path>
    <path style="fill:#1c1c1b;fill-opacity:1;fill-rule:nonzero;stroke:none;stroke-width:0.353;stroke-dasharray:none" d="m 97.701337,108.43774 -0.54716,-1.49719 c -0.01,-0.0289 -0.01,-0.0575 -0.0384,-0.0575 -0.048,0 -0.067,-0.01 -0.096,0.0575 l -0.55668,1.48767 c -0.0384,0.10548 -0.0384,0.15346 0.096,0.15346 h 1.05586 c 0.0194,0 0.10548,0 0.10548,-0.0289 0,-0.0381 -0.01,-0.0861 -0.0191,-0.11501 m 2.840923,3.3401 h -2.332213 c -0.15382,0 -0.18239,-0.0385 -0.18239,-0.17251 v -0.56656 c 0,-0.10583 0.0575,-0.12453 0.14393,-0.12453 h 0.28787 c 0.048,0 0.0864,-0.0194 0.0864,-0.0769 0,-0.0289 0,-0.0483 -0.01,-0.0769 l -0.4318,-1.12324 c -0.0483,-0.13406 -0.0959,-0.16263 -0.22083,-0.16263 h -1.67958 c -0.14393,0 -0.16333,0.0476 -0.20143,0.15345 l -0.43216,1.08444 c -0.01,0.0191 -0.0289,0.0861 -0.0289,0.11501 0,0.0769 0.0674,0.0868 0.12489,0.0868 h 0.28786 c 0.13441,0 0.16334,0.01 0.16334,0.1531 v 0.54716 c 0,0.13441 -0.0289,0.16334 -0.18239,0.16334 h -1.96697 c -0.18238,0 -0.22084,-0.01 -0.22084,-0.16334 v -0.59513 c 0,-0.11501 0.0575,-0.13441 0.17287,-0.13441 h 0.31644 c 0.14393,0 0.20179,-0.067 0.25929,-0.20144 l 2.1403,-5.11563 c 0.0575,-0.14393 0.0864,-0.19191 0.26882,-0.19191 h 0.69109 c 0.17251,0 0.23036,0.01 0.30692,0.19191 l 2.06339,5.09658 c 0.0769,0.19191 0.115363,0.22049 0.269173,0.22049 h 0.30692 c 0.0575,0 0.14393,0.01 0.14393,0.0769 v 0.67204 c 0,0.10548 -0.01,0.14393 -0.14393,0.14393" id="path30"></path>
    <path style="fill:#1c1c1b;fill-opacity:1;fill-rule:nonzero;stroke:none;stroke-width:0.353;stroke-dasharray:none" d="m 110.40048,111.77774 h -2.35162 c -0.12488,0 -0.14393,-0.0381 -0.14393,-0.16334 v -0.60466 c 0,-0.10513 0.0384,-0.12453 0.13441,-0.12453 h 0.33584 c 0.16334,0 0.20179,-0.0575 0.20179,-0.23072 v -4.17442 c -0.95991,2.31281 -1.5935,3.91548 -1.89089,4.77944 -0.17286,0.4893 -0.19191,0.61454 -0.53763,0.61454 -0.39335,0 -0.40287,-0.17322 -0.58526,-0.66252 -0.58561,-1.58362 -1.2192,-3.14819 -1.86196,-4.72228 v 4.16524 c 0,0.18274 0.0575,0.23072 0.21096,0.23072 h 0.33585 c 0.10583,0 0.1344,0.0194 0.1344,0.12453 v 0.68157 c 0,0.0769 -0.0765,0.0864 -0.1344,0.0864 h -2.10149 c -0.0579,0 -0.14429,-0.01 -0.14429,-0.0864 v -0.68157 c 0,-0.10513 0.0385,-0.12453 0.13441,-0.12453 h 0.33585 c 0.16333,0 0.20178,-0.0575 0.20178,-0.23072 v -4.15572 c 0,-0.16298 -0.0289,-0.23001 -0.20178,-0.23001 h -0.33585 c -0.0861,0 -0.13441,-0.009 -0.13441,-0.12488 v -0.67204 c 0,-0.0861 0.0864,-0.0956 0.14429,-0.0956 h 3.24378 c 0.0575,0 0.13441,0.009 0.13441,0.0956 v 0.63358 c 0,0.13441 -0.0575,0.13441 -0.21096,0.13441 h -0.15381 c -0.0864,0 -0.13441,0.0385 -0.13441,0.13441 0,0.0864 0.22084,0.79657 0.70061,1.97697 0.3362,0.81597 0.48014,1.32468 0.53764,1.32468 0.0769,0 0.11536,-0.11536 0.30727,-0.58561 0.66216,-1.65065 1.07491,-2.60103 1.07491,-2.77354 0,-0.0769 -0.0864,-0.0769 -0.15381,-0.0769 h -0.22049 c -0.17286,0 -0.19226,-0.0575 -0.19226,-0.19191 v -0.4512 c 0,-0.11536 0.01,-0.22049 0.12488,-0.22049 h 3.19617 c 0.0575,0 0.13441,0.01 0.13441,0.0956 v 0.66252 c 0,0.10548 -0.0289,0.13441 -0.13441,0.13441 h -0.33584 c -0.16334,0 -0.20144,0.048 -0.20144,0.22048 v 4.16525 c 0,0.17321 0.0476,0.23072 0.20144,0.23072 h 0.33584 c 0.10548,0 0.13441,0.0194 0.13441,0.12453 v 0.68156 c 0,0.0864 -0.0769,0.0864 -0.13441,0.0864" id="path31"></path>
    <path style="fill:#1c1c1b;fill-opacity:1;fill-rule:nonzero;stroke:none;stroke-width:0.353;stroke-dasharray:none" d="m 118.91537,106.26869 h -0.23989 c -0.16333,0 -0.20143,0.048 -0.20143,0.22048 v 2.18829 c 0,1.20014 -0.14429,2.02529 -0.79693,2.64936 -0.4512,0.4318 -1.07491,0.63323 -1.88101,0.63323 -1.13277,0 -1.91982,-0.39335 -2.35162,-1.17087 -0.33584,-0.60466 -0.35524,-1.29575 -0.35524,-2.11172 v -2.17876 c 0,-0.16263 -0.0286,-0.23001 -0.20144,-0.23001 h -0.23989 c -0.0864,0 -0.13441,-0.01 -0.13441,-0.12453 v -0.6724 c 0,-0.0861 0.0864,-0.0956 0.14394,-0.0956 h 2.38019 c 0.0579,0 0.13441,0.01 0.13441,0.0956 v 0.72002 c 0,0.0674 -0.0766,0.0769 -0.12454,0.0769 h -0.33619 c -0.21096,0 -0.21096,0.096 -0.21096,0.29739 v 2.11138 c 0,0.63359 0,1.15217 0.23036,1.56457 0.23989,0.4318 0.64311,0.66252 1.16134,0.66252 1.11337,0 1.47814,-0.73907 1.47814,-2.22709 v -2.17876 c 0,-0.16263 -0.0289,-0.23001 -0.20179,-0.23001 h -0.33584 c -0.0864,0 -0.13441,-0.01 -0.13441,-0.12453 v -0.67239 c 0,-0.0861 0.0864,-0.0956 0.14429,-0.0956 h 2.07292 c 0.0575,0 0.13441,0.01 0.13441,0.0956 v 0.66251 c 0,0.10548 -0.0385,0.13441 -0.13441,0.13441" id="path32"></path>
    <path style="fill:#1c1c1b;fill-opacity:1;fill-rule:nonzero;stroke:none;stroke-width:0.353;stroke-dasharray:none" d="m 123.20656,106.26869 c -0.46073,0 -0.4512,0.0381 -0.4512,0.28787 v 1.59314 c 0,0.17286 0.0385,0.24977 0.19226,0.24977 1.11301,0 1.6891,-0.3362 1.6891,-1.05587 0,-0.67169 -0.4893,-1.07491 -1.43016,-1.07491 m 3.34962,5.58588 c -0.37429,0 -0.81562,-0.115 -1.24777,-0.3743 -1.09396,-0.64311 -1.54517,-1.47813 -1.98649,-2.1403 -0.0385,-0.0575 -0.096,-0.0864 -0.16334,-0.0864 -0.36477,0 -0.40322,0.0381 -0.40322,0.25894 v 1.14229 c 0,0.17287 0.0483,0.23037 0.21131,0.23037 h 0.3168 c 0.10548,0 0.1344,0.0194 0.1344,0.12488 v 0.68119 c 0,0.0864 -0.0864,0.0864 -0.14428,0.0864 h -2.39924 c -0.0575,0 -0.14394,-0.01 -0.14394,-0.0864 v -0.68122 c 0,-0.10548 0.0385,-0.12488 0.13441,-0.12488 h 0.33585 c 0.16298,0 0.20143,-0.0575 0.20143,-0.23037 v -4.15607 c 0,-0.16263 -0.0286,-0.22049 -0.20143,-0.22049 h -0.33585 c -0.0864,0 -0.13441,-0.019 -0.13441,-0.13405 v -0.6724 c 0,-0.0861 0.0864,-0.0956 0.14394,-0.0956 h 2.35161 c 1.82351,0 2.77354,0.70062 2.77354,1.89054 0,0.85443 -0.54716,1.46861 -0.99801,1.66052 -0.21131,0.096 -0.35524,0.14394 -0.35524,0.20179 0,0.0575 0.33584,0.60431 0.87347,1.1804 0.89253,0.95038 1.42029,0.89217 1.42029,1.28623 0,0.19191 -0.15346,0.25893 -0.38383,0.25893" id="path33"></path>
    <path style="fill:#1c1c1b;fill-opacity:1;fill-rule:nonzero;stroke:none;stroke-width:0.353;stroke-dasharray:none" d="m 131.87477,108.43774 -0.54716,-1.49719 c -0.01,-0.0289 -0.01,-0.0575 -0.0384,-0.0575 -0.048,0 -0.067,-0.01 -0.096,0.0575 l -0.55668,1.48767 c -0.0384,0.10548 -0.0384,0.15346 0.096,0.15346 h 1.05586 c 0.0194,0 0.10548,0 0.10548,-0.0289 0,-0.0381 -0.01,-0.0861 -0.019,-0.11501 m 2.84092,3.3401 h -2.33221 c -0.15382,0 -0.18239,-0.0385 -0.18239,-0.17251 v -0.56656 c 0,-0.10583 0.0575,-0.12453 0.14393,-0.12453 h 0.28787 c 0.048,0 0.0864,-0.0194 0.0864,-0.0769 0,-0.0289 0,-0.0483 -0.01,-0.0769 l -0.4318,-1.12324 c -0.0483,-0.13406 -0.0959,-0.16263 -0.22083,-0.16263 h -1.67958 c -0.14393,0 -0.16333,0.0476 -0.20143,0.15345 l -0.43216,1.08444 c -0.01,0.0191 -0.0289,0.0861 -0.0289,0.11501 0,0.0769 0.0674,0.0868 0.12489,0.0868 h 0.28786 c 0.13441,0 0.16334,0.01 0.16334,0.1531 v 0.54716 c 0,0.13441 -0.0289,0.16334 -0.18239,0.16334 h -1.96779 c -0.18203,0 -0.22049,-0.01 -0.22049,-0.16334 v -0.59513 c 0,-0.11501 0.0575,-0.13441 0.17287,-0.13441 h 0.31644 c 0.14393,0 0.20143,-0.067 0.25929,-0.20144 l 2.1403,-5.11563 c 0.0575,-0.14393 0.0864,-0.19191 0.26882,-0.19191 h 0.69109 c 0.17251,0 0.23036,0.01 0.30692,0.19191 l 2.06339,5.09658 c 0.0769,0.19191 0.11536,0.22049 0.26917,0.22049 h 0.30692 c 0.0575,0 0.14393,0.01 0.14393,0.0769 v 0.67204 c 0,0.10548 -0.01,0.14393 -0.14393,0.14393" id="path34"></path>
    <path style="fill:#1c1c1b;fill-opacity:1;fill-rule:nonzero;stroke:none;stroke-width:0.353;stroke-dasharray:none" d="m 146.57086,105.45289 -0.62371,1.69898 c -0.0384,0.0956 -0.0769,0.18203 -0.19226,0.18203 -0.11501,0 -0.21097,-0.0381 -0.23989,-0.15346 -0.12489,-0.47025 -0.10548,-0.54715 -0.70062,-0.54715 h -1.14194 c -0.096,0 -0.12489,0.0191 -0.12489,0.10583 v 3.91548 c 0,0.17286 0.0385,0.23036 0.20144,0.23036 h 0.47061 c 0.10548,0 0.13405,0.0194 0.13405,0.12489 v 0.68156 c 0,0.0765 -0.0765,0.0864 -0.13405,0.0864 h -2.75485 c -0.0575,0 -0.14393,-0.01 -0.14393,-0.0864 v -0.68156 c 0,-0.10548 0.0385,-0.12489 0.13441,-0.12489 h 0.50871 c 0.16298,0 0.20143,-0.0575 0.20143,-0.23036 v -3.89643 c 0,-0.10583 -0.048,-0.12488 -0.14393,-0.12488 h -1.10384 c -0.23037,0 -0.44133,0.0289 -0.59479,0.16333 -0.38417,0.32597 -0.5087,0.47025 -0.74859,0.47025 -0.14429,0 -0.24024,-0.0575 -0.24024,-0.17286 0,-0.12488 0.23036,-0.62371 0.58561,-1.51624 0.12488,-0.31714 0.12488,-0.40322 0.29739,-0.40322 0.11536,0 0.18239,-0.01 0.23989,0.096 0.10583,0.19191 0.10583,0.23036 0.4512,0.23036 h 3.89678 c 0.49919,0 0.88301,0.01 1.2573,-0.23036 0.0674,-0.0384 0.12489,-0.11536 0.3168,-0.11536 0.16334,0 0.23036,0.0194 0.23036,0.15381 0,0.0575 -0.0194,0.0864 -0.0384,0.14394" id="path35"></path>
    <path style="fill:#1c1c1b;fill-opacity:1;fill-rule:nonzero;stroke:none;stroke-width:0.353;stroke-dasharray:none" d="m 152.16743,106.91156 c -0.42227,-0.51823 -0.98848,-0.8061 -1.58362,-0.8061 -1.15182,0 -1.91946,0.74859 -1.91946,2.01577 0,1.66017 0.99801,2.88855 2.38971,2.88855 0.93098,0 1.73743,-0.73907 1.73743,-1.99637 0,-0.8636 -0.15381,-1.52577 -0.62406,-2.10185 m 0.17286,4.76073 c -0.47025,0.21096 -0.77752,0.30692 -1.29575,0.30692 -1.69863,0 -2.82187,-0.58526 -3.54154,-1.89054 -0.25929,-0.47025 -0.3937,-0.79692 -0.3937,-1.3342 0,-1.17122 0.26882,-1.97732 1.03682,-2.66841 0.64276,-0.57574 1.53564,-0.90206 2.48567,-0.90206 1.04598,0 2.02494,0.36478 2.67758,0.97896 0.65264,0.61419 1.06539,1.56457 1.06539,2.38972 0,1.44956 -0.71014,2.534 -2.03447,3.11961" id="path36"></path>
    <path style="fill:#1c1c1b;fill-opacity:1;fill-rule:nonzero;stroke:none;stroke-width:0.353;stroke-dasharray:none" d="m 162.71647,111.77774 h -2.62008 c -0.16334,0 -0.21131,-0.01 -0.21131,-0.16334 v -0.47978 c 0,-0.16298 0.0289,-0.19191 0.17286,-0.19191 h 0.22084 c 0.0286,0 0.0864,0.01 0.0864,-0.0191 0,-0.067 0.01,-0.067 -0.0579,-0.12488 l -2.05387,-1.76601 c -0.0286,-0.0286 -0.096,-0.10548 -0.16298,-0.10548 -0.0483,0 -0.11536,0.048 -0.13441,0.067 l -0.0575,0.048 c -0.0864,0.0769 -0.0769,0.22084 -0.0769,0.42228 v 1.18992 c 0,0.17321 0.0385,0.23071 0.20143,0.23071 h 0.32632 c 0.10548,0 0.13477,0.0194 0.13477,0.12454 v 0.68156 c 0,0.0769 -0.0769,0.0864 -0.13477,0.0864 h -2.42817 c -0.0575,0 -0.14393,-0.01 -0.14393,-0.0864 v -0.68156 c 0,-0.10513 0.0384,-0.12454 0.13441,-0.12454 h 0.33584 c 0.16299,0 0.19192,-0.0575 0.19192,-0.23071 v -4.15572 c 0,-0.16299 -0.0191,-0.23002 -0.19192,-0.23002 h -0.33584 c -0.0864,0 -0.13441,-0.009 -0.13441,-0.12488 v -0.67204 c 0,-0.0861 0.0864,-0.0956 0.14393,-0.0956 h 2.42817 c 0.0579,0 0.13477,0.009 0.13477,0.0956 v 0.67204 c 0,0.11536 -0.0385,0.12488 -0.13477,0.12488 h -0.32632 c -0.1725,0 -0.20143,0.067 -0.20143,0.23002 v 1.49718 c 0,0.0579 -0.01,0.12524 0.0575,0.12524 0.0579,0 0.43215,-0.3362 1.15182,-0.89288 0.71967,-0.55668 1.11337,-0.88265 1.11337,-0.93098 0,-0.0575 -0.0286,-0.096 -0.096,-0.096 h -0.0769 c -0.18239,0 -0.19191,-0.019 -0.19191,-0.19156 v -0.45155 c 0,-0.13441 0.0289,-0.18204 0.16333,-0.18204 h 2.27471 c 0.22084,0 0.24942,0.009 0.24942,0.19156 v 0.49953 c 0,0.19192 -0.0385,0.20144 -0.23037,0.20144 h -0.14393 c -0.32632,0 -0.50871,0.17251 -0.90241,0.45085 l -1.95756,1.40159 c -0.0289,0.019 -0.0579,0.048 -0.0579,0.0956 0,0.0388 0.0194,0.0575 0.048,0.0769 l 2.72592,2.28459 c 0.22083,0.18203 0.36477,0.30691 0.60466,0.30691 h 0.14393 c 0.18239,0 0.21096,0.0289 0.21096,0.19191 v 0.51823 c 0,0.14429 -0.019,0.18239 -0.19191,0.18239" id="path37"></path>
    <path style="fill:#1c1c1b;fill-opacity:1;fill-rule:nonzero;stroke:none;stroke-width:0.353;stroke-dasharray:none" d="m 166.96014,111.77774 h -2.44722 c -0.0579,0 -0.14429,-0.01 -0.14429,-0.0864 v -0.68157 c 0,-0.10513 0.0385,-0.12453 0.13441,-0.12453 h 0.33585 c 0.16333,0 0.20179,-0.0575 0.20179,-0.23072 v -4.15572 c 0,-0.16298 -0.0289,-0.23001 -0.20179,-0.23001 h -0.33585 c -0.0864,0 -0.13441,-0.009 -0.13441,-0.12488 v -0.67204 c 0,-0.0861 0.0864,-0.0956 0.14429,-0.0956 h 2.44722 c 0.0575,0 0.13441,0.009 0.13441,0.0956 v 0.67204 c 0,0.11536 -0.0385,0.12488 -0.13441,0.12488 h -0.33584 c -0.17287,0 -0.20144,0.0769 -0.20144,0.23001 v 4.15572 c 0,0.16334 0.0286,0.23072 0.20144,0.23072 h 0.33584 c 0.10548,0 0.13441,0.0194 0.13441,0.12453 v 0.68157 c 0,0.0864 -0.0769,0.0864 -0.13441,0.0864" id="path38"></path>
    <path style="fill:#1c1c1b;fill-opacity:1;fill-rule:nonzero;stroke:none;stroke-width:0.353;stroke-dasharray:none" d="m 175.00376,111.36502 c -0.13441,0.20144 -0.93098,0.56621 -2.13078,0.56621 -2.44757,0 -3.98321,-1.48731 -3.98321,-3.40712 0,-1.15147 0.57608,-2.16924 1.54552,-2.73544 0.77717,-0.46073 1.72755,-0.56621 2.90795,-0.56621 h 1.21884 c 0.15381,0 0.21132,0.0381 0.21132,0.19191 v 1.36278 c 0,0.22084 -0.0286,0.37465 -0.20144,0.37465 -0.14393,0 -0.21131,-0.12488 -0.3743,-0.35525 -0.31679,-0.44168 -0.77752,-0.65264 -1.41111,-0.65264 -1.45873,0 -2.34174,0.89218 -2.34174,2.33222 0,1.52611 1.03646,2.48567 2.41865,2.48567 0.78704,0 1.28623,-0.22049 1.62207,-0.76764 0.21096,-0.35525 0.27834,-0.49883 0.47025,-0.49883 0.18239,0 0.15346,0.22048 0.15346,0.47025 0,0.67169 -0.048,1.11301 -0.10548,1.19944" id="path39"></path>
    <path style="fill:#1c1c1b;fill-opacity:1;fill-rule:nonzero;stroke:none;stroke-width:0.353;stroke-dasharray:none" d="m 184.30534,111.77774 h -2.42817 c -0.0575,0 -0.14429,-0.01 -0.14429,-0.0864 v -0.68157 c 0,-0.10513 0.0289,-0.12453 0.13441,-0.12453 h 0.3168 c 0.16333,0 0.20179,-0.0575 0.20179,-0.23072 v -1.47778 c 0,-0.096 -0.0864,-0.10548 -0.15381,-0.10548 h -2.8889 c -0.0769,0 -0.15346,0.01 -0.15346,0.10548 v 1.47778 c 0,0.16334 0.0289,0.23072 0.20144,0.23072 h 0.31679 c 0.0575,0 0.13441,0.01 0.13441,0.0765 v 0.72954 c 0,0.0864 -0.0769,0.0864 -0.13441,0.0864 h -2.42817 c -0.0578,0 -0.14393,-0.01 -0.14393,-0.0864 v -0.68156 c 0,-0.10513 0.0384,-0.12453 0.13441,-0.12453 h 0.33584 c 0.16298,0 0.20144,-0.0575 0.20144,-0.23072 v -4.15572 c 0,-0.16298 -0.0289,-0.23001 -0.20144,-0.23001 h -0.33584 c -0.0864,0 -0.13441,-0.009 -0.13441,-0.12489 v -0.67204 c 0,-0.0861 0.0861,-0.0956 0.14393,-0.0956 h 2.42817 c 0.0575,0 0.13441,0.01 0.13441,0.0956 v 0.72955 c 0,0.0674 -0.0864,0.0674 -0.13441,0.0674 h -0.31679 c -0.17251,0 -0.20144,0.0769 -0.20144,0.23001 v 1.29575 c 0,0.13441 0.0191,0.17286 0.18239,0.17286 h 2.83139 c 0.15346,0 0.18239,-0.0289 0.18239,-0.17286 v -1.29575 c 0,-0.16298 -0.0289,-0.23001 -0.20179,-0.23001 h -0.3168 c -0.0959,0 -0.13441,-0.009 -0.13441,-0.12489 v -0.67204 c 0,-0.0861 0.0868,-0.0956 0.14429,-0.0956 h 2.42817 c 0.0575,0 0.13441,0.01 0.13441,0.0956 v 0.67204 c 0,0.11536 -0.0385,0.12489 -0.13441,0.12489 h -0.32632 c -0.21131,0 -0.21131,0.0956 -0.21131,0.34537 v 3.92536 c 0,0.24941 0,0.34572 0.21131,0.34572 h 0.32632 c 0.10548,0 0.13441,0.0194 0.13441,0.12453 v 0.68156 c 0,0.0769 -0.0769,0.0864 -0.13441,0.0864" id="path40"></path>
    <path style="fill:#1c1c1b;fill-opacity:1;fill-rule:nonzero;stroke:none;stroke-width:0.353;stroke-dasharray:none" d="m 189.35532,111.77774 h -2.44722 c -0.0579,0 -0.14429,-0.01 -0.14429,-0.0864 v -0.68157 c 0,-0.10513 0.0385,-0.12453 0.13441,-0.12453 h 0.33585 c 0.16333,0 0.20179,-0.0575 0.20179,-0.23072 v -4.15572 c 0,-0.16298 -0.0289,-0.23001 -0.20179,-0.23001 h -0.33585 c -0.0864,0 -0.13441,-0.009 -0.13441,-0.12488 v -0.67204 c 0,-0.0861 0.0864,-0.0956 0.14429,-0.0956 h 2.44722 c 0.0575,0 0.13441,0.009 0.13441,0.0956 v 0.67204 c 0,0.11536 -0.0385,0.12488 -0.13441,0.12488 h -0.33584 c -0.17287,0 -0.20144,0.0769 -0.20144,0.23001 v 4.15572 c 0,0.16334 0.0286,0.23072 0.20144,0.23072 h 0.33584 c 0.10548,0 0.13441,0.0194 0.13441,0.12453 v 0.68157 c 0,0.0864 -0.0769,0.0864 -0.13441,0.0864" id="path41"></path>
    <path style="fill:#1c1c1b;fill-opacity:1;fill-rule:nonzero;stroke:none;stroke-width:0.353;stroke-dasharray:none" d="m 195.49641,110.30394 c 0.17145,0 0.28293,-0.10689 0.28293,-0.27975 0,-0.16016 -0.0914,-0.24518 -0.27517,-0.24518 h -0.46531 v 0.52493 z m 0.0674,-0.81774 c 0.35983,0 0.56833,0.18486 0.56833,0.5013 0,0.1531 -0.0399,0.27516 -0.12418,0.35595 -0.0628,0.066 -0.12101,0.10054 -0.24624,0.13265 0.14252,0.0497 0.1778,0.10512 0.42051,0.6611 0.0113,0.0356 0.0395,0.0995 0.10548,0.23248 0.25224,-0.24447 0.38911,-0.58067 0.38911,-0.93133 0,-0.72496 -0.58808,-1.31304 -1.31515,-1.31304 -0.72461,0 -1.31163,0.58808 -1.31163,1.31304 0,0.72108 0.58702,1.31198 1.31163,1.31198 0.34502,0 0.67204,-0.13265 0.91793,-0.37148 h -0.40499 c -0.009,-0.0624 -0.0109,-0.078 -0.0917,-0.29492 -0.13582,-0.3877 -0.22296,-0.48577 -0.41134,-0.48577 h -0.33267 v 0.46214 c 0,0.14499 0.007,0.22013 0.0205,0.31855 h -0.37571 c 0.0159,-0.10054 0.0191,-0.16298 0.0191,-0.31573 v -1.2693 c 0,-0.13758 -0.003,-0.18238 -0.0191,-0.31326 0.10336,0.006 0.16016,0.006 0.30868,0.006 z m -1.639,0.95215 c 0,-0.79234 0.64593,-1.43828 1.43686,-1.43828 0.79833,0 1.4351,0.64312 1.4351,1.43828 0,0.38311 -0.15099,0.76023 -0.41381,1.01564 -0.28434,0.27129 -0.64135,0.42369 -1.02129,0.42369 -0.79093,0 -1.43686,-0.64593 -1.43686,-1.43933" id="path42"></path>
  </g>
</svg>
