<svg width="248" height="44" viewBox="0 0 248 44" fill="none" xmlns="http://www.w3.org/2000/svg">
<path d="M230.499 0L224.544 2.63258L225.137 4.15863L231.104 1.51389L230.499 0Z" fill="white"/>
<path d="M109.618 16.8716C109.376 16.7987 109.104 16.7622 108.776 16.7622H103.094C102.761 16.7622 102.488 16.7926 102.252 16.8655L105.935 6.85809L109.612 16.8777L109.618 16.8716ZM106.892 4.41398H105.033L98.484 21.8693L100.241 22.3557L101.307 19.4009C101.543 18.7564 102.016 18.501 103.112 18.422H108.746C109.746 18.422 110.267 18.7138 110.533 19.4191L111.624 22.3496L113.447 21.8693L106.953 4.57206L106.892 4.4079V4.41398Z" fill="white"/>
<path d="M79.9769 16.8716C79.7346 16.7987 79.462 16.7622 79.1349 16.7622H73.4525C73.1194 16.7622 72.8407 16.7926 72.6044 16.8656L76.2876 6.85201L79.9709 16.8716H79.9769ZM77.2569 4.41399H75.4032L68.8485 21.8693L70.6114 22.3557L71.6715 19.4009C71.9078 18.7442 72.3682 18.501 73.4828 18.4281H79.1167C80.1405 18.4281 80.6191 18.7017 80.8917 19.4252L81.9882 22.3557L83.8056 21.8754L77.3114 4.57814L77.2509 4.41399H77.2569Z" fill="white"/>
<path d="M88.0401 4.41398H86.2469V21.997H96.4061L96.8725 20.3372H88.0401V4.41398Z" fill="white"/>
<path d="M66.91 9.62443C66.91 12.2084 65.7044 13.2116 62.6149 13.2116H60.5128C59.4526 13.2116 58.6893 13.3696 58.1381 13.6979V6.07379H63.1662C65.5772 6.07379 66.91 7.33232 66.91 9.61835M63.2631 4.41399H56.3389V21.997H58.1381V16.4825C58.1381 15.4611 58.9317 14.8774 60.325 14.8774H62.6573C66.6313 14.8774 68.8243 13.0109 68.8243 9.61835C68.8243 7.10129 67.3643 4.41399 63.2631 4.41399Z" fill="white"/>
<path d="M127.786 11.7098C125.551 11.2538 123.618 10.8586 123.618 8.70029C123.618 6.96753 125.115 5.84884 127.435 5.84884C128.937 5.84884 130.421 6.41426 131.597 7.43568L131.791 7.60592L132.863 6.28051L132.681 6.12243C131.209 4.85782 129.343 4.16471 127.435 4.16471C124.739 4.16471 121.831 5.63604 121.831 8.86445C121.831 12.3117 124.515 12.8711 127.114 13.4183C129.482 13.9107 131.718 14.3789 131.718 17.0723C131.718 19.0604 129.81 20.5621 127.271 20.5621C125.23 20.5621 123.606 19.8508 122.001 18.2578L121.807 18.0633L120.711 19.413L120.88 19.5711C122.813 21.3951 124.836 22.2462 127.253 22.2462C130.343 22.2462 133.541 20.252 133.541 16.9081C133.541 12.8954 130.488 12.2631 127.792 11.7098" fill="white"/>
<path d="M224.198 15.1267C224.198 13.8743 225.386 13.6067 226.385 13.6067H231.753V11.9409H226.573C225.731 11.9409 224.859 11.9773 224.198 12.3604V6.08595H233.243V4.42006H222.405V22.003H233.631V20.3372H224.204V15.1267H224.198Z" fill="white"/>
<path d="M216.517 12.4151C215.838 11.9956 214.942 11.9409 214.148 11.9409H210.156C209.362 11.9409 208.472 12.0017 207.787 12.4151V4.41399H205.988V21.997H207.787V15.1936C207.787 13.7587 209.314 13.6007 209.974 13.6007H214.33C215.717 13.6007 216.517 14.1783 216.517 15.1936V21.997H218.316V4.41399H216.517V12.4151Z" fill="white"/>
<path d="M242.269 11.7098C240.034 11.2538 238.107 10.8586 238.107 8.70029C238.107 6.96753 239.604 5.84884 241.918 5.84884C243.414 5.84884 244.892 6.41426 246.08 7.43568L246.273 7.60592L247.334 6.27443L247.152 6.11635C245.692 4.85781 243.832 4.16471 241.912 4.16471C239.21 4.16471 236.302 5.63604 236.302 8.86445C236.302 12.3117 238.986 12.8711 241.585 13.4122C243.953 13.9047 246.189 14.3728 246.189 17.0601C246.189 19.0543 244.274 20.556 241.742 20.556C239.731 20.556 238.059 19.8264 236.478 18.2518L236.284 18.0572L235.187 19.4069L235.357 19.565C237.302 21.389 239.319 22.2402 241.718 22.2402C244.807 22.2402 248 20.246 248 16.902C248 12.8832 244.947 12.257 242.251 11.7037" fill="white"/>
<path d="M190.989 6.07987H196.138V22.003H197.937V6.07987H203.074V4.4079H190.989V6.07987Z" fill="white"/>
<path d="M178.794 11.7098C176.559 11.2538 174.626 10.8586 174.626 8.70029C174.626 6.96753 176.123 5.84884 178.443 5.84884C179.945 5.84884 181.429 6.41426 182.605 7.43568L182.798 7.60592L183.871 6.28051L183.683 6.12243C182.211 4.85782 180.345 4.16471 178.437 4.16471C175.741 4.16471 172.833 5.63604 172.833 8.86445C172.833 12.3117 175.517 12.8711 178.116 13.4183C180.484 13.9107 182.726 14.3789 182.726 17.0723C182.726 19.0604 180.811 20.5621 178.279 20.5621C176.238 20.5621 174.614 19.8508 173.009 18.2578L172.815 18.0633L171.718 19.413L171.888 19.5711C173.821 21.3951 175.844 22.2462 178.261 22.2462C181.351 22.2462 184.543 20.252 184.543 16.9081C184.543 12.8893 181.49 12.2631 178.794 11.7098Z" fill="white"/>
<path d="M153.078 13.2116C153.078 19.8204 150.146 20.3615 146.602 20.3615H144.197V6.06163H146.602C150.6 6.06163 153.078 7.25936 153.078 13.2176M146.602 4.41399H142.392V21.997H146.602C152.484 21.997 154.992 19.3401 154.992 13.1082C154.992 6.87633 152.406 4.41399 146.602 4.41399Z" fill="white"/>
<path d="M117.651 4.41398H115.852V21.997H117.651V4.41398Z" fill="white"/>
<path d="M160.463 15.1267C160.463 13.8682 161.65 13.6007 162.644 13.6007H168.017V11.9348H162.831C161.995 11.9348 161.129 11.9713 160.463 12.3604V6.08595H169.501V4.42006H158.67V22.003H169.883V20.3311H160.463V15.1267Z" fill="white"/>
<path d="M43.8534 22.003C43.8534 16.0995 41.5393 10.737 37.7591 6.77905C37.4381 7.80047 37.2745 9.00428 37.2745 10.3358V12.4151C37.8379 11.2417 39.0555 10.9498 39.4917 10.0622C40.0188 12.3725 39.6008 13.2784 37.9893 13.7952C37.3533 14.0019 37.2806 14.1539 37.2806 14.8896V17.2972C37.844 16.1299 39.0616 15.832 39.4978 14.9504C40.0248 17.2607 39.6068 18.1666 37.9954 18.6895C37.3593 18.8901 37.2866 19.0421 37.2866 19.7839V21.3221C37.2866 27.8336 35.0694 33.0258 30.7743 36.7285C30.0292 39.6529 28.6419 41.9511 26.552 43.5319C36.4506 41.4039 43.8656 32.5759 43.8656 22.003M35.9296 10.3358C35.9296 8.57261 36.1901 7.03441 36.699 5.73332C36.2023 5.28341 35.6934 4.85781 35.1603 4.45046C32.5978 6.59058 31.4044 10.2507 31.4044 15.1997V25.9793C31.9617 24.7998 33.1793 24.514 33.6155 23.6203C34.1486 25.9367 33.7246 26.8365 32.1192 27.3655C31.4892 27.5661 31.4104 27.7181 31.4104 28.4538V30.983C31.4104 32.2051 31.3377 33.3724 31.1984 34.4668C33.9124 31.591 35.9418 27.1527 35.9418 21.316V19.7778C35.9418 19.0361 35.863 18.8901 35.233 18.6834C33.6276 18.1606 33.1975 17.2547 33.7367 14.9443C34.1728 15.8259 35.3844 16.1238 35.9478 17.2911V14.8835C35.9478 14.1478 35.8691 13.9959 35.239 13.7891C33.6337 13.2724 33.2036 12.3665 33.7427 10.0561C34.1789 10.9377 35.3905 11.2295 35.9539 12.409V10.3297L35.9296 10.3358ZM33.7064 3.4412C30.9561 1.67196 27.7757 0.510708 24.365 0.127677C21.3724 1.75708 20.0397 4.5295 19.7428 8.0315C20.3062 6.86417 21.5178 6.54194 21.954 5.6482C22.481 7.96463 21.9964 8.86445 20.391 9.38732C19.7549 9.59403 19.6823 9.73995 19.6823 10.4817V21.389C19.6883 31.8707 14.1816 36.6251 6.3669 37.5067C11.4434 40.2609 18.3434 40.802 23.8925 38.9963C24.0803 38.0296 24.1833 36.9413 24.1833 35.7618V35.5003C24.1833 34.7647 24.1045 34.6127 23.4685 34.406C21.8631 33.877 21.433 32.9772 21.9722 30.6669C22.4083 31.5545 23.6199 31.8403 24.1833 33.0198V20.9026C24.1833 20.1608 24.1045 20.0088 23.4685 19.8021C21.8631 19.2793 21.433 18.3794 21.9722 16.063C22.4083 16.9507 23.6199 17.2486 24.1833 18.422C24.359 11.8314 27.1032 6.16499 33.7185 3.43513M22.1539 0C16.3443 1.24029 13.7697 5.27732 13.7697 11.4605V14.8045C14.3331 13.6311 15.5507 13.3392 15.9808 12.4576C16.52 14.7741 16.0959 15.6739 14.4845 16.1968C13.8485 16.4035 13.7758 16.5555 13.7758 17.2911V19.6866C14.3391 18.5193 15.5568 18.2274 15.9869 17.3276C16.5261 19.6562 16.102 20.55 14.4906 21.0789C13.8545 21.2795 13.7818 21.4315 13.7818 22.1733V23.8696C13.7879 28.5875 12.3582 32.6975 8.98393 35.6706C13.9757 34.406 18.3434 30.4237 18.3434 21.4072V10.4939C18.3434 9.75211 18.2586 9.60619 17.6347 9.39947C16.0233 8.87661 15.6658 7.97678 16.1989 5.66036C16.6169 6.54802 17.8467 6.83985 18.404 8.01327C18.6585 4.80918 19.6822 2.07323 22.1721 0.00607885M17.4105 0.474229C11.7706 2.60826 7.9359 6.79729 7.9359 13.777V26.7697C8.49929 25.6023 9.71694 25.3044 10.141 24.4167C10.6741 26.7332 10.2561 27.633 8.64468 28.1559C8.01466 28.3626 7.94196 28.5146 7.94196 29.2563C7.94196 31.67 7.63301 33.7554 7.02721 35.4882C10.5408 32.9833 12.4248 29.1469 12.4248 23.8635V22.1672C12.4248 21.4255 12.3521 21.2795 11.71 21.0728C10.1046 20.55 9.67453 19.6501 10.2137 17.3215C10.6499 18.2214 11.8614 18.5071 12.4248 19.6805V17.2851C12.4248 16.5494 12.3521 16.4035 11.71 16.1907C10.1046 15.6678 9.67453 14.768 10.2137 12.4516C10.6499 13.3331 11.8614 13.625 12.4248 14.7984V11.4545C12.4248 6.61489 13.9272 2.74202 17.4166 0.46815M6.58498 13.777C6.57892 9.01036 8.2388 5.56308 10.7226 3.08249C4.30114 6.91889 0 13.9594 0 22.0091C0 27.4445 1.96277 32.4179 5.21589 36.2603C6.03977 34.8194 6.58498 32.2963 6.58498 29.2563C6.58498 28.5146 6.50623 28.3626 5.8762 28.1559C4.26479 27.633 3.83468 26.7332 4.37989 24.4167C4.81 25.3044 6.02765 25.6023 6.59104 26.7697V13.777H6.58498ZM9.8381 40.3764C12.9095 42.4192 16.5261 43.7082 20.4213 43.9696C21.6329 43.4224 22.7839 42.2855 23.4382 40.5466C19.2037 41.7383 14.2362 41.714 9.8381 40.3764ZM28.9085 38.1086C27.7211 38.8808 26.4066 39.5252 25.0132 40.0359C24.5952 41.6289 23.9107 42.9117 22.7779 44C25.8674 43.0272 27.8484 40.8202 28.9085 38.1086ZM27.8423 23.6264C28.2785 24.5201 29.4901 24.8059 30.0534 25.9854V15.2058C30.0534 11.193 30.8228 7.97071 32.3433 5.62388C27.6363 8.35982 25.6978 12.9744 25.516 18.4281C26.0794 17.2486 27.291 16.9628 27.7272 16.0691C28.2603 18.3855 27.8423 19.2853 26.2248 19.8082C25.5948 20.0149 25.5221 20.1669 25.5221 20.9087V33.0258C26.0855 31.8463 27.2971 31.5606 27.7333 30.6729C28.2664 32.9833 27.8484 33.8831 26.2309 34.4121C25.6009 34.6188 25.5282 34.7708 25.5282 35.5064V35.7679C25.5282 36.7102 25.4676 37.6101 25.3464 38.4612C26.5095 38.0478 28.7752 36.6859 29.5567 35.9746C29.8959 34.4972 30.0595 32.813 30.0595 30.9891V28.4599C30.0595 27.7242 29.9807 27.5722 29.3507 27.3716C27.7333 26.8426 27.3092 25.9428 27.8484 23.6264" fill="white"/>
<path d="M100.011 34.1263C99.532 34.0837 99.1685 33.9804 98.908 33.8041C98.6051 33.6217 98.4658 33.3663 98.4658 33.0076C98.4658 32.199 99.2594 31.9071 99.9924 31.9011C100.689 31.9071 101.222 32.1199 101.713 32.5759L102.004 32.8313L102.597 32.1139L102.827 31.8646L102.543 31.6275C101.822 30.9587 100.962 30.6182 99.9924 30.6182C99.3078 30.6182 98.6233 30.8188 98.1265 31.1593C97.5086 31.5849 97.1694 32.2415 97.1754 32.9954C97.1694 33.7433 97.4905 34.3756 98.1144 34.8133C98.5869 35.1356 99.2351 35.3362 99.9379 35.3788C100.416 35.4152 100.877 35.5733 101.204 35.8043C101.567 36.0597 101.743 36.388 101.743 36.7954C101.743 37.2757 101.464 37.604 101.234 37.7925C100.877 38.06 100.398 38.218 99.9257 38.218C98.9201 38.212 98.381 37.8472 97.7388 37.1784L97.4602 36.9352L96.5878 37.835L96.8422 38.0904C97.6964 38.9294 98.5445 39.4827 99.9257 39.4827C100.683 39.4827 101.446 39.2334 102.004 38.8078C102.676 38.3153 103.04 37.5979 103.033 36.7954C103.033 35.0748 101.519 34.2114 100.023 34.1141" fill="white"/>
<path d="M91.4931 30.7459H90.1967V39.3246H91.4931V30.7459Z" fill="white"/>
<path d="M82.9514 34.4121C82.7999 34.5519 82.6364 34.6978 82.491 34.8863C82.2487 34.7768 82.0003 34.7221 81.764 34.7221H80.5767C80.2738 34.7221 80.0315 34.7525 79.8255 34.8133V32.0166H82.1517C82.8848 32.0166 83.4966 32.6185 83.5027 33.3481C83.4966 33.8649 83.2846 34.102 83.0423 34.333L82.9514 34.4121ZM83.4421 35.7496C83.4421 35.7496 83.4724 35.701 83.4966 35.6767L83.7632 35.4274C84.2963 34.9532 84.793 34.3756 84.793 33.3542C84.793 31.9193 83.6056 30.752 82.1517 30.752H78.5291V39.3307H79.8315V36.4184L80.0496 36.1448C80.1526 36.0232 80.1647 36.005 80.613 35.9989H81.7701C81.9942 35.9989 82.182 36.1023 82.2668 36.2664L83.8056 39.5374L84.9747 38.972L83.4603 35.7739V35.7496H83.4421Z" fill="white"/>
<path d="M68.6607 36.5157L69.8965 33.19L69.9874 32.9164L71.2959 36.5157H68.6607ZM69.4725 30.7459L66.3708 39.0814L67.1826 39.4279L67.546 39.5435L67.9519 38.4248C68.1882 37.7925 68.3578 37.7925 68.4547 37.7925H71.5079C71.6109 37.7925 71.7805 37.7925 72.0107 38.4187L72.2955 39.1787L72.4409 39.5435L73.5919 39.0753L70.5023 30.7398H69.4725V30.7459Z" fill="white"/>
<path d="M59.9009 34.716H58.3925C58.1381 34.716 57.8957 34.7282 57.6413 34.8316V32.0105H59.907C60.6703 32.0105 61.2882 32.6246 61.2882 33.3785C61.2882 34.1324 60.6763 34.716 59.9009 34.716ZM59.907 30.7459H56.3389V39.3246H57.6413V36.4123L57.8109 36.2117C57.9361 36.0698 58.1421 35.9969 58.4288 35.9928H59.9009C61.373 35.9928 62.5725 34.8194 62.5725 33.3785C62.5725 31.9375 61.3791 30.7459 59.913 30.7459" fill="white"/>
</svg>
