<svg width="394" height="136" viewBox="0 0 394 136" fill="currentColor" xmlns="http://www.w3.org/2000/svg">
  <g clip-path="url(#clip0_3255_873)">
    <path d="M39.4399 120.8H35.1299V118.69H46.3099V120.8H42.1499V135.03H39.4399V120.8ZM67.2799 135.03H57.4699V118.69H67.2799V120.8H60.1499V125.34H65.6799V127.58H60.1499V132.86H67.2799V135.03ZM91.7999 135.03L85.6599 118.69H83.2599C82.0099 122.1 80.7099 125.54 79.2599 129.35L79.0599 129.88C78.4099 131.6 77.7599 133.32 77.1199 135.02H79.6299L80.9299 131.46H87.9999L89.2999 135.02H91.7999V135.03ZM81.7599 129.27L84.4799 122.09L87.1399 129.27H81.7599ZM160.09 126.88L159.18 126.41L160.02 125.83C160.99 125.16 161.62 124.07 161.62 123.04C161.62 120.94 159.83 118.68 155.9 118.68H150.06V135.02H155.93C159.78 135.02 162.26 133.15 162.26 130.26C162.27 129.18 161.59 127.65 160.09 126.88ZM152.74 120.8H155.48C158.4 120.8 158.83 122.28 158.83 123.16C158.83 124.04 158.39 125.51 155.48 125.51H152.74V120.8ZM155.63 132.86H152.73V127.65H155.63C158.59 127.65 159.22 129.04 159.22 130.21C159.22 131.2 158.75 132.86 155.63 132.86ZM179.28 118.49C174.57 118.49 172.11 122.62 172.11 126.71C172.11 131.75 175.06 135.27 179.28 135.27C183.44 135.27 186.45 131.67 186.45 126.71C186.45 122.02 183.37 118.49 179.28 118.49ZM179.28 132.86C176.73 132.86 175.08 130.45 175.08 126.71C175.08 123.12 176.73 120.8 179.28 120.8C181.75 120.8 183.48 123.23 183.48 126.71C183.48 130.33 181.75 132.86 179.28 132.86ZM199.8 120.8H195.49V118.69H206.66V120.8H202.51V135.03H199.8V120.8ZM221.24 118.69C220 122.08 218.68 125.55 217.41 128.92L216.97 130.07C216.34 131.73 215.72 133.39 215.1 135.03H217.61L218.91 131.47H225.98L226.02 131.59L227.27 135.03H229.78L223.64 118.69H221.24ZM219.75 129.27L222.47 122.09L225.13 129.27H219.75ZM242.23 118.69L248.72 129.64V118.69H251.47V135.03H248.88L241.93 123.2V135.03H239.26V118.69H242.23ZM266.35 135.03H263.68V118.69H266.35V135.03ZM288.52 130.89L290.46 132.15C289.15 134.3 287.21 135.34 284.52 135.34C280.17 135.34 277.58 131.21 277.58 127.22C277.58 122.95 280.31 118.53 284.87 118.53C287.07 118.53 288.88 119.4 290.12 121.06L288.18 122.67C287.4 121.6 286.27 121.06 284.83 121.06C282.26 121.06 280.59 123.38 280.59 126.97C280.59 130.71 282.22 132.95 284.94 132.95C286.62 132.96 287.85 132.24 288.52 130.89ZM307.53 118.69H305.13C303.88 122.07 302.57 125.54 301.3 128.9L301 129.7C300.33 131.48 299.65 133.26 298.99 135.03H301.5L302.8 131.47H309.87L311.17 135.03H313.68L307.53 118.69ZM303.64 129.27L303.74 129.01L306.36 122.09L309.02 129.27H303.64ZM326.38 132.86H333.51V135.03H323.71V118.69H326.38V132.86ZM354.39 130.81C354.39 133.35 351.81 135.27 348.4 135.27C346.09 135.27 343.82 134.32 342.56 132.82L344.51 131.2C345.49 132.4 347.07 133.17 348.59 133.17C350.17 133.17 351.45 132.13 351.45 130.85C351.45 129.75 350.52 128.8 348.43 127.75L348.2 127.64C345.62 126.39 343.18 125.21 343.18 122.62C343.18 120.21 345.46 118.46 348.59 118.46C350.76 118.46 352.63 119.23 353.86 120.64L352.12 122.21C351.2 121.07 349.99 120.46 348.63 120.46C346.81 120.46 346 121.54 346 122.61C346 123.69 346.92 124.56 349.06 125.55C351.97 126.92 354.39 128.27 354.39 130.81ZM124.68 130.72C124.68 129.36 125.68 128.25 126.91 128.25C126.94 128.25 126.98 128.25 127.01 128.25L126.52 125.61C125.54 125.68 124.62 126.04 123.86 126.67L123.55 126.92L122.63 125.92L122.88 125.63C123.7 124.71 124.11 123.68 124.11 122.56C124.11 119.98 121.77 117.8 118.99 117.8C116.14 117.8 113.91 119.89 113.91 122.56C113.91 123.71 114.32 124.75 115.14 125.63L115.43 125.94L115.12 126.23C113.89 127.4 113.31 128.7 113.31 130.33C113.31 133.5 115.81 135.98 118.99 135.98C120.58 135.98 121.91 135.46 122.93 134.44L123.23 134.14L123.53 134.44C124.36 135.27 125.34 135.72 126.51 135.79L127 133.15C125.71 133.26 124.68 132.14 124.68 130.72ZM118.99 119.92C120.31 119.92 121.39 121.06 121.39 122.46C121.39 123.86 120.31 125 118.99 125C117.66 125 116.59 123.86 116.59 122.46C116.59 121.06 117.67 119.92 118.99 119.92ZM118.99 133.4C117.45 133.4 116.23 132.05 116.23 130.33C116.23 128.64 117.47 127.26 118.99 127.26C120.71 127.26 121.74 128.82 121.74 130.33C121.75 132.08 120.56 133.4 118.99 133.4Z" fill="currentColor"></path>
    <path d="M196.57 88.23C185.73 88.23 175.61 85.87 166.49 81.2C162.88 79.35 159.44 77.14 156.28 74.63L155.79 74.24L158.78 66.62L159.68 68C162.32 72 174.09 82.39 196.57 82.39C214.37 82.39 226.33 75.31 226.33 64.78C226.33 54.41 215.54 48 195.12 46.23C171.08 44.15 159.4 36.44 159.4 22.66C159.41 9.94 174.16 0 192.99 0C205.5 0 217.47 3.38 227.61 9.76L228.2 10.13L225.65 17.04L224.72 16.23C217.05 9.55 204.89 5.4 192.99 5.4C175.34 5.4 164.8 14.17 164.8 22.64C164.8 36.65 186.33 40.03 195.58 40.84C220.58 43.01 231.72 50.38 231.72 64.77C231.73 78.58 217.27 88.23 196.57 88.23ZM393.18 86.38H382.45L382.99 85.18C383.65 83.7 384.14 82.13 384.44 80.52C384.73 78.91 384.9 77.31 384.94 75.74C384.98 74.24 385 72.9 385 71.72V15.7C385 14.52 384.98 13.18 384.94 11.68C384.9 10.11 384.73 8.5 384.44 6.9C384.14 5.29 383.66 3.72 382.99 2.24L382.45 1.04H393.18L392.64 2.24C391.97 3.72 391.49 5.29 391.19 6.9C390.9 8.48 390.73 10.09 390.69 11.68C390.65 13.18 390.63 14.52 390.63 15.7V71.72C390.63 72.9 390.65 74.24 390.69 75.74C390.73 77.33 390.9 78.94 391.19 80.52C391.49 82.14 391.98 83.7 392.64 85.18L393.18 86.38ZM343.52 86.38H332.79L333.33 85.17C333.99 83.7 334.48 82.14 334.78 80.51C335.07 78.92 335.24 77.31 335.28 75.73C335.32 74.23 335.34 72.89 335.34 71.71V44.98H272.82V71.72C272.82 72.9 272.84 74.24 272.88 75.74C272.92 77.31 273.09 78.92 273.38 80.52C273.67 82.12 274.16 83.69 274.83 85.17L275.37 86.38H264.64L265.18 85.18C265.85 83.69 266.33 82.12 266.63 80.52C266.93 78.94 267.1 77.33 267.13 75.74C267.17 74.24 267.19 72.9 267.19 71.72V15.7C267.19 14.52 267.17 13.18 267.13 11.68C267.09 10.09 266.92 8.48 266.63 6.9C266.33 5.29 265.85 3.72 265.18 2.24L264.64 1.04H275.37L274.83 2.25C274.17 3.72 273.68 5.29 273.38 6.91C273.08 8.51 272.91 10.12 272.88 11.69C272.84 13.19 272.82 14.53 272.82 15.71V39.88H335.34V15.7C335.34 14.52 335.32 13.18 335.28 11.68C335.24 10.1 335.07 8.49 334.78 6.9C334.48 5.29 333.99 3.72 333.33 2.24L332.79 1.04H343.51L342.97 2.24C342.3 3.73 341.82 5.3 341.52 6.9C341.23 8.48 341.06 10.09 341.02 11.68C340.98 13.18 340.96 14.52 340.96 15.7V71.72C340.96 72.9 340.98 74.24 341.02 75.74C341.06 77.33 341.23 78.94 341.52 80.52C341.82 82.13 342.31 83.7 342.97 85.17L343.52 86.38ZM121.96 86.38H111.23L111.77 85.17C112.43 83.69 112.92 82.13 113.22 80.52C113.52 78.91 113.68 77.3 113.72 75.74C113.76 74.24 113.78 72.9 113.78 71.72V15.7C113.78 14.52 113.76 13.18 113.72 11.68C113.68 10.11 113.51 8.5 113.22 6.9C112.93 5.29 112.44 3.73 111.77 2.24L111.23 1.04H121.96L121.42 2.24C120.75 3.73 120.26 5.3 119.97 6.9C119.67 8.5 119.5 10.11 119.47 11.68C119.43 13.18 119.41 14.52 119.41 15.7V71.72C119.41 72.9 119.43 74.24 119.47 75.74C119.51 77.31 119.68 78.92 119.97 80.52C120.27 82.12 120.75 83.69 121.42 85.17L121.96 86.38ZM79.48 86.38H70.07L69.85 85.86C69.84 85.83 68.45 82.6 65.56 78.37C62.8 74.3 48.59 53.12 46.64 50.21L8.18 50.26V71.73C8.18 72.91 8.2 74.25 8.24 75.75C8.28 77.32 8.45 78.93 8.74 80.53C9.04 82.14 9.53 83.71 10.19 85.18L10.73 86.38H0L0.54 85.18C1.21 83.7 1.69 82.13 1.99 80.52C2.28 78.95 2.45 77.34 2.49 75.74C2.53 74.24 2.55 72.9 2.55 71.72V15.7C2.55 14.52 2.53 13.18 2.49 11.68C2.44 10.07 2.28 8.47 1.99 6.9C1.69 5.29 1.2 3.72 0.54 2.24L0 1.04H47.15C62.79 1.04 74.14 11.42 74.14 25.71C74.14 36.94 67.24 45.89 56.13 49.06L53 49.91C54.38 51.94 58.5 58.01 70.88 76.28C75.31 82.82 79.76 84.72 79.81 84.74L83.75 86.38H79.48ZM8.18 6.15V45.23L46.77 45.13C59.57 45.13 68.51 37.14 68.51 25.7C68.51 14.18 59.57 6.14 46.77 6.14H8.18V6.15Z" fill="currentColor"></path>
  </g>
</svg>
