<svg xmlns="http://www.w3.org/2000/svg" fill="none" viewBox="0 0 494 195" height="195" width="494">
<g clip-path="url(#clip0_53_798)">
<path fill="white" d="M428.281 195C424.581 195 421.323 194.373 418.502 193.113C415.746 191.859 413.609 190.128 412.104 187.928C410.599 185.668 409.85 183.121 409.85 180.294C409.85 177.466 410.475 175.142 411.733 172.941C413.049 170.74 415.153 168.983 418.033 167.664C420.978 166.345 424.933 165.686 429.884 165.686H445.683V172.19H430.262C425.747 172.19 422.704 172.941 421.141 174.449C419.571 175.958 418.789 177.78 418.789 179.915C418.789 182.364 419.76 184.343 421.708 185.851C423.649 187.294 426.346 188.019 429.793 188.019C433.239 188.019 436.126 187.268 438.634 185.76C441.208 184.251 443.051 182.051 444.185 179.158L445.97 185.381C444.778 188.333 442.68 190.69 439.67 192.453C436.66 194.151 432.868 195 428.288 195H428.281ZM444.648 194.438V183.879L444.178 181.9V163.896C444.178 160.063 443.051 157.111 440.791 155.035C438.595 152.899 435.272 151.828 430.822 151.828C427.877 151.828 424.991 152.331 422.17 153.337C419.349 154.277 416.965 155.57 415.023 157.203L411.264 150.418C413.837 148.341 416.906 146.774 420.483 145.703C424.118 144.573 427.91 144.005 431.865 144.005C438.699 144.005 443.963 145.67 447.664 149.001C451.365 152.331 453.215 157.425 453.215 164.275V194.438H444.654H444.648Z"></path>
<path fill="white" d="M376.303 144.005C380.382 144.005 383.952 144.789 387.027 146.363C390.161 147.936 392.611 150.32 394.363 153.526C396.116 156.733 396.996 160.788 396.996 165.686V194.438H387.966V166.724C387.966 161.885 386.773 158.241 384.389 155.786C382.069 153.337 378.779 152.109 374.512 152.109C371.313 152.109 368.524 152.736 366.14 153.997C363.755 155.25 361.905 157.105 360.589 159.56C359.338 162.009 358.706 165.059 358.706 168.703V194.438H349.676V124.493H358.706V157.96L356.921 154.375C358.55 151.11 361.058 148.563 364.446 146.741C367.834 144.919 371.782 144.005 376.297 144.005H376.303Z"></path>
<path fill="white" d="M318.325 195C313.243 195 308.702 193.903 304.689 191.702C300.74 189.502 297.633 186.485 295.378 182.651C293.124 178.818 291.991 174.417 291.991 169.454C291.991 164.491 293.118 160.089 295.378 156.256C297.633 152.423 300.74 149.438 304.689 147.303C308.702 145.102 313.25 144.005 318.325 144.005C322.84 144.005 326.853 144.919 330.365 146.741C333.942 148.498 336.698 151.143 338.639 154.663L331.772 159.09C330.143 156.641 328.137 154.845 325.752 153.716C323.433 152.521 320.924 151.926 318.227 151.926C314.97 151.926 312.051 152.651 309.477 154.094C306.904 155.538 304.871 157.582 303.366 160.22C301.861 162.799 301.112 165.875 301.112 169.46C301.112 173.045 301.861 176.154 303.366 178.792C304.871 181.43 306.91 183.474 309.477 184.917C312.051 186.361 314.963 187.085 318.227 187.085C320.924 187.085 323.433 186.517 325.752 185.387C328.137 184.192 330.143 182.37 331.772 179.922L338.639 184.258C336.698 187.712 333.935 190.383 330.365 192.27C326.853 194.092 322.84 195.007 318.325 195.007V195Z"></path>
<path fill="white" d="M252.163 151.92V144.475H283.951V151.92H252.163ZM276.426 195C271.409 195 267.52 193.648 264.764 190.945C262.008 188.241 260.627 184.375 260.627 179.347V133.531H269.657V178.968C269.657 181.672 270.315 183.742 271.631 185.192C273.012 186.635 274.953 187.36 277.462 187.36C280.283 187.36 282.635 186.576 284.518 185.002L287.339 191.506C285.958 192.701 284.296 193.583 282.355 194.145C280.472 194.713 278.498 194.993 276.432 194.993L276.426 195Z"></path>
<path fill="white" d="M217.678 195C213.978 195 210.72 194.373 207.899 193.113C205.143 191.859 203.006 190.128 201.501 187.928C199.996 185.668 199.247 183.121 199.247 180.294C199.247 177.466 199.873 175.142 201.13 172.941C202.446 170.74 204.55 168.983 207.43 167.664C210.375 166.345 214.33 165.686 219.281 165.686H235.081V172.19H219.659C215.144 172.19 212.101 172.941 210.538 174.449C208.968 175.958 208.186 177.78 208.186 179.915C208.186 182.364 209.157 184.343 211.105 185.851C213.046 187.294 215.743 188.019 219.19 188.019C222.637 188.019 225.523 187.268 228.031 185.76C230.605 184.251 232.448 182.051 233.582 179.158L235.367 185.381C234.175 188.333 232.077 190.69 229.067 192.453C226.057 194.151 222.265 195 217.685 195H217.678ZM234.045 194.438V183.879L233.576 181.9V163.896C233.576 160.063 232.448 157.111 230.188 155.035C227.992 152.899 224.669 151.828 220.219 151.828C217.275 151.828 214.388 152.331 211.567 153.337C208.746 154.277 206.362 155.57 204.42 157.203L200.661 150.418C203.234 148.341 206.303 146.774 209.88 145.703C213.515 144.573 217.307 144.005 221.262 144.005C228.096 144.005 233.361 145.67 237.061 149.001C240.762 152.331 242.612 157.425 242.612 164.275V194.438H234.051H234.045Z"></path>
<path fill="white" d="M114.589 194.438V128.45H122.303L151.83 178.315H147.692L176.848 128.45H184.562L184.66 194.438H175.63L175.532 142.686H177.695L151.738 186.426H147.412L121.267 142.686H123.619V194.438H114.589Z"></path>
<path fill="white" d="M308.832 95.4397C308.832 100.716 312.468 103.485 317.361 103.485C320.872 103.485 324.508 101.598 324.508 98.2086V72.943H324.384C323.882 86.8982 308.832 84.2534 308.832 95.4397ZM302.688 117.812C292.909 117.812 286.133 111.4 286.133 101.852C286.133 77.5925 323.628 90.9143 323.628 72.1855C323.628 69.0444 321.745 66.5303 317.862 66.5303C313.224 66.5303 311.093 69.7954 311.093 74.0727H287.267C288.147 57.61 298.929 48.559 317.361 48.559C337.551 48.559 347.956 57.4859 347.956 77.3444V100.344C347.956 105.248 351.09 107.129 353.976 107.129C355.729 107.129 356.732 106.75 357.488 105.999L357.866 106.123C355.859 112.784 349.09 117.31 340.809 117.31C330.398 117.31 324.755 111.152 324.632 100.716H324.508C322.625 111.152 313.725 117.812 302.688 117.812Z"></path>
<path fill="white" d="M214.545 115.801V23.1694H238.371V69.4232H238.494C239.498 60.4963 245.016 48.4349 260.066 48.4349C272.484 48.4349 279.755 56.859 279.755 71.5651V115.808H255.929V76.7175C255.929 69.051 253.043 65.7793 247.153 65.7793C242.762 65.7793 239.504 68.1694 238.377 70.6835V115.808H214.551L214.545 115.801Z"></path>
<path fill="white" d="M178.229 117.812C157.791 117.812 143.868 104.36 143.868 82.4902C143.868 61.8742 157.537 48.4284 178.229 48.4284C195.787 48.4284 208.453 58.8638 209.828 76.5869H187.885C186.881 71.5586 183.624 68.2934 178.105 68.2934C172.587 68.2934 167.323 72.4402 167.323 82.6208C167.323 93.559 175.095 102.101 187.389 102.101C195.416 102.101 204.948 98.3326 208.961 88.6483L209.339 88.7723C206.954 107.501 196.296 117.806 178.242 117.806L178.229 117.812Z"></path>
<path fill="white" d="M113.429 32.5925C113.429 26.3104 118.446 22.2878 126.349 22.2878C134.252 22.2878 139.138 26.3104 139.138 32.5925C139.138 38.8746 134.245 43.0279 126.349 43.0279C118.452 43.0279 113.429 39.0052 113.429 32.5925ZM114.433 115.801V50.4397H138.259V115.801H114.433Z"></path>
<path fill="white" d="M82.2411 32.5925C82.2411 26.3104 87.2577 22.2878 95.1607 22.2878C103.064 22.2878 107.95 26.3104 107.95 32.5925C107.95 38.8746 103.057 43.0279 95.1607 43.0279C87.2643 43.0279 82.2411 39.0052 82.2411 32.5925ZM72.4618 139.434C78.6056 138.304 83.1206 132.016 83.1206 118.694V50.4397H106.947V112.784C106.947 140.812 85.629 141.569 72.4618 139.806V139.428V139.434Z"></path>
<path fill="white" d="M36.9932 117.688C14.2943 117.688 0 104.869 0 81.1123V27.943H24.7055V81.1123C24.7055 90.0392 29.2206 95.6944 36.9932 95.6944C45.2674 95.6944 49.9127 90.0392 49.9127 81.1123V27.943H74.6183V81.1123C74.6183 104.869 60.5716 117.688 36.9997 117.688H36.9932Z"></path>
<path fill="white" d="M397.875 63.2129C331.323 63.2129 399.81 156.778 415.518 87.3357C399.804 156.778 510.64 121.058 444.087 78.1541C510.64 121.058 510.64 5.36786 444.087 48.3566C510.64 5.45276 399.804 -30.3526 415.518 39.175C399.804 -30.2677 331.323 63.2978 397.875 63.2978V63.2129Z"></path>
<path fill="#FF5900" d="M419.349 87.0904C422.255 86.4027 424.055 83.4835 423.369 80.5701C422.683 77.6567 419.771 75.8524 416.864 76.54C413.958 77.2276 412.157 80.1468 412.843 83.0602C413.53 85.9736 416.442 87.778 419.349 87.0904Z"></path>
<path fill="#FF5900" d="M438.054 42.9615L417.312 79.014L420.863 81.0659L441.604 45.0134L438.054 42.9615Z"></path>
<path fill="#FF5900" d="M449.9 57.0122C452.659 55.8667 453.969 52.6961 452.826 49.9305C451.683 47.1649 448.52 45.8516 445.761 46.9971C443.002 48.1427 441.691 51.3133 442.834 54.0789C443.977 56.8444 447.14 58.1577 449.9 57.0122Z"></path>
<path fill="#FF5900" d="M412.202 78.811C414.961 77.6654 416.271 74.4948 415.128 71.7292C413.985 68.9637 410.822 67.6504 408.063 68.7959C405.304 69.9414 403.993 73.112 405.136 75.8776C406.279 78.6432 409.442 79.9565 412.202 78.811Z"></path>
<path fill="#FF5900" d="M446.802 50.2331L410.836 71.08L412.887 74.6358L448.854 53.7889L446.802 50.2331Z"></path>
<path fill="#FF5900" d="M450.785 68.3261C453.743 68.3261 456.192 65.9229 456.192 62.906C456.192 59.889 453.795 57.4858 450.785 57.4858C447.775 57.4858 445.377 59.889 445.377 62.906C445.377 65.9229 447.775 68.3261 450.785 68.3261Z"></path>
<path fill="#FF5900" d="M407.231 68.3261C410.189 68.3261 412.639 65.9229 412.639 62.906C412.639 59.889 410.241 57.4858 407.231 57.4858C404.221 57.4858 401.823 59.889 401.823 62.906C401.823 65.9229 404.221 68.3261 407.231 68.3261Z"></path>
<path fill="#FF5900" d="M450.785 60.8489H409.186V64.9565H450.785V60.8489Z"></path>
<path fill="#FF5900" d="M449.895 78.8161C452.655 77.6706 453.965 74.5 452.822 71.7344C451.679 68.9688 448.516 67.6555 445.757 68.8011C442.998 69.9466 441.687 73.1172 442.83 75.8828C443.973 78.6484 447.136 79.9617 449.895 78.8161Z"></path>
<path fill="#FF5900" d="M414.747 54.8711C416.317 52.3248 415.53 48.9848 412.99 47.4109C410.449 45.837 407.117 46.6254 405.547 49.1717C403.977 51.718 404.763 55.058 407.304 56.6319C409.844 58.2058 413.176 57.4174 414.747 54.8711Z"></path>
<path fill="#FF5900" d="M412.858 51.2192L410.811 54.7775L446.78 75.5673L448.827 72.009L412.858 51.2192Z"></path>
<path fill="#FF5900" d="M439.852 87.2181C442.839 87.2181 445.26 84.7914 445.26 81.798C445.26 78.8045 442.839 76.3779 439.852 76.3779C436.866 76.3779 434.445 78.8045 434.445 81.798C434.445 84.7914 436.866 87.2181 439.852 87.2181Z"></path>
<path fill="#FF5900" d="M422.723 46.8735C424.294 44.3272 423.507 40.9871 420.967 39.4133C418.426 37.8394 415.094 38.6277 413.524 41.174C411.953 43.7203 412.74 47.0604 415.28 48.6342C417.821 50.2081 421.153 49.4198 422.723 46.8735Z"></path>
<path fill="#FF5900" d="M439.852 49.434C442.839 49.434 445.26 47.0074 445.26 44.0139C445.26 41.0205 442.839 38.5938 439.852 38.5938C436.866 38.5938 434.445 41.0205 434.445 44.0139C434.445 47.0074 436.866 49.434 439.852 49.434Z"></path>
<path fill="#FF5900" d="M420.9 44.7443L417.35 46.7962L438.092 82.8488L441.642 80.7969L420.9 44.7443Z"></path>
<path fill="#FF5900" d="M428.979 90.1763C431.965 90.1763 434.386 87.7496 434.386 84.7562C434.386 81.7628 431.965 79.3361 428.979 79.3361C425.992 79.3361 423.571 81.7628 423.571 84.7562C423.571 87.7496 425.992 90.1763 428.979 90.1763Z"></path>
<path fill="#FF5900" d="M428.979 46.5281C431.965 46.5281 434.386 44.1014 434.386 41.108C434.386 38.1145 431.965 35.6879 428.979 35.6879C425.992 35.6879 423.571 38.1145 423.571 41.108C423.571 44.1014 425.992 46.5281 428.979 46.5281Z"></path>
<path fill="#FF5900" d="M431.031 43.0605H426.933V84.7562H431.031V43.0605Z"></path>
</g>
<defs>
<clipPath id="clip0_53_798">
<rect fill="white" height="195" width="494"></rect>
</clipPath>
</defs>
</svg>
