<svg width="84" height="54" viewBox="0 0 84 54" fill="none" xmlns="http://www.w3.org/2000/svg">
<g clip-path="url(#clip0_601_1389)">
<path d="M81.2136 17.8263C77.206 17.6179 74.0525 15.4298 74.0525 12.7531C74.0525 11.8888 74.3838 11.0757 74.9616 10.3617C67.3725 4.07737 55.2696 0 41.6316 0H41.62C27.9753 0 15.8741 4.07737 8.28167 10.3668C8.84111 11.0706 9.16246 11.8683 9.16246 12.7155C9.16246 15.3803 6.03725 17.5616 2.05624 17.787C0.72757 20.3117 0.00496025 23.0089 0.00496025 25.8103C0.00496025 25.8103 -1.35701 48.9114 41.6216 54C84.6019 48.9114 83.2449 25.8103 83.2449 25.8103C83.2449 23.0208 82.5307 20.339 81.2136 17.8246V17.8263Z" fill="#212121"/>
<path d="M18.7545 19.4012C17.1095 19.6797 15.1998 20.2656 14.4738 22.1223C14.3073 22.5494 14.2357 22.9662 14.2357 23.3744C14.2557 25.566 16.2187 27.4433 16.58 29.628C16.6117 29.8313 16.6317 30.0277 16.6317 30.2088C16.6317 30.576 16.5534 30.8732 16.3952 31.085C16.2354 31.2934 15.9823 31.4506 15.5411 31.5189C15.3929 31.5411 15.2247 31.5514 15.0349 31.5462C14.1558 31.5292 13.8145 30.9125 13.4332 29.9679C13.3649 29.7988 13.2967 29.6297 13.2317 29.4606C13.1784 29.6536 13.1235 29.8466 13.0719 30.0397C12.8937 30.6956 12.7139 31.3498 12.5341 32.0057C12.584 32.0211 12.6307 32.0399 12.6773 32.0553C13.5264 32.3559 14.1092 32.5045 14.9916 32.4943C15.1731 32.4943 15.3496 32.4772 15.5211 32.4533C15.5311 32.4533 15.5411 32.4499 15.5477 32.4499C17.2377 32.2039 18.4715 30.8476 18.618 28.8576C18.623 28.7859 18.623 28.7227 18.623 28.6578C18.6213 27.4057 18.0253 26.3278 17.4508 25.238C16.8764 24.1499 16.3203 23.055 16.322 21.7995C16.322 21.7346 16.3253 21.6731 16.3286 21.6065V21.5774C16.3286 21.3639 16.4235 21.2016 16.625 21.0428C16.8281 20.8873 17.1411 20.7644 17.5091 20.7148C18.0502 20.6414 18.7129 20.7251 19.329 21.0291C19.5188 21.1214 19.7102 21.2136 19.9 21.3058C19.5587 20.6619 19.2157 20.0213 18.8744 19.3773C18.8344 19.3876 18.7945 19.3961 18.7529 19.3995L18.7545 19.4012ZM24.3672 35.9772H21.4552L20.989 37.0636L21.2953 36.8398C21.6366 36.5939 22.0712 36.5358 22.321 36.5358C22.3309 36.5358 22.3459 36.5358 22.3593 36.5358L22.3642 40.3501H23.5081L23.5131 36.5443C23.5797 36.5392 23.6413 36.5341 23.7029 36.5341C23.951 36.5341 24.1774 36.5939 24.5188 36.8381L24.8268 37.0619L24.3606 35.9772H24.3672ZM28.4565 39.8035H27.4209V38.2627H28.4448C28.6363 38.2798 28.7062 38.3208 28.7728 38.3925L28.9526 38.5958V37.3625L28.7612 37.6461C28.6896 37.7452 28.6513 37.74 28.4432 37.7469H27.4209V36.488H28.4199C28.6912 36.488 28.906 36.5238 29.0376 36.6041L29.3156 36.7783L28.9843 35.9738H26.2887V40.3296H29.2057L29.6936 39.2927L29.4155 39.4396C28.8927 39.7164 28.7762 39.7864 28.4565 39.8001V39.8035ZM34.5554 21.3981V29.8432C34.5437 29.9918 34.4938 30.3471 34.2856 30.5333C34.3955 30.5282 34.5054 30.5231 34.617 30.5214V30.5179C35.3529 30.4923 36.0922 30.4701 36.8281 30.4513C36.938 30.4513 37.0479 30.4513 37.1578 30.4479C36.923 30.2532 36.8897 29.8278 36.8864 29.7271C36.883 26.1297 36.8797 22.5272 36.8747 18.9281C36.8897 18.7675 36.9446 18.4413 37.1395 18.2704C37.0512 18.2722 36.963 18.2739 36.8731 18.279C36.4601 18.2807 36.0505 18.2875 35.6376 18.2927C33.931 20.3254 32.2227 22.3786 30.5161 24.4625C28.8561 22.5818 27.1944 20.7234 25.5377 18.8922C24.4405 18.9879 23.3433 19.0938 22.2494 19.2116C22.2494 19.2116 22.7256 19.3978 22.9636 19.7241C22.9936 19.777 23.0169 19.8864 23.0153 20.0418V30.6751C23.0019 30.8374 22.9453 31.1636 22.7505 31.3481C22.8404 31.3361 22.9303 31.3259 23.0153 31.3208C23.4582 31.2764 23.8994 31.2337 24.3423 31.1892C24.4322 31.179 24.5238 31.1722 24.6103 31.1636C24.3989 31.0031 24.3523 30.6426 24.3423 30.5026V21.2119C24.8518 21.8627 26.1188 23.1524 29.6436 27.1597C29.6936 27.2144 29.7419 27.2707 29.7901 27.3271C29.8368 27.2656 29.885 27.2058 29.9367 27.1443C32.3143 24.1585 33.5497 22.6655 34.1907 21.861C34.3423 21.6697 34.4588 21.5228 34.5537 21.3998L34.5554 21.3981ZM39.1341 37.9894L37.4608 35.9823L35.9856 35.9755C35.9856 35.9755 36.4168 36.1736 36.4318 36.423V40.333H36.9746V37.0397C37.226 37.3454 37.6956 37.9126 37.7905 38.0219C38.3632 38.6829 38.5147 38.8691 38.6979 39.1014L38.7778 39.2005L38.8577 39.1014C39.91 37.8408 40.298 37.3864 40.4661 37.1866V40.333H41.5967V35.9823L40.8757 35.9755L39.1308 37.9877L39.1341 37.9894ZM31.6616 35.9772C31.6616 35.9772 32.0446 36.1207 32.1528 36.365L30.5177 40.333H31.0772L31.575 39.1151H33.4748L34.1225 40.333H35.1914L32.9387 35.9772H31.6616ZM31.7981 38.5292L32.4308 36.9252L33.1934 38.5292H31.7981ZM32.634 10.4676L33.0602 14.0667L34.239 13.9181L33.8228 10.3343C33.9526 10.3036 34.0742 10.2865 34.1957 10.2865C34.3989 10.2865 34.6136 10.3343 34.9084 10.4812L35.2447 10.6469L34.6353 9.6767L31.7299 10.0354L31.4168 11.1696L31.7915 10.7768C32.0695 10.5359 32.3326 10.4693 32.6323 10.4659L32.634 10.4676ZM50.5943 14.1794L51.1621 14.3075L51.62 11.3319L53.6812 15.0728L54.4172 10.4437L53.8694 10.3514L53.5181 12.5686L52.0995 10.061L51.1571 9.89876L50.8807 9.85777L51.0755 10.0969C51.2237 10.2438 51.192 10.4283 51.192 10.459L50.5943 14.1794ZM46.2137 13.6243L49.1358 13.8993L49.7368 12.9598L49.4438 13.0657C48.936 13.2519 48.7728 13.3168 48.5097 13.3168C48.4781 13.3168 48.4448 13.3168 48.4082 13.3151L47.3226 13.2143L47.4508 11.7658L48.1934 11.8426C48.3949 11.8768 48.4648 11.9246 48.528 11.9981L48.6896 12.1962L48.7944 11.0415L48.5847 11.2738C48.5214 11.3404 48.4898 11.349 48.3849 11.3507C48.3432 11.3507 48.295 11.349 48.2333 11.3439L47.4958 11.2687L47.599 10.0867L48.29 10.1567C48.588 10.1789 48.8194 10.237 48.9543 10.3309L49.2224 10.5171L48.941 9.7177L46.4734 9.48027L46.1005 13.6123L46.2054 13.6225H46.2104L46.2137 13.6243ZM29.5537 13.2655C29.7202 13.5423 29.8401 13.6858 29.8318 13.9266C29.8318 13.9266 29.8401 14.1726 29.5704 14.2477C29.3789 14.3007 29.2307 14.258 29.0226 14.0513C28.8161 13.8463 28.6396 13.5354 28.6396 13.5354L28.5114 14.5091C28.5114 14.5091 29.2207 14.7841 29.8917 14.5603C30.5644 14.3383 30.7026 13.9437 30.7542 13.7114C30.8075 13.4808 30.7209 13.0162 30.4944 12.7121C30.268 12.408 29.7019 11.7726 29.562 11.4771C29.4222 11.1833 29.4055 11.0039 29.4838 10.8724C29.562 10.7358 29.8218 10.6657 30.0149 10.6913C30.2064 10.7187 30.4062 10.7306 30.7675 10.8946L30.1681 10.1618C30.1681 10.1618 29.3706 10.3361 29.0392 10.5872C28.7096 10.8348 28.5347 11.0859 28.5081 11.4259C28.4831 11.7658 28.648 12.0528 28.8311 12.3021C29.0143 12.5532 29.3872 12.9905 29.5537 13.269V13.2655ZM45.0932 9.41706L44.4138 9.41023L43.0335 12.2697L41.6116 9.35386H41.5517L40.3929 9.32995L42.7755 13.9659L45.0932 9.41706ZM43.8094 30.4223C43.8993 30.4257 43.9893 30.4257 44.0808 30.4257C43.8261 30.2071 43.8094 29.7271 43.8094 29.6844V18.9674C43.8094 18.9195 43.8261 18.4396 44.0808 18.2295C43.9709 18.2295 43.8611 18.226 43.7528 18.2226V18.2329C43.0136 18.2209 42.2726 18.2175 41.5334 18.2141V18.2038C41.4235 18.2038 41.3136 18.2038 41.2021 18.2038C41.4701 18.431 41.4751 18.952 41.4751 18.952V29.6587C41.4751 29.6587 41.4701 30.1797 41.2021 30.4035H41.4751V30.4069C42.2543 30.4069 43.0319 30.412 43.8094 30.4274V30.424V30.4223ZM36.7099 13.6875H36.7149L39.582 13.5406H39.6453L40.1065 12.5208L39.8318 12.6711C39.2973 12.9581 39.1791 13.0315 38.8444 13.0657L37.7538 13.1186L37.6839 11.6684L38.4581 11.6257C38.6613 11.6291 38.7395 11.6684 38.8128 11.7333L39.0009 11.9058L38.9426 10.7528L38.7695 11.0108C38.7012 11.1064 38.6496 11.1098 38.4348 11.1269L37.6606 11.1696L37.6023 9.98417L38.3283 9.94488C38.3949 9.93976 38.4581 9.93805 38.5197 9.93805C38.7262 9.93805 38.891 9.96538 39.0059 10.0218L39.2956 10.1669L38.9093 9.41536L36.4052 9.54688L36.6083 13.6892L36.7115 13.684L36.7099 13.6875ZM69.264 21.1572C69.2756 21.0155 69.3222 20.6619 69.5287 20.5167C69.4404 20.5047 69.3539 20.4893 69.264 20.4774V20.474C68.4981 20.351 67.7288 20.2331 66.9629 20.1204V20.1238C66.873 20.1101 66.7831 20.0965 66.6932 20.0845C66.908 20.298 66.9529 20.6824 66.9629 20.8173V24.7666C64.6785 24.4284 62.3975 24.138 60.1065 23.8903V19.9889C60.1065 19.9889 60.1115 19.4679 60.3762 19.2731C60.2663 19.2612 60.1581 19.2475 60.0482 19.2373C59.6436 19.1929 59.244 19.1519 58.8394 19.1109C58.7295 19.0972 58.6179 19.0869 58.5081 19.0784C58.7412 19.2988 58.7761 19.7241 58.7795 19.8266V30.6221C58.7645 30.7673 58.7162 31.1158 58.5097 31.2678C58.6196 31.2798 58.7312 31.2934 58.8411 31.3037V31.3003C59.2407 31.3396 59.6403 31.3823 60.0399 31.4284C60.1497 31.4403 60.2596 31.4506 60.3695 31.4643C60.1714 31.2781 60.1181 30.9399 60.1031 30.781V25.3473C62.3942 25.5933 64.6752 25.8854 66.9579 26.2219C66.9579 28.0223 66.9579 29.8176 66.9596 31.6129C66.9496 31.7478 66.9047 32.1168 66.6899 32.2705C66.7798 32.2825 66.8697 32.2944 66.9596 32.3098C67.7255 32.4242 68.4947 32.5404 69.2606 32.6634C69.3489 32.6771 69.4404 32.6924 69.5287 32.7061C69.2806 32.4567 69.2606 31.9887 69.2606 31.9255V21.1589L69.264 21.1572ZM61.6449 39.9504C61.4551 40.0136 61.3602 39.9196 61.3402 39.8957C61.1604 39.6668 61.1671 39.3115 61.0788 38.6129C61.0322 38.3106 60.8607 37.8511 60.5144 37.6717C60.7708 37.5111 60.9789 37.2481 60.9789 36.8672C60.9789 36.8552 60.9789 36.8432 60.9789 36.833C60.9706 36.423 60.6176 35.9721 59.8451 35.9806H58.2833V40.3364H59.4038V36.3496C59.4421 36.3496 59.4821 36.3496 59.5187 36.3496C59.8867 36.3633 60.0632 36.4589 60.1098 36.8842C60.1114 36.9235 60.1148 36.9594 60.1148 36.9919C60.1081 37.3506 59.9783 37.5812 59.4521 37.7896L59.5054 37.9963C59.567 37.9843 59.6253 37.9809 59.6802 37.9809C60.0182 37.9877 60.1964 38.15 60.2163 38.4113C60.2929 39.8479 60.7641 40.3996 61.2403 40.4116C61.4501 40.4048 61.6249 40.3262 61.8514 40.0512L61.7581 39.894L61.6449 39.9521V39.9504ZM80.6875 25.8444V25.8154C80.6875 24.0679 80.3462 22.3307 79.6819 20.6448L79.542 20.2895L79.1757 20.2212C74.502 19.3227 71.4834 16.248 71.4967 12.7582C71.4967 12.3619 71.5333 11.9708 71.6116 11.583L71.7015 11.1269L71.3269 10.8656C63.8677 5.66937 52.8754 2.63055 41.62 2.62714C30.3546 2.63055 19.3589 5.67449 11.8981 10.8861L11.5301 11.1423L11.6167 11.5933C11.6866 11.9691 11.7232 12.3448 11.7232 12.7224C11.7366 16.1933 8.73456 19.2629 4.09088 20.1768L3.72791 20.2485L3.58805 20.597C2.90873 22.2983 2.56407 24.0543 2.56407 25.8154V25.9093C2.55242 26.0169 2.56074 26.005 2.55741 26.0682C2.55408 26.8386 2.74556 31.4813 6.90473 36.6212C11.2654 42.0207 20.8241 48.8362 41.545 51.3541L41.6233 51.3626L41.7049 51.3541C62.4291 48.8362 71.9862 42.0224 76.3485 36.6212C80.491 31.5001 80.6975 26.8744 80.6958 26.0562V25.9572L80.6908 25.8444H80.6875ZM79.3305 26.0545C79.3305 26.6541 79.189 30.9194 75.2962 35.7312C71.2103 40.7823 62.0628 47.4526 41.62 49.9568C21.1771 47.4526 12.0313 40.7823 7.94535 35.7312C4.04093 30.9006 3.91439 26.6216 3.91439 26.0665V25.9862L3.91772 25.9503V25.8137C3.91772 24.3566 4.18245 22.9013 4.70859 21.4681C9.57539 20.3988 13.0669 16.974 13.0785 12.7189C13.0785 12.4063 13.0586 12.0955 13.0203 11.788C20.1648 6.9334 30.7792 4.01416 41.6183 4.01929C52.4508 4.01416 63.0568 6.92657 70.1997 11.7692C70.1581 12.0955 70.1347 12.4234 70.1347 12.7548C70.1481 17.0303 73.6596 20.4586 78.553 21.5125C79.0691 22.932 79.3289 24.3703 79.3289 25.812V25.9725C79.3289 25.9725 79.3289 25.9947 79.3289 26.0528L79.3305 26.0545ZM55.531 39.8069H54.4954V38.2661H55.5227C55.7109 38.2832 55.7808 38.3242 55.8507 38.396L56.0289 38.5941V37.3728L55.8391 37.6512C55.7641 37.7503 55.7258 37.7452 55.5177 37.752H54.4937V36.4931H55.4927C55.7641 36.4931 55.9789 36.5289 56.1088 36.6092L56.3868 36.7852L56.0572 35.9789H53.3615V40.3347H56.2803L56.7665 39.2979L56.4884 39.4448C55.9639 39.7215 55.8491 39.7915 55.5294 39.8052L55.531 39.8069ZM78.0252 25.8478V25.8137C78.0252 24.811 77.8837 23.8032 77.6056 22.8193L77.554 22.6433L77.3858 22.5955C72.1427 21.1299 68.8327 17.278 68.8327 12.7548C68.8327 12.7121 68.8327 12.6762 68.8327 12.6421L68.8377 12.4576L68.6845 12.3585C61.7348 7.96 51.6516 5.35677 41.6183 5.35336C31.5717 5.35506 21.4818 7.96684 14.5271 12.3773L14.3806 12.4695V12.7172C14.3806 17.2148 11.0889 21.065 5.87243 22.546L5.70426 22.5938L5.65431 22.7663C5.3646 23.7707 5.22141 24.7922 5.22141 25.812V25.9145L5.21475 25.9862V26.0494C5.21309 26.075 5.21475 26.0784 5.21475 26.1023C5.21475 26.6473 5.35628 30.4394 8.94435 34.8772C12.9453 39.824 21.8598 46.1612 41.5833 48.6073L41.6183 48.6125L41.6566 48.6073C61.3818 46.163 70.2946 39.824 74.2972 34.8772C77.9036 30.4154 78.0318 26.5584 78.0302 26.075V26.0391L78.0268 25.9298V25.8461L78.0252 25.8478ZM77.4025 26.0767C77.4025 26.4559 77.3059 30.1456 73.8127 34.4689C69.9399 39.2517 61.2153 45.5275 41.6166 47.9651C22.0179 45.5275 13.295 39.2517 9.42221 34.4689C5.94569 30.1661 5.83746 26.5448 5.83746 26.1041H5.83413L5.83746 26.0819V26.005L5.84246 25.9332V25.8154C5.84246 24.9152 5.964 24.0133 6.20543 23.1199C11.4801 21.5689 14.9483 17.5769 15.0016 12.83C21.8148 8.55786 31.7498 5.99562 41.615 5.99733C51.4701 5.99562 61.3935 8.54932 68.2017 12.8112C68.2283 17.6077 71.7215 21.627 77.0462 23.1677C77.2776 24.0423 77.3941 24.9306 77.3941 25.812V25.952L77.3991 26.0528V26.075L77.4025 26.0767ZM44.1108 35.9806C44.1108 35.9806 44.4987 36.1156 44.5986 36.3684L42.9653 40.3364H43.5264L44.0226 39.1185H45.9223L46.5717 40.3364H47.6389L45.3912 35.9806H44.1125H44.1108ZM44.2457 38.5326L44.8767 36.9287L45.6393 38.5326H44.244H44.2457ZM51.933 39.8838C51.883 39.9111 51.8081 39.935 51.7498 39.935C51.6949 39.9316 51.6632 39.9196 51.6399 39.8889C51.4634 39.6668 51.4734 39.3081 51.3802 38.6129C51.3319 38.2661 51.0772 37.6956 50.5577 37.5897L51.8014 35.9806H51.1504L49.8917 37.518V35.9806H48.7578V40.3364H49.8917V37.9894H49.92C50.2796 37.9894 50.5227 38.1722 50.5327 38.4096C50.611 39.8462 51.0805 40.3979 51.5567 40.4099C51.7798 40.4065 51.9663 40.2613 52.1078 40.0478L52.0462 39.8257L51.9346 39.8838H51.933ZM52.8787 19.9C53.8477 20.0162 54.3955 20.0196 55.7308 21.0787C55.919 21.229 56.1088 21.3827 56.2969 21.5347C55.9123 20.614 55.531 19.6916 55.1464 18.7744C52.6256 18.5745 50.1015 18.4259 47.5757 18.3336C47.1844 19.2116 46.7948 20.0948 46.4035 20.9762C46.565 20.8549 46.7249 20.7268 46.8864 20.6021C46.8964 20.5935 46.9047 20.5867 46.9163 20.5782C47.8787 19.7241 48.6063 19.7138 49.5653 19.7087C49.7052 19.7121 49.8451 19.719 49.9833 19.7224C49.9866 23.1216 49.9883 26.5208 49.9949 29.9201C49.9883 30.0397 49.95 30.4342 49.7235 30.6136C49.8134 30.6187 49.9033 30.6238 49.9949 30.6273C50.7625 30.6665 51.535 30.711 52.3026 30.7605C52.3925 30.7605 52.4841 30.7707 52.5757 30.7742C52.3193 30.5419 52.3043 30.0516 52.3043 30.0192C52.3093 26.6319 52.3176 23.2463 52.3243 19.859C52.5107 19.871 52.6922 19.8847 52.8787 19.8983V19.9Z" fill="white"/>
</g>
<defs>
<clipPath id="clip0_601_1389">
<rect width="83.25" height="54" fill="white"/>
</clipPath>
</defs>
</svg>
