<svg viewBox="0 0 232.54 385.05" xmlns="http://www.w3.org/2000/svg" data-name="レイヤー 1" id="_レイヤー_1">
  <defs>
    <style>
      .cls-1 {
        fill: #040000;
      }
    </style>
  </defs>
  <path d="M43.87,240.47c-.6,0-1.17-.2-1.69-.59-.53-.39-.87-.91-1.04-1.55-.16-.64-.24-1.89-.24-3.74v-12.07h6.02v-1.12h-6.02v-6.27h-.78c-.29,1.97-.97,3.5-2.02,4.58-1.06,1.09-2.25,1.65-3.58,1.68v1.12h2.9v11.31c0,2.32.11,3.95.33,4.88.22.93.77,1.73,1.66,2.43.89.69,1.91,1.04,3.08,1.04,1.01,0,2-.27,2.99-.82.98-.54,1.73-1.35,2.23-2.43l-.78-.46c-.86,1.33-1.88,2-3.05,2Z" class="cls-1"></path>
  <path d="M82.12,223.7c-2.05-2.06-4.58-3.1-7.58-3.1s-5.51,1.03-7.56,3.08c-2.05,2.06-3.07,4.61-3.07,7.67,0,3.3,1.04,5.93,3.11,7.89,2.07,1.96,4.58,2.94,7.52,2.94s5.45-.96,7.53-2.89c2.08-1.93,3.12-4.57,3.12-7.94,0-3.04-1.02-5.59-3.07-7.66ZM79.43,238.92c-1.13,1.42-2.76,2.13-4.89,2.13s-3.7-.71-4.85-2.13c-1.15-1.42-1.73-3.9-1.73-7.45s.56-6.03,1.69-7.52c1.13-1.49,2.76-2.23,4.89-2.23s3.78.75,4.9,2.24c1.12,1.5,1.68,4,1.68,7.51s-.56,6.03-1.69,7.45Z" class="cls-1"></path>
  <path d="M105.04,238.56c-.05.46-.25.86-.6,1.19-.35.33-1.11.5-2.28.5h-.76v1.12h10.12v-1.12c-1.01,0-1.72-.15-2.12-.45-.41-.3-.64-.72-.69-1.27-.06-.54-.09-1.88-.09-4.01v-2.88l1.05-.78,5.12,5.95c1.09,1.27,1.63,2.06,1.63,2.36,0,.68-.83,1.04-2.49,1.07v1.12h9.95v-1.12c-.65-.03-1.28-.24-1.9-.62-.62-.38-1.46-1.2-2.54-2.45l-7.12-8.34c1.67-1.32,2.91-2.32,3.71-3,2.49-2.18,4.47-3.28,5.95-3.32v-1.12h-8.05v1.12c1.25.03,1.88.41,1.88,1.12,0,1.06-1.7,2.79-5.1,5.19l-2.1,1.46v-22.45h-.51c-.49.23-1.4.46-2.74.68-1.34.23-2.49.34-3.45.34v1.12c1.4,0,2.28.27,2.65.8.36.54.55,1.77.55,3.71v20.02c0,2.23-.02,3.57-.07,4.04Z" class="cls-1"></path>
  <path d="M148.09,241.86l-1.9,4.75c-.33.81-.65,1.37-.99,1.68-.33.31-1,.68-1.99,1.12-1.69.76-2.54,1.7-2.54,2.8,0,.96.53,1.44,1.58,1.44.78,0,1.49-.37,2.15-1.11.65-.74,1.4-2.13,2.24-4.18l8.9-21.48c.75-1.8,1.37-2.97,1.88-3.5.5-.53,1.3-.82,2.39-.87v-1.12h-7.02v1.12c1.8.03,2.71.46,2.71,1.27,0,.18-.33,1.08-1,2.71l-4.63,11.09-5.49-11.68c-.63-1.35-.95-2.15-.95-2.39,0-.62.8-.95,2.41-1v-1.12h-9.17v1.12c1.06,0,1.8.19,2.24.56.44.37.99,1.27,1.66,2.68l7.51,16.09Z" class="cls-1"></path>
  <path d="M185.18,220.6c-2.99,0-5.51,1.03-7.56,3.08-2.05,2.06-3.07,4.61-3.07,7.67,0,3.3,1.04,5.93,3.11,7.89,2.07,1.96,4.58,2.94,7.52,2.94s5.45-.96,7.53-2.89c2.08-1.93,3.12-4.57,3.12-7.94,0-3.04-1.02-5.59-3.07-7.66-2.05-2.06-4.58-3.1-7.58-3.1ZM190.07,238.92c-1.13,1.42-2.76,2.13-4.89,2.13s-3.7-.71-4.85-2.13c-1.15-1.42-1.73-3.9-1.73-7.45s.56-6.03,1.69-7.52c1.13-1.49,2.76-2.23,4.89-2.23s3.78.75,4.9,2.24c1.12,1.5,1.68,4,1.68,7.51s-.56,6.03-1.69,7.45Z" class="cls-1"></path>
  <path d="M74.25,304.41c.22.93.77,1.73,1.66,2.43.89.69,1.91,1.04,3.08,1.04,1.01,0,2-.27,2.99-.82.98-.54,1.73-1.35,2.23-2.43l-.78-.46c-.86,1.33-1.88,2-3.05,2-.6,0-1.17-.2-1.7-.59-.53-.39-.87-.91-1.04-1.55-.16-.64-.24-1.89-.24-3.74v-12.07h6.02v-1.12h-6.02v-6.27h-.78c-.29,1.97-.97,3.5-2.02,4.58-1.06,1.09-2.25,1.65-3.58,1.68v1.12h2.9v11.31c0,2.32.11,3.95.33,4.88Z" class="cls-1"></path>
  <path d="M108.58,306.59c1.5.85,3.1,1.28,4.79,1.28,1.82,0,3.5-.47,5.05-1.4,1.54-.93,2.58-2.23,3.1-3.89h-1.17c-1.24,2.65-3.33,3.97-6.29,3.97-2.18,0-3.82-.88-4.91-2.64-1.1-1.76-1.65-4.4-1.65-7.91,0-.47.03-1.19.1-2.15h13.92c-.08-1.85-.84-3.57-2.27-5.17-1.43-1.59-3.45-2.39-6.07-2.39-2.78,0-5.1,1.04-6.95,3.13-1.85,2.09-2.78,4.71-2.78,7.86,0,2.23.48,4.12,1.44,5.68.96,1.56,2.19,2.77,3.69,3.62ZM112.98,287.37c1.22,0,2.25.39,3.08,1.18.84.79,1.25,1.9,1.25,3.33,0,.29-.02.63-.07,1h-9.56c.57-3.67,2.33-5.51,5.29-5.51Z" class="cls-1"></path>
  <path d="M157.74,305.8c-.65,0-1.07-.27-1.27-.8s-.29-1.75-.29-3.63v-8.07c0-1.71-.18-2.97-.55-3.8-.36-.83-1.12-1.57-2.25-2.22-1.14-.65-2.74-.98-4.8-.98-2.78,0-4.83.53-6.14,1.6-1.32,1.06-1.97,2.06-1.97,2.99s.5,1.41,1.49,1.41c1.1,0,1.79-.83,2.05-2.49.28-1.62,1.63-2.44,4.07-2.44,1.22,0,2.2.24,2.95.73.75.49,1.21,1.04,1.39,1.66.18.62.27,1.62.27,3v.98l-3.78,1.54c-2.88,1.19-5.13,2.41-6.77,3.66-1.63,1.25-2.45,2.71-2.45,4.39,0,1.28.49,2.32,1.46,3.1.98.78,2.14,1.17,3.49,1.17,1.06,0,2.26-.29,3.6-.88,1.34-.59,2.82-1.45,4.45-2.61.19,1.15.61,2.02,1.25,2.61.64.59,1.52.88,2.62.88,2.58,0,3.95-1.39,4.1-4.17h-.9c-.26,1.59-.93,2.39-2,2.39ZM152.66,302.78c-1.25,1.01-2.38,1.76-3.39,2.27-1.01.5-1.89.76-2.66.76-.86,0-1.56-.31-2.1-.94-.54-.62-.8-1.45-.8-2.47,0-2.58,2.1-4.73,6.29-6.44l2.66-1.07v7.9Z" class="cls-1"></path>
  <path d="M9.36,371.86c-.6,0-1.17-.2-1.69-.58-.53-.39-.87-.91-1.04-1.55-.16-.64-.24-1.89-.24-3.74v-12.07h6.02v-1.12h-6.02v-6.27h-.78c-.29,1.97-.97,3.5-2.02,4.58-1.06,1.09-2.25,1.65-3.58,1.68v1.12h2.9v11.31c0,2.32.11,3.95.33,4.88.22.93.77,1.73,1.66,2.43.89.69,1.91,1.04,3.08,1.04,1.01,0,2-.27,2.99-.82.98-.54,1.73-1.35,2.23-2.43l-.78-.46c-.86,1.33-1.88,2-3.05,2Z" class="cls-1"></path>
  <path d="M43.99,351.99c-1.19,0-2.4.49-3.65,1.46-1.24.98-2.14,2.19-2.69,3.63-.05-2.11-.31-3.81-.78-5.1-2.47.78-4.47,1.26-6,1.44v1.1h.51c1.04,0,1.76.15,2.17.45.41.3.64.72.69,1.27.06.54.09,1.89.09,4.03v5.63c0,2.31-.04,3.71-.12,4.19-.08.49-.33.87-.74,1.13-.41.27-1.11.4-2.08.4h-.51v1.12h10.6v-1.12h-.68c-1.04,0-1.76-.15-2.17-.44-.41-.29-.64-.71-.69-1.27-.06-.55-.09-1.89-.09-4.02v-3.56c0-1.79.14-3.19.41-4.22.28-1.02.9-2.01,1.88-2.96.98-.95,1.81-1.43,2.51-1.43.58,0,1.02.41,1.32,1.22.42,1.2,1.04,1.8,1.85,1.8.45,0,.84-.17,1.16-.51.32-.34.48-.75.48-1.22,0-.7-.31-1.38-.93-2.05-.62-.67-1.46-1-2.54-1Z" class="cls-1"></path>
  <path d="M83.12,371.5c-.65,0-1.07-.27-1.27-.8-.2-.54-.29-1.75-.29-3.63v-8.07c0-1.71-.18-2.97-.55-3.8-.36-.83-1.12-1.57-2.25-2.22-1.14-.65-2.74-.98-4.8-.98-2.78,0-4.83.53-6.14,1.6-1.32,1.06-1.97,2.06-1.97,2.99s.5,1.41,1.49,1.41c1.1,0,1.79-.83,2.05-2.49.28-1.62,1.63-2.44,4.07-2.44,1.22,0,2.2.24,2.95.73.75.49,1.21,1.04,1.39,1.66.18.62.27,1.62.27,3v.98l-3.78,1.54c-2.88,1.19-5.13,2.41-6.77,3.66-1.63,1.25-2.45,2.72-2.45,4.39,0,1.28.49,2.32,1.46,3.1.98.78,2.14,1.17,3.49,1.17,1.06,0,2.26-.29,3.6-.88,1.34-.59,2.82-1.45,4.45-2.61.2,1.15.61,2.02,1.25,2.61.64.59,1.52.88,2.62.88,2.58,0,3.95-1.39,4.1-4.17h-.9c-.26,1.59-.93,2.39-2,2.39ZM78.05,368.47c-1.25,1.01-2.38,1.76-3.39,2.27-1.01.5-1.89.76-2.66.76-.86,0-1.56-.31-2.1-.94-.54-.62-.8-1.45-.8-2.47,0-2.58,2.1-4.73,6.29-6.44l2.66-1.07v7.9Z" class="cls-1"></path>
  <path d="M124.09,370.33c-.08-.5-.12-1.92-.12-4.24v-26.84h-.51c-2.34.63-4.49.98-6.46,1.02v1.12h.51c1.04,0,1.76.15,2.17.44.41.29.64.72.69,1.27.06.55.09,1.89.09,4.02v7.8c-1.07-.98-2.21-1.71-3.41-2.19-1.2-.49-2.48-.73-3.83-.73-2.65,0-4.93,1-6.85,3.01-1.92,2.01-2.88,4.64-2.88,7.89,0,2.96.94,5.48,2.82,7.56,1.88,2.08,4.11,3.12,6.69,3.12,1.37,0,2.69-.3,3.96-.9,1.28-.6,2.51-1.5,3.72-2.71,0,1.64.1,2.84.29,3.61,1.84-.37,3.93-.59,6.29-.63v-1.12c-1.17,0-1.97-.12-2.4-.37-.43-.24-.69-.62-.77-1.12ZM120.46,368.6c-.89,1.17-1.87,2.05-2.93,2.63-1.06.59-2.2.88-3.44.88-1.85,0-3.41-.77-4.67-2.32-1.26-1.54-1.89-3.94-1.89-7.19s.61-5.51,1.84-6.92c1.23-1.41,2.76-2.12,4.59-2.12,1.09,0,2.17.23,3.26.7,1.08.46,2.16,1.16,3.23,2.08v12.26Z" class="cls-1"></path>
  <path d="M151.45,371.2c-.41-.29-.64-.71-.71-1.27-.07-.55-.1-1.89-.1-4.02v-13.92h-.54c-1.59.57-3.84,1-6.73,1.29v1.12h.66c.91,0,1.55.07,1.91.2.37.13.66.46.88.98.22.52.33,1.95.33,4.29v6.05c0,2.23-.03,3.57-.09,4.04-.06.46-.26.86-.61,1.19-.35.33-1.1.5-2.26.5h-.83v1.12h10.75v-1.12h-.51c-1.04,0-1.76-.15-2.17-.44Z" class="cls-1"></path>
  <path d="M150.26,343.63c.49-.5.73-1.11.73-1.83s-.24-1.3-.73-1.8c-.49-.5-1.08-.76-1.78-.76s-1.3.25-1.79.76c-.5.5-.74,1.11-.74,1.8s.25,1.33.74,1.83c.5.5,1.09.76,1.79.76s1.29-.25,1.78-.76Z" class="cls-1"></path>
  <path d="M191.72,370.13c-.08-.5-.12-1.91-.12-4.22v-6.24c0-1.85-.15-3.26-.44-4.23-.29-.97-.95-1.78-1.96-2.45-1.01-.67-2.32-1-3.91-1-1.4,0-2.74.34-4.02,1.02-1.28.68-2.51,1.72-3.68,3.1-.05-1.74-.26-3.11-.63-4.12h-.66c-1.87.55-3.7.93-5.49,1.12v1.12c1.17,0,1.97.13,2.4.38.43.25.69.63.78,1.12.09.5.13,1.91.13,4.23v5.95c0,2.44-.05,3.89-.16,4.35-.11.46-.38.81-.82,1.04-.44.23-1.22.34-2.34.34v1.12h10.09v-1.12c-1.17,0-1.97-.13-2.4-.38-.43-.25-.69-.63-.78-1.13-.09-.5-.13-1.91-.13-4.22v-8.14c.96-1.41,1.98-2.48,3.06-3.18,1.08-.71,2.21-1.06,3.4-1.06,1.04,0,1.9.26,2.57.78.67.52,1.09,1.12,1.24,1.79.15.67.23,1.8.23,3.38v6.44c0,2.23-.02,3.57-.07,4.02-.05.46-.25.85-.61,1.19-.36.34-1.12.51-2.29.51h-.46v1.12h10.21v-1.12c-1.15,0-1.95-.13-2.38-.38-.43-.25-.69-.63-.77-1.13Z" class="cls-1"></path>
  <path d="M231.89,352.85c-.43-.42-1.04-.63-1.82-.63-1.41,0-2.81.78-4.19,2.34-1.64-1.71-3.82-2.56-6.53-2.56-2.19,0-4.09.71-5.69,2.13-1.6,1.42-2.4,3.15-2.4,5.18,0,1.45.39,2.75,1.17,3.93s1.94,2.21,3.49,3.12c-2.97.55-4.46,1.89-4.46,4.02,0,1.11.52,2.01,1.56,2.71,1.04.71,3.31,1.15,6.8,1.29,3.04.13,5.15.52,6.34,1.17,1.19.67,1.78,1.81,1.78,3.44,0,1.48-.66,2.69-1.99,3.65-1.33.95-3.17,1.43-5.55,1.43-2.67,0-4.67-.47-6.01-1.4-1.34-.93-2.01-2.12-2.01-3.55,0-1.24.5-2.41,1.51-3.51-.21-.08-.45-.12-.71-.12-.96,0-1.7.32-2.22.95-.52.63-.78,1.45-.78,2.44,0,1.79.91,3.27,2.73,4.44,1.82,1.17,4.24,1.76,7.27,1.76,3.3,0,5.83-.66,7.58-1.97,1.76-1.32,2.63-3.05,2.63-5.19,0-1.53-.43-2.84-1.29-3.95-.86-1.11-2.02-1.84-3.46-2.21-1.45-.36-3.51-.61-6.19-.74-2.45-.13-4.06-.32-4.83-.58-.78-.24-1.17-.67-1.17-1.27,0-1.28,1.72-1.98,5.17-2.1,3.32-.11,5.67-.93,7.07-2.44,1.4-1.49,2.1-3.22,2.1-5.17,0-1.49-.42-2.91-1.27-4.24.75-.84,1.43-1.27,2.05-1.27.39,0,.76.31,1.12.93.39.67.85,1,1.39,1,.98,0,1.46-.54,1.46-1.61,0-.5-.22-.97-.65-1.39ZM222.68,364.49c-.89.97-1.95,1.45-3.18,1.45-1.33,0-2.43-.49-3.29-1.46-.86-.98-1.29-2.51-1.29-4.61,0-2.26.37-3.95,1.12-5.07.75-1.12,1.87-1.68,3.36-1.68,1.19,0,2.25.46,3.19,1.37.94.91,1.41,2.57,1.41,4.97s-.44,4.07-1.33,5.03Z" class="cls-1"></path>
  <path d="M128.85.05c22.23,1.93,28.45,27.51,28.45,27.51V0h-82.28v27.56S81.26,1.88,103.59.03v41.04H34.01v27.56s6.24-25.68,28.57-27.53v90.6c0,7.27-6.2,12.93-13.05,12.91h51.37c-6.85.02-13.05-5.63-13.05-12.91V41.12c6.57.57,11.73,3.21,15.75,6.64v42.88c0,7.27-6.2,12.93-13.05,12.91h51.37c-6.85.02-13.05-5.63-13.05-12.91v-42.8c4.06-3.49,9.29-6.18,15.97-6.73v90.6c0,7.27-6.2,12.93-13.05,12.91h51.37c-6.85.02-13.05-5.63-13.05-12.91V41.12c22.23,1.93,28.45,27.51,28.45,27.51v-27.56h-69.68V.05Z" class="cls-1"></path>
</svg>
