<svg xmlns="http://www.w3.org/2000/svg" viewBox="0 0 133.58 164.83"><title>アセット 1_top</title><g id="レイヤー_2" data-name="レイヤー 2"><g id="レイヤー_1-2" data-name="レイヤー 1"><path d="M81.31,77.46c.33.19.67.06,1,0a7.29,7.29,0,0,1,1-.09,13,13,0,0,0,4.39-.55c1.09-.31,2.15-.71,3.23-1.08.32-.11.63-.28,1-.4a3.22,3.22,0,0,1,3.68.84A10.43,10.43,0,0,0,98,78a14.36,14.36,0,0,1,1.57,1,3.7,3.7,0,0,1,1,4.83,1.56,1.56,0,0,1-1,.77c-1.19.35-2.37.72-3.57,1s-2.23.46-3.34.68c-.17,0-.34.08-.5.12-.73.17-.93.49-.62,1.17a8.43,8.43,0,0,0,.94,1.72,4.15,4.15,0,0,1,.67,3.63,20.72,20.72,0,0,1-2,5.42c-.6,1.13-1.3,2.2-1.95,3.3-.08.14-.15.3-.25.5.18.16.34.34.53.48,2.25,1.59,4.6,3,7,4.41,3.72,2.18,7.59,4.06,11.46,5.94,2.14,1,4.28,2.07,6.51,2.9a8.08,8.08,0,0,1,.85.37.53.53,0,0,1,.18.87,4.14,4.14,0,0,1-1,.74c-.73.38-1.5.7-2.25,1a49,49,0,0,1-6.08,2.3,29.59,29.59,0,0,1-5.35,1.12c-.72.08-1.45.13-2.16.26a4.74,4.74,0,0,1-3.87-1c-1.48-1.14-3-2.25-4.35-3.51-1.55-1.42-3.15-2.79-4.7-4.21-1.15-1-2.24-2.15-3.35-3.23-.15-.14-.32-.25-.48-.38a3.93,3.93,0,0,0-1,.74,23.28,23.28,0,0,1-6.88,3.93,16.64,16.64,0,0,1-7.72,1,18.27,18.27,0,0,1-5.56-1.5c-.12-.06-.25-.12-.36-.19a.44.44,0,0,1,.06-.81c.9-.45,1.81-.86,2.69-1.32a41.76,41.76,0,0,0,9.31-6.67c.63-.59,1.22-1.22,1.82-1.84a4.26,4.26,0,0,0,.45-.6c0-.46-.34-.66-.56-.92Q71,98.48,68,95c-.34-.39-.64-.81-1-1.26a1.47,1.47,0,0,0-.46.07,8.11,8.11,0,0,1-1.86.61L60,95.45c-.54.12-1.08.2-1.62.31a2.64,2.64,0,0,0-1.18.62,1.75,1.75,0,0,0-.68,1.34c0,.9,0,1.8,0,2.69a1.38,1.38,0,0,0,.17.59.6.6,0,0,0,.69.33,17.89,17.89,0,0,0,4.83-1.78c.82-.5,1.67-1,2.52-1.41a5.36,5.36,0,0,1,1-.39.66.66,0,0,1,.76.39,1.59,1.59,0,0,1,.07,1.1,9.75,9.75,0,0,1-3.09,5.26c-.6.51-1.25,1-1.87,1.48-1.32,1.1-2.66,2.18-4,3.32a48.24,48.24,0,0,1-4.23,3.32c-2.15,1.5-4.3,3-6.44,4.52a18.23,18.23,0,0,0-2.54,2.11,12.11,12.11,0,0,1-1.53,1.23,1.73,1.73,0,0,1-1.36.23,18.64,18.64,0,0,1-3-1,5.18,5.18,0,0,1-1.84-1.31c-1.53-1.49-3.09-3-4.63-4.44-.39-.39-.77-.79-1.13-1.21a4.51,4.51,0,0,1-.46-.68,1.44,1.44,0,0,1,1-2.18c.53-.13,1.09-.15,1.63-.26a14.29,14.29,0,0,0,1.59-.42,3.39,3.39,0,0,0,.82-.43,1,1,0,0,0,.48-1.14c-.14-.92-.21-1.85-.28-2.78a11,11,0,0,0-.7-3.22,28,28,0,0,1-1.32-5A10.39,10.39,0,0,0,32.13,93c-.29-.47-.57-.94-.88-1.4a2.74,2.74,0,0,1-.33-2.09.88.88,0,0,1,.54-.71c.59-.27,1.17-.58,1.78-.81.78-.28,1.58-.5,2.37-.73a5.47,5.47,0,0,1,.81-.13,3.85,3.85,0,0,1,2.38.52c1.4.75,2.77,1.53,4.1,2.4a10.56,10.56,0,0,1,1.82,1.52,1.78,1.78,0,0,1,.57,1.68c-.09.44-.1.89-.18,1.33a13.54,13.54,0,0,0-.15,3.3c.07,1.31.16,2.62.22,3.93a5.58,5.58,0,0,0,.29,1.62c.21.58.35,1.19.55,1.77a.71.71,0,0,0,.88.54l.1,0c1.53-.34,1.53-.29,1.51-1.77,0-2.11-.17-4.21-.34-6.3-.25-3-.49-6.05-.74-9.08-.06-.76-.12-1.51-.22-2.26a2.59,2.59,0,0,0-1.41-2c-1.35-.76-2.79-1.34-4.18-2a5.28,5.28,0,0,1-1-.56A17.6,17.6,0,0,1,38,79.33a2.8,2.8,0,0,1-.76-1.66c-.05-.51-.14-1-.15-1.54s.08-.68.66-.87l.29-.1a7,7,0,0,1,3.24-.48,6.8,6.8,0,0,0,2.15-.24c2.17-.51,4.34-1.07,6.52-1.57A27.5,27.5,0,0,0,54.79,71l1.89-.82a3.23,3.23,0,0,1,2.89.09c.89.45,1.79.89,2.7,1.3s1.64.73,2.48,1a5.23,5.23,0,0,1,2.32,2,1,1,0,0,1,.08,1.07,11.74,11.74,0,0,1-2.05,3,2.24,2.24,0,0,1-.58.43A21.2,21.2,0,0,1,61,80.68c-1,.3-2,.72-3,1.08a1.4,1.4,0,0,0-1,1.3c-.05.72-.11,1.44-.11,2.16s.23.83.81.86a9.91,9.91,0,0,0,1.54,0q3-.39,6-.82A7.2,7.2,0,0,0,66,85c.9-1.61,1.79-3.16,2.65-4.73a15.18,15.18,0,0,0,.84-1.78A10.07,10.07,0,0,0,70,76.6,17.32,17.32,0,0,0,70,69.72c-.11-.51-.21-1-.31-1.52a4.82,4.82,0,0,0-1.13-2.4c-.42-.44-.4-.53-.31-1.36l1.62-1.24c.19-.14.44-.26.54-.46a2.17,2.17,0,0,1,1.82-1,4,4,0,0,1,2.61.34,22.67,22.67,0,0,0,2.48,1,18.17,18.17,0,0,1,4.93,3,4.38,4.38,0,0,1,1,1.29q.58,1.1,1.26,2.13a2.86,2.86,0,0,1-.6,4.12,3.15,3.15,0,0,1-.41.31,5.23,5.23,0,0,0-2,2.55A1.15,1.15,0,0,0,81.31,77.46ZM72.4,90.05a7.93,7.93,0,0,0,.58.58c.77.63,1.55,1.26,2.34,1.87q2,1.59,4.11,3.13c.21.16.4.39.78.3.25-.4.54-.83.8-1.27.41-.72.87-1.41,1.21-2.16a3.83,3.83,0,0,0-.32-4.11,1.54,1.54,0,0,0-1.39-.73l-.41,0-6,.23c-.09,0-.19,0-.35.09A13.76,13.76,0,0,0,72.4,90.05Z"/><path d="M68.62,45.66c-.2.15-.4.28-.59.44l-9.11,7.48c-3.12,2.57-6.23,5.14-9.36,7.68C45.3,64.72,41,68.15,36.76,71.6l-6.82,5.55-.16.14a2.54,2.54,0,0,1-2.41.84L15.78,78,6.69,78c-.41,0-.81,0-1.18,0-.14-.3,0-.38.18-.47q1.9-1.33,3.82-2.66l10-6.93,10.72-7.42q5.48-3.81,11-7.62,9.45-6.61,18.88-13.25c2.26-1.59,4.48-3.22,6.73-4.82A5.09,5.09,0,0,1,68.09,34c.23.15.47.28.69.44L85.86,46.65l10.63,7.54q5.4,3.83,10.81,7.65c3.52,2.48,7.07,4.93,10.58,7.42,3.89,2.75,7.76,5.53,11.63,8.3.24.17.54.3.63.61-.09.22-.28.2-.44.2l-3.73,0c-5.9,0-11.8,0-17.7,0-.21,0-.42,0-.62,0a1.55,1.55,0,0,1-1.21-.44C103,75,99.6,72.1,96.19,69.19L81.34,56.47,69.21,46.13C69,46,68.84,45.83,68.62,45.66Z"/><path d="M97.4,127.2a4.6,4.6,0,0,1,2.14.58,3.24,3.24,0,0,0,1.87.3c1-.07,1.91-.26,2.87-.37s2.06-.52,3.11-.67c.78-.12,1.56-.21,2.34-.29a24.35,24.35,0,0,1,3.72-.2c1.34.07,2.68.17,4,.25l1.64.1c1.31.09,2.63.11,3.92.31a6.74,6.74,0,0,0,2.19-.06c.57-.43.72-1.43,1.92-1.39a1.31,1.31,0,0,0,.54.19,2.48,2.48,0,0,1,1.33.52,26.3,26.3,0,0,0,2.56,1.54,8.72,8.72,0,0,1,1.57,1.16,1.36,1.36,0,0,1,.28,1.61,4.29,4.29,0,0,0-.69,2.55,11,11,0,0,1-.25,2.14,19.78,19.78,0,0,0-.35,3.06c-.06.62-.14,1.24-.21,1.85s-.15,1.09-.22,1.64a1.64,1.64,0,0,1-.09.5,6.11,6.11,0,0,0-.19,3.36,5.73,5.73,0,0,1,.06,1.75,9.78,9.78,0,0,0,0,2,31.58,31.58,0,0,1,.07,3.51,11.63,11.63,0,0,0,.09,1.95,24.5,24.5,0,0,1,0,3.09c0,.38,0,.75-.07,1.13s0,.76,0,1.13a6.85,6.85,0,0,0,.11.91,2.05,2.05,0,0,1-.53,2c-.46.47-1,.78-1.49,1.25-.22.24-.58.15-.88,0l-1.14-.49a4.17,4.17,0,0,0-.77-.28c-1-.19-2-.34-2.94-.5a2.12,2.12,0,0,1-1.58-.17,1.94,1.94,0,0,0-.39-.12c-1.3-.08-2.61-.18-3.91-.23-1.14,0-2.27,0-3.41,0a2.56,2.56,0,0,1-.62,0,10.05,10.05,0,0,0-2.57,0c-.66,0-1.31.06-2,.1-.45,0-.89.1-1.33.15a5.81,5.81,0,0,1-.72.05,35.06,35.06,0,0,0-3.69.45c-1.19.53-2.54.55-3.7,1.21a1.17,1.17,0,0,1-1.42-.25c-.35-.32-.72-.63-1.08-.94a8.16,8.16,0,0,1-1.21-1.52,1,1,0,0,1,0-1.08c.25-.41.49-.83.77-1.22a2.4,2.4,0,0,0,.48-1.94,14.55,14.55,0,0,1,0-1.75c-.07-1.1-.18-2.19-.25-3.29,0-.72,0-1.44-.05-2.17s0-1.17,0-1.75c0-1,0-2.07-.07-3.11,0-1.2-.11-2.41-.16-3.61s-.13-2.69-.2-4a48.93,48.93,0,0,1-.18-5.68c.07-1.13.25-2.26.39-3.38a.69.69,0,0,1,.18-.36.56.56,0,0,0,.09-.67A.58.58,0,0,1,97.4,127.2Zm23.77,14.87a1.49,1.49,0,0,0-1.11-.64,19.26,19.26,0,0,0-3.39-.23c-.48,0-1-.08-1.44-.09a15.34,15.34,0,0,0-2.25.07,23.74,23.74,0,0,0-3.46.45.45.45,0,0,1-.2,0,4.32,4.32,0,0,0-2.26.54,1,1,0,0,0,1.1.24,8.76,8.76,0,0,1,2.65-.33c1.06,0,2.13-.05,3.19-.09.62,0,1.24-.09,1.86-.11s1.51,0,2.26,0a17.35,17.35,0,0,1,3.06.17c0,.31.29.36.48.5a10.89,10.89,0,0,1,2,1.8,2.52,2.52,0,0,1,.5,1.12.4.4,0,0,1-.24.51c-.53.13-.64.59-.81,1a2.2,2.2,0,0,0-.12,1.22c0,.05.08.1.15.18l.59-.3c.09.05.17.07.2.12.45.78.89,1.55,1.32,2.34a.76.76,0,0,1,.1.39,6.3,6.3,0,0,1-.14,2l-2.1,1.14c.2.12.34.27.46.25a5.71,5.71,0,0,0,1-.26,5.86,5.86,0,0,1-2,3c.19.17.25.34.07.47s-.62.4-1,.61c.26.32.59.24.88.26.72.06,1.44.09,2.16.16a2.53,2.53,0,0,0,1.21-.22c0-1.3,0-2.58,0-3.85q0-3,0-6a5.62,5.62,0,0,0-.08-1.23,6.08,6.08,0,0,1,0-1.95c0-.41.11-.82.12-1.24.06-1.48,0-3,.19-4.44a8.85,8.85,0,0,0,0-1,28.7,28.7,0,0,1,.14-3.71,9.88,9.88,0,0,0,0-2c0-.43-.17-.55-.56-.61q-1.23-.18-2.46-.33c-.37,0-.75,0-1.13-.07-.82-.07-1.64-.17-2.47-.22a3.33,3.33,0,0,0-1.28.08l-.08.74c.13.08.18.14.24.14l4.45.29c.3.46.8.84.7,1.4-.46.42-.85.75-1.21,1.12a1.42,1.42,0,0,1-1.49.47,3.85,3.85,0,0,0-2.1-.12c-.28.07-.62-.09-.92.16a4.51,4.51,0,0,0-.06,1.47l1,.13a8.91,8.91,0,0,0,2.87,0c.87-.1,1.8-.49,2.68.1.14.09.43,0,.63-.06.18.38-.14.57-.17.83a2.13,2.13,0,0,1-.8,1.34,11.47,11.47,0,0,0-.83,1,.94.94,0,0,1-.34,1.44A4.24,4.24,0,0,0,121.17,142.07Zm-8.12-10.51a5.37,5.37,0,0,0-.84,0l-3.06.5a7.11,7.11,0,0,1-1,.13,2.76,2.76,0,0,0-1.5.37,4,4,0,0,0-1-.21,4.81,4.81,0,0,0-1.89.49,1.17,1.17,0,0,0-.47.51,3.41,3.41,0,0,0-.37,1,15.09,15.09,0,0,0-.37,2.65c0,2.59.14,5.17.22,7.75,0,.8.1,1.59.11,2.38,0,1.9,0,3.79,0,5.69s.12,3.65.18,5.48a2.43,2.43,0,0,0,.1.41l2.8-.23,2.78-.23-.39-3a3.2,3.2,0,0,0-1.69.34,2.43,2.43,0,0,1-.68.21,2.38,2.38,0,0,0-1.06.38c-.65.35-.65.34-1.36,0a2.27,2.27,0,0,1-.25-.18c-.09-.69-.1-.71.27-1s.89-.66,1.35-1c.81-.53,1.62-1,2.44-1.56a5.42,5.42,0,0,0,1.21-1.14c-.29-.27-.51-.62-.8-.7-.5-.14-.58-.52-.74-.89-.09-.22-.13-.47-.24-.68a3.83,3.83,0,0,1-.4-1.7c0-.58,0-1.17,0-1.75s0-1-.08-1.55a1.66,1.66,0,0,1,.19-1.09,1.82,1.82,0,0,0,.12-.55c-.59.32-1.07.57-1.54.85a.86.86,0,0,1-1-.07,1.26,1.26,0,0,1-.59-.82,4.51,4.51,0,0,1-.1-2.25,1.44,1.44,0,0,0,.07-.5,2.52,2.52,0,0,1,.34-1.47c.24.29.56,0,.74.07a1.14,1.14,0,0,0,.78.11c.92-.12,1.84-.22,2.77-.29,1.43-.11,2.84-.4,4.29-.62v-.77l-.66,0h-2.9a3.73,3.73,0,0,1-.82-.06,1.47,1.47,0,0,0-1.38.09.92.92,0,0,1-.5.05c-.31,0-.61-.09-1-.15l-.47-1.08c.24-.48.48-.91.66-1.35a1.3,1.3,0,0,1,1.13-.78c.85-.12,1.72-.15,2.57-.21l3.77-.28Zm-.82,21.69c-.27.42-.13.8-.14,1.16s0,.82,0,1.23,0,.76,0,1.13-.09.79-.14,1.18a23.08,23.08,0,0,0,5.51-.08Zm-1.39-5.49c.39,0,.66,0,.92,0,.83,0,1.65-.09,2.47-.1s1.93,0,2.89,0a3.23,3.23,0,0,0,.6-.09,4.52,4.52,0,0,0,0-2c-.46,0-.87,0-1.28,0s-.95.12-1.43.13c-1.1,0-2.2,0-3.29,0-.38,0-.77,0-1.06.37Zm5.48,4.76c.25-.14.43-.34.59-.33.83.06,1.39-.48,2-.83.08,0,.1-.19.17-.32a22.78,22.78,0,0,0-4,.11,1.18,1.18,0,0,0-.2,0,.16.16,0,0,0-.08.06l0,.14a2.63,2.63,0,0,0,.33.34C115.51,152,115.89,152.23,116.32,152.52Zm1.77,1a8.37,8.37,0,0,0,4.54.4c-.29-.82-1-.88-1.69-.86a14.85,14.85,0,0,1-1.64,0A1.37,1.37,0,0,0,118.09,153.54Z"/><path d="M55,155.87a12.91,12.91,0,0,0,1.36.07c.73,0,1.45-.09,2.17-.15.53,0,.75-.23.85-.73a2.52,2.52,0,0,0,0-.82,23.59,23.59,0,0,1,0-5.57c.08-.86.09-1.72.14-2.58.06-1.21.09-2.41.21-3.61a8.71,8.71,0,0,1,.76-2.88,12.18,12.18,0,0,0,.71-1.94c.17-.63.43-1.24.64-1.86a18,18,0,0,0,.78-3.62,3,3,0,0,0-.73-2.19c-.35-.47-.73-.91-1.13-1.42a1.12,1.12,0,0,1,.68-.54.63.63,0,0,0,.28-.11,1.67,1.67,0,0,1,1.36-.34,3.41,3.41,0,0,0,1.81-.21,2.09,2.09,0,0,1,1.81,0,6.24,6.24,0,0,1,1.46.9A3.62,3.62,0,0,1,69.15,130a2.18,2.18,0,0,0,.57,1,3.57,3.57,0,0,1,.38.49,2.37,2.37,0,0,1,.28,2.62,8.48,8.48,0,0,1-.9,1.84.61.61,0,0,0-.09.18l-1.25,3a2.15,2.15,0,0,0,.25.36c1,1,1.86,2,2.76,3.07a4.26,4.26,0,0,1,.57,1,14.29,14.29,0,0,1,1,4.11c.25,2,.41,4.11.6,6.17,0,.41,0,.82,0,1.15a1,1,0,0,0,.93.32l1.23,0a.91.91,0,0,1,.93.47c1.06-.17,1.33-.4,1.52-1.38a12.9,12.9,0,0,0,.21-1.64,37.19,37.19,0,0,0,.2-5.17c-.06-.92-.13-1.85-.27-2.77a30.28,30.28,0,0,1-.27-4.85,5.21,5.21,0,0,0-.21-1.52c-.14-.46-.17-.95-.32-1.41a10.4,10.4,0,0,0-.68-1.7,1.5,1.5,0,0,1,.22-2,3.84,3.84,0,0,1,.34-.29c.82.33,1.65.61,2.46,1a2,2,0,0,0,.49.13,5.93,5.93,0,0,1,3.13,1.46c.63.57,1.36,1.05,2,1.58.27.21.52.45.8.65a2.51,2.51,0,0,1,.77,1.5.5.5,0,0,1-.2.54c-.18.16-.33.35-.5.51-.48.42-.91.86-.72,1.58-.28.91-.36,1.88-.72,2.78a3.66,3.66,0,0,0-.19,1.51c0,1.13.27,2.25.34,3.38a6.35,6.35,0,0,1,0,1.23,6.46,6.46,0,0,0,0,1.64,2.75,2.75,0,0,1,0,.81,5.33,5.33,0,0,0-.09,1.13,18.93,18.93,0,0,1-.17,3.28,13.36,13.36,0,0,0,.43,4.88.72.72,0,0,1-.33,1,4.37,4.37,0,0,1-1.36.86c-.21,0-.38.29-.6.47-.06,0-.24-.18-.36-.14-.52.16-.76-.17-1-.5a.22.22,0,0,1-.05-.08,1.21,1.21,0,0,0-1.35-.73,2.81,2.81,0,0,1-1.7-.29,5.4,5.4,0,0,0-1.69-.4.17.17,0,0,0-.1,0c-.7.26-1.35-.09-2-.16-.25,0-.48-.24-.77-.08a.46.46,0,0,1-.37-.11A1.66,1.66,0,0,0,72,162c-1.35.07-2.67-.27-4-.32a25.45,25.45,0,0,0-3.6,0,2.26,2.26,0,0,1-.52,0,20.3,20.3,0,0,0-2.34,0,17.84,17.84,0,0,0-3.27.42c-.1,0-.24,0-.3.07a2.25,2.25,0,0,1-1.67.36,4.22,4.22,0,0,0-2.65.89c-.07,0-.2.12-.27.09a3.17,3.17,0,0,0-1.3.06,11.14,11.14,0,0,0-1.15.39,5.63,5.63,0,0,1-1,0,.66.66,0,0,1-.68-.5.53.53,0,0,0-.26-.29,1.55,1.55,0,0,1-.83-1.22c-.15-.81-.33-1.61-.49-2.42a2,2,0,0,1,.38-1.47,5.45,5.45,0,0,1,.67-1,1.85,1.85,0,0,0,.46-1.41,27.52,27.52,0,0,0-.29-3.39,69.2,69.2,0,0,1-.65-6.89,26.2,26.2,0,0,1,.78-7.27,15.77,15.77,0,0,0,.4-3.49c0-.51,0-1,0-1.54l1.43-.43A18.89,18.89,0,0,1,54.25,134a7.91,7.91,0,0,1,2.64,2.27,2,2,0,0,1,0,2.59,2.66,2.66,0,0,1-.53.47c-.15.13-.38.23-.44.4a19.29,19.29,0,0,0-1.35,3.45c0,.1-.07.2-.08.3a30.87,30.87,0,0,0-.3,5.35,16.49,16.49,0,0,1,0,1.86,9.14,9.14,0,0,0,.18,2C54.64,153.69,54.77,154.72,55,155.87Zm12.51-.72a18.05,18.05,0,0,0,0-3.53c-.21-1.82-.51-3.62-.8-5.42-.09-.57-.26-1.13-.41-1.72-.12.08-.21.1-.22.15a41.67,41.67,0,0,0-1.25,9.81,5.39,5.39,0,0,0,.08.75c.39.24.76.09,1.07.19A2,2,0,0,0,67.48,155.15Z"/><path d="M14.22,155.81v-1a6.08,6.08,0,0,1,2.37,0,2,2,0,0,0,.16-.57c0-1.41.24-2.81.14-4.23s-.06-2.88-.11-4.32-.15-2.89-.18-4.34c0-2.1,0-4.21,0-6.31a14.81,14.81,0,0,0-.45-3.26,1.27,1.27,0,0,0-.36-.61,2.84,2.84,0,0,1-.63-1.17c-.14-.46-.3-.9-.46-1.38l.54-.33-.1-.5c0-.06.08-.13.13-.15.86-.35,1.72-.67,2.56-1a1.19,1.19,0,0,1,1,0c.78.27,1.57.49,2.35.78a8.48,8.48,0,0,1,1.68.76,19.32,19.32,0,0,1,4.16,3c.05.06.11.09.15.15a8.86,8.86,0,0,1,.92,1.48,4.55,4.55,0,0,1,.11,1.36l-.64.35c-.39.21-.8.41-1.17.65a1.4,1.4,0,0,0-.47.53,2.84,2.84,0,0,1-.57,1.17c-.15.13.13.44-.11.65s.17.76-.29,1c-.11.39-.24.78-.35,1.18s-.19.71-.25,1.08a2.35,2.35,0,0,0,0,.59,3.06,3.06,0,0,1-.07,1.41c-.2.51-.06,1.1-.43,1.57-.07.09,0,.27,0,.4,0,1.93-.09,3.86-.08,5.79,0,1.66.11,3.31.17,5,0,.72.08,1.45.11,2.17a10.19,10.19,0,0,1-.67,3.94,2.25,2.25,0,0,1-.75,1.07,3,3,0,0,0-1,1.55,2.44,2.44,0,0,1-2.5-1,2.83,2.83,0,0,1-.69-1.58,1.48,1.48,0,0,0-.16-.49,9.8,9.8,0,0,0-2-3A11.63,11.63,0,0,1,14.22,155.81Z"/><path d="M16.15,22.69a8.84,8.84,0,0,0-.36-2,9.15,9.15,0,0,0-2.35.19,12.75,12.75,0,0,1-3.59.49c-.35,0-.74.09-1-.22a2.72,2.72,0,0,1-.67-1.07A11,11,0,0,1,8,17.87,1.73,1.73,0,0,1,9.32,16.5a25.72,25.72,0,0,1,3-.39c1.91-.11,3.83-.13,5.75-.21,1.32-.05,2.65-.16,4-.23.27,0,.55,0,.82,0a2.53,2.53,0,0,1,2.56,1.48,2.22,2.22,0,0,1-.34,2.39,4.13,4.13,0,0,1-3.24,1c-.42,0-.84,0-1.31,0-.09.48.16.82.21,1.19s.13.69.21,1.08a6.1,6.1,0,0,0,.69.08,9.18,9.18,0,0,1,2.56.22h.11a86.85,86.85,0,0,0,9.93.67l2.46-.1a3.94,3.94,0,0,1,.52,0c.35.54.09,1.07.27,1.61l-1,.91c-.17.16-.33.33-.48.5a6.42,6.42,0,0,1-2.07,1.7c-.14.07-.28.2-.42.19a4.7,4.7,0,0,0-2.36.94c-.35.18-.66.42-1,.58a1.47,1.47,0,0,1-2-.54c-.17-.22-.3-.47-.48-.67a2,2,0,0,0-.61-.51c-.66-.25-1.34-.44-2-.64a1.41,1.41,0,0,0-.57-.08,8.83,8.83,0,0,1-2.86,0c-.07.76-.14,1.46-.22,2.15A23.76,23.76,0,0,1,21,32.54a5.05,5.05,0,0,1-1.85,3,12.29,12.29,0,0,1-3,1.56c-1.25.52-2.58.64-3.84,1.07a4,4,0,0,1-1.49,0c-.39,0-.77-.13-1.16-.15s-.67,0-.88-.44c-.09-.17-.38-.24-.59-.34-.56-.26-1.11-.54-1.67-.77a3.38,3.38,0,0,1-1.63-1.62.71.71,0,0,1,.19-1c.23-.21.48-.39.76-.62a6.78,6.78,0,0,1,2.28.11,5.37,5.37,0,0,0,2.67,0,9.6,9.6,0,0,0,1.53-.54,18.92,18.92,0,0,0,2.3-1.14,2.4,2.4,0,0,0,.88-1.06,6.14,6.14,0,0,0,.54-3c-.34,0-.64,0-.93.05s-.54.08-.81.13c-1.26.27-2.52.56-3.78.79a4.23,4.23,0,0,1-1.28,0,3.55,3.55,0,0,0-2.92,1.22,1.49,1.49,0,0,1-1.08.58,1.17,1.17,0,0,0-.89.46,1.25,1.25,0,0,1-1.93-.15,4.48,4.48,0,0,1-.81-2.53c0-.63,0-1.25,0-1.88,0-1,.69-1.4,1.36-1.85a10.91,10.91,0,0,1,1-.56c.75.42.76.44,1.53.3s1.31-.25,2-.41A35.17,35.17,0,0,1,13.09,23C14.1,22.91,15.11,22.79,16.15,22.69Z"/><path d="M27.48,13.06a20.91,20.91,0,0,1-6.28-.16,20.6,20.6,0,0,0-4.9,0c-1.86.24-3.71.51-5.56.76a9.1,9.1,0,0,0-2.7.78,8.23,8.23,0,0,1-1,.37,4.23,4.23,0,0,0-1.42.76c-.08.92-.15,1.81-.22,2.71a2.89,2.89,0,0,1-.08.58c-.15.48-.27,1-.87,1.15a1.71,1.71,0,0,1-1.73-.38A6.32,6.32,0,0,1,.67,16.75,13.29,13.29,0,0,1,.19,14c0-1.37.1-2.74.13-4.1a1.07,1.07,0,0,1,.48-1c.36-.18.22-.55.43-.8.79-.16,1,.71,1.62.89,1.36-.35,2.67-.73,4-1A35.2,35.2,0,0,1,12,7.33c.89-.06,1.79-.16,2.69-.25a2.12,2.12,0,0,0,.4-.1c0-.12.12-.2.1-.26a38.25,38.25,0,0,1-.51-3.83,1.41,1.41,0,0,1,.71-1.67,1.34,1.34,0,0,0,.38-.43,2.36,2.36,0,0,1,1-.79,2.57,2.57,0,0,1,1.52,1,6.16,6.16,0,0,0,1.48,1.31,4.27,4.27,0,0,1,1.7,2,2,2,0,0,1-.29,2.19c-.07.08-.14.18-.2.26,0,.26.26.32.43.35a10.39,10.39,0,0,0,2.78.29,4.76,4.76,0,0,1,1.63.13,9.89,9.89,0,0,0,2,.31,3.56,3.56,0,0,0,1.14-.2c.26-.07.5-.2.76-.29a.76.76,0,0,1,.77.16l2.22,1.71a5.3,5.3,0,0,1,1.24,1.39A1.24,1.24,0,0,1,34,11.8c-.22.62-.43,1.25-.6,1.89a3.13,3.13,0,0,0-.06.92c.05.55.15,1.09.2,1.63a4.44,4.44,0,0,1-.47,2.83,3.92,3.92,0,0,1-1.19,1.27A1.6,1.6,0,0,1,29.54,20a6.24,6.24,0,0,1-1.1-2.31,15.38,15.38,0,0,1-.55-3,4.31,4.31,0,0,0-.41-1.59Z"/><path d="M43,149.1c.09.42.11.7-.25.89a1.73,1.73,0,0,0-.84,1.12,23.05,23.05,0,0,0-.93,3.17,3,3,0,0,1-1.23,2.06,4.51,4.51,0,0,0-.84.9,1.93,1.93,0,0,1-1.51.77,1.37,1.37,0,0,1-.78-.21A11.06,11.06,0,0,1,32,151.92a19.38,19.38,0,0,1-.68-3.13,50.07,50.07,0,0,1-.62-7.93c0-.48,0-1,0-1.45a4,4,0,0,0-.42-2,8.53,8.53,0,0,1-.34-1l1.2-.58c.63.15,1.34.3,2,.5a9.71,9.71,0,0,1,2.58,1.28,3.83,3.83,0,0,1,.74.71,1.91,1.91,0,0,1,.47,1.51c-.07.76-.28,1.49-.33,2.24a5.56,5.56,0,0,0,0,.82c0,.68.08,1.37.14,2.06a4.15,4.15,0,0,0,.65,1.94,5.53,5.53,0,0,0,2.41,2.18c.32.14.6.35,1,.14.07,0,.2,0,.3,0a2.81,2.81,0,0,0,1.52-.11A2,2,0,0,1,43,149.1Z"/><path d="M.45,149.66l.5.64a2.2,2.2,0,0,0,2.41-1.82,40.24,40.24,0,0,0,1.17-4.6,18.91,18.91,0,0,0,.1-5.15,10.11,10.11,0,0,0-.26-1.31l-.25-1.24a2.08,2.08,0,0,1,1.44.11,11.93,11.93,0,0,1,3.28,2.26,7.7,7.7,0,0,1,2,2.47,2.81,2.81,0,0,1,.31,1.59c-.08.58-.14,1.16-.21,1.74-.13,1-.28,2.05-.39,3.07a25.39,25.39,0,0,1-1.19,4.47A14.7,14.7,0,0,1,8,154.77c-.12.21-.25.41-.37.61a2.28,2.28,0,0,1-1.08,1.17,3.62,3.62,0,0,0-.95.77,1.42,1.42,0,0,1-1.89.09,3.76,3.76,0,0,1-1.45-1.56,23,23,0,0,1-1.45-3.74,1.22,1.22,0,0,0-.37-.59.94.94,0,0,1-.2-1.37C.28,150,.32,149.91.45,149.66Z"/><path d="M127.13,37.45a11.65,11.65,0,0,1-1.26-.09,26.14,26.14,0,0,0-5.59-.34,9.11,9.11,0,0,1-3.21,0,2.55,2.55,0,0,0-.72,0c-1.31,0-2.62.15-3.93.07a5.59,5.59,0,0,0-1.33.24c-.23-.15-.48-.34-.75-.51a1.83,1.83,0,0,1-.93-1.8,11.44,11.44,0,0,0-.16-2.74c-.15-1.3-.09-2.63-.14-4,0-.84-.1-1.67-.15-2.52a2,2,0,0,1-1.09-1.33c-.38.26-.65.48-.46,1a1.16,1.16,0,0,1,0,.69c-.19.65-.42,1.28-.64,1.92,0,.11-.14.25-.11.33.26.68-.15,1.21-.35,1.8a1.93,1.93,0,0,0,0,.75c-.59,1.09-1.1,2-1.62,3-.19.35-.43.67-.65,1a6.4,6.4,0,0,0-1.17,2.33,1.39,1.39,0,0,1-2.31.83A5.9,5.9,0,0,1,99,36.28a28.92,28.92,0,0,1-1.44-2.76,5,5,0,0,1-.35-1.63,1.06,1.06,0,0,1,1.54-1,5,5,0,0,1,.48.23c.25-.16.53-.31.78-.5a42.16,42.16,0,0,0,4.65-3.78c.76-.77,1.59-1.45,2.31-2.26a3.28,3.28,0,0,0,.9-1.31,1.34,1.34,0,0,1,1-.94,2.66,2.66,0,0,1,2-.18,1.62,1.62,0,0,0,.82,0,34.81,34.81,0,0,1,5.86-.35c2.28,0,4.56.05,6.84.06a10.06,10.06,0,0,0,1.9-.13,1.87,1.87,0,0,1,1.67.43c.45.39,1,.72,1.44,1.08a5.57,5.57,0,0,1,1.6,1.91,1.94,1.94,0,0,1,.07,1.74,15.74,15.74,0,0,0-1,4.42,27,27,0,0,1-.55,2.82,2,2,0,0,1-.73,1.2,2.54,2.54,0,0,0-.73.93C127.76,36.63,127.46,37,127.13,37.45Zm-13-6.45a16.43,16.43,0,0,0,1.67.19c1.48,0,3,0,4.43,0,1,0,1.91.1,2.87.13.3,0,.61,0,1,0a18.19,18.19,0,0,0-.21-3.86c-.14-.59-.33-.72-.92-.7-1.71,0-3.43,0-5.14.08-1,0-1.92.08-2.87.14a2.81,2.81,0,0,0-.7.14.54.54,0,0,0-.44.62C113.87,28.75,114,29.78,114.08,31Z"/><path d="M115.83,1.7c.56,0,1.12-.05,1.68-.1a1.29,1.29,0,0,1,1.08.4c.58.55,1.22,1,1.75,1.63a4.16,4.16,0,0,1,1.39,2.83,1.25,1.25,0,0,1-.81,1.33,2.29,2.29,0,0,0-1,.86c-.37.46-.62,1-1.23,1.27-.13.05-.23.22-.31.36a11.66,11.66,0,0,1-1.56,2.26,1.56,1.56,0,0,0-.15.41c.26.31.55.2.81.19,1.08-.07,2.15-.2,3.23-.23,1.28,0,2.56,0,3.84,0h.67a3.79,3.79,0,0,0-.05-.86,7.5,7.5,0,0,0-1.38-3.15,3.56,3.56,0,0,1-.45-.84,1.45,1.45,0,0,1,0-.4A3.76,3.76,0,0,1,126.58,7a.94.94,0,0,1,.44.18,7.46,7.46,0,0,1,3.11,3.39,39,39,0,0,1,1.64,5.39,4.76,4.76,0,0,1-.09,2.29,9.35,9.35,0,0,1-1.44.69,2.67,2.67,0,0,1-2.09-.11c-.6-.33-1.16-.71-1.82-1.12a41.25,41.25,0,0,1-5.16.3,13.25,13.25,0,0,0-1.66.23,38.26,38.26,0,0,0-4,.52,23,23,0,0,0-4.18,1,2,2,0,0,1-1.73-.12,1.6,1.6,0,0,1-1.08-1.45c0-.59-.18-1.18-.26-1.77a2.15,2.15,0,0,1,0-.84,1.4,1.4,0,0,1,1.19-1.18.71.71,0,0,0,.68-.58,6.69,6.69,0,0,1,1.25-2.43,41.11,41.11,0,0,0,2.34-4.46c.41-.78.76-1.59,1.15-2.38a1.58,1.58,0,0,0,.25-1.14A1.44,1.44,0,0,1,115.83,1.7Z"/><path d="M105.41,16.58a10.69,10.69,0,0,1,.46,2.77c-.18.44-.64.77-.68,1.33a1,1,0,0,1-.41.57c-.61.45-1.21.92-1.86,1.31-.89.52-1.83,1-2.73,1.47a2.34,2.34,0,0,0-.56.61,1.18,1.18,0,0,1-2,.09,6.47,6.47,0,0,1-1.53-4.42,9.58,9.58,0,0,1,.05-1.07,1.43,1.43,0,0,1,1.48-1.38c1-.1,2-.23,3-.41s1.94-.46,2.92-.65C104.11,16.68,104.75,16.65,105.41,16.58Z"/><path d="M101.26,4.75a1.64,1.64,0,0,0,1.32,1c1,.26,2.08.54,3.11.84a7.52,7.52,0,0,1,1.1.46,1.4,1.4,0,0,1,.71.78,3.07,3.07,0,0,1-.86,2.91,1.27,1.27,0,0,1-.53.27,17.73,17.73,0,0,1-3.77.51l-1-.06-2.14-.18c-.28,0-.57,0-.84-.05A1.5,1.5,0,0,1,97,9.76,6,6,0,0,1,97.86,6a2.71,2.71,0,0,1,2.33-1.23A9.55,9.55,0,0,1,101.26,4.75Z"/></g></g></svg>